<svg id="Layer_1" data-name="Layer 1" xmlns="http://www.w3.org/2000/svg" width="113.31mm" height="179.03mm" viewBox="0 0 321.19 507.49">
  <title>k-1</title>
  <g>
    <path d="M1,253.7Q1,364.39,1,475.08c0,11.37,4,20.35,13.17,26.67a26.85,26.85,0,0,0,15.59,4.74H79.55q105.59,0,211.16,0c12.62,0,22-6,27-18,1.77-4.21,2.31-9.26,2.31-13.93q.21-126.25.1-252.51c0-63.31-.12-126.62.08-189.93.05-15.87-9.91-27.34-22-30.22A38.55,38.55,0,0,0,289.29,1q-129-.08-258,0C13,1,1.05,13.37,1.05,32.32Q1,143,1,253.7Zm318.18-.12q0,111.15,0,222.31c0,17.13-11.86,29.5-28.3,29.5q-130.34,0-260.66,0c-16.45,0-28.31-12.39-28.31-29.5q0-222.15,0-444.32c0-17.12,11.88-29.51,28.3-29.51q130.34,0,260.66,0a26.76,26.76,0,0,1,5.37.38c14,2.83,22.94,14.19,22.94,29.12Q319.24,142.57,319.22,253.58Z" style="fill: #fff;stroke: #231f20;stroke-miterlimit: 10;stroke-width: 2px"/>
    <path d="M319.22,253.58q0-111,0-222c0-14.93-8.95-26.29-22.94-29.12a26.76,26.76,0,0,0-5.37-.38q-130.32,0-260.66,0c-16.42,0-28.3,12.39-28.3,29.51q0,222.17,0,444.32c0,17.11,11.86,29.5,28.31,29.5q130.32,0,260.66,0c16.44,0,28.3-12.37,28.3-29.5Q319.24,364.74,319.22,253.58Z" style="fill: #fff;stroke: #231f20;stroke-miterlimit: 10;stroke-width: 2px"/>
  </g>
  <text transform="translate(15.49 61.45)" style="font-size: 72px;fill: #231f20;font-family: LumberjackRough, Lumberjack;letter-spacing: -0.03999159071180555em">A</text>
  <path d="M33.69,82.73c-.85-1-1.7-1.92-2.36-2.91-2.94-4.39-1.94-8.52,1.94-11.63,2.89-2.33,7.26-2.38,10.74.64s3.62,7.17,1.28,10.9c-.69,1.1-1.55,2.09-2.44,3.26,2.35-1.36,4.75-2.18,7.39-1.49A9.2,9.2,0,0,1,56,86.17,7.38,7.38,0,0,1,54.2,95a8.71,8.71,0,0,1-7.4,2.17,9.8,9.8,0,0,1-6.26-4.47l-.23.14c.46,1.68.86,3.38,1.41,5s1.26,3.27,1.92,5H32.93c1.36-3.48,3.1-6.8,3.71-10.48l-.21-.11c-.2.28-.39.57-.6.84C34,95.31,32,97.2,28.91,97.49A8.57,8.57,0,0,1,20.05,91c-.79-3.45.66-6.11,3.28-8.26s5.39-2,8.34-.93C32.32,82.06,32.94,82.39,33.69,82.73Z"/>
  <g>
    <path d="M193.26,187.64c-4.28,8.85-8.2,17-12.21,25.18q-8.87,18-17.86,35.87c-.26.53-1,1.21-1.43,1.19a2.58,2.58,0,0,1-1.9-1c-2.38-4.65-4.62-9.35-6.92-14-3.07-6.23-6.17-12.44-9.22-18.68-3-6.08-5.88-12.2-8.89-18.26-1.63-3.28-3.44-6.48-5.29-10a86,86,0,0,0-17.48,11.37,2.08,2.08,0,0,0-.49,1.92c1.52,3.35,3.19,6.63,4.84,9.92,5.75,11.5,11.55,23,17.28,34.48,4.32,8.67,8.67,17.34,12.79,26.1,1,2.14,3.2,4.19,1.93,6.92-1.63,3.49-3.39,6.91-5.1,10.34q-5.52,11-11.05,22.08c-3.1,6.21-6.16,12.43-9.24,18.63-2.83,5.68-5.7,11.34-8.5,17-3.06,6.23-6,12.5-9.1,18.73-2.92,5.91-6,11.74-8.84,17.7-1.64,3.44,0,6.89,3.65,8.46,2.64,1.15,5.26,2.36,7.83,3.64,3.79,1.89,6.37,1.31,8.4-2.2,1.33-2.3,2.48-4.7,3.64-7.08,3.52-7.23,6.94-14.51,10.52-21.71,4.57-9.21,9.34-18.33,13.89-27.55,5.13-10.38,10.09-20.83,15.19-31.22a2.72,2.72,0,0,1,1.86-1.42c.58,0,1.38.86,1.71,1.52,2.6,5.12,5.12,10.28,7.65,15.44,3,6.15,6,12.32,9,18.46,3,6,6,11.92,9,17.9s5.86,11.85,8.77,17.78,5.67,11.9,8.76,17.72c2,3.81,4.75,4.31,8.79,2.26,2.48-1.27,5-2.46,7.57-3.58,3.55-1.54,5.15-5,3.51-8.51-2.73-5.82-5.63-11.55-8.5-17.31-3.58-7.21-7.24-14.38-10.79-21.61-3.49-7.06-6.85-14.19-10.33-21.25-3.64-7.39-7.38-14.72-11-22.09-2.93-5.9-5.63-11.91-8.8-17.69-1.94-3.53-3.68-6.77-.86-10.57a16,16,0,0,0,1.37-2.47c3.58-7.32,7.13-14.66,10.73-22,4.09-8.29,8.23-16.55,12.34-24.83,3.58-7.22,7.21-14.43,10.67-21.71a2.91,2.91,0,0,0-.67-2.69,79.81,79.81,0,0,0-7.4-5.33C200,191.57,196.83,189.77,193.26,187.64ZM56.8,156.77c-5.73,0-11.46.06-17.19,0-2,0-2.83.61-2.38,2.54,1.06,4.65,1.89,9.37,3.28,13.93a122.73,122.73,0,0,0,5.61,15.37,136.36,136.36,0,0,0,9.39,17.77c4.58,7.05,9.81,13.71,15,20.35,2.11,2.7,2.63,2.48,4.73-.12.82-1,1.55-2.07,2.37-3.08,6.15-7.58,11.95-15.48,18.57-22.65,10.58-11.48,23.78-19.5,38.21-25.73,2.9-1.25,4.28-2.48,3.06-4.94-4.28-8.6-8.38-17.27-12.58-25.9-1.61-3.31-2.77-3.67-5.79-2.31-8.17,3.69-16.08,7.93-24.84,10.33-8.56,2.34-17.15,4.31-26.07,4.46C64.39,156.83,60.59,156.77,56.8,156.77Zm228.73,2.7c.05-2.66,0-2.62-2.34-2.7-13.77-.51-27.65,1.53-41.32-1.58-5.28-1.2-10.77-1.8-15.8-3.65-7.75-2.85-15.22-6.45-22.72-9.93-1.87-.87-3-.69-3.94.92-1.38,2.46-2.64,5-3.89,7.51-3.15,6.38-6.35,12.73-9.36,19.17-1.52,3.24-.52,4.54,2.8,6.17,6.62,3.25,13.31,6.45,19.56,10.3,15.48,9.53,26.18,23.61,36.78,37.75,4.74,6.32,3.6,6.62,9.28.28a121.35,121.35,0,0,0,17.35-26.18c2.72-5.32,4.91-10.91,7.15-16.45,1.62-4,3.06-8.15,4.31-12.3C284.37,165.51,284.93,162.12,285.53,159.47Zm19.93-2.8v0c-2.56,0-5.13-.14-7.66.08a3.18,3.18,0,0,0-2.35,1.63c-1.56,5.77-2.69,11.66-4.4,17.38a126,126,0,0,1-5.68,15.65c-2.73,6.09-5.87,12-9.12,17.88a109,109,0,0,1-18.85,25.2c-1.68,1.64-1.54,2.82-.29,4.39,3.06,3.86,6.22,7.66,9.09,11.65,1.38,1.91,2.3,1.8,3.89.33a104.18,104.18,0,0,0,17-20.54c4.46-7,8.59-14.27,12.51-21.6a127.53,127.53,0,0,0,6.94-15.42,162.59,162.59,0,0,0,5.5-17.58c1.37-5.46,2.08-11.08,3.11-16.63.38-2.05-.66-2.54-2.52-2.47C310.22,156.74,307.84,156.67,305.46,156.67Zm-288,0v-.05c-2.47,0-4.94.07-7.4,0-1.83-.08-2.46.45-2.33,2.36a82.49,82.49,0,0,0,4.73,22.28c2.86,7.87,5.41,15.88,8.92,23.47,4.93,10.66,10.59,21,17.86,30.39,4.33,5.58,9.29,10.69,14,16,1.08,1.24,2,1.42,3.14-.07,3.08-4.06,6.27-8,9.41-12a2.52,2.52,0,0,0-.29-3.85c-8.23-8-14.62-17.29-20.19-27.1S34.56,188,31.6,176.93q-2.45-9.17-4.47-18.42c-.32-1.46-.88-1.85-2.24-1.82C22.43,156.74,20,156.71,17.49,156.71Zm87.71-18.2c-.85-1.9-1.39-3.24-2-4.52a25.59,25.59,0,0,0-2.15-3.78,5.89,5.89,0,0,0-7.22-2.07c-3.41,1.49-6.78,3.13-10,4.93s-3.46,5.88-.5,10.77c1.49,2.47,3.67.72,5.55.07.41-.14.84-.25,1.25-.39ZM217.81,138c1.8.8,3.26,1.58,4.8,2.12,3.86,1.33,7.8,2.45,11.63,3.86,4.29,1.58,4.95,1.42,6.75-2.54s.63-7.11-3.33-9.07c-2.63-1.3-5.24-2.67-7.87-4a6,6,0,0,0-7.87,1.9C220.39,132.65,219.27,135.25,217.81,138Z" style="fill: #ed1c24;stroke: #ed1c24;stroke-miterlimit: 10"/>
    <path d="M193.26,187.64c3.57,2.13,6.73,3.93,9.77,5.89a79.81,79.81,0,0,1,7.4,5.33,2.91,2.91,0,0,1,.67,2.69c-3.46,7.28-7.09,14.49-10.67,21.71-4.11,8.28-8.25,16.54-12.34,24.83-3.6,7.31-7.15,14.65-10.73,22a16,16,0,0,1-1.37,2.47c-2.82,3.8-1.08,7,.86,10.57,3.17,5.78,5.87,11.79,8.8,17.69,3.67,7.37,7.41,14.7,11,22.09,3.48,7.06,6.84,14.19,10.33,21.25,3.55,7.23,7.21,14.4,10.79,21.61,2.87,5.76,5.77,11.49,8.5,17.31,1.64,3.48,0,7-3.51,8.51-2.56,1.12-5.09,2.31-7.57,3.58-4,2.05-6.77,1.55-8.79-2.26-3.09-5.82-5.85-11.81-8.76-17.72s-5.82-11.86-8.77-17.78-6-11.92-9-17.9c-3-6.14-6-12.31-9-18.46-2.53-5.16-5-10.32-7.65-15.44-.33-.66-1.13-1.53-1.71-1.52a2.72,2.72,0,0,0-1.86,1.42c-5.1,10.39-10.06,20.84-15.19,31.22-4.55,9.22-9.32,18.34-13.89,27.55-3.58,7.2-7,14.48-10.52,21.71-1.16,2.38-2.31,4.78-3.64,7.08-2,3.51-4.61,4.09-8.4,2.2-2.57-1.28-5.19-2.49-7.83-3.64-3.61-1.57-5.29-5-3.65-8.46,2.83-6,5.92-11.79,8.84-17.7,3.07-6.23,6-12.5,9.1-18.73,2.8-5.69,5.67-11.35,8.5-17,3.08-6.2,6.14-12.42,9.24-18.63q5.51-11,11.05-22.08c1.71-3.43,3.47-6.85,5.1-10.34,1.27-2.73-.93-4.78-1.93-6.92-4.12-8.76-8.47-17.43-12.79-26.1-5.73-11.51-11.53-23-17.28-34.48-1.65-3.29-3.32-6.57-4.84-9.92a2.08,2.08,0,0,1,.49-1.92,86,86,0,0,1,17.48-11.37c1.85,3.47,3.66,6.67,5.29,10,3,6.06,5.91,12.18,8.89,18.26,3.05,6.24,6.15,12.45,9.22,18.68,2.3,4.68,4.54,9.38,6.92,14a2.58,2.58,0,0,0,1.9,1c.47,0,1.17-.66,1.43-1.19q9-17.91,17.86-35.87C185.06,204.68,189,196.49,193.26,187.64Z" style="fill: #ed1c24;stroke: #ed1c24;stroke-miterlimit: 10"/>
    <path d="M56.8,156.77c3.79,0,7.59.06,11.38,0,8.92-.15,17.51-2.12,26.07-4.46,8.76-2.4,16.67-6.64,24.84-10.33,3-1.36,4.18-1,5.79,2.31,4.2,8.63,8.3,17.3,12.58,25.9,1.22,2.46-.16,3.69-3.06,4.94-14.43,6.23-27.63,14.25-38.21,25.73C89.57,208,83.77,215.92,77.62,223.5c-.82,1-1.55,2.08-2.37,3.08-2.1,2.6-2.62,2.82-4.73.12-5.2-6.64-10.43-13.3-15-20.35a136.36,136.36,0,0,1-9.39-17.77,122.73,122.73,0,0,1-5.61-15.37c-1.39-4.56-2.22-9.28-3.28-13.93-.45-1.93.39-2.58,2.38-2.54C45.34,156.83,51.07,156.77,56.8,156.77Z" style="fill: #ed1c24;stroke: #ed1c24;stroke-miterlimit: 10"/>
    <path d="M285.53,159.47c-.6,2.65-1.16,6-2.14,9.31-1.25,4.15-2.69,8.27-4.31,12.3-2.24,5.54-4.43,11.13-7.15,16.45a121.35,121.35,0,0,1-17.35,26.18c-5.68,6.34-4.54,6-9.28-.28-10.6-14.14-21.3-28.22-36.78-37.75-6.25-3.85-12.94-7.05-19.56-10.3-3.32-1.63-4.32-2.93-2.8-6.17,3-6.44,6.21-12.79,9.36-19.17,1.25-2.52,2.51-5,3.89-7.51.9-1.61,2.07-1.79,3.94-.92,7.5,3.48,15,7.08,22.72,9.93,5,1.85,10.52,2.45,15.8,3.65,13.67,3.11,27.55,1.07,41.32,1.58C285.55,156.85,285.58,156.81,285.53,159.47Z" style="fill: #ed1c24;stroke: #ed1c24;stroke-miterlimit: 10"/>
    <path d="M305.46,156.67c2.38,0,4.76.07,7.14,0,1.86-.07,2.9.42,2.52,2.47-1,5.55-1.74,11.17-3.11,16.63a162.59,162.59,0,0,1-5.5,17.58,127.53,127.53,0,0,1-6.94,15.42c-3.92,7.33-8.05,14.57-12.51,21.6a104.18,104.18,0,0,1-17,20.54c-1.59,1.47-2.51,1.58-3.89-.33-2.87-4-6-7.79-9.09-11.65-1.25-1.57-1.39-2.75.29-4.39a109,109,0,0,0,18.85-25.2c3.25-5.85,6.39-11.79,9.12-17.88a126,126,0,0,0,5.68-15.65c1.71-5.72,2.84-11.61,4.4-17.38a3.18,3.18,0,0,1,2.35-1.63c2.53-.22,5.1-.08,7.66-.08Z" style="fill: #ed1c24;stroke: #ed1c24;stroke-miterlimit: 10"/>
    <path d="M17.49,156.71c2.47,0,4.94,0,7.4,0,1.36,0,1.92.36,2.24,1.82q2,9.26,4.47,18.42c3,11,8.08,21.24,13.7,31.14s12,19.14,20.19,27.1a2.52,2.52,0,0,1,.29,3.85c-3.14,4-6.33,8-9.41,12-1.13,1.49-2.06,1.31-3.14.07-4.67-5.32-9.63-10.43-14-16C32,225.78,26.34,215.4,21.41,204.74c-3.51-7.59-6.06-15.6-8.92-23.47A82.49,82.49,0,0,1,7.76,159c-.13-1.91.5-2.44,2.33-2.36,2.46.1,4.93,0,7.4,0Z" style="fill: #ed1c24;stroke: #ed1c24;stroke-miterlimit: 10"/>
    <path d="M105.2,138.51l-15.15,5c-.41.14-.84.25-1.25.39-1.88.65-4.06,2.4-5.55-.07-3-4.89-2.68-9,.5-10.77s6.63-3.44,10-4.93a5.89,5.89,0,0,1,7.22,2.07,25.59,25.59,0,0,1,2.15,3.78C103.81,135.27,104.35,136.61,105.2,138.51Z" style="fill: #ed1c24;stroke: #ed1c24;stroke-miterlimit: 10"/>
    <path d="M217.81,138c1.46-2.78,2.58-5.38,4.11-7.72a6,6,0,0,1,7.87-1.9c2.63,1.32,5.24,2.69,7.87,4,4,2,5.13,5.1,3.33,9.07s-2.46,4.12-6.75,2.54c-3.83-1.41-7.77-2.53-11.63-3.86C221.07,139.61,219.61,138.83,217.81,138Z" style="fill: #ed1c24;stroke: #ed1c24;stroke-miterlimit: 10"/>
  </g>
  <path d="M134.6,242.42c-5-6.88-10-12.66-13.84-19.2-17.15-29-11.3-56.3,11.33-76.85,16.92-15.35,42.4-15.73,62.73,4.27,20.81,20.48,21.13,47.3,7.48,72-4,7.24-9.07,13.78-14.23,21.51,13.73-9,27.72-14.37,43.12-9.8s26.23,16,33.55,30.82c9.11,18.44,3.87,45.09-10.41,58.29-12.51,11.57-26.52,17.95-43.21,14.33-16.25-3.52-27.57-14.78-36.56-29.51l-1.32,1c2.7,11.09,5,22.32,8.22,33.23s7.35,21.56,11.22,32.73H130.14c7.93-23,18.11-44.92,21.65-69.2l-1.23-.71c-1.16,1.84-2.25,3.75-3.51,5.52-10.43,14.71-22.56,27.2-40.37,29.15-23.47,2.57-46.57-17.13-51.76-42.85-4.59-22.79,3.85-40.35,19.14-54.52,14.71-13.63,31.51-13.45,48.71-6.17C126.57,238,130.18,240.16,134.6,242.42Z"/>
</svg>
