<svg id="Layer_1" data-name="Layer 1" xmlns="http://www.w3.org/2000/svg" width="113.31mm" height="179.03mm" viewBox="0 0 321.19 507.49">
  <title>k-7</title>
  <g>
    <path d="M1,253.7Q1,364.39,1,475.08c0,11.37,4,20.35,13.17,26.67a26.85,26.85,0,0,0,15.59,4.74H79.55q105.59,0,211.16,0c12.62,0,22-6,27-18,1.77-4.21,2.31-9.26,2.31-13.93q.21-126.25.1-252.51c0-63.31-.12-126.62.08-189.93.05-15.87-9.91-27.34-22-30.22A38.55,38.55,0,0,0,289.29,1q-129-.08-258,0C13,1,1.05,13.37,1.05,32.32Q1,143,1,253.7Zm318.18-.12q0,111.15,0,222.31c0,17.13-11.86,29.5-28.3,29.5q-130.34,0-260.66,0c-16.45,0-28.31-12.39-28.31-29.5q0-222.15,0-444.32c0-17.12,11.88-29.51,28.3-29.51q130.34,0,260.66,0a26.76,26.76,0,0,1,5.37.38c14,2.83,22.94,14.19,22.94,29.12Q319.24,142.57,319.22,253.58Z" style="fill: #fff;stroke: #231f20;stroke-miterlimit: 10;stroke-width: 2px"/>
    <path d="M319.22,253.58q0-111,0-222c0-14.93-8.95-26.29-22.94-29.12a26.76,26.76,0,0,0-5.37-.38q-130.32,0-260.66,0c-16.42,0-28.3,12.39-28.3,29.51q0,222.17,0,444.32c0,17.11,11.86,29.5,28.31,29.5q130.32,0,260.66,0c16.44,0,28.3-12.37,28.3-29.5Q319.24,364.74,319.22,253.58Z" style="fill: #fff;stroke: #231f20;stroke-miterlimit: 10;stroke-width: 2px"/>
  </g>
  <text transform="translate(22.48 61.45)" style="font-size: 72px;fill: #231f20;font-family: LumberjackRough, Lumberjack;letter-spacing: -0.03999159071180555em">7</text>
  <path d="M33.69,82.73c-.85-1-1.7-1.92-2.36-2.91-2.94-4.39-1.94-8.52,1.94-11.63,2.89-2.33,7.26-2.38,10.74.64s3.62,7.17,1.28,10.9c-.69,1.1-1.55,2.09-2.44,3.26,2.35-1.36,4.75-2.18,7.39-1.49A9.2,9.2,0,0,1,56,86.17,7.38,7.38,0,0,1,54.2,95a8.71,8.71,0,0,1-7.4,2.17,9.8,9.8,0,0,1-6.26-4.47l-.23.14c.46,1.68.86,3.38,1.41,5s1.26,3.27,1.92,5H32.93c1.36-3.48,3.1-6.8,3.71-10.48l-.21-.11c-.2.28-.39.57-.6.84C34,95.31,32,97.2,28.91,97.49A8.57,8.57,0,0,1,20.05,91c-.79-3.45.66-6.11,3.28-8.26s5.39-2,8.34-.93C32.32,82.06,32.94,82.39,33.69,82.73Z"/>
  <path d="M74.89,132.05c-1.29-1.79-2.58-3.28-3.58-5-4.45-7.54-2.94-14.61,2.94-19.94,4.39-4,11-4.09,16.27,1.1s5.49,12.28,1.94,18.68c-1,1.88-2.35,3.58-3.69,5.58C92.33,130.16,96,128.76,100,130s6.81,4.15,8.71,8c2.36,4.78,1,11.7-2.7,15.13-3.25,3-6.89,4.65-11.22,3.71s-7.15-3.83-9.48-7.65l-.35.24c.7,2.88,1.3,5.8,2.14,8.63S89,163.6,90,166.5H73.74c2.06-6,4.7-11.66,5.62-17.95l-.32-.19c-.3.48-.59,1-.91,1.43-2.71,3.82-5.86,7.06-10.48,7.57-6.09.67-12.09-4.45-13.43-11.12-1.19-5.92,1-10.47,5-14.15,3.81-3.54,8.17-3.49,12.64-1.6C72.81,130.91,73.75,131.46,74.89,132.05Z"/>
  <path d="M72.82,275.06c-1.3-1.79-2.59-3.28-3.59-5-4.45-7.54-2.94-14.61,2.94-19.94,4.39-4,11-4.09,16.27,1.1s5.49,12.28,1.94,18.68c-1,1.88-2.35,3.58-3.69,5.58,3.57-2.33,7.19-3.73,11.19-2.54s6.81,4.15,8.71,8c2.36,4.78,1,11.7-2.7,15.13-3.25,3-6.89,4.65-11.21,3.71s-7.16-3.83-9.49-7.65l-.35.24c.7,2.88,1.3,5.8,2.14,8.63s1.9,5.59,2.91,8.49H71.66c2.06-6,4.7-11.66,5.62-18l-.32-.18c-.3.48-.59,1-.91,1.43-2.71,3.82-5.86,7.06-10.48,7.57-6.09.66-12.08-4.45-13.43-11.12-1.19-5.92,1-10.47,5-14.15,3.81-3.54,8.17-3.49,12.64-1.6C70.73,273.92,71.67,274.47,72.82,275.06Z"/>
  <path d="M72,420.46c-1.3-1.79-2.59-3.29-3.59-5-4.45-7.53-2.94-14.61,2.94-19.94,4.39-4,11-4.08,16.28,1.11s5.48,12.27,1.94,18.68c-1,1.87-2.36,3.57-3.7,5.58,3.57-2.33,7.2-3.73,11.19-2.55s6.81,4.16,8.71,8c2.37,4.79,1,11.7-2.7,15.13-3.25,3-6.88,4.66-11.21,3.72s-7.16-3.84-9.49-7.66l-.34.25c.7,2.88,1.29,5.79,2.13,8.62s1.91,5.6,2.91,8.5H70.85c2.06-6,4.7-11.66,5.62-18l-.32-.19c-.3.48-.58,1-.91,1.44-2.71,3.81-5.85,7.06-10.48,7.56-6.09.67-12.08-4.44-13.43-11.12-1.19-5.91,1-10.47,5-14.15s8.18-3.49,12.64-1.6C69.93,419.31,70.86,419.87,72,420.46Z"/>
  <path d="M228.57,415.91c-1.3-1.79-2.59-3.29-3.59-5-4.45-7.53-2.93-14.61,2.94-19.94,4.39-4,11-4.08,16.28,1.11s5.48,12.27,1.94,18.68c-1,1.88-2.36,3.58-3.69,5.58,3.56-2.33,7.19-3.73,11.19-2.54s6.8,4.15,8.7,8c2.37,4.78,1,11.7-2.7,15.12-3.24,3-6.88,4.66-11.21,3.72s-7.16-3.84-9.49-7.66l-.34.25c.7,2.88,1.3,5.79,2.13,8.63s1.91,5.59,2.91,8.49H227.41c2.06-6,4.7-11.66,5.62-18l-.32-.18c-.3.47-.58,1-.91,1.43-2.7,3.82-5.85,7.06-10.48,7.56-6.09.67-12.08-4.44-13.43-11.12-1.19-5.91,1-10.47,5-14.15,3.82-3.53,8.18-3.48,12.64-1.59C226.49,414.76,227.42,415.32,228.57,415.91Z"/>
  <path d="M149.63,200.41c-1.3-1.79-2.59-3.28-3.59-5-4.45-7.54-2.94-14.61,2.94-19.94,4.39-4,11-4.09,16.27,1.1s5.49,12.28,1.95,18.68c-1,1.88-2.36,3.58-3.7,5.58,3.57-2.33,7.2-3.73,11.19-2.54s6.81,4.15,8.71,8c2.36,4.79,1,11.7-2.7,15.13-3.25,3-6.88,4.65-11.21,3.72s-7.16-3.84-9.49-7.66l-.35.24c.71,2.88,1.3,5.8,2.14,8.63s1.9,5.59,2.91,8.49H148.47c2.06-6,4.7-11.66,5.62-18l-.32-.19c-.3.48-.59,1-.91,1.43-2.71,3.82-5.86,7.06-10.48,7.57-6.09.67-12.08-4.45-13.43-11.12-1.19-5.92,1-10.47,5-14.15,3.81-3.54,8.17-3.49,12.64-1.6C147.54,199.27,148.48,199.82,149.63,200.41Z"/>
  <path d="M230.19,272.79c-1.3-1.79-2.59-3.29-3.59-5-4.45-7.53-2.94-14.61,2.94-19.94,4.39-4,11-4.08,16.27,1.11s5.49,12.27,1.94,18.68c-1,1.88-2.35,3.57-3.69,5.58,3.56-2.33,7.19-3.73,11.19-2.54s6.81,4.15,8.71,8c2.36,4.79,1,11.71-2.7,15.13-3.25,3-6.89,4.66-11.22,3.72s-7.15-3.84-9.48-7.66l-.35.25c.7,2.88,1.3,5.79,2.14,8.62s1.9,5.6,2.91,8.5H229c2.06-6,4.7-11.66,5.62-18l-.32-.19c-.3.48-.59,1-.91,1.44-2.71,3.82-5.86,7.06-10.48,7.56-6.09.67-12.08-4.44-13.43-11.12-1.19-5.91,1-10.47,5-14.15,3.81-3.53,8.17-3.48,12.64-1.6C228.1,271.64,229,272.2,230.19,272.79Z"/>
  <path d="M232.35,134.54c-1.3-1.79-2.59-3.29-3.59-5-4.45-7.54-2.93-14.61,2.94-20,4.39-4,11-4.08,16.28,1.11s5.48,12.28,1.94,18.68c-1,1.88-2.36,3.58-3.69,5.58,3.56-2.33,7.19-3.73,11.19-2.54s6.8,4.15,8.7,8c2.37,4.78,1,11.7-2.7,15.13-3.24,3-6.88,4.65-11.21,3.71s-7.16-3.83-9.49-7.65l-.34.24c.7,2.88,1.3,5.8,2.13,8.63s1.91,5.59,2.91,8.49H231.19c2.06-6,4.7-11.66,5.62-18l-.32-.18c-.3.48-.58,1-.91,1.43-2.7,3.82-5.85,7.06-10.47,7.57-6.1.66-12.09-4.45-13.44-11.12-1.19-5.92,1-10.48,5-14.15s8.18-3.49,12.64-1.6C230.27,133.4,231.2,134,232.35,134.54Z"/>
</svg>
