<svg xmlns="http://www.w3.org/2000/svg" width="113.31mm" height="179.03mm" viewBox="0 0 321.19 507.49">
  <title>k-q</title>
  <g id="Layer_2" data-name="Layer 2">
    <rect x="28.69" y="54.47" width="263.77" height="403.09" style="fill: none;stroke: #2e3192;stroke-miterlimit: 10"/>
    <g>
      <path d="M1,253.7Q1,364.39,1,475.08c0,11.37,4,20.35,13.17,26.67a26.85,26.85,0,0,0,15.59,4.74H79.55q105.59,0,211.16,0c12.62,0,22-6,27-18,1.77-4.21,2.31-9.26,2.31-13.93q.21-126.25.1-252.51c0-63.31-.12-126.62.08-189.93.05-15.87-9.91-27.34-22-30.22A38.55,38.55,0,0,0,289.29,1q-129-.08-258,0C13,1,1.05,13.37,1.05,32.32Q1,143,1,253.7Zm318.18-.12q0,111.15,0,222.31c0,17.13-11.86,29.5-28.3,29.5q-130.34,0-260.66,0c-16.45,0-28.31-12.39-28.31-29.5q0-222.15,0-444.32c0-17.12,11.88-29.51,28.3-29.51q130.34,0,260.66,0a26.76,26.76,0,0,1,5.37.38c14,2.83,22.94,14.19,22.94,29.12Q319.24,142.57,319.22,253.58Z" style="fill: #fff;stroke: #231f20;stroke-miterlimit: 10;stroke-width: 2px"/>
      <path d="M319.22,253.58q0-111,0-222c0-14.93-8.95-26.29-22.94-29.12a26.76,26.76,0,0,0-5.37-.38q-130.32,0-260.66,0c-16.42,0-28.3,12.39-28.3,29.51q0,222.17,0,444.32c0,17.11,11.86,29.5,28.31,29.5q130.32,0,260.66,0c16.44,0,28.3-12.37,28.3-29.5Q319.24,364.74,319.22,253.58Z" style="fill: #fff;stroke: #231f20;stroke-miterlimit: 10;stroke-width: 2px"/>
    </g>
    <rect x="27.26" y="56.29" width="263.77" height="403.09" style="fill: #fff;stroke: #231f20;stroke-miterlimit: 10"/>
    <text transform="translate(33.33 113.58)" style="font-size: 72px;fill: #231f20;font-family: LumberjackRough, Lumberjack">Q</text>
    <path d="M101.31,366.61c6.32-5,12.8-9.76,18.92-14.94,4.39-3.73,8.23-8.06,12.47-12,5.33-4.9,7.35-4.69,11.7,1.29,2.32,3.19,4.27,6.63,6.36,9.92,10.1-4.06,14.68-13.34,13.75-22.92-.59-6,1.41-12.4,2.87-18.48,3.75-15.64,8-31.18,11.63-46.84.39-1.69-1.56-3.89-2.4-5.86-.54-1.27-1-2.56-1.52-3.82l-2.29,3.2c-.55-1.83-.88-2.94-1.36-4.55l-2,3.46c-.6-1.65-1-2.79-1.58-4.28l-2.62,3.83c-.38-1.77-.62-2.89-.53-2.46l-8.85-.9c.4-.49-.38.45-1.32,1.58L153,249.93c-8.83,11.36-8.47,25.11-11.56,37.92-1,3.93-3.2,7.55-4.59,11.4C132.3,311.91,129,325.18,123,337.13c-4.44,8.74-12.53,15.77-19,23.55-1.27,1.53-2.61,3-3.92,4.49Z" style="fill: #da1c5c"/>
    <path d="M182.35,164c-6.26,5.07-12.67,10-18.72,15.25-4.35,3.8-8.13,8.19-12.32,12.17-5.26,5-7.29,4.8-11.71-1.11-2.37-3.15-4.36-6.56-6.49-9.82-10.05,4.23-14.5,13.58-13.45,23.15.66,6-1.25,12.42-2.63,18.52-3.55,15.7-7.56,31.31-11,47-.38,1.69,1.61,3.86,2.47,5.82.56,1.26,1.06,2.54,1.57,3.79l2.25-3.24c.57,1.83.92,2.93,1.42,4.53l1.92-3.49,1.64,4.26,2.57-3.87c.4,1.76.65,2.87.56,2.44l8.86.76,1.3-1.61,1.59,2.93c8.68-11.5,8.14-25.24,11.07-38.1.89-4,3.1-7.6,4.44-11.47,4.4-12.74,7.49-26.06,13.41-38.11,4.33-8.81,12.33-16,18.71-23.86,1.25-1.54,2.57-3,3.86-4.55Z" style="fill: #da1c5c"/>
    <path d="M118.41,183.27l12.28,6.38,13.22,8h8.5l6.3-2.23,7.24-8.62L170,172.84l3.15-11.63V136.36L170.67,129,159,119.13s-10.07-.8-11-1.68-10.08-1.51-11-1.51-9.76,1.51-9.76,1.51L118.41,123l-9.75,4.22-4.41,8.22v28.93" style="fill: #d6b59f"/>
    <path d="M184.56,272.28l-12.43,8c.73-3.79,1.77-5.91,1.27-7.35a15.86,15.86,0,0,0-4.22-6.66c-2-1.71-4.77-2.34-8-3.8-.4,2.25-.9,5-1.41,7.81l-1.18.91c-1.3-3-2.72-5.95-3.88-9-1.81-4.75-2.73-10.15-5.33-14.23-3.42-5.38-3.9-10.41-1.7-16.1,1.95-5.06,3.48-10.5,6.26-14.94,2.92-4.66,1.5-8.32-1.19-11.07-2.94-3-3-6.13-1.77-9.32,1.62-4.19,3.16-9.22,6.16-11.76,7.71-6.5,10.37-15.24,11.11-25.19.81-10.87,1.28-21.79,1.86-32-3.12,1.63-5.4,3.87-6.76,3.31-3.3-1.36-7.59,3.24-10.19-2.11,0-.11-3.26,2.61-4.73,2.33-7.5-1.44-14.85.76-22.26.51-2-.07-3.87-1.26-6.73-2.25-2.33,2.36-5.8,4.51-9.35-.75-2.65,18.9.54,35.84,9.39,51.3,1.86,3.25,4.79,5.84,7.48,8.39,7.13,6.73,8.37,14.74,2.93,23.64-2.11,3.45-2.07,5.68.69,8.47,8.29,8.38,8.56,20.08.92,29.72-2.16,2.73-4.23,5.54-7.55,8l3.74-10.92c-8,5.86-9.25,10.05-7.8,25.32-5.73-.83-6.06-1.21-8.73-10.44-5.28,6-3.75,12-.29,18.46-8.85,2-13.89-3.39-18.73-11.4l-.45,6.83c-11.54-2.76-15.64-8-16-20.08-.18-6.49-.18-6.49-9-11.81,2.46,4,4.65,6.25,5.4,9,.71,2.63-.09,5.78-1.38,9,1.2-6.92-2.66-8.81-6.87-11-8.56-4.56-10.38-15.07-3.73-22.14,4.32-4.58,3.51-9.43,1.91-14.56-3.54-11.4-2.43-16.67,6.32-23,10.92-7.93,16.88-18.55,19.19-33.16,2.55-16.23,6.86-32.16,11.14-48,3.86-14.29,10.86-26.66,24.72-30.36,9.41-2.52,19.41-.55,29.19-1.84,6.33-.84,12.22,4.67,15.18,11.09A273.94,273.94,0,0,1,181.55,124c6,19.83,10.69,40.17,16.45,60.1,1.22,4.23,4.9,7.48,7,11.49,4.72,9.08,10.12,17.93,13.37,27.66,2.85,8.55-.51,13.27-8.3,16.21-4.57,1.73-4.9,3.59-1.33,7.43,8.53,9.2,7.73,14.66-2.42,22.16-3.62,2.68-6.31,6.95-9.54,10.61l-1.93-3.43-13.63,7.38C182.39,279.56,183.24,276.71,184.56,272.28Z" style="fill: #231f20"/>
    <circle cx="109.75" cy="102.23" r="10.38" style="fill: #cddc29"/>
    <path d="M111.9,95.67c0,1.92,0,3.77,0,5.62a6.32,6.32,0,0,0,.3,2c.14.38.66.89,1,.89s.85-.5,1-.88a4.55,4.55,0,0,0,.34-1.78c0-2.2,0-4.4,0-6.71,2.09-.41,4.14-.85,6.2-1.22a93.6,93.6,0,0,1,52.75,6.23,4.59,4.59,0,0,1,3,4.36c0,4.72,0,9.45,0,14.17,0,1.88-1.17,2.44-3.18,1.58a91.94,91.94,0,0,0-18.76-5.75,94,94,0,0,0-23.45-1.54A92.39,92.39,0,0,0,100,120a6.44,6.44,0,0,1-1,.34A1.61,1.61,0,0,1,96.86,119a6,6,0,0,1-.06-1c0-4.46,0-8.92,0-13.38a5,5,0,0,1,3.49-5c.85-.33,1.68-.68,2.66-1.08v1.32c0,2.44,0,4.88,0,7.32a4.13,4.13,0,0,0,.45,1.75.87.87,0,0,0,1.67,0,4.21,4.21,0,0,0,.47-1.82c0-2.76,0-5.52,0-8.28,0-1.5,0-1.5,1.84-1.8,0,2.21,0,4.4,0,6.6a11.61,11.61,0,0,0,.06,1.67,2.51,2.51,0,0,0,.39,1.12,1.49,1.49,0,0,0,.91.6,1.09,1.09,0,0,0,.81-.59,5.36,5.36,0,0,0,.47-1.91c.05-2.38,0-4.77,0-7.16C110.09,95.94,110.09,95.94,111.9,95.67Z" style="fill: #e7e514"/>
    <path d="M137.22,72.28c10.15.26,19.91,3.57,27.73,11.37a27.93,27.93,0,0,1,8.23,16.43c0,.28,0,.73-.17.82a1.22,1.22,0,0,1-.93-.06,90.72,90.72,0,0,0-22.44-6.38,92.07,92.07,0,0,0-19.28-.77,90,90,0,0,0-29.93,7.17c-.26.11-.79.19-.85.09a1.66,1.66,0,0,1-.2-1c1.68-11,8.34-18.49,18.3-23.48C123.5,73.57,129.78,72.34,137.22,72.28Z" style="fill: #e5d41c"/>
    <g>
      <path d="M37.1,330.85C30,316.78,25.67,302.28,31.2,288c2.17-5.61,6.22-11.37,11.22-14.63q96.33-62.76,193.24-124.73c8.66-5.57,18.8-4.89,28.77,1.66,20.19,13.29,31.92,43.05,24.21,63.66a30,30,0,0,1-11,14.05C213.57,269.68,149.2,311,84.94,352.4c-8.08,5.21-16.68,5.32-25.79.44C49.55,347.69,42.43,340.14,37.1,330.85ZM254.35,168.29l-1,.4c-1.41-2.94-2.91-5.84-4.2-8.81-4.23-9.76-7.86-10.53-14.35-2.8a25.25,25.25,0,0,0-3.6,5.64c-6.86,14.82-.34,40.09,13.33,51.86.21.18.79,0,1.54-.1l2.77-13.76A51.06,51.06,0,0,1,251.25,216c0,4.25,2.1,6.07,6,7.37,11.33,3.79,22.5-.88,26.64-11.37,7.18-18.2-3.08-46-21.45-57.25-3.53-2.16-7.78-3.1-13.22-5.19C251.3,157.22,252.83,162.76,254.35,168.29Z" style="fill: #754c29"/>
      <path d="M254.35,168.29c-1.52-5.53-3-11.07-5.15-18.69,5.44,2.09,9.69,3,13.22,5.19,18.37,11.27,28.63,39.05,21.45,57.25-4.14,10.49-15.31,15.16-26.64,11.37-3.88-1.3-6-3.12-6-7.37a51.06,51.06,0,0,0-2.42-15.32l-2.77,13.76c-.75.06-1.33.28-1.54.1-13.67-11.77-20.19-37-13.33-51.86a25.25,25.25,0,0,1,3.6-5.64c6.49-7.73,10.12-7,14.35,2.8,1.29,3,2.79,5.87,4.2,8.81Z" style="fill: #c49a6c"/>
    </g>
    <path d="M70.38,334.49c2.43,5.29,4.85,10.59,8.2,17.89-5.64-1.22-9.93-1.48-13.72-3.08C45.09,341,30.37,314.78,34.23,295.4c2.22-11.17,12.27-17.64,23.92-15.66,4,.68,6.34,2.17,7.07,6.42a53.41,53.41,0,0,0,5,14.95l.34-14.22c.72-.18,1.24-.49,1.47-.34,15.29,9.59,25.94,33.85,21.82,49.79a26.08,26.08,0,0,1-2.52,6.24c-5,8.77-8.64,8.59-14.42-.51-1.76-2.77-3.72-5.43-5.58-8.15Z" style="fill: #c49a6c"/>
    <g>
      <path d="M174.28,201.13c-.9,2.45-1.79,4.89-2.85,7.76-2.56-3.7,1-7.52-1.06-11.18l-2.9,10.89-.69.32c-.27-2.08-.66-4.14-.8-6.22s0-4.39,0-6.58l-1.26-.05q-1,6.19-2,12.4l-1,.14c-.23-1.91-.47-3.83-.68-5.74s-.36-3.7-.54-5.54l-1.69,0v17.19l-3-3.38-1,.12c.23,1.86.13,3.81.76,5.57,1.18,3.31.31,5.9-3,7.65-5.86,3.13-11.88,6-17.76,9.14-1.12.59-1.91,1.66-3.37,3-.63-.44-2.34-1-2.8-2-2.65-5.87-8.81-8.32-14.31-11.3-6.44-3.5-9.85-.66-15,4.71-2.76,2.91-1,8.13,3.9,10.35,9.36,4.2,19,8,28.68,11.56,4.5,1.65,8.44.12,11.9-3.12,6.17-5.77,12.88-11.1,19.16-16.79,2-1.77,3.24-4.1,4.83-6.17.15-.2.29-.52.48-.55,6.34-1.1,4.56-6.27,5.73-9.57,1.37-3.85.86-8.22,1.16-12.36Z" style="fill: #d6b59f"/>
      <path d="M210.19,269.2c3,1.92,6.12.6,7.8-3.32a11.53,11.53,0,0,0,.46-1.73,33.65,33.65,0,0,0,1.55-9.67c-.81,1.23-1.62,2.45-2.41,3.7-2.39,3.73-4.49,3.47-7.3-1a71.07,71.07,0,0,0-4.88-7.32c-.14,4.9,2.37,8.77,5.26,12.49l-.94.92a74.07,74.07,0,0,1-4.66-6.22c-1.39-2.29-2.4-4.86-4.13-7,.6,5.65,2.89,10.59,7.24,15.76-6.19-2.29-6.34-8.91-9.53-12.65-.35,3.31-.35,3.31,5,15.45a43.28,43.28,0,0,1-3.56-4.42c-1-1.6-1.68-3.48-3-5,.82,4.5,1.74,9,5.27,12.34,3.08,2.94,6.08,3.82,9,1.1Z" style="fill: #d6b59f"/>
    </g>
    <g>
      <path d="M144,184.27c-.6-.06-1.32-.12-2-.23a10.61,10.61,0,0,1-1.65-.37,10.07,10.07,0,0,1-2.83-1.39,11.34,11.34,0,0,1-2.59-2.54,13,13,0,0,1-1.58-2.85c-.2-.49-.35-1-.52-1.51a.44.44,0,0,1,0-.14c0-.1.05-.12.22-.15a6.84,6.84,0,0,0,1.74-.48,8,8,0,0,0,2.8-2.28,7.76,7.76,0,0,1,1.62-1.52,3.09,3.09,0,0,1,2.45-.42,3.58,3.58,0,0,1,2.16,1.43c.08.12.15.25.23.36s.18.16.29,0,.24-.38.38-.55a3.44,3.44,0,0,1,1.58-1.12,3.3,3.3,0,0,1,1.64-.18,3.13,3.13,0,0,1,1.77.91c.67.67,1.31,1.37,2,2.05a5.76,5.76,0,0,0,2,1.36,5.37,5.37,0,0,0,1.76.45c.13,0,.13.1.11.2a6.14,6.14,0,0,1-.22.73c-.27.66-.53,1.34-.84,2a11.32,11.32,0,0,1-2.91,3.71,8.84,8.84,0,0,1-2.53,1.55c-.59.23-1.19.45-1.8.62a11,11,0,0,1-1.51.24C145.12,184.19,144.61,184.22,144,184.27Zm-2.09-4.91s.14-.1.14-.14a.3.3,0,0,0-.14-.2c-.24-.11-.49-.19-.73-.29l-1.16-.48c-.41-.16-.81-.31-1.21-.48s-1-.41-1.46-.6c-.07,0-.16,0-.24,0a1.08,1.08,0,0,0,.11.24,9.09,9.09,0,0,0,2,1.15,13.29,13.29,0,0,0,1.38.49C141,179.2,141.42,179.26,141.89,179.36Zm9-6.36a1.12,1.12,0,0,0-.1-.16c-.36-.41-.7-.83-1.08-1.21a4.9,4.9,0,0,0-1.44-1,.29.29,0,0,0-.16,0,1.62,1.62,0,0,0,0,.2.45.45,0,0,0,.1.09l1.58,1.38.85.72a.2.2,0,0,0,.15,0S150.9,173,150.92,173Zm-7.6,6.2v0a.93.93,0,0,0-.24,0c-.06,0-.14.1-.14.16s.06.14.11.17a.58.58,0,0,0,.62,0,.14.14,0,0,0,0-.25A1.51,1.51,0,0,0,143.32,179.2Z" style="fill: #ed1c24"/>
      <path d="M141.89,179.36c-.47-.1-.9-.16-1.31-.28a13.29,13.29,0,0,1-1.38-.49,9.09,9.09,0,0,1-2-1.15,1.08,1.08,0,0,1-.11-.24c.08,0,.17-.06.24,0,.49.19,1,.4,1.46.6s.8.32,1.21.48l1.16.48c.24.1.49.18.73.29a.3.3,0,0,1,.14.2S141.93,179.32,141.89,179.36Z" style="fill: #fff"/>
      <path d="M150.92,173s0,.1-.07.1a.2.2,0,0,1-.15,0l-.85-.72L148.27,171a.45.45,0,0,1-.1-.09,1.62,1.62,0,0,1,0-.2.29.29,0,0,1,.16,0,4.9,4.9,0,0,1,1.44,1c.38.38.72.8,1.08,1.21A1.12,1.12,0,0,1,150.92,173Z" style="fill: #fff"/>
      <path d="M143.32,179.2a1.51,1.51,0,0,1,.35.14.14.14,0,0,1,0,.25.58.58,0,0,1-.62,0s-.12-.12-.11-.17.08-.13.14-.16a.93.93,0,0,1,.24,0Z" style="fill: #fff"/>
    </g>
    <path d="M132.75,175.24l2,.77a50.15,50.15,0,0,0,15.81.28l4.92-1" style="fill: #ed1c24;stroke: #231f20;stroke-miterlimit: 10"/>
    <g>
      <path d="M125.77,142.92,115.14,148c2.8,1.86,5.24,3.5,7.71,5.1,1.94,1.25,4,1.12,6.14-.31l6.19-4.07-1.52-1.26,1.5-1.33-3.15-.28,2.93-1.38-.14-.35-2.52.35-.16-.43a12.28,12.28,0,0,0,1.74-.87,3.75,3.75,0,0,0,.75-1c-.44-.23-.88-.64-1.33-.65a3.94,3.94,0,0,0-1.58.5c-2.34,1.09-2.72.88-2.62-1.18a31.63,31.63,0,0,1-3.38.25c-4.15-.12-7.22,1.86-9.93,4.62,3.1-1.63,5.81-4.39,9.81-3.31Zm1.06,9.67c-2.18,1-5-.29-9.69-4.64l5.76-2.56C123,150.86,123.67,152.1,126.83,152.59Zm2.9-6.43a3.43,3.43,0,0,1-1.4,4.71c-1.21.7-2.62,1.28-3.79-.14-1.31-1.58-1.27-3.89.14-5a17.64,17.64,0,0,0,.26,2.8c.15.58.58,1.38,1.07,1.53a2.14,2.14,0,0,0,1.76-.7A26.09,26.09,0,0,0,129.73,146.16Zm3.55,2.52-2.67,1.95-.4-.29,1.31-3.22Z"/>
      <path d="M126.83,152.59c-3.16-.49-3.87-1.73-3.93-7.2L117.14,148C121.79,152.3,124.65,153.63,126.83,152.59Z" style="fill: #fff"/>
      <path d="M129.73,146.16a26.09,26.09,0,0,1-2,3.2,2.14,2.14,0,0,1-1.76.7c-.49-.15-.92-.95-1.07-1.53a17.64,17.64,0,0,1-.26-2.8c-1.41,1.11-1.45,3.42-.14,5,1.17,1.42,2.58.84,3.79.14A3.43,3.43,0,0,0,129.73,146.16Z" style="fill: #39b54a"/>
      <path d="M133.28,148.68l-1.76-1.56-1.31,3.22.4.29Z" style="fill: #fff"/>
    </g>
    <g>
      <path d="M156,142.68l-10.63,5.06c2.8,1.85,5.24,3.5,7.72,5.09,1.94,1.25,4,1.12,6.14-.31,2-1.32,4-2.66,6.19-4.07l-1.53-1.26,1.51-1.32-3.15-.29,2.92-1.38-.14-.35-2.51.35-.16-.43a11.66,11.66,0,0,0,1.73-.87,3.88,3.88,0,0,0,.76-1c-.44-.24-.88-.64-1.33-.66a3.85,3.85,0,0,0-1.59.51c-2.34,1.08-2.71.87-2.61-1.18a32,32,0,0,1-3.39.24c-4.15-.12-7.21,1.86-9.93,4.62,3.1-1.63,5.81-4.39,9.82-3.31Zm1.07,9.67c-2.18,1-5.05-.29-9.7-4.64l5.77-2.55C153.23,150.62,154,151.86,157.11,152.35Zm2.9-6.42a3.44,3.44,0,0,1-1.41,4.7c-1.2.7-2.61,1.28-3.79-.14-1.3-1.58-1.27-3.89.15-5a16.44,16.44,0,0,0,.26,2.8c.15.58.58,1.38,1.07,1.53a2.14,2.14,0,0,0,1.76-.7A28.11,28.11,0,0,0,160,145.93Zm3.55,2.51-2.68,1.95-.39-.29,1.3-3.22Z"/>
      <path d="M157.11,152.35c-3.16-.49-3.88-1.73-3.93-7.19l-5.77,2.55C152.06,152.06,154.93,153.39,157.11,152.35Z" style="fill: #fff"/>
      <path d="M160,145.93a28.11,28.11,0,0,1-2,3.19,2.14,2.14,0,0,1-1.76.7c-.49-.15-.92-.95-1.07-1.53a16.44,16.44,0,0,1-.26-2.8c-1.42,1.11-1.45,3.42-.15,5,1.18,1.42,2.59.84,3.79.14A3.44,3.44,0,0,0,160,145.93Z" style="fill: #39b54a"/>
      <path d="M163.56,148.44l-1.77-1.56-1.3,3.22.39.29Z" style="fill: #fff"/>
    </g>
    <path d="M128.54,188.67a37.34,37.34,0,0,0-3.62,2.32c-3,2.48-2.8,3.49.54,5,5.93,2.64,11.84,5.3,17.68,8.07,1.78.85,3.21,1.05,4.55-.71s2.25-3.15-.17-4.6c-4.8-2.87-9.32-6.07-14.15-8.9C132,189,129.9,189,128.54,188.67Z" style="fill: #bc245e"/>
    <path d="M165.49,348.33l-12.19-6.58-13.12-8.19-8.5-.14-6.32,2.13-7.36,8.5-4.27,13.88-3.3,11.57-.15,12.08-.17,12.77,2.42,7.38,11.52,10.08s10.07,1,11,1.85,10,1.68,11,1.7,9.77-1.36,9.77-1.36l8.89-5.36,9.81-4.06,4.51-8.15.14-10.21.24-18.71" style="fill: #d6b59f"/>
    <path d="M100.51,258.26,113,250.48c-.78,3.78-1.85,5.88-1.37,7.33a15.94,15.94,0,0,0,4.13,6.72c2,1.75,4.75,2.42,8,3.94.44-2.24,1-5,1.51-7.78l1.2-.9c1.26,3,2.64,6,3.76,9.08,1.75,4.78,2.6,10.2,5.14,14.32,3.36,5.43,3.77,10.47,1.5,16.13-2,5-3.62,10.44-6.45,14.83-3,4.61-1.61,8.3,1,11.09,2.9,3.06,2.92,6.18,1.65,9.35-1.67,4.16-3.28,9.17-6.31,11.65-7.8,6.38-10.57,15.08-11.44,25-.95,10.86-1.56,21.76-2.28,32,3.15-1.58,5.46-3.78,6.81-3.2,3.28,1.42,7.63-3.12,10.16,2.28.05.1,3.29-2.56,4.76-2.26,7.48,1.56,14.86-.52,22.27-.15,2,.1,3.85,1.32,6.7,2.37,2.35-2.33,5.86-4.42,9.34.89,2.89-18.85-.08-35.84-8.73-51.44-1.82-3.28-4.71-5.92-7.37-8.51-7-6.85-8.18-14.88-2.62-23.69,2.15-3.41,2.13-5.64-.59-8.48-8.18-8.51-8.29-20.22-.53-29.73,2.19-2.69,4.3-5.48,7.65-7.88L157,284.34c8-5.74,9.38-9.91,8.13-25.2,5.72.93,6.05,1.31,8.6,10.58,5.35-5.92,3.9-11.91.52-18.45,8.88-1.82,13.85,3.61,18.59,11.7l.54-6.82c11.5,3,15.53,8.25,15.69,20.34.09,6.49.09,6.49,8.86,11.95-2.42-4-4.58-6.32-5.29-9.11s.17-5.78,1.5-9c-1.29,6.9,2.55,8.85,6.72,11.15,8.51,4.69,10.19,15.24,3.45,22.2-4.38,4.51-3.63,9.37-2.1,14.53,3.39,11.46,2.22,16.71-6.61,22.92-11,7.75-17.13,18.27-19.62,32.85-2.77,16.18-7.28,32-11.76,47.78-4,14.24-11.21,26.49-25.11,30-9.45,2.36-19.42.23-29.22,1.36-6.34.73-12.15-4.87-15-11.34a275,275,0,0,1-13.31-35.13c-5.75-19.92-10.17-40.33-15.66-60.36-1.17-4.25-4.81-7.56-6.84-11.6-4.59-9.16-9.89-18.1-13-27.88-2.74-8.59.69-13.26,8.51-16.07,4.59-1.66,5-3.51,1.43-7.41-8.41-9.34-7.54-14.79,2.7-22.12,3.66-2.62,6.41-6.84,9.68-10.45l1.88,3.47L104,247C102.77,251,101.88,253.85,100.51,258.26Z" style="fill: #231f20"/>
    <ellipse cx="173.66" cy="430.03" rx="10.02" ry="9.15" style="fill: #cddc29"/>
    <path d="M171.09,436.16c0-1.92.07-3.77.06-5.62a6.31,6.31,0,0,0-.28-2,1.48,1.48,0,0,0-1-.91c-.34,0-.85.49-1,.87a4.63,4.63,0,0,0-.36,1.77c-.06,2.2-.07,4.4-.1,6.71-2.09.38-4.14.78-6.21,1.12a93.63,93.63,0,0,1-52.67-7.1,4.58,4.58,0,0,1-2.89-4.4c0-4.73.08-9.45.17-14.17,0-1.88,1.21-2.43,3.21-1.53a92.06,92.06,0,0,0,18.68,6.06,94,94,0,0,0,23.43,1.92,92.05,92.05,0,0,0,31.2-6.78,5.65,5.65,0,0,1,1-.33,1.62,1.62,0,0,1,2.15,1.39,6,6,0,0,1,0,.95c0,4.46-.12,8.91-.17,13.37a5,5,0,0,1-3.55,4.95l-2.67,1.05c0-.51,0-.92,0-1.33,0-2.44.09-4.88.08-7.32a4.26,4.26,0,0,0-.43-1.75c-.42-.84-1.25-.87-1.68-.05a4.3,4.3,0,0,0-.49,1.82c-.09,2.76-.1,5.52-.13,8.27,0,1.51,0,1.51-1.87,1.77l.09-6.59a13.26,13.26,0,0,0,0-1.67,2.62,2.62,0,0,0-.38-1.13,1.48,1.48,0,0,0-.9-.62,1.08,1.08,0,0,0-.82.58,5.56,5.56,0,0,0-.49,1.9c-.09,2.38-.09,4.77-.12,7.16C172.9,435.91,172.9,435.91,171.09,436.16Z" style="fill: #e7e514"/>
    <path d="M145.25,459.39c-10.16-.43-19.87-3.94-27.59-12a28.56,28.56,0,0,1-8-16.78c0-.28,0-.74.18-.83a1.22,1.22,0,0,1,.93.07,89.29,89.29,0,0,0,41.63,7.93,88.68,88.68,0,0,0,30-6.77c.26-.11.78-.18.84-.08a1.62,1.62,0,0,1,.19,1c-1.83,11.16-8.58,18.6-18.61,23.5C159,458.31,152.68,459.45,145.25,459.39Z" style="fill: #e5d41c"/>
    <g>
      <path d="M104.86,299.7l3.57-7.37c2.2,4-1.73,7.36,0,11.25l3.93-10.48.71-.23c.08,2.1.26,4.2.2,6.28s-.39,4.37-.61,6.55l1.26.2,3.21-12.09h1c0,1.93.1,3.86.12,5.79s0,3.72,0,5.57l1.68.15,1.66-17.09,2.7,3.73h1c0-1.88.24-3.82-.22-5.64-.85-3.43.26-5.9,3.7-7.24,6.13-2.41,12.39-4.57,18.54-6.94,1.17-.45,2-1.43,3.63-2.57.58.51,2.23,1.29,2.59,2.35,2.07,6.16,8,9.34,13.14,13,6.07,4.26,9.73,1.85,15.31-2.87,3-2.56,1.83-8-2.88-10.76-8.9-5.31-18.09-10.25-27.4-15-4.32-2.18-8.38-1.14-12.13,1.67-6.69,5-13.87,9.48-20.66,14.38-2.11,1.52-3.61,3.68-5.39,5.55-.17.18-.34.48-.54.49-6.41.32-5.13,5.68-6.62,8.82-1.73,3.67-1.64,8.06-2.34,12.15Z" style="fill: #d6b59f"/>
      <path d="M67.28,250.35c-3.48-.88-6,1.36-6.22,5.61a12.35,12.35,0,0,0,.15,1.79A34.4,34.4,0,0,0,63,267.44c.34-1.43.69-2.85,1-4.28,1-4.3,3-4.71,7.2-1.33a72.5,72.5,0,0,0,7.06,5.42c-1.53-4.7-5.18-7.59-9.16-10.22l.58-1.16a74.93,74.93,0,0,1,6.47,4.45c2.08,1.73,3.9,3.86,6.26,5.38-2.47-5.18-6.28-9.15-12.11-12.7,6.58.23,9,6.48,13.21,9-.78-3.25-.78-3.25-10-13.1A45.45,45.45,0,0,1,78.44,252c1.49,1.21,2.75,2.78,4.5,3.83-2.29-4-4.66-8-9.11-10.07-3.89-1.83-7-1.72-8.87,1.8Z" style="fill: #d6b59f"/>
    </g>
    <g>
      <path d="M139.94,346.92c.6.07,1.31.14,2,.26a11.32,11.32,0,0,1,1.65.39,10.53,10.53,0,0,1,2.81,1.44A11.45,11.45,0,0,1,149,351.6a13,13,0,0,1,1.54,2.87c.2.5.34,1,.5,1.52a.44.44,0,0,1,0,.14c0,.1-.05.12-.22.14a7.42,7.42,0,0,0-1.74.45,7.79,7.79,0,0,0-2.83,2.25,7.76,7.76,0,0,1-1.65,1.49,3.07,3.07,0,0,1-2.45.38,3.59,3.59,0,0,1-2.14-1.47l-.23-.37c-.11-.15-.18-.16-.29,0s-.24.37-.38.54a3.58,3.58,0,0,1-1.6,1.1,3.4,3.4,0,0,1-1.64.15,3.19,3.19,0,0,1-1.76-1c-.66-.68-1.29-1.39-1.94-2.08a5.88,5.88,0,0,0-2-1.38,5.72,5.72,0,0,0-1.75-.49c-.14,0-.14-.1-.11-.19.07-.25.13-.5.22-.73.28-.66.55-1.33.87-2a11.31,11.31,0,0,1,3-3.67,8.78,8.78,0,0,1,2.55-1.5,14.17,14.17,0,0,1,1.81-.59,10.77,10.77,0,0,1,1.51-.22C138.8,347,139.31,347,139.94,346.92Zm2,4.94s-.15.1-.14.15a.25.25,0,0,0,.14.19c.23.11.47.2.71.3l1.17.5,1.2.5c.48.21,1,.43,1.45.63a.69.69,0,0,0,.24,0,1.08,1.08,0,0,0-.11-.24,9.09,9.09,0,0,0-2-1.18,11.43,11.43,0,0,0-1.38-.51C142.86,352,142.43,352,142,351.86Zm-9.12,6.22a1.12,1.12,0,0,0,.1.16c.35.41.69.84,1.07,1.22a4.83,4.83,0,0,0,1.43,1s.1,0,.15,0a.49.49,0,0,0,0-.2s-.06-.06-.09-.09l-1.57-1.41c-.28-.24-.55-.49-.84-.73a.21.21,0,0,0-.14,0S132.88,358,132.85,358.08Zm7.69-6.08v0a.58.58,0,0,0,.23,0,.25.25,0,0,0,.15-.15c0-.05-.06-.14-.11-.18a.58.58,0,0,0-.62,0,.14.14,0,0,0,0,.25A3.84,3.84,0,0,0,140.54,352Z" style="fill: #ed1c24"/>
      <path d="M142,351.86c.46.11.89.18,1.3.31a11.43,11.43,0,0,1,1.38.51,9.09,9.09,0,0,1,2,1.18,1.08,1.08,0,0,1,.11.24.69.69,0,0,1-.24,0c-.49-.2-1-.42-1.45-.63l-1.2-.5-1.17-.5c-.24-.1-.48-.19-.71-.3a.25.25,0,0,1-.14-.19C141.82,352,141.93,351.9,142,351.86Z" style="fill: #fff"/>
      <path d="M132.85,358.08s.05-.1.08-.11a.21.21,0,0,1,.14,0c.29.24.56.49.84.73l1.57,1.41s.08.06.09.09a.49.49,0,0,1,0,.2s-.11,0-.15,0a4.83,4.83,0,0,1-1.43-1c-.38-.38-.72-.81-1.07-1.22A1.12,1.12,0,0,1,132.85,358.08Z" style="fill: #fff"/>
      <path d="M140.54,352a3.84,3.84,0,0,1-.36-.14.14.14,0,0,1,0-.25.58.58,0,0,1,.62,0c.05,0,.12.13.11.18a.25.25,0,0,1-.15.15.58.58,0,0,1-.23,0Z" style="fill: #fff"/>
    </g>
    <path d="M151.05,356.13l-2-.8a50.93,50.93,0,0,0-7.19-.87,49.55,49.55,0,0,0-8.61.33l-4.93.91" style="fill: #ed1c24;stroke: #231f20;stroke-miterlimit: 10"/>
    <g>
      <path d="M157.61,388.56l10.7-4.88c-2.78-1.9-5.2-3.58-7.65-5.22-1.92-1.28-3.93-1.19-6.14.21-2.05,1.29-4.09,2.6-6.24,4l1.5,1.28-1.52,1.31,3.15.33-2.95,1.33.14.35,2.52-.3.15.43a11.63,11.63,0,0,0-1.74.84,3.7,3.7,0,0,0-.77,1c.44.24.87.66,1.32.68a3.75,3.75,0,0,0,1.59-.48c2.36-1.05,2.73-.83,2.6,1.22a32,32,0,0,1,3.39-.19c4.15.19,7.24-1.74,10-4.46-3.12,1.59-5.87,4.3-9.86,3.16Zm-.94-9.69c2.2-1,5.05.38,9.64,4.8l-5.8,2.46C160.53,380.67,159.83,379.42,156.67,378.87Zm-3,6.38a3.43,3.43,0,0,1,1.47-4.68c1.21-.68,2.63-1.24,3.79.2,1.28,1.61,1.21,3.92-.21,5a16.53,16.53,0,0,0-.23-2.8c-.14-.59-.56-1.39-1-1.55a2.13,2.13,0,0,0-1.76.67A26.77,26.77,0,0,0,153.69,385.25Zm-3.51-2.57,2.69-1.91.39.3-1.34,3.2Z"/>
      <path d="M156.67,378.87c3.16.55,3.86,1.8,3.84,7.26l5.8-2.46C161.72,379.25,158.87,377.87,156.67,378.87Z" style="fill: #fff"/>
      <path d="M153.69,385.25a26.77,26.77,0,0,1,2-3.16,2.13,2.13,0,0,1,1.76-.67c.49.16.91,1,1,1.55a16.53,16.53,0,0,1,.23,2.8c1.42-1.08,1.49-3.39.21-5-1.16-1.44-2.58-.88-3.79-.2A3.43,3.43,0,0,0,153.69,385.25Z" style="fill: #39b54a"/>
      <path d="M150.18,382.68l1.74,1.59,1.34-3.2-.39-.3Z" style="fill: #fff"/>
    </g>
    <g>
      <path d="M127.34,388.3,138,383.43c-2.77-1.9-5.19-3.59-7.65-5.22-1.92-1.28-3.93-1.19-6.14.2l-6.24,4,1.51,1.29L118,385l3.14.33-2.94,1.34.14.35,2.52-.31.15.43a14.12,14.12,0,0,0-1.75.84,3.91,3.91,0,0,0-.77,1c.44.24.88.65,1.33.67a3.82,3.82,0,0,0,1.59-.47c2.35-1.05,2.73-.84,2.6,1.22a31.61,31.61,0,0,1,3.38-.19c4.15.18,7.24-1.74,10-4.46-3.12,1.58-5.86,4.29-9.85,3.15Zm-.94-9.68c2.19-1,5,.37,9.63,4.8l-5.8,2.46C130.25,380.41,129.55,379.16,126.4,378.62Zm-3,6.38a3.44,3.44,0,0,1,1.46-4.69c1.22-.68,2.63-1.23,3.79.21,1.28,1.6,1.22,3.91-.21,5a16.44,16.44,0,0,0-.22-2.79c-.15-.59-.56-1.4-1.05-1.56a2.16,2.16,0,0,0-1.77.68A27.17,27.17,0,0,0,123.42,385Zm-3.52-2.58,2.7-1.9.39.3L121.64,384Z"/>
      <path d="M126.4,378.62c3.15.54,3.85,1.79,3.83,7.26l5.8-2.46C131.44,379,128.59,377.61,126.4,378.62Z" style="fill: #fff"/>
      <path d="M123.42,385a27.17,27.17,0,0,1,2-3.16,2.16,2.16,0,0,1,1.77-.68c.49.16.9,1,1.05,1.56a16.44,16.44,0,0,1,.22,2.79c1.43-1.08,1.49-3.39.21-5-1.16-1.44-2.57-.89-3.79-.21A3.44,3.44,0,0,0,123.42,385Z" style="fill: #39b54a"/>
      <path d="M119.9,382.42l1.74,1.59,1.35-3.19-.39-.3Z" style="fill: #fff"/>
    </g>
    <path d="M155.44,342.77a38.61,38.61,0,0,0,3.65-2.26c3-2.43,2.84-3.44-.48-5-5.89-2.73-11.77-5.49-17.57-8.36-1.77-.87-3.2-1.1-4.56.65s-2.3,3.1.11,4.59c4.76,2.95,9.24,6.22,14,9.13C152,342.39,154.08,342.45,155.44,342.77Z" style="fill: #bc245e"/>
    <path d="M144.78,155.19c.4,1.48.76,3,1.21,4.45.51,1.7.15,2.18-2.2,2.87a16.17,16.17,0,0,0-1.85.81l.18.34a5,5,0,0,0,1.12-.11c4-1.37,5.07-1.36,3.67-4.85-.46-1.16-.83-2.34-1.25-3.51Z"/>
    <path d="M140.66,378.66c-.4-1.49-.77-3-1.22-4.45-.51-1.7-.14-2.18,2.2-2.88a14,14,0,0,0,1.86-.81l-.19-.33a5,5,0,0,0-1.12.11c-4,1.37-5.07,1.36-3.67,4.85.46,1.16.84,2.34,1.25,3.51Z"/>
    <path d="M50.26,137.55c-.86-1-1.71-1.92-2.37-2.91C45,130.25,46,126.12,49.83,123c2.9-2.33,7.26-2.38,10.75.64s3.61,7.17,1.28,10.9c-.69,1.1-1.56,2.09-2.44,3.26,2.35-1.36,4.75-2.18,7.38-1.49A9.22,9.22,0,0,1,72.55,141a7.4,7.4,0,0,1-1.78,8.83,8.71,8.71,0,0,1-7.4,2.17,9.78,9.78,0,0,1-6.26-4.47l-.23.14c.46,1.68.86,3.38,1.41,5s1.26,3.27,1.92,5H49.5c1.36-3.48,3.1-6.8,3.71-10.48l-.21-.11c-.2.28-.39.57-.61.84-1.78,2.23-3.86,4.12-6.91,4.41a8.56,8.56,0,0,1-8.86-6.48c-.79-3.45.66-6.11,3.27-8.26s5.4-2,8.35-.93C48.89,136.88,49.5,137.21,50.26,137.55Z"/>
  </g>
</svg>
