<svg id="Layer_1" data-name="Layer 1" xmlns="http://www.w3.org/2000/svg" width="113.31mm" height="179.03mm" viewBox="0 0 321.19 507.49">
  <title>r-3</title>
  <g>
    <path d="M1,253.7Q1,364.39,1,475.08c0,11.37,4,20.35,13.17,26.67a26.85,26.85,0,0,0,15.59,4.74H79.55q105.59,0,211.16,0c12.62,0,22-6,27-18,1.77-4.21,2.31-9.26,2.31-13.93q.21-126.25.1-252.51c0-63.31-.12-126.62.08-189.93.05-15.87-9.91-27.34-22-30.22A38.55,38.55,0,0,0,289.29,1q-129-.08-258,0C13,1,1.05,13.37,1.05,32.32Q1,143,1,253.7Zm318.18-.12q0,111.15,0,222.31c0,17.13-11.86,29.5-28.3,29.5q-130.34,0-260.66,0c-16.45,0-28.31-12.39-28.31-29.5q0-222.15,0-444.32c0-17.12,11.88-29.51,28.3-29.51q130.34,0,260.66,0a26.76,26.76,0,0,1,5.37.38c14,2.83,22.94,14.19,22.94,29.12Q319.24,142.57,319.22,253.58Z" style="fill: #fff;stroke: #231f20;stroke-miterlimit: 10;stroke-width: 2px"/>
    <path d="M319.22,253.58q0-111,0-222c0-14.93-8.95-26.29-22.94-29.12a26.76,26.76,0,0,0-5.37-.38q-130.32,0-260.66,0c-16.42,0-28.3,12.39-28.3,29.51q0,222.17,0,444.32c0,17.11,11.86,29.5,28.31,29.5q130.32,0,260.66,0c16.44,0,28.3-12.37,28.3-29.5Q319.24,364.74,319.22,253.58Z" style="fill: #fff;stroke: #231f20;stroke-miterlimit: 10;stroke-width: 2px"/>
  </g>
  <text transform="translate(21.75 61.45)" style="font-size: 72px;fill: #ed1c24;font-family: LumberjackRough, Lumberjack">3</text>
  <g>
    <path d="M38.34,106.81A165.7,165.7,0,0,1,52.86,87.69c-5-6.5-9.85-12.87-14.72-19.25a6.16,6.16,0,0,0-.49.6c-1,1.4-1.83,2.84-2.86,4.18-3.37,4.37-6.79,8.71-10.2,13-1.18,1.5-1.07,1.09-.05,2.39,2,2.53,4.06,5,6,7.53C33.18,99.69,35.73,103.25,38.34,106.81Z" style="fill: #ed1c24"/>
    <path d="M38.34,106.81c-2.61-3.56-5.16-7.12-7.8-10.62-1.94-2.55-4-5-6-7.53-1-1.3-1.13-.89.05-2.39,3.41-4.34,6.83-8.68,10.2-13,1-1.34,1.9-2.78,2.86-4.18a6.16,6.16,0,0,1,.49-.6C43,74.82,47.89,81.19,52.86,87.69A165.7,165.7,0,0,0,38.34,106.81Z" style="fill: #ed1c24"/>
  </g>
  <g>
    <path d="M160.65,162.41a268.11,268.11,0,0,1,23.56-31l-23.89-31.25a10.73,10.73,0,0,0-.8,1c-1.55,2.26-3,4.62-4.63,6.78-5.48,7.1-11,14.13-16.57,21.18-1.91,2.43-1.74,1.78-.08,3.89,3.22,4.1,6.6,8.08,9.74,12.22C152.28,150.85,156.41,156.63,160.65,162.41Z" style="fill: #ed1c24"/>
    <path d="M160.65,162.41c-4.24-5.78-8.37-11.56-12.67-17.23-3.14-4.14-6.52-8.12-9.74-12.22-1.66-2.11-1.83-1.46.08-3.89,5.54-7,11.09-14.08,16.57-21.18,1.67-2.16,3.08-4.52,4.63-6.78a10.73,10.73,0,0,1,.8-1l23.89,31.25A268.11,268.11,0,0,0,160.65,162.41Z" style="fill: #ed1c24"/>
  </g>
  <g>
    <path d="M160.67,303.21a269,269,0,0,1,23.56-31l-23.89-31.24a9.47,9.47,0,0,0-.8,1c-1.55,2.25-3,4.61-4.63,6.78-5.48,7.09-11,14.13-16.57,21.18-1.91,2.42-1.74,1.77-.08,3.88,3.22,4.1,6.6,8.08,9.74,12.23C152.3,291.65,156.43,297.43,160.67,303.21Z" style="fill: #ed1c24"/>
    <path d="M160.67,303.21c-4.24-5.78-8.37-11.56-12.67-17.22-3.14-4.15-6.52-8.13-9.74-12.23-1.66-2.11-1.83-1.46.08-3.88,5.54-7.05,11.09-14.09,16.57-21.18,1.67-2.17,3.08-4.53,4.63-6.78a9.47,9.47,0,0,1,.8-1l23.89,31.24A269,269,0,0,0,160.67,303.21Z" style="fill: #ed1c24"/>
  </g>
  <g>
    <path d="M160.67,458.38a269,269,0,0,1,23.56-31l-23.89-31.24a9.47,9.47,0,0,0-.8,1c-1.55,2.26-3,4.61-4.63,6.78-5.48,7.09-11,14.13-16.57,21.18-1.91,2.43-1.74,1.77-.08,3.88,3.22,4.1,6.6,8.08,9.74,12.23C152.3,446.82,156.43,452.6,160.67,458.38Z" style="fill: #ed1c24"/>
    <path d="M160.67,458.38c-4.24-5.78-8.37-11.56-12.67-17.22-3.14-4.15-6.52-8.13-9.74-12.23-1.66-2.11-1.83-1.45.08-3.88,5.54-7.05,11.09-14.09,16.57-21.18,1.67-2.17,3.08-4.52,4.63-6.78a9.47,9.47,0,0,1,.8-1l23.89,31.24A269,269,0,0,0,160.67,458.38Z" style="fill: #ed1c24"/>
  </g>
</svg>
