<svg id="Layer_1" data-name="Layer 1" xmlns="http://www.w3.org/2000/svg" width="113.31mm" height="179.03mm" viewBox="0 0 321.19 507.49">
  <title>r-8</title>
  <g>
    <path d="M1,253.7Q1,364.39,1,475.08c0,11.37,4,20.35,13.17,26.67a26.85,26.85,0,0,0,15.59,4.74H79.55q105.59,0,211.16,0c12.62,0,22-6,27-18,1.77-4.21,2.31-9.26,2.31-13.93q.21-126.25.1-252.51c0-63.31-.12-126.62.08-189.93.05-15.87-9.91-27.34-22-30.22A38.55,38.55,0,0,0,289.29,1q-129-.08-258,0C13,1,1.05,13.37,1.05,32.32Q1,143,1,253.7Zm318.18-.12q0,111.15,0,222.31c0,17.13-11.86,29.5-28.3,29.5q-130.34,0-260.66,0c-16.45,0-28.31-12.39-28.31-29.5q0-222.15,0-444.32c0-17.12,11.88-29.51,28.3-29.51q130.34,0,260.66,0a26.76,26.76,0,0,1,5.37.38c14,2.83,22.94,14.19,22.94,29.12Q319.24,142.57,319.22,253.58Z" style="fill: #fff;stroke: #231f20;stroke-miterlimit: 10;stroke-width: 2px"/>
    <path d="M319.22,253.58q0-111,0-222c0-14.93-8.95-26.29-22.94-29.12a26.76,26.76,0,0,0-5.37-.38q-130.32,0-260.66,0c-16.42,0-28.3,12.39-28.3,29.51q0,222.17,0,444.32c0,17.11,11.86,29.5,28.31,29.5q130.32,0,260.66,0c16.44,0,28.3-12.37,28.3-29.5Q319.24,364.74,319.22,253.58Z" style="fill: #fff;stroke: #231f20;stroke-miterlimit: 10;stroke-width: 2px"/>
  </g>
  <text transform="translate(22.38 58.39)" style="font-size: 72px;fill: #ed1c24;font-family: LumberjackRough, Lumberjack">8</text>
  <g>
    <path d="M38.34,104.86A166.44,166.44,0,0,1,52.86,85.75L38.14,66.5a6.16,6.16,0,0,0-.49.6c-1,1.39-1.83,2.84-2.86,4.18-3.37,4.37-6.79,8.7-10.2,13-1.18,1.49-1.07,1.09-.05,2.39,2,2.53,4.06,5,6,7.53C33.18,97.74,35.73,101.3,38.34,104.86Z" style="fill: #ed1c24"/>
    <path d="M38.34,104.86c-2.61-3.56-5.16-7.12-7.8-10.61-1.94-2.55-4-5-6-7.53-1-1.3-1.13-.9.05-2.39,3.41-4.35,6.83-8.68,10.2-13,1-1.34,1.9-2.79,2.86-4.18a6.16,6.16,0,0,1,.49-.6L52.86,85.75A166.44,166.44,0,0,0,38.34,104.86Z" style="fill: #ed1c24"/>
  </g>
  <g>
    <g>
      <path d="M81.94,166.5a268,268,0,0,1,23.56-31L81.61,104.23a11,11,0,0,0-.8,1c-1.55,2.26-3,4.61-4.63,6.78-5.47,7.09-11,14.13-16.57,21.18-1.9,2.43-1.73,1.77-.07,3.89,3.21,4.09,6.59,8.07,9.73,12.22C73.57,154.94,77.7,160.72,81.94,166.5Z" style="fill: #ed1c24"/>
      <path d="M81.94,166.5c-4.24-5.78-8.37-11.56-12.67-17.22-3.14-4.15-6.52-8.13-9.73-12.22-1.66-2.12-1.83-1.46.07-3.89,5.54-7,11.1-14.09,16.57-21.18,1.67-2.17,3.08-4.52,4.63-6.78a11,11,0,0,1,.8-1l23.89,31.25A268,268,0,0,0,81.94,166.5Z" style="fill: #ed1c24"/>
    </g>
    <g>
      <path d="M81.94,273.43a269,269,0,0,1,23.56-31L81.61,211.16a11,11,0,0,0-.8,1c-1.55,2.25-3,4.61-4.63,6.78-5.47,7.09-11,14.13-16.57,21.18-1.9,2.42-1.73,1.77-.07,3.88,3.21,4.1,6.59,8.08,9.73,12.23C73.57,261.87,77.7,267.65,81.94,273.43Z" style="fill: #ed1c24"/>
      <path d="M81.94,273.43c-4.24-5.78-8.37-11.56-12.67-17.22-3.14-4.15-6.52-8.13-9.73-12.23-1.66-2.11-1.83-1.46.07-3.88,5.54-7,11.1-14.09,16.57-21.18,1.67-2.17,3.08-4.53,4.63-6.78a11,11,0,0,1,.8-1L105.5,242.4A269,269,0,0,0,81.94,273.43Z" style="fill: #ed1c24"/>
    </g>
    <g>
      <path d="M81.94,375.68a269,269,0,0,1,23.56-31L81.61,313.41a11,11,0,0,0-.8,1c-1.55,2.26-3,4.61-4.63,6.78-5.47,7.09-11,14.13-16.57,21.18-1.9,2.43-1.73,1.77-.07,3.89,3.21,4.09,6.59,8.07,9.73,12.22C73.57,364.12,77.7,369.9,81.94,375.68Z" style="fill: #ed1c24"/>
      <path d="M81.94,375.68c-4.24-5.78-8.37-11.56-12.67-17.22-3.14-4.15-6.52-8.13-9.73-12.22-1.66-2.12-1.83-1.46.07-3.89,5.54-7.05,11.1-14.09,16.57-21.18,1.67-2.17,3.08-4.52,4.63-6.78a11,11,0,0,1,.8-1l23.89,31.24A269,269,0,0,0,81.94,375.68Z" style="fill: #ed1c24"/>
    </g>
    <g>
      <path d="M81.94,477.93a268,268,0,0,1,23.56-31L81.61,415.66c-.14.17-.5.55-.8,1-1.55,2.26-3,4.61-4.63,6.78-5.47,7.09-11,14.13-16.57,21.18-1.9,2.43-1.73,1.77-.07,3.89,3.21,4.09,6.59,8.07,9.73,12.22C73.57,466.38,77.7,472.15,81.94,477.93Z" style="fill: #ed1c24"/>
      <path d="M81.94,477.93c-4.24-5.78-8.37-11.55-12.67-17.22-3.14-4.15-6.52-8.13-9.73-12.22-1.66-2.12-1.83-1.46.07-3.89,5.54-7.05,11.1-14.09,16.57-21.18,1.67-2.17,3.08-4.52,4.63-6.78.3-.43.66-.81.8-1l23.89,31.25A268,268,0,0,0,81.94,477.93Z" style="fill: #ed1c24"/>
    </g>
    <g>
      <path d="M239.39,169A270.18,270.18,0,0,1,263,138l-23.9-31.24a11.37,11.37,0,0,0-.79,1c-1.55,2.26-3,4.61-4.64,6.78-5.47,7.09-11,14.13-16.56,21.18-1.91,2.43-1.74,1.77-.08,3.89,3.21,4.09,6.6,8.07,9.74,12.22C231,157.43,235.16,163.21,239.39,169Z" style="fill: #ed1c24"/>
      <path d="M239.39,169c-4.23-5.78-8.37-11.56-12.66-17.22-3.14-4.15-6.53-8.13-9.74-12.22-1.66-2.12-1.83-1.46.08-3.89,5.54-7,11.09-14.09,16.56-21.18,1.67-2.17,3.09-4.52,4.64-6.78a11.37,11.37,0,0,1,.79-1L263,138A270.18,270.18,0,0,0,239.39,169Z" style="fill: #ed1c24"/>
    </g>
    <g>
      <path d="M239.39,266A270.18,270.18,0,0,1,263,235l-23.9-31.24a11.37,11.37,0,0,0-.79,1c-1.55,2.25-3,4.61-4.64,6.78-5.47,7.09-11,14.13-16.56,21.17-1.91,2.43-1.74,1.78-.08,3.89,3.21,4.1,6.6,8.08,9.74,12.22C231,254.44,235.16,260.22,239.39,266Z" style="fill: #ed1c24"/>
      <path d="M239.39,266c-4.23-5.78-8.37-11.56-12.66-17.23-3.14-4.14-6.53-8.12-9.74-12.22-1.66-2.11-1.83-1.46.08-3.89,5.54-7,11.09-14.08,16.56-21.17,1.67-2.17,3.09-4.53,4.64-6.78a11.37,11.37,0,0,1,.79-1L263,235A270.18,270.18,0,0,0,239.39,266Z" style="fill: #ed1c24"/>
    </g>
    <g>
      <path d="M239.39,376.53a270.18,270.18,0,0,1,23.57-31l-23.9-31.24a11.37,11.37,0,0,0-.79,1c-1.55,2.25-3,4.61-4.64,6.78-5.47,7.09-11,14.13-16.56,21.18-1.91,2.42-1.74,1.77-.08,3.88,3.21,4.1,6.6,8.08,9.74,12.23C231,365,235.16,370.75,239.39,376.53Z" style="fill: #ed1c24"/>
      <path d="M239.39,376.53c-4.23-5.78-8.37-11.56-12.66-17.22-3.14-4.15-6.53-8.13-9.74-12.23-1.66-2.11-1.83-1.46.08-3.88,5.54-7.05,11.09-14.09,16.56-21.18,1.67-2.17,3.09-4.53,4.64-6.78a11.37,11.37,0,0,1,.79-1L263,345.5A270.18,270.18,0,0,0,239.39,376.53Z" style="fill: #ed1c24"/>
    </g>
    <g>
      <path d="M239.39,480.85a270.18,270.18,0,0,1,23.57-31l-23.9-31.25c-.13.17-.5.56-.79,1-1.55,2.26-3,4.62-4.64,6.78-5.47,7.1-11,14.14-16.56,21.18-1.91,2.43-1.74,1.78-.08,3.89,3.21,4.1,6.6,8.08,9.74,12.22C231,469.29,235.16,475.07,239.39,480.85Z" style="fill: #ed1c24"/>
      <path d="M239.39,480.85c-4.23-5.78-8.37-11.56-12.66-17.23-3.14-4.14-6.53-8.12-9.74-12.22-1.66-2.11-1.83-1.46.08-3.89,5.54-7,11.09-14.08,16.56-21.18,1.67-2.16,3.09-4.52,4.64-6.78.29-.42.66-.81.79-1L263,449.82A270.18,270.18,0,0,0,239.39,480.85Z" style="fill: #ed1c24"/>
    </g>
  </g>
</svg>
