<svg id="Layer_1" data-name="Layer 1" xmlns="http://www.w3.org/2000/svg" width="113.31mm" height="179.03mm" viewBox="0 0 321.19 507.49">
  <title>s-1</title>
  <g>
    <path d="M1,253.7Q1,364.39,1,475.08c0,11.37,4,20.35,13.17,26.67a26.85,26.85,0,0,0,15.59,4.74H79.55q105.59,0,211.16,0c12.62,0,22-6,27-18,1.77-4.21,2.31-9.26,2.31-13.93q.21-126.25.1-252.51c0-63.31-.12-126.62.08-189.93.05-15.87-9.91-27.34-22-30.22A38.55,38.55,0,0,0,289.29,1q-129-.08-258,0C13,1,1.05,13.37,1.05,32.32Q1,143,1,253.7Zm318.18-.12q0,111.15,0,222.31c0,17.13-11.86,29.5-28.3,29.5q-130.34,0-260.66,0c-16.45,0-28.31-12.39-28.31-29.5q0-222.15,0-444.32c0-17.12,11.88-29.51,28.3-29.51q130.34,0,260.66,0a26.76,26.76,0,0,1,5.37.38c14,2.83,22.94,14.19,22.94,29.12Q319.24,142.57,319.22,253.58Z" style="fill: #fff;stroke: #231f20;stroke-miterlimit: 10;stroke-width: 2px"/>
    <path d="M319.22,253.58q0-111,0-222c0-14.93-8.95-26.29-22.94-29.12a26.76,26.76,0,0,0-5.37-.38q-130.32,0-260.66,0c-16.42,0-28.3,12.39-28.3,29.51q0,222.17,0,444.32c0,17.11,11.86,29.5,28.31,29.5q130.32,0,260.66,0c16.44,0,28.3-12.37,28.3-29.5Q319.24,364.74,319.22,253.58Z" style="fill: #fff;stroke: #231f20;stroke-miterlimit: 10;stroke-width: 2px"/>
  </g>
  <text transform="translate(18.49 61.45)" style="font-size: 72px;fill: #231f20;font-family: LumberjackRough, Lumberjack;letter-spacing: -0.03999159071180555em">A</text>
  <g>
    <path d="M43.1,102.47C41,99.75,39,97.22,39.65,93.64l1.45.94a8.38,8.38,0,0,0,12.76-8.1c-.27-3.53-2.23-6.31-4.79-8.75-1.92-1.84-4-3.52-5.92-5.36-2.08-2-4-4.12-6-6.15-1.39,1.53-2.77,3.2-4.33,4.73-2.54,2.5-5.26,4.84-7.78,7.35C22.37,81,20.57,84,20.7,87.83a7.42,7.42,0,0,0,4.73,7A8.6,8.6,0,0,0,34,94.2a7.89,7.89,0,0,1,.81-.39c1,3.51-.95,6-2.94,8.66Z" style="fill: #231f20"/>
    <path d="M43.1,102.47H31.89c2-2.62,3.92-5.15,2.94-8.66a7.89,7.89,0,0,0-.81.39,8.6,8.6,0,0,1-8.59.67,7.42,7.42,0,0,1-4.73-7C20.57,84,22.37,81,25,78.3c2.52-2.51,5.24-4.85,7.78-7.35,1.56-1.53,2.94-3.2,4.33-4.73,2,2,3.93,4.15,6,6.15,1.91,1.84,4,3.52,5.92,5.36,2.56,2.44,4.52,5.22,4.79,8.75a8.38,8.38,0,0,1-12.76,8.1l-1.45-.94C39,97.22,41,99.75,43.1,102.47Z"/>
  </g>
  <g>
    <path d="M191.16,194.72c-4.28,8.85-8.2,17-12.21,25.19q-8.87,18-17.86,35.86c-.26.53-1,1.21-1.43,1.19a2.55,2.55,0,0,1-1.9-1c-2.38-4.64-4.62-9.35-6.92-14-3.07-6.23-6.17-12.44-9.22-18.67S135.74,211,132.73,205c-1.64-3.28-3.44-6.48-5.29-9.94A85.59,85.59,0,0,0,110,206.37a2.09,2.09,0,0,0-.49,1.92c1.52,3.35,3.19,6.63,4.84,9.93,5.75,11.49,11.55,23,17.28,34.47,4.32,8.67,8.67,17.34,12.79,26.11,1,2.13,3.2,4.18,1.92,6.92-1.62,3.48-3.38,6.9-5.09,10.34q-5.52,11-11.05,22.07c-3.1,6.21-6.16,12.43-9.24,18.64-2.83,5.67-5.7,11.33-8.5,17-3.06,6.23-6,12.51-9.1,18.73-2.92,5.91-6,11.75-8.84,17.7-1.64,3.44,0,6.89,3.65,8.47,2.64,1.15,5.26,2.35,7.83,3.63,3.79,1.9,6.37,1.32,8.4-2.2,1.33-2.29,2.48-4.69,3.64-7.08,3.52-7.23,6.94-14.51,10.51-21.71,4.58-9.21,9.35-18.33,13.9-27.55,5.13-10.38,10.09-20.83,15.19-31.22a2.75,2.75,0,0,1,1.86-1.42c.58,0,1.38.86,1.71,1.52,2.6,5.12,5.12,10.28,7.65,15.44,3,6.15,6,12.32,9,18.46,3,6,6,11.93,9,17.9s5.86,11.86,8.77,17.79,5.67,11.89,8.76,17.71c2,3.82,4.75,4.31,8.79,2.26,2.48-1.27,5-2.46,7.57-3.57,3.55-1.55,5.15-5,3.51-8.52-2.73-5.81-5.63-11.55-8.5-17.3-3.58-7.21-7.24-14.39-10.79-21.61S198.08,337,194.6,330c-3.64-7.38-7.38-14.72-11-22.09-2.93-5.9-5.63-11.91-8.8-17.68-1.94-3.54-3.68-6.78-.86-10.57a15.69,15.69,0,0,0,1.37-2.48c3.58-7.32,7.13-14.66,10.73-22,4.09-8.29,8.23-16.55,12.34-24.83,3.58-7.22,7.21-14.43,10.67-21.71a2.89,2.89,0,0,0-.67-2.68,78.09,78.09,0,0,0-7.4-5.34C197.89,198.65,194.73,196.86,191.16,194.72ZM54.7,163.85c-5.73,0-11.46.07-17.19,0-2,0-2.83.61-2.38,2.55,1.06,4.65,1.89,9.36,3.28,13.92A123.45,123.45,0,0,0,44,195.67a136.24,136.24,0,0,0,9.39,17.76c4.58,7,9.81,13.71,15,20.36,2.11,2.69,2.63,2.47,4.73-.12.82-1,1.55-2.08,2.37-3.08,6.15-7.59,12-15.48,18.57-22.66,10.58-11.48,23.78-19.5,38.21-25.72,2.9-1.25,4.28-2.49,3.06-5-4.28-8.59-8.38-17.27-12.58-25.9-1.61-3.31-2.77-3.67-5.79-2.3-8.17,3.69-16.08,7.92-24.84,10.32-8.56,2.34-17.15,4.32-26.07,4.47C62.29,163.91,58.49,163.86,54.7,163.85Zm228.73,2.7c.05-2.66,0-2.61-2.34-2.7-13.77-.51-27.65,1.53-41.32-1.57-5.28-1.2-10.77-1.81-15.8-3.66-7.75-2.85-15.22-6.45-22.72-9.93-1.87-.87-3-.68-3.94.92-1.38,2.46-2.64,5-3.89,7.51-3.15,6.38-6.35,12.73-9.36,19.17-1.52,3.24-.52,4.55,2.8,6.17,6.62,3.25,13.31,6.45,19.56,10.3,15.48,9.53,26.18,23.61,36.78,37.75,4.74,6.33,3.6,6.62,9.28.28a121.35,121.35,0,0,0,17.35-26.18c2.72-5.32,4.91-10.91,7.15-16.45,1.62-4,3.06-8.14,4.31-12.3C282.27,172.59,282.83,169.2,283.43,166.55Zm19.93-2.8v0c-2.56,0-5.13-.13-7.66.08a3.19,3.19,0,0,0-2.35,1.64c-1.56,5.76-2.69,11.65-4.4,17.37a126,126,0,0,1-5.68,15.65c-2.73,6.1-5.87,12-9.12,17.88a108.73,108.73,0,0,1-18.85,25.2c-1.68,1.64-1.54,2.82-.29,4.4,3.06,3.85,6.22,7.65,9.09,11.64,1.38,1.92,2.3,1.81,3.88.33a104.11,104.11,0,0,0,17-20.53c4.46-7,8.59-14.28,12.51-21.61a127.53,127.53,0,0,0,6.94-15.42,162.59,162.59,0,0,0,5.5-17.58c1.37-5.46,2.08-11.08,3.11-16.62.38-2.06-.66-2.55-2.53-2.48C308.12,163.82,305.74,163.75,303.36,163.75Zm-288,0v0c-2.47,0-4.94.08-7.4,0-1.83-.07-2.46.46-2.33,2.36a82,82,0,0,0,4.73,22.28c2.86,7.87,5.41,15.88,8.92,23.47,4.93,10.66,10.59,21,17.86,30.4,4.33,5.57,9.29,10.68,14,16,1.08,1.24,2,1.43,3.14-.07,3.08-4,6.27-8,9.41-12a2.51,2.51,0,0,0-.29-3.84c-8.23-8-14.62-17.29-20.19-27.1S32.46,195.06,29.5,184q-2.45-9.15-4.47-18.42c-.32-1.45-.88-1.84-2.24-1.81C20.33,163.83,17.86,163.79,15.39,163.79Zm87.71-18.2c-.85-1.9-1.39-3.23-2-4.52a25.59,25.59,0,0,0-2.15-3.78,5.89,5.89,0,0,0-7.22-2.07c-3.41,1.5-6.78,3.13-10,4.93s-3.46,5.88-.5,10.78c1.49,2.46,3.67.71,5.55.06.41-.14.84-.25,1.25-.38Zm112.61-.48c1.8.81,3.26,1.59,4.8,2.12,3.86,1.34,7.8,2.45,11.63,3.86,4.29,1.59,5,1.43,6.75-2.54s.63-7.11-3.33-9.07c-2.64-1.3-5.24-2.66-7.87-4a6,6,0,0,0-7.87,1.9C218.29,139.73,217.17,142.33,215.71,145.11Z" style="fill: #ed1c24;stroke: #ed1c24;stroke-miterlimit: 10"/>
    <path d="M191.16,194.72c3.57,2.14,6.73,3.93,9.77,5.89a78.09,78.09,0,0,1,7.4,5.34,2.89,2.89,0,0,1,.67,2.68c-3.46,7.28-7.09,14.49-10.67,21.71-4.11,8.28-8.25,16.54-12.34,24.83-3.6,7.31-7.15,14.65-10.73,22a15.69,15.69,0,0,1-1.37,2.48c-2.82,3.79-1.08,7,.86,10.57,3.17,5.77,5.87,11.78,8.8,17.68,3.67,7.37,7.41,14.71,11,22.09,3.48,7.07,6.84,14.19,10.33,21.26s7.21,14.4,10.79,21.61c2.87,5.75,5.77,11.49,8.5,17.3,1.64,3.48,0,7-3.51,8.52-2.56,1.11-5.09,2.3-7.57,3.57-4,2-6.77,1.56-8.79-2.26-3.09-5.82-5.85-11.8-8.76-17.71s-5.82-11.87-8.77-17.79-6-11.92-9-17.9c-3-6.14-6-12.31-9-18.46-2.53-5.16-5-10.32-7.65-15.44-.33-.66-1.13-1.52-1.71-1.52a2.75,2.75,0,0,0-1.86,1.42c-5.1,10.39-10.06,20.84-15.19,31.22-4.55,9.22-9.32,18.34-13.9,27.55-3.57,7.2-7,14.48-10.51,21.71-1.16,2.39-2.31,4.79-3.64,7.08-2,3.52-4.61,4.1-8.4,2.2-2.57-1.28-5.19-2.48-7.83-3.63-3.61-1.58-5.29-5-3.65-8.47,2.83-6,5.92-11.79,8.84-17.7,3.07-6.22,6-12.5,9.1-18.73,2.8-5.69,5.67-11.35,8.5-17,3.08-6.21,6.14-12.43,9.24-18.64q5.51-11,11.05-22.07c1.71-3.44,3.47-6.86,5.09-10.34,1.28-2.74-.92-4.79-1.92-6.92-4.12-8.77-8.47-17.44-12.79-26.11-5.73-11.5-11.53-23-17.28-34.47-1.65-3.3-3.32-6.58-4.84-9.93a2.09,2.09,0,0,1,.49-1.92A85.59,85.59,0,0,1,127.44,195c1.85,3.46,3.65,6.66,5.29,9.94,3,6.06,5.91,12.18,8.89,18.27s6.15,12.44,9.22,18.67c2.3,4.68,4.54,9.39,6.92,14a2.55,2.55,0,0,0,1.9,1c.47,0,1.17-.66,1.43-1.19q9-17.91,17.86-35.86C183,211.76,186.88,203.57,191.16,194.72Z" style="fill: #ed1c24;stroke: #ed1c24;stroke-miterlimit: 10"/>
    <path d="M54.7,163.86c3.79,0,7.59,0,11.38,0,8.92-.15,17.51-2.13,26.07-4.47,8.76-2.4,16.67-6.63,24.84-10.32,3-1.37,4.18-1,5.79,2.3,4.2,8.63,8.3,17.31,12.58,25.9,1.22,2.46-.16,3.7-3.06,5-14.43,6.22-27.63,14.24-38.21,25.72-6.62,7.18-12.42,15.07-18.57,22.66-.82,1-1.55,2.07-2.37,3.08-2.1,2.59-2.62,2.81-4.73.12-5.2-6.65-10.43-13.31-15-20.36A136.24,136.24,0,0,1,44,195.67a123.45,123.45,0,0,1-5.61-15.38c-1.39-4.56-2.22-9.27-3.28-13.92-.45-1.94.39-2.58,2.38-2.55C43.24,163.92,49,163.85,54.7,163.86Z" style="fill: #ed1c24;stroke: #ed1c24;stroke-miterlimit: 10"/>
    <path d="M283.43,166.55c-.6,2.65-1.16,6-2.14,9.31-1.25,4.16-2.69,8.27-4.31,12.3-2.24,5.54-4.43,11.13-7.15,16.45a121.35,121.35,0,0,1-17.35,26.18c-5.68,6.34-4.54,6.05-9.28-.28-10.6-14.14-21.3-28.22-36.78-37.75-6.25-3.85-12.94-7-19.56-10.3-3.32-1.62-4.32-2.93-2.8-6.17,3-6.44,6.21-12.79,9.36-19.17,1.25-2.52,2.51-5.05,3.89-7.51.9-1.6,2.07-1.79,3.94-.92,7.5,3.48,15,7.08,22.72,9.93,5,1.85,10.52,2.46,15.8,3.66,13.67,3.1,27.55,1.06,41.32,1.57C283.45,163.94,283.48,163.89,283.43,166.55Z" style="fill: #ed1c24;stroke: #ed1c24;stroke-miterlimit: 10"/>
    <path d="M303.36,163.75c2.38,0,4.76.07,7.13,0,1.87-.07,2.91.42,2.53,2.48-1,5.54-1.74,11.16-3.11,16.62a162.59,162.59,0,0,1-5.5,17.58,127.53,127.53,0,0,1-6.94,15.42c-3.92,7.33-8.05,14.58-12.51,21.61A104.11,104.11,0,0,1,268,258c-1.58,1.48-2.5,1.59-3.88-.33-2.87-4-6-7.79-9.09-11.64-1.25-1.58-1.39-2.76.29-4.4a108.73,108.73,0,0,0,18.85-25.2c3.25-5.85,6.39-11.78,9.12-17.88A126,126,0,0,0,289,182.87c1.71-5.72,2.84-11.61,4.4-17.37a3.19,3.19,0,0,1,2.35-1.64c2.53-.21,5.1-.08,7.66-.08Z" style="fill: #ed1c24;stroke: #ed1c24;stroke-miterlimit: 10"/>
    <path d="M15.39,163.79c2.47,0,4.94,0,7.4,0,1.36,0,1.92.36,2.24,1.81q2,9.25,4.47,18.42c3,11.05,8.08,21.24,13.7,31.15s12,19.13,20.19,27.1a2.51,2.51,0,0,1,.29,3.84c-3.14,4-6.33,8-9.41,12-1.13,1.5-2.06,1.31-3.14.07-4.67-5.32-9.63-10.43-14-16-7.27-9.36-12.93-19.74-17.86-30.4-3.51-7.59-6.06-15.6-8.92-23.47a82,82,0,0,1-4.73-22.28c-.13-1.9.5-2.43,2.33-2.36,2.46.11,4.93,0,7.4,0Z" style="fill: #ed1c24;stroke: #ed1c24;stroke-miterlimit: 10"/>
    <path d="M103.1,145.59l-15.15,5c-.41.13-.84.24-1.25.38-1.88.65-4.06,2.4-5.55-.06-3-4.9-2.68-9,.5-10.78s6.63-3.43,10-4.93a5.89,5.89,0,0,1,7.22,2.07,25.59,25.59,0,0,1,2.15,3.78C101.71,142.36,102.25,143.69,103.1,145.59Z" style="fill: #ed1c24;stroke: #ed1c24;stroke-miterlimit: 10"/>
    <path d="M215.71,145.11c1.46-2.78,2.58-5.38,4.11-7.72a6,6,0,0,1,7.87-1.9c2.63,1.33,5.23,2.69,7.87,4,4,2,5.13,5.1,3.33,9.07s-2.46,4.13-6.75,2.54c-3.83-1.41-7.77-2.52-11.63-3.86C219,146.7,217.51,145.92,215.71,145.11Z" style="fill: #ed1c24;stroke: #ed1c24;stroke-miterlimit: 10"/>
  </g>
  <g>
    <path d="M202.63,377c-15.19-18.21-29.87-35.18-25-59.18,4.41,2.65,7.44,4.53,10.55,6.31,21.57,12.35,49,11.33,68.84-2.87,18.6-13.33,25.31-31.14,23.64-51.38-2-23.66-16.21-42.3-34.71-58.65-13.92-12.3-29.11-23.54-43-35.89-15-13.41-29.19-27.57-43.52-41.2-10.06,10.23-20.1,21.46-31.36,31.68C109.66,182.5,90,198.18,71.69,215c-19.28,17.81-32.34,38.41-31.37,63.85.81,21.44,11.6,38.21,34.23,47.17,21.11,8.35,42.56,7.72,62.3-4.54a50.1,50.1,0,0,1,5.82-2.58c7.11,23.47-6.86,40.44-21.27,58Z" style="fill: #231f20"/>
    <path d="M202.63,377H121.4c14.41-17.57,28.38-34.54,21.27-58a50.1,50.1,0,0,0-5.82,2.58c-19.74,12.26-41.19,12.89-62.3,4.54-22.63-9-33.42-25.73-34.23-47.17-1-25.44,12.09-46,31.37-63.85,18.26-16.86,38-32.54,56.4-49.27,11.26-10.22,21.3-21.45,31.36-31.68,14.33,13.63,28.48,27.79,43.52,41.2,13.85,12.35,29,23.59,43,35.89,18.5,16.35,32.75,35,34.71,58.65,1.67,20.24-5,38.05-23.64,51.38-19.8,14.2-47.27,15.22-68.84,2.87-3.11-1.78-6.14-3.66-10.55-6.31C172.76,341.77,187.44,358.74,202.63,377Z"/>
  </g>
</svg>
