<svg id="Layer_1" data-name="Layer 1" xmlns="http://www.w3.org/2000/svg" viewBox="0 0 289 209">
  <title>burger menu</title>
  <g>
    <path d="M262.09,132H12A12,12,0,0,1,0,120V89c0-6.6,49,9,12-12H277a12,12,0,0,1,12,12v31c0,4.58-8.2,4.25-11.53,6.63A26.67,26.67,0,0,1,262.09,132Z" style="fill: #ae5634"/>
    <path d="M277,209H12c123-15-12-5.4-12-12V166c0-6.6,20-5,12-12H277c-7,18,12,5.4,12,12v31C289,203.6,255,192,277,209Z" style="fill: #ae5634"/>
    <path d="M277,55H12C43,19,0,49.6,0,43V12A12,12,0,0,1,12,0H277c-10,30,12,5.4,12,12V43A12,12,0,0,1,277,55Z" style="fill: #ae5634"/>
  </g>
</svg>
