<svg id="Layer_1" data-name="Layer 1" xmlns="http://www.w3.org/2000/svg" viewBox="0 0 346.67 230.23">
  <title>Logo</title>
  <g>
    <g>
      <path d="M50.94,143a22.54,22.54,0,0,1-9.77-7.4,20.37,20.37,0,0,1-3.9-11.94,2.17,2.17,0,0,1,.6-1.53,2,2,0,0,1,1.58-.64H49A2.78,2.78,0,0,1,51.88,124a10.89,10.89,0,0,0,4.19,7.59A14.32,14.32,0,0,0,64.71,134c4.07,0,7.22-1.33,9.42-4s3.31-6.4,3.31-11.2V87.25H44a2.28,2.28,0,0,1-1.67-.69,2.4,2.4,0,0,1-.69-1.78v-7a2.24,2.24,0,0,1,.69-1.73A2.36,2.36,0,0,1,44,75.41h45.3A2.22,2.22,0,0,1,91,76.1a2.49,2.49,0,0,1,.65,1.77v41.35a28.14,28.14,0,0,1-3.36,14.11,22.15,22.15,0,0,1-9.52,9,31.76,31.76,0,0,1-14.46,3.11A35.28,35.28,0,0,1,50.94,143Z" style="fill: #fff"/>
      <path d="M110.64,143.45A16.75,16.75,0,0,1,104,138a13.4,13.4,0,0,1,3-18.45q5.43-4.15,14.9-5.63l13.52-2v-2.07c0-2.83-.73-5-2.17-6.42s-3.75-2.17-6.91-2.17a10.2,10.2,0,0,0-5.23,1.18,16.87,16.87,0,0,0-3.21,2.42l-1.62,1.63a1.49,1.49,0,0,1-1.48,1.18h-7.7a2.16,2.16,0,0,1-1.53-.59,2,2,0,0,1-.64-1.58,10.36,10.36,0,0,1,2.42-5.57,18.92,18.92,0,0,1,7.15-5.43,27.56,27.56,0,0,1,11.94-2.32q11.64,0,17,5.23t5.33,13.72v31a2.37,2.37,0,0,1-.64,1.68,2.24,2.24,0,0,1-1.73.69h-8.19a2.36,2.36,0,0,1-2.37-2.37v-3.85a16.1,16.1,0,0,1-6.11,5.19,21.68,21.68,0,0,1-9.87,2A21.09,21.09,0,0,1,110.64,143.45Zm21.46-11q3.47-3.56,3.46-10.26v-2l-9.87,1.58q-11.35,1.77-11.35,7.59a5.51,5.51,0,0,0,2.62,4.89,11.1,11.1,0,0,0,6.26,1.72A11.83,11.83,0,0,0,132.1,132.44Z" style="fill: #fff"/>
      <path d="M166.29,139.45q-6.45-6-6.85-16.68l-.1-3.94.1-4q.39-10.66,6.85-16.68t17.32-6A28.51,28.51,0,0,1,196.79,95a20.44,20.44,0,0,1,8,6.75,15.69,15.69,0,0,1,2.81,7.65A1.92,1.92,0,0,1,207,111a2.45,2.45,0,0,1-1.73.69h-8.78a2.37,2.37,0,0,1-1.58-.44,4.69,4.69,0,0,1-1-1.63,11.47,11.47,0,0,0-3.89-5.43,10.59,10.59,0,0,0-6.17-1.68A10,10,0,0,0,176,105.7q-2.81,3.17-3,9.67l-.1,3.65.1,3.26q.58,12.83,10.85,12.83a10.81,10.81,0,0,0,6.22-1.63,11.28,11.28,0,0,0,3.84-5.48,4.07,4.07,0,0,1,.94-1.58,2.4,2.4,0,0,1,1.63-.49h8.78a2.45,2.45,0,0,1,1.73.69,1.92,1.92,0,0,1,.64,1.68,15.7,15.7,0,0,1-2.76,7.45,20.76,20.76,0,0,1-7.9,6.86q-5.33,2.85-13.32,2.86Q172.75,145.47,166.29,139.45Z" style="fill: #fff"/>
      <path d="M218.64,143.79a2.29,2.29,0,0,1-.69-1.68V76.79a2.26,2.26,0,0,1,.69-1.73,2.37,2.37,0,0,1,1.68-.64h8.19a2.36,2.36,0,0,1,2.37,2.37v33.75l16.38-15.69a11.91,11.91,0,0,0,.94-.74,3.69,3.69,0,0,1,1.23-.74,4.77,4.77,0,0,1,1.48-.2h9.37a2.14,2.14,0,0,1,1.58.59,2.12,2.12,0,0,1,.59,1.58,2.51,2.51,0,0,1-1,1.78l-20.13,19,22.59,24.47a2.46,2.46,0,0,1,.89,1.68,2.12,2.12,0,0,1-.59,1.58,2,2,0,0,1-1.48.59h-9.57a4.45,4.45,0,0,1-2-.34,7.56,7.56,0,0,1-1.63-1.34L230.88,123v19.14a2.36,2.36,0,0,1-2.37,2.37h-8.19A2.29,2.29,0,0,1,218.64,143.79Z" style="fill: #fff"/>
    </g>
    <rect x="239.06" y="95" width="73.32" height="119.63" transform="translate(149.51 -135.12) rotate(37.16)" style="fill: #d31616;stroke: #000;stroke-miterlimit: 10;stroke-width: 8px"/>
    <g>
      <path d="M271.69,195.67a1.56,1.56,0,0,1-1.23-.31l-2.91-2.14a4,4,0,0,1-1.6-3.34l-2.23-15.11c-.13-4.19-.33-7.48-.59-9.9a24.24,24.24,0,0,0-1.29-5.91,7.73,7.73,0,0,0-2.52-3.5,7.26,7.26,0,0,0-5.16-1.65,6.87,6.87,0,0,0-4.65,3.13,7.29,7.29,0,0,0-1.59,5.61,9.45,9.45,0,0,0,2.82,5.14,1.94,1.94,0,0,1,.5,1.36,2.28,2.28,0,0,1-.46,1.26l-3.71,5a1.36,1.36,0,0,1-.95.59,1.41,1.41,0,0,1-1.09-.28,16.05,16.05,0,0,1-4.84-6.37,15.77,15.77,0,0,1-1-8.32,18.87,18.87,0,0,1,3.76-8.79,21.21,21.21,0,0,1,7.15-6.46,13.28,13.28,0,0,1,7.68-1.58,14.65,14.65,0,0,1,7.25,2.93,14.46,14.46,0,0,1,5.24,7.1A39.08,39.08,0,0,1,272,165.48l2.15,13.59,11.67-15.82a1.67,1.67,0,0,1,2.43-.37l4,3a1.59,1.59,0,0,1,.69,1.11,1.74,1.74,0,0,1-.38,1.28L272.79,195A1.63,1.63,0,0,1,271.69,195.67Z" style="fill: #fff"/>
      <path d="M305.85,149.39a1.57,1.57,0,0,1-1.24-.31L275.77,127.8,276,141a1.56,1.56,0,0,1-.34,1,1.52,1.52,0,0,1-1.34.65l-4.9.09a1.58,1.58,0,0,1-1-.3,1.65,1.65,0,0,1-.67-1.43l-.48-19.7a3.13,3.13,0,0,1,.64-1.69l3.71-5a1.66,1.66,0,0,1,2.33-.35l36.44,26.89a1.66,1.66,0,0,1,.35,2.33l-3.83,5.2A1.56,1.56,0,0,1,305.85,149.39Z" style="fill: #fff"/>
    </g>
    <g>
      <path d="M5.39,152.57l.27.12c8.59,4,11.7-3.59,19.44-10.87l53-105.68c4.12-8.95.7-2.81-7.9-6.76l1.67-3.63c-2.79,6.42-5-4.33-9.08,4.63L8.65,132.06C4.53,141-3.2,148.62,5.39,152.57Z" style="fill: #665734;stroke: #000;stroke-miterlimit: 10;stroke-width: 3px"/>
      <path d="M88.69,61l-29.8-9.91c-7.8-4.07-4.61-5.76-3.08-9.15L74,1.91c6.58,2.52.4.34,6.58,2.52l37,14.67c5,9,22.86-10.93,21.32-7.54L103,88.72C101.29,92.45,97.51,64.58,88.69,61Z" style="fill: #f9f9f9;stroke: #000;stroke-miterlimit: 10;stroke-width: 3px"/>
    </g>
  </g>
</svg>
