<?xml version="1.0" standalone="no"?>
<!DOCTYPE svg PUBLIC "-//W3C//DTD SVG 20010904//EN"
 "http://www.w3.org/TR/2001/REC-SVG-20010904/DTD/svg10.dtd">
<svg version="1.0" xmlns="http://www.w3.org/2000/svg"
 width="1544.000000pt" height="1544.000000pt" viewBox="0 0 1544.000000 1544.000000"
 preserveAspectRatio="xMidYMid meet">
<metadata>
Created by potrace 1.11, written by Peter Selinger 2001-2013
</metadata>
<g transform="translate(0.000000,1544.000000) scale(0.100000,-0.100000)"
fill="#000000" stroke="none">
<path d="M7925 15434 c-27 -2 -95 -11 -150 -19 -55 -7 -161 -17 -235 -20 -568
-27 -1052 -135 -1498 -336 -254 -115 -478 -251 -697 -425 -125 -99 -600 -571
-749 -744 -372 -434 -628 -887 -869 -1535 -47 -126 -91 -249 -97 -272 -12 -39
-23 -49 -121 -113 -124 -81 -164 -124 -178 -189 -16 -75 -50 -365 -61 -523
-11 -157 -12 -702 -1 -805 l6 -63 80 46 c1301 745 2517 1141 3825 1244 667 52
1472 -5 2165 -156 861 -186 1701 -514 2600 -1015 l210 -117 8 72 c10 91 -1
903 -14 1021 -21 195 -79 333 -189 448 -37 40 -86 83 -109 97 -30 18 -43 34
-50 60 -4 19 -22 94 -39 165 -35 144 -99 343 -155 478 -48 114 -182 381 -248
493 -223 379 -575 814 -901 1115 -746 685 -1574 1075 -2328 1093 -85 2 -177 2
-205 0z"/>
<path d="M12061 8238 c-6 -35 -38 -252 -71 -483 -34 -230 -74 -489 -90 -575
-121 -663 -281 -1109 -544 -1520 l-61 -95 -12 195 c-13 218 -29 312 -68 393
-32 68 -101 149 -108 127 -3 -8 -33 -100 -67 -203 -51 -155 -66 -190 -85 -199
-28 -13 -13 -20 -360 192 -415 254 -442 270 -548 314 -56 24 -232 103 -392
176 -523 238 -720 309 -1045 373 -229 46 -281 52 -475 51 -159 0 -206 -4 -285
-22 -115 -27 -141 -27 -250 -2 -180 42 -415 36 -697 -16 -198 -36 -463 -107
-608 -162 -535 -203 -1268 -576 -1550 -790 -163 -123 -229 -139 -287 -70 -34
39 -51 90 -79 233 -32 166 -45 178 -97 92 -72 -118 -112 -309 -112 -530 0 -72
-4 -128 -10 -132 -14 -9 -128 169 -210 328 -212 407 -328 818 -480 1703 -49
289 -77 434 -84 442 -5 4 -13 -58 -26 -208 -71 -797 -132 -1343 -191 -1700
-76 -461 -199 -934 -335 -1289 -42 -107 -43 -114 -27 -127 36 -27 56 -28 76
-3 31 39 473 522 494 542 20 17 20 14 26 -385 12 -667 43 -985 132 -1338 43
-170 122 -406 125 -370 1 22 31 174 34 177 3 3 17 -19 31 -49 104 -207 262
-404 420 -523 74 -55 242 -151 251 -142 3 2 -15 96 -40 208 -63 287 -69 328
-63 443 5 92 31 216 46 216 3 0 59 -114 125 -253 294 -624 507 -992 755 -1301
99 -124 270 -310 278 -302 3 3 -4 45 -16 94 -26 109 -27 225 -5 284 34 87 30
90 177 -133 73 -112 177 -271 229 -354 139 -219 287 -445 291 -445 2 0 2 55
-1 123 l-5 122 133 -165 c73 -91 174 -205 224 -255 104 -102 231 -194 246
-179 7 7 2 48 -14 125 -52 239 -54 368 -8 470 16 38 18 39 39 24 12 -8 29 -36
39 -62 10 -27 46 -113 81 -192 174 -392 405 -743 657 -998 120 -121 147 -132
220 -89 79 46 297 297 435 501 129 191 221 361 376 700 43 94 80 172 82 175 8
9 21 -24 38 -89 26 -101 21 -248 -13 -419 -16 -79 -25 -145 -20 -148 17 -11
120 61 211 146 50 47 135 139 190 205 152 184 167 199 180 186 8 -8 11 -48 10
-113 -1 -55 2 -97 7 -92 4 5 106 167 226 359 256 413 432 678 443 671 5 -3 16
-33 25 -66 23 -80 21 -214 -2 -312 l-19 -77 26 22 c14 12 62 60 106 107 224
239 423 531 640 940 88 166 315 632 367 753 11 26 24 47 28 47 10 0 29 -102
37 -197 8 -107 -9 -235 -63 -477 -24 -110 -42 -202 -39 -205 9 -8 113 46 205
107 161 107 315 285 436 502 l62 111 11 -50 c6 -28 14 -69 17 -91 4 -22 10
-37 14 -35 13 8 87 239 120 375 85 351 116 665 127 1306 l6 392 27 16 27 16
259 -280 c247 -267 259 -279 276 -262 17 17 16 23 -28 132 -90 229 -215 669
-278 980 -87 432 -154 989 -206 1725 -6 83 -19 276 -30 429 -11 154 -22 281
-24 283 -2 2 -9 -24 -15 -59z m-4271 -2926 c14 -8 63 -48 110 -88 210 -178
421 -320 638 -428 279 -140 517 -206 820 -226 80 -6 147 -12 149 -13 6 -7
-125 -154 -207 -230 -337 -316 -774 -521 -1243 -582 -153 -20 -432 -19 -584 0
-420 55 -825 219 -1163 471 -102 76 -284 236 -339 300 l-35 39 45 7 c24 3 73
7 108 7 85 1 253 26 381 58 362 88 756 306 1118 621 105 91 141 103 202 64z"/>
</g>
</svg>
