<svg id="Layer_1" data-name="Layer 1" xmlns="http://www.w3.org/2000/svg" width="639.5" height="944.06" viewBox="0 0 639.5 944.06">
  <title>lumberjack</title>
  <rect x="285.42" y="451.54" width="126.91" height="12.09" style="fill: #71b5e1"/>
  <rect x="2.06" y="265.2" width="85" height="32" rx="10.76" transform="translate(-104.12 38.39) rotate(-22.48)" style="fill: #ab835d"/>
  <g>
    <rect x="129.35" y="202.22" width="183.19" height="27.17" rx="12.13" transform="translate(-59.8 87.07) rotate(-19.69)" style="fill: #ab835d"/>
    <g>
      <g>
        <ellipse cx="138.89" cy="279.86" rx="15.91" ry="15.26" style="fill: #c2a57e"/>
        <rect x="297.23" y="206.1" width="141.39" height="206.15" style="fill: #e04f27"/>
        <rect x="439.73" y="414.53" width="7.11" height="8.94" transform="translate(51.28 -48.33) rotate(6.62)" style="fill: #e04f27"/>
        <rect x="283.68" y="417.5" width="146.36" height="25.19" style="fill: #e04f27"/>
        <rect x="271.06" y="237.2" width="52" height="166" style="fill: #e04f27"/>
        <path d="M212.35,627.4c-18.69-31.58-34.83-64.3-42.66-100.4-11.19-51.5,18.73-81.23,70-70,2.8.61,5.57,1.33,8.36,2,36,8.71,36,8.71,36.12-29.34l124.8-.37q-.17,3.59-.34,7.18l-38.45,1.26c-11.76-6.67-23.45-7.21-35,.42-7.75.1-15.52-.19-23.23.4-7,.54-17.48-3.12-17.4,9.21.09,12.56,9.9,8.65,17.22,8.35,7.74-.31,15.47-.51,23.21-.75,11.75,9.21,23.63,9,35.63.5l42.08.66c-2.35,33.24-1.39,66.42-.63,99.75,1.52,66.94-6.15,133.86-3.56,200.93.17,4.28,0,8.57-.11,12.85-.2,6.52-2.89,11.48-10.06,11.18-11.09-.46-22.91,3.94-33-4.26,0-58.07-.06-116.14.21-174.21.08-16.28-3.24-31.24-13.06-44.46-33.59-28.18-76.79-39.28-113-63.34C226.16,486.1,212.53,501.86,217,519A253,253,0,0,0,237.7,572.7C258.89,613.55,258.54,614,212.35,627.4Z" style="fill: #71b5e1"/>
        <path d="M434.55,204c28.29-3.9,28.6-4,34.25,28.12,9,50.91,16.72,101.9,18.44,153.8.86,26.12-3.32,52.67,4.61,78.54,1.71,5.59,3.34,13.3-6.06,15.6a3.2,3.2,0,0,0-2.62-1,51.91,51.91,0,0,0-27.43-2.46c-12.23-9.39-6.58-19.94-2-30.42,15.56-1.81,9.66-12.4,11.06-25.32l-7.08,12q-1.51-3.72-3.05-7.42-.85-28.43-1.7-56.85c7.65-6.31,19.92-12,3-21.68-3.34-12.62-6.69-25.23-11.54-43.51v52l.54,52.14-3.42,15.84-11.54,1a931.18,931.18,0,0,0-146.36-.28c-14.87-.82-14.64-10.3-12.12-21.09l23.95-.17c1.76,2,4.38,6,5.13,5.71,8.75-3.77,2.67-12.45,5.61-18.34,2.09,2.82,3.82,6,6.34,8.38,6.47,6,15,6.18,21.74,2.69,7.54-3.9,1.65-11.67.73-17.2-3.18-19-18.65-8.58-28.81-11q-.08-6.72-.14-13.43c5.63.08,11.26.39,16.87.19,6.09-.22,13.65,1.44,15.66-6.94,1.62-6.81,2.33-14.26-3.73-19.65-5.22-4.64-11.93-4-18.1-2.74-11.48,2.43-4.29,15.37-11.06,20.66l-.33-77.54c13-1.58,28.47,6.41,37.47-10.37,1.16-2.15,6.43-1.82,7.26.8,4.49,14.1,16.35,13,27.27,14,14.22,8.42,27.4,6.85,39.6-4.1l.15,12.78c-17.14-.54-34.23-.42-50.8,4.86-6.17,2-12.74,3.84-13.15,11.91-.41,8.26,6.17,10.29,12.17,12.75,4.59,1.88,9.29,6,13.58,5.6,13.51-1.37,17.89,4.1,16.82,16.9s8.35,12.73,17.29,12.66q-.49,10.76-1,21.53c-6.64.38-16.2-1.79-15.68,8.36.43,8.44-2,20.87,12.63,22.17,9.78,6.64,10.41,6.57,11.49-7.75C425.37,331.85,429.91,267.93,434.55,204ZM352.48,344.85c-1,7.68.79,15.77,14.4,15.06,9.15-.49,14.94-3.7,15.55-13.72.85-14.09-8.22-15.52-19.18-17.09C351,327.35,352.67,334.83,352.48,344.85Zm-27.67-53.73c-9.14-.58-15.24,1.8-15.35,12.64S315,317,324.28,316.93c9-.05,15.23-1.85,15.23-12.78C339.51,293.63,334.13,290.35,324.81,291.12Zm53.47,96c.74-8.34-1.68-14.79-12.6-14-10,.71-13.22,6.79-12.93,15.82.27,8.37,4.31,13.1,12.92,13.69C376.56,403.37,379,397,378.28,387.14Zm60.34-127.48c.93,5-1.26,13.1,7.25,12.14,7.58-.86,5.53-8.63,5.49-13.81s1.45-13.14-7-12.19C436.8,246.64,439.48,254.46,438.62,259.66Z" style="fill: #e04f27"/>
        <path d="M270.92,297.56c-7.69,2.28-9.64,10-14.22,15.17-10.82,12.28-24,20.61-40.46,21.37-32.27,1.48-61.67-6.4-86.63-28.3-6.7-5.88-7.66-11.28-3.76-18.5,11.09-2.78,15.26-14.37,24.65-19.31,9,5.25,22.39,8.41,26.07,16.18,8.71,18.37,23.23,16.74,38.27,17.13l4-1c24-14.75,27.52-39.72,32.94-64.19,2.82-12.76,33.54-20.68,20.59-25.33,11-1.79-3,10.93,0,13-.07,30-4.32-4.33,18.27,2.81.24,15.9,5.09,32-2.47,47.54a81.44,81.44,0,0,0-.28-8.57c-.91-6.77,2.69-14.83-4.6-19.8-4-2.69-8.45-1.53-11.57,2.07-5.61,6.47-8.87,18-4.5,21.64C278.54,278.87,268.57,288.56,270.92,297.56ZM159,303c5.86.05,8-3.2,7.71-8.12-.36-6.93-5.27-10-11.25-10.44-5.22-.35-7.28,4.57-7.57,8.65C147.34,300.68,154.11,301.21,159,303Zm35.56,5.81c2.87,1.53,7.33,7.09,10.32,0Z" style="fill: #e04f27"/>
        <path d="M365.29,777c10.1,8.2,21.92,3.8,33,4.26,7.17.3,9.86-4.66,10.06-11.18.13-4.28.28-8.57.11-12.85-2.59-67.07,5.08-134,3.56-200.93-.76-33.33-1.72-66.51.63-99.75,6.36-8.23,7.2-15.35-4-20.06q.18-3.58.33-7.18l20.87-.34q-3.4,165.88-6.7,331.77c-.05,2.64,1.49,5.31,2.29,8,0,3.87-.07,7.73-.1,11.6,1,7.28-1.06,13.29-7.21,17.67-5-6.22-11.56-2.7-17.55-2.77-9.53,3.92-19.42,4.24-29.47,2.94C365.4,792.08,345.55,789.94,365.29,777Z" style="fill: #649bba"/>
        <path d="M426.25,906.53c47.8.46,95.65-.1,143.39,2,14.92.65,30,1.52,45,2.29,8.46.44,17.38-.76,24.89,8.81a172.56,172.56,0,0,1-43.12,8.31c-111.79,7.61-223.74,3.18-335.61,4.55-8.38.11-17.37-2.37-24.86,3.91-4.66-.41-10.72,1.46-12.34-5-1.89-7.62.65-13.84,8.32-17.23,14.63,1.88,29,3,38.73-11.59l4.42,3.94c8.59,13.52,23,10.37,35.57,12.37,9.7,1.53,9.37-6.33,11.39-12l47.08-.58q.44,4.42.88,8.85c17.85,10.13,38,5,56.87,8.65,55.37,3.88,110.34-.73,165.35-5.57-55.08-.9-109.69-10.41-164.7-7.29Z" style="fill: #020202"/>
        <path d="M210.51,815.75c-16.08-1.27-32.72,4.16-48.2-4.12C159,799,171.11,783.44,155,773.21c-.78-.23-1.56-.48-2.33-.75a25,25,0,0,1,1.71-3.67c9.42,2,13.53-8.4,21.72-9.23,9.18,2.63,15-3.39,21.24-8.25,28.3,6.38,56.79-6.9,85.07.87-2.81,2-7,3.42-8.14,6.12-2.39,5.59,11.57,13.45-.42,17.3-9,2.88-8.73-9.36-13.61-13.75-5.48-4.93-13-14.11-15.44,2.58-2.23.72-6.11-.81-5.39,3.88a2.14,2.14,0,0,0,1.4,1.39c4.64.72,3.26-3.07,3.91-5.35a29.39,29.39,0,0,1,13,13c-5.2.46-8.41,3-8.78,8.45l-16.5-13.53L230,771.16c.34.85.68,1.71,1,2.57.46,14-4.5,28.21.84,42.17ZM197,773.47l2.47.51L198,772.51l-2.34-5.07c-.48.42-1.44,1.08-1.37,1.22C195.09,770.32,196.06,771.89,197,773.47Z" style="fill: #c2a57e"/>
        <path d="M387.06,54.05c.09-1.56.17-3.11.26-4.66,4.31.27,9.47.77,11-4.16,5.72-18.91,23.59-16.42,36.86-20,25-6.83,16.24,17.51,23,27.61,3.91,5.82,7.09,12.12,10.61,18.21q2.28,9.09,4.57,18.18c-4.88,16.66-37.72,34.71-60.79,30.15,2.83-6.09,5.42-16.38,3.11-23.15-1.41-5.81-.56-8.36-2.68-12.88-.56-2.39-1.13-4.78-1.69-7.18C406.35,65.32,397.45,58.87,387.06,54.05Z" style="fill: #dadadb"/>
        <path d="M205.79,713.8l13.93-1.47c17.12,1.31,24.44-5.82,18.26-21.63-7-18-8.72-37-13.81-55.23l16.76-7.69c8.78,3.08,13.86,9.39,15.32,18.39,4.94,30.56,9.72,61.15,14.55,91.73l-56.05.84-8.69-.14C208.44,730.3,209.86,722,205.79,713.8Z" style="fill: #7a5229"/>
        <path d="M240.93,627.78l-16.76,7.69c-6.51,1.06-15.76,6.11-11.83-8.08,46.2-13.44,46.55-13.84,25.36-54.69A253,253,0,0,1,217,519c-4.42-17.15,9.21-32.91,22.53-24.06,36.17,24.06,79.37,35.16,113,63.34-41.16-10.1-78.22-32.16-122.33-44.12,6.39,33.46,19.28,60.24,35.22,85.67,3.86,6.16,9.49,11.13,2.58,18.39C258.37,619.85,249.15,622.39,240.93,627.78Z" style="fill: #649bba"/>
        <path d="M281.28,197.29c-12.74-4.68-19.73,7.22-30,9.75-14,10.55-23.7,31.39-47.41,18.44C195,231,183,219.92,174.79,231.37c-8.5,11.89-17.48,12.55-24.88-1.54q0-4.8.1-9.58c39.38-12.38,79-24,118-37.47,17.87-6.16,34.45-15.83,51.61-23.91q2.31,20.94,4.64,41.9l-14.64-.66C300.68,194.54,290.82,197.39,281.28,197.29Z" style="fill: #ab835d"/>
        <path d="M416.84,256.09c6.06-17.35,5.29-35.66,7.63-53.53,4.19-5.34,7.24-2.73,10.08,1.46-4.64,63.91-9.18,127.83-14,191.72-1.08,14.32-1.71,14.39-11.5,7.75l-.28-.23,2.6-4.27q.36-13,.74-26,.5-10.77,1-21.53,2-32.34,4.09-64.68L417,274Z" style="fill: #7a5229"/>
        <path d="M128.07,242.46c.74-16.06,13.32-10.13,21.84-11.72,6.56,12.87,14.53,12.27,22.06,1.41,7.25-10.46,17.95-.31,25.82-5.39-1.37,16.36-16.16,17.49-26.75,22.9-8.65,4.41-19,6.26-20.54,18.33-9.39,4.94-13.56,16.53-24.65,19.31-9.74-1.73-16.62-8-23.29-14.65q2.68-3.64,5.39-7.28C117.61,260.33,134.83,261.9,128.07,242.46Z" style="fill: #c2a57e"/>
        <path d="M416.56,841.89c-.39,16,3.25,32.13-1.49,48-10.58-3-21.16-6-32.37-4.86q-2.67-5.43-5.35-10.84c3.72-13.66,14.75-27.1,1.18-41.25,3.23-5.92-2.16-6.5-5.28-8.49a4.23,4.23,0,0,0,.27-3.91l26.53.08c-2.73,12.09,12.45,19.79,9.16,33.16Z" style="fill: #7a5229"/>
        <path d="M63.7,251.83c10,1.47,7.94,7,4.5,13.12v4.71L51.11,278.2c-8.84.7-18.37-3.1-26.22,4l-4.05,1,1.28,2.11,3.05-2.77c8.41,7.62-8.26,15.68.41,23.29C15.48,313.15,7,312,3.25,299.57c-3.37-11.16-7.93-23.94,8.51-29.79C29,263.63,46.38,257.8,63.7,251.83Z" style="fill: #ab835d"/>
        <path d="M402.35,128c-.09-3.21-.17-6.42-.26-9.63,26.31,5.11,63.09-10.52,68.66-29.18,7.21,2.71,19.5-5.27,21,9.57-19.21,1.24-22.22,13.52-20.53,29-16.18,13-35.3,19-55.52,22.47C416.08,140,407.6,134.93,402.35,128Z" style="fill: #ab835d"/>
        <path d="M455.74,476.58A51.86,51.86,0,0,1,483.16,479c-5.35,6.92-8.91,13.31-4,22.91a44.57,44.57,0,0,1,2.57,34.82c-4.5,4.44-8.77,5-12.66-.75,4.36-3.61,2.94-6.23-1.43-8.35-2.1-5.18-2.76-13.13-6.54-15.08C441.71,502.58,449.46,489.71,455.74,476.58Z" style="fill: #ddc99a"/>
        <path d="M382.7,885c11.21-1.18,21.79,1.87,32.37,4.86l11.18,16.65,1.23,4.35q-.56,4.57-1.09,9.15l-11.8-5.12c-7.78-7.21-17.36-2.45-26-3.91-5.19-.87-12.93,1.7-13.94-5.69S370.43,887.89,382.7,885Z" style="fill: #613b18"/>
        <path d="M416.56,841.89l-7.35,11.88c3.29-13.37-11.89-21.07-9.16-33.16v-.3c4.28-1.81,2.58-3.62,0-5.42q.27-9.85.55-19.73c6,.07,12.53-3.45,17.54,2.77Q417.35,819.91,416.56,841.89Z" style="fill: #613b18"/>
        <path d="M481.73,536.77A44.57,44.57,0,0,0,479.16,502c-4.91-9.6-1.35-16,4-22.91a3.21,3.21,0,0,1,2.63,1c4.15,12,8.35,24,8.28,36.83C494,525.75,491.65,533.76,481.73,536.77Z" style="fill: #c2a57e"/>
        <path d="M467.51,130.16c-1.91-17.31,1.5-31,23.33-32.44C500.08,120,492.73,131,467.51,130.16Z" style="fill: #9d7146"/>
        <path d="M108,265.37q-2.7,3.63-5.39,7.28a40.24,40.24,0,0,1-21.17,8.45q-.14-6.28-.25-12.58c7.68,2.74,13.91-2.13,20.74-3.92Z" style="fill: #ab835d"/>
        <path d="M81.14,268.52q.12,6.28.25,12.58l-4.64,1.2c.23-6.3-3.13-10.17-8.55-12.64V265C72.93,264.63,78,263.15,81.14,268.52Z" style="fill: #ab835d"/>
        <path d="M467.64,527.67c4.37,2.12,5.79,4.74,1.43,8.35C468.59,533.23,468.12,530.45,467.64,527.67Z" style="fill: #c2a57e"/>
        <path d="M120.42,771.4l4.53-1.77Z" style="fill: #ab835d"/>
        <path d="M335.15,438.14c11.58-7.63,23.27-7.09,35-.43q.21,9.07.41,18.14c-12,8.55-23.88,8.71-35.63-.5Q335.05,446.74,335.15,438.14Z" style="fill: #c2a57e"/>
        <path d="M370.71,455.85l-.54-18.14,50.75-1.25c14.81,4.7,13.71,11.82,5.32,20.05Z" style="fill: #ab835d"/>
        <path d="M335.15,438.14q-.13,8.61-.26,17.21c-10.3.24-20.61.44-30.9.75-9.75.3-22.82,4.21-22.93-8.35-.11-12.33,13.85-8.67,23.16-9.21C314.48,438,324.83,438.24,335.15,438.14Z" style="fill: #ab835d"/>
        <path d="M284.76,738.43c3.12,3.86,3.29,8.41,3.08,13.05l-5.4.7c-28.28-7.77-56.77,5.51-85.07-.87,0-1.37,0-2.75,0-4.12l8.67-8.59,8.7.14c20,7.64,40,5.72,60,0Z" style="fill: #c2a57e"/>
        <path d="M206.06,738.6l-8.67,8.59c-6-13.34-11.06-26.45,8.4-33.4C209.86,722,208.44,730.3,206.06,738.6Z" style="fill: #613b18"/>
        <path d="M295.51,402.84c.36-10.21,2.33-20.58-2.87-30.27q-.13-6.29-.28-12.57-2.07-43-4.16-85.94c7.57-15.49,2.72-31.64,2.49-47.54l.87-22.93,13,.6c.12,1.75.25,3.5.37,5.25-1.92,1.95-5.85,5-5.47,5.69,8.66,16,3.37,33.55,5.72,50.19q.12,4.15.26,8.3l.33,77.54.36,8.48q.08,6.71.13,13.42,0,8.58,0,17.15c-2.94,5.89,3.14,14.57-5.61,18.34C299.89,408.87,297.27,404.85,295.51,402.84Z" style="fill: #7a5229"/>
        <path d="M417.17,286.75q-2.06,32.34-4.09,64.68c-8.94.07-18.36.15-17.29-12.66s-3.31-18.27-16.82-16.9c-4.29.44-9-3.72-13.58-5.6-6-2.46-12.58-4.49-12.17-12.75.41-8.07,7-9.95,13.15-11.91C382.94,286.33,400,286.21,417.17,286.75Z" style="fill: #e04f27"/>
        <path d="M306.11,359.64l-.36-8.48c6.77-5.29-.42-18.23,11.06-20.66,6.17-1.3,12.88-1.9,18.1,2.74,6.06,5.39,5.35,12.84,3.73,19.65-2,8.38-9.57,6.72-15.66,6.94C317.37,360,311.74,359.72,306.11,359.64Z"/>
        <path d="M306.25,390.21q0-8.58,0-17.15c10.17,2.44,25.64-8,28.82,11,.92,5.53,6.81,13.3-.73,17.2-6.75,3.49-15.27,3.33-21.74-2.69C310.07,396.24,308.34,393,306.25,390.21Z" style="fill: #0c0b0b"/>
        <path d="M324.81,291.12c9.32-.77,14.7,2.51,14.7,13,0,10.93-6.28,12.73-15.23,12.78-9.24,0-14.93-2.48-14.82-13.17S315.67,290.54,324.81,291.12Z"/>
        <path d="M323.86,261.79c9.32-.78,14.7,2.5,14.69,13,0,10.93-6.28,12.72-15.22,12.77-9.24.05-14.94-2.47-14.83-13.17S314.71,261.2,323.86,261.79Z"/>
        <path d="M378.28,387.14c.74,9.85-1.72,16.23-12.61,15.49-8.61-.59-12.65-5.32-12.92-13.69-.29-9,3-15.11,12.93-15.82C376.6,372.35,379,378.8,378.28,387.14Z" style="fill: #0c0b0b"/>
        <path d="M412.1,373q-.37,13-.74,26-1.29,2.14-2.6,4.28l.28.23c-14.66-1.3-12.19-13.73-12.62-22.17C395.9,371.17,405.46,373.34,412.1,373Z" style="fill: #0c0b0b"/>
        <path d="M292.36,212.78c-2.54,11-.11,12.88-2.65,23.89-18.28,3.33-34.38,15.43-34.59-4.32-.05-4.94,15.07-22.82,20-23.13C281,208.85,286.89,208.88,292.36,212.78Z" style="fill: #e04f27"/>
        <path d="M214.84,301.3a4.73,4.73,0,0,1,4-1Z" style="fill: #ed5c2f"/>
        <path d="M373.52,820.53c-6.83-6.81-3.51-14.73-2.44-22.42,10.06,1.29,19.95,1,29.48-3Q400.3,805,400,814.9c0,1.81,0,3.61,0,5.41v.3Z" style="fill: #7a5229"/>
        <path d="M245.22,820.3l-4.05-4.54c8-4.09,9.82-26.59,25.22-8.38l-.12.12c-16,12.22-.08,19.66,4.78,28.11,4.76,8.3,19.39,12.93,17.16,22.33-3.22,13.58.65,26.3-.79,39.29.31,9-5.65,9.64-12.38,9.22l-4.42-3.94c2.4-20-11.55-32.62-29.78-26.94l-4.16-11.64c4.19-4.2,4.47-9.44,4-14.89l0-.84C249.07,840,259.53,832.17,245.22,820.3Z" style="fill: #c2a57e"/>
        <path d="M426.39,920q.54-4.57,1.09-9.15c55-3.13,109.62,6.38,164.7,7.28-55,4.84-110,9.45-165.36,5.57A5.06,5.06,0,0,0,426.39,920Z"/>
        <path d="M240.84,875.57c18.23-5.68,32.18,6.93,29.78,26.94-9.71,14.55-24.1,13.47-38.73,11.59C223.81,898.69,233.38,887.38,240.84,875.57Z" style="fill: #c2a57e"/>
        <path d="M275,906.45c6.73.42,12.69-.2,12.39-9.21,14.68,4.41,7.14-7.41,9-12.34l0,0,17.29,0c7.78,5.44,1.93,15.95,8.21,21.95-2,5.69-1.69,13.55-11.39,12C298,916.82,283.63,920,275,906.45Z" style="fill: #c2a57e"/>
        <path d="M369.08,906.23l3.06-38.62,5.21,6.57Q380,879.6,382.7,885c-12.27,2.87-9.08,12.84-8.06,20.29s8.75,4.82,13.94,5.69c8.65,1.46,18.23-3.3,26,3.91l-44.65.17Q369.51,910.66,369.08,906.23Z" style="fill: #7a5229"/>
        <path d="M370,915.08l44.65-.17L426.39,920a5.06,5.06,0,0,1,.43,3.7C408,920.05,387.81,925.21,370,915.08Z" style="fill: #7a5229"/>
        <path d="M533.43,768.69l-.83,1.39.84-1.38Z" style="fill: #789654"/>
        <path d="M313.79,884.85l-17.29,0-1.45-.8,1.42.83c-1.9,4.93,5.64,16.75-9,12.34,1.43-13-2.44-25.72.78-39.3,2.23-9.4-12.4-14-17.16-22.33-4.86-8.45-20.76-15.89-4.78-28.11l1.56.79-1.44-.91c-15.4-18.21-17.25,4.29-25.22,8.38l-9.3.14c-5.34-14-.38-28.12-.84-42.17l1.47-1.47Q240.74,779,249,785.8l.25.2c4.78,9.33,14.06,8.12,22.26,9.47,7.29,16.1,18.94,28.34,33.66,37.86,7.79,8.48,8.16,18.17,4.65,28.49-.4,3.8,0,7.34,3.29,9.9C311.45,876.19,308.85,880.72,313.79,884.85Z" style="fill: #c2a57e"/>
        <path d="M282.44,752.18l5.4-.7c16.93,1.44,13.77,15.41,12.38,24.33-1.81,11.59-.1,21.71,3.46,32.18-14,5.12-14.2-19.34-28.62-13.31-1.62-10-11.07-12.18-17.4-17.47l.11.14a29.39,29.39,0,0,0-13-13l.08.08c2.42-16.69,10-7.51,15.44-2.58,4.88,4.39,4.65,16.63,13.61,13.75,12-3.85-2-11.71.42-17.3C275.45,755.6,279.63,754.18,282.44,752.18Z" style="fill: #c2a57e"/>
        <path d="M249,785.8c.37-5.47,3.58-8,8.78-8.45l-.11-.14c-.4,5.23-2.76,8.59-8.42,8.79Z" style="fill: #ab835d"/>
        <path d="M244.75,764.35c-.65,2.28.73,6.07-3.91,5.35a2.14,2.14,0,0,1-1.4-1.39c-.72-4.69,3.16-3.16,5.39-3.88Z" style="fill: #ab835d"/>
        <path d="M197,773.48c-.93-1.59-1.9-3.16-2.72-4.82-.07-.14.89-.8,1.37-1.22l2.34,5.07Z" style="fill: #ab835d"/>
        <path d="M231,773.73c-.35-.86-.69-1.72-1-2.57l2.49,1.11Z" style="fill: #ab835d"/>
        <path d="M198,772.51l1.49,1.47-2.47-.5Z" style="fill: #ab835d"/>
        <path d="M284.76,738.43l-10,.35a32,32,0,0,1-4-.88c-4.83-30.58-9.61-61.17-14.55-91.73-1.46-9-6.54-15.31-15.32-18.39,8.22-5.39,17.44-7.93,27-9.55,11.93,14.6,6.33,32.5,8.79,48.81C280.27,690.71,282.16,714.62,284.76,738.43Z" style="fill: #613b18"/>
        <path d="M106.78,272.41l-11.41-3c14.47-23.18,33.58-37.82,55.23-47.78C158.91,269.24,126.42,262.22,106.78,272.41Z" style="fill: #ab835d"/>
        <path d="M270.8,737.9a32,32,0,0,0,4,.88c-20,5.68-40,7.6-60,0Z" style="fill: #c2a57e"/>
        <path d="M408.76,403.26q1.31-2.13,2.6-4.28Z" style="fill: #e04f27"/>
        <path d="M377.35,874.18l-5.21-6.57v-8.43c.34-.51,1.05-1.14.94-1.52a19.31,19.31,0,0,0-1.5-3.11q-.43-10.47-.86-20.94l7.81-.68C392.1,847.08,381.07,860.52,377.35,874.18Z" style="fill: #7a5229"/>
        <path d="M378.53,832.93l-7.81.68c-1.39-3.67-1.81-7.08,2.53-9.17C376.37,826.43,381.76,827,378.53,832.93Z" style="fill: #7a5229"/>
        <path d="M25.17,282.55l-3.05,2.77-1.28-2.11,4.05-1Z" style="fill: #ab835d"/>
        <path d="M400,820.31c0-1.8,0-3.6,0-5.41C402.62,816.69,404.32,818.5,400,820.31Z" style="fill: #7a5229"/>
        <path d="M275.06,794.68c14.42-6,14.62,18.43,28.62,13.31.41,8.45,10.28,16.35,1.48,25.34-14.72-9.52-26.37-21.76-33.67-37.86C272.68,795.22,273.88,795,275.06,794.68Z" style="fill: #c2a57e"/>
        <path d="M313.1,871.72c-3.32-2.56-3.69-6.1-3.29-9.9C314.5,863.93,314.11,867.72,313.1,871.72Z" style="fill: #c2a57e"/>
        <path d="M371.58,854.55a19.31,19.31,0,0,1,1.5,3.11c.11.38-.6,1-.94,1.52C372,857.63,371.77,856.09,371.58,854.55Z" style="fill: #7a5229"/>
        <path d="M275.06,794.68c-1.18.28-2.38.54-3.57.79-8.19-1.35-17.47-.14-22.25-9.47,5.66-.2,8-3.56,8.42-8.79C264,782.5,273.44,784.7,275.06,794.68Z" style="fill: #c2a57e"/>
        <path d="M296.47,884.9l-1.42-.83,1.45.8Z" style="fill: #9d7146"/>
        <path d="M266.39,807.38l1.44.91-1.56-.79Z" style="fill: #c2a57e"/>
        <path d="M150,222q0,4.37-.08,8.75c-8.52,1.59-21.1-4.34-21.84,11.73-10.72,5-19.88,11.9-26.19,22.13-6.83,1.79-13.06,6.66-20.74,3.92C78,263.15,72.93,264.63,68.2,265c3.44-6.07,5.46-11.65-4.5-13.12,7.34-23.56,25-35.84,47.21-43.28a14.16,14.16,0,0,0,5.38-3.26c17.84-17.76,19.69-17.42,30.58,6.51C148.33,215,149,218.58,150,222Z" style="fill: #ddc99a"/>
        <path d="M362.76,261.79c9.32-.78,14.7,2.5,14.7,13,0,10.93-6.28,12.72-15.23,12.77-9.24.05-14.93-2.47-14.82-13.17S353.62,261.2,362.76,261.79Z"/>
        <path d="M362.76,292.05c9.32-.78,14.7,2.5,14.7,13,0,10.93-6.28,12.72-15.23,12.77-9.24,0-14.93-2.47-14.82-13.17S353.62,291.46,362.76,292.05Z"/>
        <path d="M362.76,331c9.32-.78,14.7,2.5,14.7,13,0,10.93-6.28,12.73-15.23,12.77-9.24.05-14.93-2.47-14.82-13.16S353.62,330.36,362.76,331Z"/>
        <path d="M397.35,261.79c9.32-.78,14.69,2.5,14.69,13,0,10.93-6.28,12.72-15.23,12.77-9.24.05-14.93-2.47-14.82-13.17S388.2,261.2,397.35,261.79Z"/>
        <path d="M397.35,292.05c9.32-.78,14.69,2.5,14.69,13,0,10.93-6.28,12.72-15.23,12.77-9.24,0-14.93-2.47-14.82-13.17S388.2,291.46,397.35,292.05Z"/>
        <path d="M397.35,326.63c9.32-.78,14.69,2.5,14.69,13,0,10.93-6.28,12.72-15.23,12.77-9.24.05-14.93-2.47-14.82-13.17S388.2,326,397.35,326.63Z"/>
        <g>
          <path d="M419.39,163.19c0,43-22.78,77.81-56.2,77.81S307,206.16,307,163.19,329.77,89.7,363.19,89.7,419.39,120.22,419.39,163.19Z" style="fill: #ddc99a"/>
          <g>
            <path d="M351.16,268.81c-3.09-1.7-5-4.62-7.49-7.65l.16,3.25c-2.81-4.15-5.36-8.45-8.33-12.76-1.32,2.1-.49,3.94-.1,5.85-6.85-6.5-10.53-14.95-14.57-23.51a9,9,0,0,0-.35,5.53c.3,1.76.74,3.49,1.2,5.57-4.4-1.89-6.91-5.14-8.93-9.28l-.44,2.64c-3.44-8.88-3.12-17.52-3.19-26.74l-6.81,7.48-.86-.56c5.43-13.36,6-27.58,7.42-41.66,2.19,10.93,2.93,22.13,9.78,31.56.1-3.26-.11-6.52,2-9.35.18.16.34.23.37.34.51,1.73.51,4.34,1.85,4.9s3.07-1.51,4.6-2.43a113.34,113.34,0,0,1,19.38-9.34c4.37-1.19,8.75-2.32,13.36-1.93,1.3.11,2.51.77,3.89.43,3.78-1,7.51-.42,11.25.38,6.46,1.39,12.11,4.79,18.16,7.2,3,1.84,6.08,3.64,9.07,5.53.89.57,1.28.44,1.58-.52.45-1.49.95-3,1.43-4.47,1.82,2,2.12,3.4,2.2,9.28,7.36-10.31,7.88-22.62,9.86-34.56,1.16,15,1.51,30.19,7.28,44.44l-.43.43L418,211.81l-.69.42c-.09,8.61.22,17.27-3.15,26.15-.23-1.19-.34-1.72-.5-2.53-2,4.07-4.49,7.37-8.89,9.21.68-3.74,2.1-7.15.92-11.26-4.15,8.71-7.79,17.17-14.67,23.67.53-1.86,1-3.64,0-6-3.15,4.47-5.72,8.92-8.48,13.28-.12-1,.39-1.95-.19-3-2.3,2.47-4.05,5.44-7.12,7l-.17-.16c.47-2.6,1.43-5.2.11-8.25-1.13,2.4-2,4.47-3.06,6.48a39.22,39.22,0,0,1-7.49,10.36c-1.06,1-1.74,1.06-2.82,0a44.93,44.93,0,0,1-9.6-14.83c-.23-.56-.21-1.32-1.05-1.66-1.3,2.69-.23,5.29.2,7.89Zm-10.52-47.88c12.57,14.07,33.92,14,45,0-8.45.16-15.12-3.71-21.16-9-1.1-.95-1.63-.75-2.59.08C355.84,217.24,349.22,221.06,340.64,220.93Z" style="fill: #442a15"/>
            <path d="M414.57,129.89A98.91,98.91,0,0,0,363,116.06c-18.37,0-35.38,2.83-51.71,12.55,4.32-13,8.26-20.39,16.77-28.61,9.16-10.3,21.06-14.36,34.5-14.61C384.8,81.06,412.79,107.48,414.57,129.89Z" style="fill: #e04f27"/>
            <path d="M307.41,148.13a76.07,76.07,0,0,1,.74-17.35c.21-1.3,1.14-1.74,2-2.31a91.29,91.29,0,0,1,39.55-14.16c21.24-2.55,41.54.59,60.53,10.8a17.71,17.71,0,0,0,2.16,1.21c4.54,1.73,6.18,5.12,6.17,9.81,0,4,.36,8.07,0,12C381.56,126.24,344.68,126.22,307.41,148.13Z" style="fill: #d84e2e"/>
          </g>
        </g>
        <circle cx="156.06" cy="296.2" r="14" style="fill: #e04f27"/>
        <ellipse cx="199.28" cy="310.2" rx="9.99" ry="7" style="fill: #e04f27"/>
        <ellipse cx="275.56" cy="268.12" rx="14.5" ry="30.91" style="fill: #e04f27"/>
        <ellipse cx="446.06" cy="261.2" rx="12" ry="20" style="fill: #e04f27"/>
        <ellipse cx="461.56" cy="390.7" rx="12.5" ry="66.5" style="fill: #e04f27"/>
        <rect x="441.25" y="407.6" width="5.67" height="9.31" rx="1.94" transform="translate(-52.82 65.48) rotate(-7.96)" style="fill: #e04f27"/>
      </g>
      <path d="M187.77,942.22c-20.66-3.89-42.05,12.71-62-12.6-4.27-38.65,19.61-75.83-1.06-107.11,5.72,7-.72-11-1.71-11.77a78.57,78.57,0,0,1,1.71-8.41c12.1,6.26.85-26.91,5.11-39.53,11.79,8,4.25-21.87,24.69-21.87,37.48,3.4,92-10.23,130.3,0-3.61,6.12-13.63,17.31-15.11,25.58-3.06,17.08,14.87,41.15-.54,52.92-11.51,8.79-11.22-28.63-17.49-42-7-15.09-16.73-43.18-19.84,7.88-2.86,2.19-7.85-2.49-6.92,11.86.11,1.65,1.09,4,1.79,4.26,6,2.21,4.19-9.41,5-16.36,7.28,9.18,13,22.06,16.74,39.75-6.7,1.4-10.82,9.13-11.29,25.86q-10.6-20.7-21.21-41.39-1.61-1.69-3.2-3.41l1.32,7.86c.59,43-5.78,86.29,1.08,129ZM183,779.81l2.8.57-1.69-1.65-2.67-5.7c-.54.47-1.63,1.21-1.55,1.38C180.86,776.26,182,778,183,779.81Z" style="fill: #c2a57e"/>
      <path d="M288.27,845.25c80.91,111.14-32,98.36-71.54,98.36s-71.53-44-71.53-98.36,32-98.37,71.53-98.37S256.3,801.33,288.27,845.25Z" style="fill: #c2a57e"/>
    </g>
  </g>
  <ellipse cx="423.88" cy="30.2" rx="38.33" ry="26" transform="translate(0.66 68.52) rotate(-9.25)" style="fill: #dadadb"/>
  <rect x="421.21" y="2.86" width="41.3" height="37.49" rx="8.68" transform="translate(-0.37 33.45) rotate(-4.33)" style="fill: #dadadb"/>
  <rect x="388" y="18.76" width="41.19" height="34" rx="8.68" transform="translate(4.12 -32.29) rotate(4.55)" style="fill: #dadadb"/>
  <rect x="426.64" y="25.96" width="39.84" height="53.37" rx="8.68" transform="translate(-3.02 60.83) rotate(-7.77)" style="fill: #dadadb"/>
  <rect x="387.38" y="40.95" width="10" height="12" rx="1.83" style="fill: #dadadb"/>
</svg>
