<svg id="Layer_1" data-name="Layer 1" xmlns="http://www.w3.org/2000/svg" width="533.44" height="918.04" viewBox="0 0 533.44 918.04">
  <title>test</title>
  <g>
    <rect x="285.42" y="449.56" width="126.91" height="12.09" style="fill: #71b5e1"/>
    <rect x="2.06" y="263.22" width="85" height="32" rx="10.76" transform="translate(-103.36 38.24) rotate(-22.48)" style="fill: #ab835d"/>
    <g>
      <rect x="129.35" y="200.23" width="183.19" height="27.17" rx="12.13" transform="translate(-59.13 86.96) rotate(-19.69)" style="fill: #ab835d"/>
      <g>
        <g>
          <ellipse cx="138.89" cy="277.87" rx="15.91" ry="15.26" style="fill: #c2a57e"/>
          <rect x="297.23" y="204.11" width="141.39" height="206.15" style="fill: #e04f27"/>
          <rect x="439.73" y="412.54" width="7.11" height="8.94" transform="translate(51.05 -48.34) rotate(6.62)" style="fill: #e04f27"/>
          <rect x="283.68" y="415.52" width="146.36" height="25.19" style="fill: #e04f27"/>
          <rect x="271.06" y="235.22" width="52" height="166" style="fill: #e04f27"/>
          <path d="M212.35,625.41c-18.69-31.57-34.83-64.3-42.66-100.4-11.19-51.5,18.73-81.23,70-70,2.8.61,5.57,1.33,8.36,2,36,8.72,36,8.72,36.12-29.33l124.8-.38q-.17,3.58-.34,7.18l-38.45,1.26c-11.76-6.67-23.45-7.2-35,.43-7.75.09-15.52-.19-23.23.4-7,.53-17.48-3.13-17.4,9.2.09,12.57,9.9,8.65,17.22,8.36,7.74-.31,15.47-.51,23.21-.76,11.75,9.22,23.63,9.05,35.63.5l42.08.66c-2.35,33.25-1.39,66.42-.63,99.75,1.52,66.94-6.15,133.86-3.56,200.93.17,4.28,0,8.57-.11,12.85-.2,6.52-2.89,11.48-10.06,11.18-11.09-.46-22.91,3.95-33-4.26,0-58.07-.06-116.14.21-174.21.08-16.27-3.24-31.24-13.06-44.46-33.59-28.17-76.79-39.27-113-63.33-13.32-8.86-26.95,6.9-22.53,24.06a252.88,252.88,0,0,0,20.75,53.68C258.89,611.57,258.54,612,212.35,625.41Z" style="fill: #71b5e1"/>
          <path d="M434.55,202c28.29-3.9,28.6-3.95,34.25,28.12,9,50.92,16.72,101.91,18.44,153.8.86,26.13-3.32,52.68,4.61,78.54,1.71,5.59,3.34,13.3-6.06,15.6a3.2,3.2,0,0,0-2.62-1,51.8,51.8,0,0,0-27.43-2.45c-12.23-9.39-6.58-20-2-30.43,15.56-1.8,9.66-12.4,11.06-25.31-4,6.85-5.56,9.43-7.08,12-1-2.47-2-4.95-3.05-7.42Q453.84,395,453,366.6c7.65-6.3,19.92-12,3-21.68-3.34-12.61-6.69-25.23-11.54-43.51v52l.54,52.13-3.42,15.85-11.54,1a930,930,0,0,0-146.36-.27c-14.87-.82-14.64-10.3-12.12-21.1l23.95-.16c1.76,2,4.38,6,5.13,5.7,8.75-3.76,2.67-12.45,5.61-18.34,2.09,2.82,3.82,6,6.34,8.38,6.47,6,15,6.18,21.74,2.69,7.54-3.9,1.65-11.67.73-17.2-3.18-19-18.65-8.58-28.81-11q-.08-6.72-.14-13.43c5.63.08,11.26.39,16.87.19,6.09-.22,13.65,1.45,15.66-6.93,1.62-6.81,2.33-14.27-3.73-19.66-5.22-4.64-11.93-4-18.1-2.73-11.48,2.42-4.29,15.37-11.06,20.65l-.33-77.53c13-1.58,28.47,6.4,37.47-10.38,1.16-2.15,6.43-1.82,7.26.8,4.49,14.11,16.35,13,27.27,14,14.22,8.42,27.4,6.85,39.6-4.1l.15,12.78c-17.14-.54-34.23-.42-50.8,4.86-6.17,2-12.74,3.84-13.15,11.92-.41,8.25,6.17,10.28,12.17,12.74,4.59,1.88,9.29,6,13.58,5.6,13.51-1.37,17.89,4.1,16.82,16.9s8.35,12.73,17.29,12.66q-.49,10.77-1,21.53c-6.64.39-16.2-1.79-15.68,8.36.43,8.44-2,20.88,12.63,22.18,9.78,6.63,10.41,6.56,11.49-7.75C425.37,329.86,429.91,265.94,434.55,202ZM352.48,342.86c-1,7.68.79,15.77,14.4,15.06,9.15-.48,14.94-3.7,15.55-13.71.85-14.09-8.22-15.53-19.18-17.1C351,325.36,352.67,332.85,352.48,342.86Zm-27.67-53.72c-9.14-.59-15.24,1.8-15.35,12.63S315,315,324.28,314.94c9-.05,15.23-1.85,15.23-12.77C339.51,291.64,334.13,288.36,324.81,289.14Zm53.47,96c.74-8.34-1.68-14.78-12.6-14-10,.7-13.22,6.78-12.93,15.81.27,8.37,4.31,13.1,12.92,13.69C376.56,401.38,379,395,378.28,385.15Zm60.34-127.48c.93,5-1.26,13.1,7.25,12.14,7.58-.86,5.53-8.62,5.49-13.81s1.45-13.13-7-12.19C436.8,244.66,439.48,252.48,438.62,257.67Z" style="fill: #e04f27"/>
          <path d="M270.92,295.58c-7.69,2.28-9.64,10-14.22,15.17-10.82,12.27-24,20.61-40.46,21.36-32.27,1.48-61.67-6.4-86.63-28.3-6.7-5.88-7.66-11.27-3.76-18.49C136.94,282.54,141.11,271,150.5,266c9,5.25,22.39,8.42,26.07,16.18,8.71,18.37,23.23,16.74,38.27,17.13l4-1c24-14.75,27.52-39.73,32.94-64.19,2.82-12.77,33.54-20.69,20.59-25.34,11-1.79-3,10.93,0,13-.07,30-4.32-4.32,18.27,2.81.24,15.91,5.09,32-2.47,47.55a81.54,81.54,0,0,0-.28-8.58c-.91-6.76,2.69-14.83-4.6-19.79-4-2.69-8.45-1.54-11.57,2.07-5.61,6.46-8.87,18-4.5,21.63C278.54,276.88,268.57,286.57,270.92,295.58ZM159,301c5.86,0,8-3.2,7.71-8.12-.36-6.93-5.27-10-11.25-10.43-5.22-.36-7.28,4.56-7.57,8.64C147.34,298.7,154.11,299.22,159,301Zm35.56,5.81c2.87,1.53,7.33,7.09,10.32,0Z" style="fill: #e04f27"/>
          <path d="M365.29,775c10.1,8.21,21.92,3.8,33,4.26,7.17.3,9.86-4.66,10.06-11.18.13-4.28.28-8.57.11-12.85-2.59-67.07,5.08-134,3.56-200.93-.76-33.33-1.72-66.5.63-99.75,6.36-8.23,7.2-15.35-4-20q.18-3.6.33-7.18l20.87-.35q-3.4,165.88-6.7,331.77c-.05,2.64,1.49,5.31,2.29,8,0,3.87-.07,7.74-.1,11.6,1,7.28-1.06,13.3-7.21,17.67-5-6.22-11.56-2.69-17.55-2.77-9.53,3.93-19.42,4.24-29.47,3C365.4,790.1,345.55,788,365.29,775Z" style="fill: #649bba"/>
          <path d="M210.51,813.76c-16.08-1.27-32.72,4.16-48.2-4.12C159,797,171.11,781.45,155,771.22c-.78-.23-1.56-.48-2.33-.74a24.6,24.6,0,0,1,1.71-3.68c9.42,2.05,13.53-8.39,21.72-9.22,9.18,2.63,15-3.4,21.24-8.26,28.3,6.39,56.79-6.9,85.07.88-2.81,2-7,3.41-8.14,6.11-2.39,5.59,11.57,13.46-.42,17.31-9,2.87-8.73-9.36-13.61-13.75-5.48-4.94-13-14.12-15.44,2.57-2.23.72-6.11-.81-5.39,3.88a2.17,2.17,0,0,0,1.4,1.4c4.64.72,3.26-3.08,3.91-5.36a29.49,29.49,0,0,1,13,13c-5.2.46-8.41,3-8.78,8.46l-16.5-13.54L230,769.17c.34.86.68,1.71,1,2.57.46,14-4.5,28.21.84,42.17ZM197,771.49l2.47.5L198,770.52l-2.34-5.07c-.48.42-1.44,1.08-1.37,1.23C195.09,768.33,196.06,769.9,197,771.49Z" style="fill: #c2a57e"/>
          <path d="M387.06,52.06c.09-1.55.17-3.11.26-4.66,4.31.27,9.47.78,11-4.16,5.72-18.9,23.59-16.42,36.86-20,25-6.82,16.24,17.52,23,27.61,3.91,5.83,7.09,12.13,10.61,18.21q2.28,9.09,4.57,18.18c-4.88,16.66-37.72,34.71-60.79,30.15,2.83-6.09,5.42-16.38,3.11-23.14-1.41-5.81-.56-8.37-2.68-12.88-.56-2.4-1.13-4.79-1.69-7.18C406.35,63.34,397.45,56.89,387.06,52.06Z" style="fill: #dadadb"/>
          <path d="M205.79,711.81l13.93-1.47c17.12,1.32,24.44-5.82,18.26-21.63-7-18-8.72-37-13.81-55.23l16.76-7.69c8.78,3.09,13.86,9.39,15.32,18.4,4.94,30.56,9.72,61.15,14.55,91.72l-56.05.85-8.69-.15C208.44,728.32,209.86,720,205.79,711.81Z" style="fill: #7a5229"/>
          <path d="M240.93,625.79l-16.76,7.69c-6.51,1.06-15.76,6.11-11.83-8.07,46.2-13.45,46.55-13.84,25.36-54.7A252.88,252.88,0,0,1,217,517c-4.42-17.16,9.21-32.92,22.53-24.06,36.17,24.06,79.37,35.16,113,63.33-41.16-10.1-78.22-32.15-122.33-44.12,6.39,33.46,19.28,60.24,35.22,85.68,3.86,6.16,9.49,11.12,2.58,18.38C258.37,617.87,249.15,620.4,240.93,625.79Z" style="fill: #649bba"/>
          <path d="M281.28,195.3c-12.74-4.67-19.73,7.23-30,9.75-14,10.56-23.7,31.39-47.41,18.44-8.87,5.56-20.94-5.55-29.11,5.89-8.5,11.89-17.48,12.55-24.88-1.54q0-4.78.1-9.58c39.38-12.38,79-24,118-37.47,17.87-6.15,34.45-15.83,51.61-23.91q2.31,21,4.64,41.91l-14.64-.66C300.68,192.55,290.82,195.41,281.28,195.3Z" style="fill: #ab835d"/>
          <path d="M416.84,254.11c6.06-17.35,5.29-35.67,7.63-53.54,4.19-5.34,7.24-2.73,10.08,1.46-4.64,63.91-9.18,127.83-14,191.73-1.08,14.31-1.71,14.38-11.5,7.74l-.28-.22c.86-1.43,1.73-2.85,2.6-4.28q.36-13,.74-26,.5-10.77,1-21.53,2-32.34,4.09-64.68L417,272Z" style="fill: #7a5229"/>
          <path d="M128.07,240.48c.74-16.07,13.32-10.13,21.84-11.73,6.56,12.88,14.53,12.27,22.06,1.41,7.25-10.46,17.95-.31,25.82-5.38-1.37,16.35-16.16,17.48-26.75,22.89-8.65,4.41-19,6.26-20.54,18.33-9.39,4.95-13.56,16.54-24.65,19.32-9.74-1.74-16.62-8-23.29-14.66q2.68-3.65,5.39-7.28C117.61,258.34,134.83,259.91,128.07,240.48Z" style="fill: #c2a57e"/>
          <path d="M416.56,839.91c-.39,16,3.25,32.12-1.49,48-10.58-3-21.16-6-32.37-4.86q-2.67-5.41-5.35-10.84c3.72-13.65,14.75-27.1,1.18-41.24,3.23-5.93-2.16-6.51-5.28-8.49a4.23,4.23,0,0,0,.27-3.91l26.53.08c-2.73,12.08,12.45,19.78,9.16,33.16Z" style="fill: #7a5229"/>
          <path d="M63.7,249.85c10,1.47,7.94,7,4.5,13.11v4.71l-17.09,8.54c-8.84.71-18.37-3.09-26.22,4.05l-4.05,1,1.28,2.1,3.05-2.76c8.41,7.61-8.26,15.68.41,23.29C15.48,311.16,7,310,3.25,297.58c-3.37-11.15-7.93-23.93,8.51-29.79C29,261.64,46.38,255.81,63.7,249.85Z" style="fill: #ab835d"/>
          <path d="M402.35,126c-.09-3.21-.17-6.42-.26-9.63,26.31,5.12,63.09-10.52,68.66-29.18,7.21,2.71,19.5-5.26,21,9.57-19.21,1.24-22.22,13.52-20.53,29-16.18,13-35.3,19-55.52,22.47C416.08,138,407.6,132.94,402.35,126Z" style="fill: #ab835d"/>
          <path d="M455.74,474.6a51.76,51.76,0,0,1,27.42,2.45c-5.35,6.93-8.91,13.32-4,22.92a44.57,44.57,0,0,1,2.57,34.82c-4.5,4.44-8.77,5-12.66-.76,4.36-3.61,2.94-6.23-1.43-8.35-2.1-5.18-2.76-13.13-6.54-15.07C441.71,500.59,449.46,487.73,455.74,474.6Z" style="fill: #ddc99a"/>
          <path d="M382.7,883c11.21-1.18,21.79,1.87,32.37,4.86l11.18,16.65,1.23,4.35q-.56,4.58-1.09,9.15l-11.8-5.12c-7.78-7.21-17.36-2.45-26-3.91-5.19-.87-12.93,1.71-13.94-5.69S370.43,885.9,382.7,883Z" style="fill: #613b18"/>
          <path d="M416.56,839.91l-7.35,11.88c3.29-13.38-11.89-21.08-9.16-33.16v-.3c4.28-1.82,2.58-3.62,0-5.42q.27-9.87.55-19.74c6,.08,12.53-3.45,17.54,2.77Q417.35,817.92,416.56,839.91Z" style="fill: #613b18"/>
          <path d="M481.73,534.79A44.57,44.57,0,0,0,479.16,500c-4.91-9.6-1.35-16,4-22.92a3.21,3.21,0,0,1,2.63,1c4.15,12,8.35,24,8.28,36.83C494,523.77,491.65,531.77,481.73,534.79Z" style="fill: #c2a57e"/>
          <path d="M467.51,128.17c-1.91-17.31,1.5-31,23.33-32.43C500.08,118,492.73,129.05,467.51,128.17Z" style="fill: #9d7146"/>
          <path d="M108,263.38q-2.7,3.64-5.39,7.28a40.16,40.16,0,0,1-21.17,8.45q-.14-6.28-.25-12.58c7.68,2.74,13.91-2.13,20.74-3.91Z" style="fill: #ab835d"/>
          <path d="M81.14,266.53q.12,6.29.25,12.58l-4.64,1.2c.23-6.3-3.13-10.16-8.55-12.64V263C72.93,262.64,78,261.16,81.14,266.53Z" style="fill: #ab835d"/>
          <path d="M467.64,525.68c4.37,2.12,5.79,4.74,1.43,8.35C468.59,531.25,468.12,528.46,467.64,525.68Z" style="fill: #c2a57e"/>
          <path d="M120.42,769.41l4.53-1.77Z" style="fill: #ab835d"/>
          <path d="M335.15,436.16c11.58-7.63,23.27-7.1,35-.43q.21,9.06.41,18.13c-12,8.55-23.88,8.72-35.63-.5Q335.05,444.75,335.15,436.16Z" style="fill: #c2a57e"/>
          <path d="M370.71,453.86l-.54-18.13,50.75-1.26c14.81,4.7,13.71,11.82,5.32,20Z" style="fill: #ab835d"/>
          <path d="M335.15,436.16q-.13,8.59-.26,17.2c-10.3.25-20.61.45-30.9.76-9.75.29-22.82,4.21-22.93-8.36-.11-12.33,13.85-8.67,23.16-9.2C314.48,436,324.83,436.25,335.15,436.16Z" style="fill: #ab835d"/>
          <path d="M284.76,736.44c3.12,3.86,3.29,8.41,3.08,13.06l-5.4.7c-28.28-7.78-56.77,5.51-85.07-.88,0-1.37,0-2.75,0-4.12l8.67-8.59,8.7.14c20,7.64,40,5.73,60,0Z" style="fill: #c2a57e"/>
          <path d="M206.06,736.61l-8.67,8.59c-6-13.34-11.06-26.45,8.4-33.4C209.86,720,208.44,728.32,206.06,736.61Z" style="fill: #613b18"/>
          <path d="M295.51,400.86c.36-10.22,2.33-20.58-2.87-30.27q-.13-6.3-.28-12.58-2.07-43-4.16-85.93c7.57-15.5,2.72-31.64,2.49-47.55l.87-22.93,13,.61c.12,1.74.25,3.5.37,5.25-1.92,1.94-5.85,5-5.47,5.68,8.66,16,3.37,33.55,5.72,50.19q.12,4.16.26,8.31l.33,77.54.36,8.47q.08,6.72.13,13.43,0,8.57,0,17.14c-2.94,5.89,3.14,14.58-5.61,18.34C299.89,406.88,297.27,402.86,295.51,400.86Z" style="fill: #7a5229"/>
          <path d="M417.17,284.76q-2.06,32.34-4.09,64.68c-8.94.07-18.36.15-17.29-12.66s-3.31-18.27-16.82-16.9c-4.29.44-9-3.72-13.58-5.6-6-2.46-12.58-4.49-12.17-12.74.41-8.08,7-10,13.15-11.92C382.94,284.34,400,284.22,417.17,284.76Z" style="fill: #e04f27"/>
          <path d="M306.11,357.65l-.36-8.47c6.77-5.29-.42-18.24,11.06-20.66,6.17-1.3,12.88-1.91,18.1,2.73,6.06,5.39,5.35,12.85,3.73,19.66-2,8.38-9.57,6.71-15.66,6.93C317.37,358,311.74,357.73,306.11,357.65Z"/>
          <path d="M306.25,388.22q0-8.57,0-17.14c10.17,2.43,25.64-8,28.82,11,.92,5.53,6.81,13.3-.73,17.2-6.75,3.49-15.27,3.33-21.74-2.69C310.07,394.25,308.34,391,306.25,388.22Z" style="fill: #0c0b0b"/>
          <path d="M324.81,289.14c9.32-.78,14.7,2.5,14.7,13,0,10.92-6.28,12.72-15.23,12.77-9.24.05-14.93-2.47-14.82-13.17S315.67,288.55,324.81,289.14Z"/>
          <path d="M323.86,259.8c9.32-.78,14.7,2.5,14.69,13,0,10.93-6.28,12.73-15.22,12.77-9.24,0-14.94-2.47-14.83-13.16S314.71,259.22,323.86,259.8Z"/>
          <path d="M378.28,385.15c.74,9.85-1.72,16.23-12.61,15.49-8.61-.59-12.65-5.32-12.92-13.69-.29-9,3-15.11,12.93-15.81C376.6,370.37,379,376.81,378.28,385.15Z" style="fill: #0c0b0b"/>
          <path d="M412.1,371q-.37,13-.74,26l-2.6,4.28.28.22c-14.66-1.29-12.19-13.73-12.62-22.17C395.9,369.18,405.46,371.36,412.1,371Z" style="fill: #0c0b0b"/>
          <path d="M292.36,210.79c-2.54,11-.11,12.88-2.65,23.9-18.28,3.32-34.38,15.43-34.59-4.33-.05-4.93,15.07-22.82,20-23.13C281,206.86,286.89,206.89,292.36,210.79Z" style="fill: #e04f27"/>
          <path d="M214.84,299.31a4.76,4.76,0,0,1,4-1Z" style="fill: #ed5c2f"/>
          <path d="M373.52,818.55c-6.83-6.82-3.51-14.74-2.44-22.42,10.06,1.28,19.95,1,29.48-3q-.26,9.87-.54,19.74c0,1.81,0,3.62,0,5.42v.3Z" style="fill: #7a5229"/>
          <path d="M245.22,818.31l-4.05-4.54c8-4.09,9.82-26.58,25.22-8.38l-.12.12c-16,12.23-.08,19.66,4.78,28.12,4.76,8.29,19.39,12.93,17.16,22.32-3.22,13.59.65,26.3-.79,39.3.31,9-5.65,9.63-12.38,9.22l-4.42-4c2.4-20-11.55-32.61-29.78-26.94l-4.16-11.64c4.19-4.19,4.47-9.44,4-14.89l0-.84C249.07,838,259.53,830.18,245.22,818.31Z" style="fill: #c2a57e"/>
          <path d="M240.84,873.58c18.23-5.67,32.18,6.94,29.78,26.94-9.71,14.55-24.1,13.47-38.73,11.59C223.81,896.7,233.38,885.39,240.84,873.58Z" style="fill: #c2a57e"/>
          <path d="M275,904.47c6.73.41,12.69-.2,12.39-9.22,14.68,4.41,7.14-7.41,9-12.34l0,0,17.29,0c7.78,5.44,1.93,16,8.21,22-2,5.68-1.69,13.54-11.39,12C298,914.84,283.63,918,275,904.47Z" style="fill: #c2a57e"/>
          <path d="M369.08,904.24l3.06-38.61c1.74,2.18,3.47,4.37,5.21,6.56Q380,877.6,382.7,883c-12.27,2.87-9.08,12.84-8.06,20.29s8.75,4.82,13.94,5.69c8.65,1.46,18.23-3.3,26,3.91l-44.65.17Q369.51,908.67,369.08,904.24Z" style="fill: #7a5229"/>
          <path d="M370,913.09l44.65-.17q5.86,2.57,11.78,5.12a5.09,5.09,0,0,1,.43,3.71C408,918.06,387.81,923.22,370,913.09Z" style="fill: #7a5229"/>
          <path d="M533.43,766.7l-.83,1.4.84-1.38Z" style="fill: #789654"/>
          <path d="M313.79,882.86l-17.29,0-1.45-.79,1.42.82c-1.9,4.93,5.64,16.75-9,12.34,1.43-13-2.44-25.71.78-39.3,2.23-9.39-12.4-14-17.16-22.32-4.86-8.46-20.76-15.89-4.78-28.12l1.56.79-1.44-.91c-15.4-18.2-17.25,4.29-25.22,8.38l-9.3.14c-5.34-14-.38-28.12-.84-42.17l1.47-1.46L249,783.82l.25.19c4.78,9.34,14.06,8.13,22.26,9.48,7.29,16.09,18.94,28.34,33.66,37.85,7.79,8.48,8.16,18.17,4.65,28.49-.4,3.8,0,7.34,3.29,9.9C311.45,874.21,308.85,878.73,313.79,882.86Z" style="fill: #c2a57e"/>
          <path d="M282.44,750.2l5.4-.7c16.93,1.43,13.77,15.41,12.38,24.32-1.81,11.59-.1,21.72,3.46,32.18-14,5.13-14.2-19.34-28.62-13.31-1.62-10-11.07-12.17-17.4-17.47l.11.14a29.49,29.49,0,0,0-13-13l.08.08c2.42-16.69,10-7.51,15.44-2.57,4.88,4.39,4.65,16.62,13.61,13.75,12-3.85-2-11.72.42-17.31C275.45,753.61,279.63,752.2,282.44,750.2Z" style="fill: #c2a57e"/>
          <path d="M249,783.82c.37-5.47,3.58-8,8.78-8.46l-.11-.14c-.4,5.23-2.76,8.59-8.42,8.79Z" style="fill: #ab835d"/>
          <path d="M244.75,762.36c-.65,2.28.73,6.08-3.91,5.36a2.17,2.17,0,0,1-1.4-1.4c-.72-4.69,3.16-3.16,5.39-3.88Z" style="fill: #ab835d"/>
          <path d="M197,771.5c-.93-1.6-1.9-3.17-2.72-4.82-.07-.15.89-.81,1.37-1.23l2.34,5.07Z" style="fill: #ab835d"/>
          <path d="M231,771.74c-.35-.86-.69-1.71-1-2.57l2.49,1.11Z" style="fill: #ab835d"/>
          <path d="M198,770.52l1.49,1.47-2.47-.5Z" style="fill: #ab835d"/>
          <path d="M284.76,736.44l-10,.35a32,32,0,0,1-4-.88c-4.83-30.57-9.61-61.16-14.55-91.72-1.46-9-6.54-15.31-15.32-18.4,8.22-5.39,17.44-7.92,27-9.55,11.93,14.6,6.33,32.5,8.79,48.82C280.27,688.72,282.16,712.64,284.76,736.44Z" style="fill: #613b18"/>
          <path d="M106.78,270.42l-11.41-3c14.47-23.18,33.58-37.82,55.23-47.78C158.91,267.25,126.42,260.24,106.78,270.42Z" style="fill: #ab835d"/>
          <path d="M270.8,735.91a32,32,0,0,0,4,.88c-20,5.69-40,7.6-60,0Z" style="fill: #c2a57e"/>
          <path d="M408.76,401.28l2.6-4.28C410.49,398.43,409.62,399.85,408.76,401.28Z" style="fill: #e04f27"/>
          <path d="M377.35,872.19c-1.74-2.19-3.47-4.38-5.21-6.56v-8.44c.34-.51,1.05-1.14.94-1.52a19.31,19.31,0,0,0-1.5-3.11q-.43-10.47-.86-20.94l7.81-.67C392.1,845.09,381.07,858.54,377.35,872.19Z" style="fill: #7a5229"/>
          <path d="M378.53,831l-7.81.67c-1.39-3.67-1.81-7.08,2.53-9.16C376.37,824.44,381.76,825,378.53,831Z" style="fill: #7a5229"/>
          <path d="M25.17,280.57l-3.05,2.76-1.28-2.1,4.05-1Z" style="fill: #ab835d"/>
          <path d="M400,818.33c0-1.8,0-3.61,0-5.42C402.62,814.71,404.32,816.51,400,818.33Z" style="fill: #7a5229"/>
          <path d="M275.06,792.69c14.42-6,14.62,18.44,28.62,13.31.41,8.45,10.28,16.35,1.48,25.34-14.72-9.51-26.37-21.76-33.67-37.86C272.68,793.23,273.88,793,275.06,792.69Z" style="fill: #c2a57e"/>
          <path d="M313.1,869.73c-3.32-2.56-3.69-6.1-3.29-9.9C314.5,861.94,314.11,865.73,313.1,869.73Z" style="fill: #c2a57e"/>
          <path d="M371.58,852.56a19.31,19.31,0,0,1,1.5,3.11c.11.38-.6,1-.94,1.52C372,855.65,371.77,854.1,371.58,852.56Z" style="fill: #7a5229"/>
          <path d="M275.06,792.69c-1.18.28-2.38.54-3.57.79-8.19-1.34-17.47-.13-22.25-9.47,5.66-.2,8-3.56,8.42-8.79C264,780.52,273.44,782.71,275.06,792.69Z" style="fill: #c2a57e"/>
          <path d="M296.47,882.91l-1.42-.82,1.45.79Z" style="fill: #9d7146"/>
          <path d="M266.39,805.39l1.44.91-1.56-.79Z" style="fill: #c2a57e"/>
          <path d="M150,220c0,2.92-.05,5.83-.08,8.75-8.52,1.6-21.1-4.34-21.84,11.73-10.72,5-19.88,11.9-26.19,22.13-6.83,1.79-13.06,6.66-20.74,3.92C78,261.16,72.93,262.64,68.2,263c3.44-6.06,5.46-11.64-4.5-13.11,7.34-23.57,25-35.85,47.21-43.29a14.16,14.16,0,0,0,5.38-3.26c17.84-17.75,19.69-17.42,30.58,6.51C148.33,213,149,216.6,150,220Z" style="fill: #ddc99a"/>
          <path d="M362.76,259.8c9.32-.78,14.7,2.5,14.7,13,0,10.93-6.28,12.73-15.23,12.77-9.24,0-14.93-2.47-14.82-13.16S353.62,259.22,362.76,259.8Z"/>
          <path d="M362.76,290.06c9.32-.78,14.7,2.5,14.7,13,0,10.93-6.28,12.73-15.23,12.77-9.24.05-14.93-2.47-14.82-13.17S353.62,289.47,362.76,290.06Z"/>
          <path d="M362.76,329c9.32-.77,14.7,2.51,14.7,13,0,10.93-6.28,12.73-15.23,12.78-9.24,0-14.93-2.48-14.82-13.17C347.52,330.76,353.62,328.38,362.76,329Z"/>
          <path d="M397.35,259.8c9.32-.78,14.69,2.5,14.69,13,0,10.93-6.28,12.73-15.23,12.77-9.24,0-14.93-2.47-14.82-13.16S388.2,259.22,397.35,259.8Z"/>
          <path d="M397.35,290.06c9.32-.78,14.69,2.5,14.69,13,0,10.93-6.28,12.73-15.23,12.77-9.24.05-14.93-2.47-14.82-13.17S388.2,289.47,397.35,290.06Z"/>
          <path d="M397.35,324.64c9.32-.78,14.69,2.5,14.69,13,0,10.93-6.28,12.73-15.23,12.77-9.24.05-14.93-2.47-14.82-13.16S388.2,324.06,397.35,324.64Z"/>
          <g>
            <path d="M419.39,161.2c0,43-22.78,77.81-56.2,77.81S307,204.17,307,161.2s22.77-73.48,56.19-73.48S419.39,118.23,419.39,161.2Z" style="fill: #ddc99a"/>
            <g>
              <path d="M351.16,266.82c-3.09-1.7-5-4.62-7.49-7.65l.16,3.26c-2.81-4.15-5.36-8.45-8.33-12.76-1.32,2.09-.49,3.93-.1,5.84-6.85-6.5-10.53-14.95-14.57-23.51a9,9,0,0,0-.35,5.53c.3,1.76.74,3.49,1.2,5.58-4.4-1.9-6.91-5.15-8.93-9.28l-.44,2.63c-3.44-8.88-3.12-17.52-3.19-26.74l-6.81,7.49-.86-.57c5.43-13.36,6-27.57,7.42-41.66,2.19,10.93,2.93,22.14,9.78,31.56.1-3.26-.11-6.51,2-9.35.18.16.34.23.37.34.51,1.73.51,4.35,1.85,4.9s3.07-1.5,4.6-2.42a113.39,113.39,0,0,1,19.38-9.35c4.37-1.18,8.75-2.32,13.36-1.92,1.3.11,2.51.77,3.89.42,3.78-.95,7.51-.41,11.25.39,6.46,1.38,12.11,4.79,18.16,7.19,3,1.84,6.08,3.64,9.07,5.54.89.56,1.28.44,1.58-.53.45-1.49.95-3,1.43-4.46,1.82,2,2.12,3.39,2.2,9.27,7.36-10.31,7.88-22.62,9.86-34.56,1.16,15.05,1.51,30.19,7.28,44.44l-.43.43L418,209.82l-.69.43c-.09,8.6.22,17.27-3.15,26.15-.23-1.19-.34-1.73-.5-2.54-2,4.07-4.49,7.37-8.89,9.21.68-3.73,2.1-7.15.92-11.26-4.15,8.71-7.79,17.18-14.67,23.67.53-1.85,1-3.64,0-5.95-3.15,4.48-5.72,8.93-8.48,13.28-.12-1,.39-1.94-.19-3-2.3,2.48-4.05,5.45-7.12,7l-.17-.16c.47-2.6,1.43-5.19.11-8.24-1.13,2.39-2,4.46-3.06,6.47a39.43,39.43,0,0,1-7.49,10.37c-1.06,1-1.74,1.05-2.82,0-4.33-4.22-7.24-9.34-9.6-14.83-.23-.55-.21-1.31-1.05-1.65-1.3,2.69-.23,5.28.2,7.88ZM340.64,219c12.57,14.07,33.92,14,45,0-8.45.15-15.12-3.72-21.16-8.95-1.1-1-1.63-.75-2.59.08C355.84,215.25,349.22,219.07,340.64,219Z" style="fill: #442a15"/>
              <path d="M414.57,127.9A99,99,0,0,0,363,114.07c-18.37,0-35.38,2.83-51.71,12.55,4.32-13,8.26-20.39,16.77-28.61,9.16-10.29,21.06-14.35,34.5-14.61C384.8,79.07,412.79,105.5,414.57,127.9Z" style="fill: #e04f27"/>
              <path d="M307.41,146.15a76.13,76.13,0,0,1,.74-17.36c.21-1.3,1.14-1.74,2-2.31a91.29,91.29,0,0,1,39.55-14.16c21.24-2.54,41.54.6,60.53,10.8a19.24,19.24,0,0,0,2.16,1.22c4.54,1.72,6.18,5.12,6.17,9.8,0,4,.36,8.07,0,12C381.56,124.25,344.68,124.24,307.41,146.15Z" style="fill: #d84e2e"/>
            </g>
          </g>
          <circle cx="156.06" cy="294.22" r="14" style="fill: #e04f27"/>
          <ellipse cx="199.28" cy="308.22" rx="9.99" ry="7" style="fill: #e04f27"/>
          <ellipse cx="275.56" cy="266.13" rx="14.5" ry="30.91" style="fill: #e04f27"/>
          <ellipse cx="446.06" cy="259.22" rx="12" ry="20" style="fill: #e04f27"/>
          <ellipse cx="461.56" cy="388.72" rx="12.5" ry="66.5" style="fill: #e04f27"/>
          <rect x="441.25" y="405.61" width="5.67" height="9.31" rx="1.94" transform="translate(-52.54 65.46) rotate(-7.96)" style="fill: #e04f27"/>
        </g>
        <path d="M187.77,940.23c-20.66-3.88-42.05,12.72-62-12.6-4.27-38.65,19.61-75.82-1.06-107.1,5.72,7-.72-11-1.71-11.78a79.08,79.08,0,0,1,1.71-8.41c12.1,6.27.85-26.91,5.11-39.53,11.79,8.05,4.25-21.86,24.69-21.86,37.48,3.39,92-10.23,130.3,0-3.61,6.11-13.63,17.31-15.11,25.58-3.06,17.08,14.87,41.14-.54,52.91-11.51,8.79-11.22-28.62-17.49-42.05-7-15.08-16.73-43.18-19.84,7.89-2.86,2.19-7.85-2.49-6.92,11.85.11,1.66,1.09,4,1.79,4.27,6,2.2,4.19-9.41,5-16.37,7.28,9.19,13,22.06,16.74,39.75-6.7,1.4-10.82,9.13-11.29,25.86q-10.6-20.7-21.21-41.39-1.61-1.68-3.2-3.41l1.32,7.86c.59,43-5.78,86.3,1.08,129ZM183,777.82l2.8.57-1.69-1.65-2.67-5.7c-.54.48-1.63,1.22-1.55,1.38C180.86,774.28,182,776.05,183,777.82Z" style="fill: #c2a57e"/>
        <path d="M288.27,843.26c80.91,111.14-32,98.37-71.54,98.37s-71.53-44-71.53-98.37,32-98.36,71.53-98.36S256.3,799.34,288.27,843.26Z" style="fill: #c2a57e"/>
      </g>
    </g>
    <ellipse cx="423.88" cy="28.21" rx="38.33" ry="26" transform="translate(0.98 68.49) rotate(-9.25)" style="fill: #dadadb"/>
    <rect x="421.21" y="0.88" width="41.3" height="37.49" rx="8.68" transform="translate(-0.22 33.44) rotate(-4.33)" style="fill: #dadadb"/>
    <rect x="388" y="16.77" width="41.19" height="34" rx="8.68" transform="matrix(1, 0.08, -0.08, 1, 3.96, -32.3)" style="fill: #dadadb"/>
    <rect x="426.64" y="23.97" width="39.84" height="53.37" rx="8.68" transform="translate(-2.75 60.81) rotate(-7.77)" style="fill: #dadadb"/>
    <rect x="387.38" y="38.96" width="10" height="12" rx="1.83" style="fill: #dadadb"/>
  </g>
</svg>
