<svg id="Layer_1" data-name="Layer 1" xmlns="http://www.w3.org/2000/svg" width="3226.64" height="2390.23" viewBox="0 0 3226.64 2390.23">
  <title>trees</title>
  <g>
    <path d="M257.19,2221.07c367.27-101.75,733.65-101.79,1101.84,1.59-2.4-2.67-3.24-3.88-4.36-4.83-135.56-115.42-296.89-181.16-485-194.91-11.58-.85-15.74-3.31-15.68-14.13.18-31.21-1.17-62.42-1.81-93.63-.19-9.4,0-18.81,0-30,28.82,2.86,54-3.83,77.77-16.1l-13.12-13,32.87-3.4-21.45-17.28,1.32-1.75,48.09,9.09c.53-1.08,1.06-2.17,1.6-3.26l-26.4-20.86a22.42,22.42,0,0,1,11.21,2.1c30.54,13.48,60.92,27.24,91.6,40.47,22,9.49,44.1,19,66.79,27.1,10.51,3.76,22.52,4.29,33.86,6.29l1.66-4.11-57.7-39.44,11.35-2.1-81.07-66.63c4.57,1.77,6.39,2.36,8.08,3.15q65,30.25,130,60.49a85.79,85.79,0,0,0,19,6.62c3.94.79,8.55-1,12.86-1.65-1.75-3.72-3.14-7.63-5.4-11.09-1.09-1.67-3.73-2.63-5.82-3.69-35.41-17.94-53.44-50.58-81.78-74.71,32.31,12.72,60.93,30.38,87.58,50.06,28.85,21.32,61.57,35.78,96,47.88,5,1.77,10.94,1.6,17.33,2.45-6.41-18-17.65-30.79-33.7-38.73-27.93-13.8-40.77-39.17-61.41-59,66.46,41.68,139.31,69.5,218.2,84.86l3-3.4-55-56.42a188.15,188.15,0,0,1,28,13.17c21.4,11.94,42.44,24.4,64.14,35.9,6.61,3.5,14.9,4.54,22.41,6.7l2.85-4.25c-46.74-34.31-90.05-71.45-126.38-116.55l122.4,42.21,2.23-3-29.85-27.12c.42-.59.84-1.18,1.25-1.78l117.35,46.08,2.31-2.54c-1.9-2.58-3.1-6.16-5.78-7.58-45.47-24.21-84.57-55-120.84-89-25.63-24-51.47-48-79-70.23-17-13.76-38.44-23.23-56.07-36.51-25.64-19.32-49.57-40.41-74.38-60.6-9.22-7.49-18.88-14.56-28.33-21.82,25,12.85,51.28,24.23,73.39,40.11,28.78,20.67,61.8,34.31,93.33,50.48,7.54,3.87,16.36,5.79,24.6,8.61.52-.87,1-1.74,1.55-2.61l-44.72-45.06c37.17,18.52,74,35.91,112.31,50.65,1-1.16,2-2.32,3-3.49l-37.79-30.46c28.37,12.13,55.24,25.61,82.41,38.6,5.59,2.67,12.29,3.52,18.48,5.21l1.74-2.69q-7-7-14-14.09l1.43-1.29,53.67,20,3-4.47q-23.34-17.67-46.69-35.33c12.46,1.08,23.35,4.58,34.47,7.35,10.86,2.7,22,4.65,33,6.93.18-1,.35-1.94.53-2.91-134.39-63.77-268.93-127.34-383.39-218.59,22.14,4.58,43.34,10.79,64.53,17,14.46,4.26,28.82,8.82,43.43,12.67,2.82.75,7.2-.48,9.59-2.19,1.1-.79-.62-5-1.57-7.51-.65-1.72-2.18-3.18-4.32-6.13l45.62,13.62c-7.37-21.56-25.36-30.92-39.56-43l1.81-2.28,154.69,62.24c-1.09-7.52-1.61-11.14-2.16-14.93,18.29,3.81,30,20.49,53,19.17l-12.9-20.71,67.12,16.18c-6.43-7.65-13.45-14.62-22.17-18.89-40-19.55-79.39-40.53-121.07-56.88-59.17-23.2-116-49-165-86.8-3.53-2.72-6.82-5.67-10.22-8.51,2.47-1,3.63-.87,4.68-.5,25.37,8.89,50.71,17.84,76.11,26.67,9.44,3.29,19,6.91,30.18,2.42l-9.09-11.43,1.93-2.23,53.53,27.65,3.71-4.11c-6.15-5.32-12.1-10.84-18.5-15.92-23.57-18.72-47.32-37.26-70.89-56-1.76-1.39-2.66-3.63-4.61-6.4,35.28,18.33,69.12,35.84,102.87,53.48,15.16,7.93,19.65,7,23-7.45l51.41,25.84c-1.4-9-2.26-14.47-3.27-20.93,17.12-2,31.46,13,48.3,5.36-6.14-5.75-11.4-11.6-17.71-16.35-6.69-5-14.72-8.67-21.58-13.55-58-41.24-117.73-80.09-183.42-111.57-21.38-10.24-41.73-22.42-61.38-35.13-13.2-8.54-23.9-20-36.5-29.37-27.62-20.48-55.75-40.44-83.66-60.62a75.7,75.7,0,0,1,14.06,6.33q50.74,28.71,101.43,57.52c7.52,4.27,14.92,7.56,17.42-4,16.25,5.27,30.65,14,49.63,11.79-.31-4.94-.57-9.18-.89-14.45l51.86,15.57,1.78-2.78c-5.75-4.81-12-9.25-17.11-14.56s-8.77-11.29-13.09-17l3.28-2.39c33.11,7.84,63,24.67,98,28.26-58.87-38.55-120.15-73.8-178.1-112.87-58.21-39.25-113.12-82.31-170-124.06,21.35,7.42,38.87,21.61,64.09,26.38-3.09-6.72-5-10.81-7.82-17,10.56,5.08,19,9.58,27.85,13.3,12.25,5.14,24.39,11.07,37.34,14.16,15.05,3.59,17.94-.4,12.35-13.37-.6-1.39-.46-3-.82-5.7l55.61,25.2,3.17-3.21-9.65-19c20.85,4.79,32.64,25.64,57.63,23l-7.89-16.4c15.67,5.67,27,16.13,44,9.14-7.54-7.46-15.45-14.28-24.51-19.58-50.47-29.55-96.74-62.88-136.65-103.66-25.29-25.85-55.05-48.55-84.55-70.88s-61.51-42.28-91.95-63.77c-14.61-10.31-28.16-21.79-42.19-32.74l1.13-1.17,82.2,33.81c-1.14-8.65-1.79-13.55-2.29-17.27,23.64,5.94,47.73,12,71.83,18,4.25,1.07,8.5,2.55,12.84,2.82,3.68.23,7.47-1,11.22-1.61-.74-3-1.06-6.07-2.34-8.84-1.54-3.33-3.9-6.36-5.9-9.52l2.46-1.71c13.22,9.13,26.18,18.6,39.81,27.23,5.18,3.28,11.91,4.65,17.94,6.89.25-5.62.47-11.24.78-16.85a3,3,0,0,1,.52-1.28c15.19,0,21.5,19.59,43.79,13.41-8.38-8.25-14.33-15.09-21.41-20.85-10-8.16-21.5-15-31.31-23.33-40.79-34.7-81.19-69.76-121.75-104.67-2.87-2.48-5.44-5.44-8.79-7.26-27.46-14.89-45.77-37.57-64.67-59.55-10.45-12.15-18.72-25.75-28-38.7l2.08-.82,28.58,13.93c-1.5-9.59-2.42-15.47-3.35-21.46,16.87,3.17,18.87,24.15,40.49,21.33l-8.76-16.77c17.42,12.56,30.79,14.75,44.72,7-6.21-4.47-11.77-8.71-17.61-12.62-20.18-13.48-41.85-25.52-60.31-40.6-21.1-17.24-41.67-35.71-58.25-56.29-18.25-22.66-36.09-45.06-60.24-63.23-6-4.52-10.89-10.38-15.5-16.12Q906,139,890.44,118.17c-19.22-25.73-38.55-51.41-57.08-77.53C823.5,26.73,815.23,12,807.76,0c-14.37,22.68-28.37,47.45-45.18,70.63-22.93,31.62-47.87,62.11-72.27,92.9-4.09,5.16-10,9.15-14.67,14-18.53,19.44-37,38.91-55.27,58.56-10.92,11.77-19.62,25.62-32.34,35.52-28.56,22.22-59,42.54-88.68,63.7-5.87,4.19-11.51,8.63-19.57,14.7,19.16,5.42,32.39,2.07,47-9.1l-9.63,16.84c22.21,3.76,24.09-19.45,41.43-20.72-1.26,6.45-2.42,12.41-3.59,18.37l2.78,2.13,28-15.62c-2.3,4.19-3.87,7.78-6.1,11-22.66,32.76-46.38,64.74-82.84,87.39a80.37,80.37,0,0,0-14.29,11.41c-47.22,47.25-101.27,88.12-155,129.33-6.28,4.82-10.67,11.55-17.16,18.75,21.05,5.72,27.63-13.49,41.35-13.89.88,6.28,1.7,12.19,2.53,18.09,6.92-2.84,13.9-5.59,20.73-8.6,1.72-.76,2.85-2.49,4.46-3.54q16.5-10.71,33.07-21.31l1.21,1.44q-4.4,8.81-8.78,17.63l2.39,3c32.34-5.19,64.46-11.22,94.82-23.72-.5,6-.91,10.9-1.58,18.95l84.38-34.75c.6.78,1.2,1.55,1.79,2.33-42.65,30.08-84.52,61.09-128.23,89.93-32.41,21.39-63.56,43.89-88.83,71.57-41.18,45.11-91.11,80.73-145.92,111.8-7.92,4.48-14.13,11.32-22.8,18.43,20,6,31.53-5.75,47-9.55l-8.72,15.9c25.21,2.56,37.21-18.88,57.62-22.75L287.62,850l3.46,2.55L347.45,827c-1.4,4.2-1.85,5.85-2.51,7.43-4.64,11.12-2,14.83,11,12.46,10-1.82,19.75-5.66,29.06-9.61C397.37,832,409.2,825.77,423.2,819c-3.05,6.48-5,10.59-6.92,14.69l2.33,3.16,56.66-25.22a16.39,16.39,0,0,1-6.21,7.13c-34.53,24.31-69.24,48.42-103.6,72.93-24,17.14-46.68,35.92-71.58,52-41.86,27-85.11,52.34-127.57,78.63-12.09,7.49-23.47,15.87-35.18,23.84l2.08,3.56,98-32.27c-2.54,18.09-20.49,24.08-29.64,38.65l54.64-16.51c-.6,5.79-1,9.79-1.81,17.47l51.94-14.67c2.57,8.78,6.39,9.47,18,2.82q51.61-29.48,103.16-59c3.13-1.79,6.58-3.16,9.88-4.73-.59,2.85-2.24,4.16-4,5.42-39.7,29.38-79.31,58.87-119.2,88.05a208.25,208.25,0,0,1-27.44,17.16c-26,13.43-53.72,24.63-78.43,39.69-52.56,32-103.76,65.78-155.21,99.2-7.45,4.84-13.17,11.76-19.69,17.72.3,1.07.61,2.14.92,3.21L82,1242.85c-1.28,7.76-2.17,13.2-3.55,21.6l52.67-26.38c.58,13.34,4.53,15.53,15.42,10.92,5.39-2.28,10-5.88,15.26-8.53,31.09-15.79,62.25-31.47,94.21-47.6-1.38,1.88-2.11,3.53-3.44,4.59-23.82,19-47.75,37.89-71.56,56.9-6.65,5.31-13,10.93-19.48,16.41l3.83,4.26,53.35-27.66c.64.76,1.27,1.53,1.9,2.29l-8.26,11.28,2.21,3c38.29-3.87,69.63-27.29,108.25-32.11-1.37,1.63-2.22,3.37-3.72,4.31-30.95,19.65-60.2,42.06-93.39,58.13-54.87,26.58-112.18,49.28-168.71,73.17-20.42,8.63-37,21.24-52.45,35.91l66.6-16L58.7,1408.76c23-.6,34.93-15.94,52.73-20l-1.73,14.86,154.72-62.29c-12.48,14.52-31,23.49-37.64,45l42.72-12.48c-1.1,4.74-2.14,9.23-3.19,13.73q8.65,0,17.29-.05a4.16,4.16,0,0,0,1.12-.39q43.8-13.47,87.62-26.89c3.5-1.06,7.26-1.44,10.9-2.14l1.41,2.76C269.07,1450.48,134.42,1514.1,0,1578l1.14,3.44,65.94-16.39c.24.54.48,1.08.71,1.62l-46.41,35.4,2.93,4.28L79,1586l.85,1.46-14.07,14.33,2.52,2.9c35.58-10.3,65.14-31.65,102.16-45.87l-39.92,32.3,3.54,4.49,112.6-52.42-45.59,45.72c.83.92,1.66,1.83,2.48,2.75,69.75-23.71,126.31-67.49,190.39-99.86-9.41,7.78-19.24,15.09-28.69,22.75-25.14,20.4-49.42,41.66-75.37,61.21-20.67,15.59-44.66,27.85-64.71,44-25.8,20.76-49.4,43.69-73.48,66.07-34.76,32.3-72.5,61.29-115.79,84.49-2.87,1.54-4.38,5-6.53,7.63l2.72,2.63,117.24-46.13,4.15,4.7-33.31,23.67,2.83,3.47,121.87-42c-35.61,45.23-79.51,81.93-124.55,118.59,9-.1,17.33-1.2,24-4.74,23.05-12.29,45.45-25.51,68.22-38.21,7.59-4.23,15.55-8,23.33-11.93l.45,1.19-55,56.6,2.95,4c38.32-9.4,77.36-17.68,113.28-32.87,36.22-15.33,70.39-34.43,105.9-52.09-6.56,7-13.34,13.5-19.16,20.6-12.59,15.37-26.74,28.85-45.39,39-15,8.23-26,20.45-31,37.28,5.34-.46,10.29.26,13.9-1.36,29.62-13.33,60-25.68,88.16-41.12,26.52-14.52,50.49-32.64,75.95-48.72,6.68-4.23,14.72-6.78,22.14-10.09l1.6,2.39c-31,24-50.23,58.43-88.07,76.44-1.36.65-3,1.74-3.39,2.91a87.53,87.53,0,0,0-2,9.79c3.33.45,6.8,1.64,9.95,1.17a51.74,51.74,0,0,0,13.65-4q65.76-30.1,131.33-60.49c3.43-1.58,6.88-3.13,10.33-4.7.11.39.22.79.34,1.18l-77.83,64.14,11.94,1.71-58.23,39.66L460,1895c11.89-2.38,24.53-3.24,35.52-7.45,26.14-10,51.55-21.52,77.19-32.54q44.61-19.18,89.12-38.54l1.54,2-27.07,21c.6,1.11,1.21,2.22,1.82,3.32l47.81-9.14,1.23,2-20.64,16.89,31.93,4-12.33,12.63c24.06,13.38,50.06,17.69,76.93,17.15.62,2.5,1.11,3.51,1.09,4.52-.91,41.13-2.07,82.27-2.64,123.41-.12,8.17-5.67,7.88-11.82,8.3-174.8,12-327.7,69.69-459.43,171.38C278.88,2202.62,268.18,2212,257.19,2221.07Z" style="fill: #a34633"/>
    <path d="M1492.37,2050.08c279.5-82.91,558.33-82.94,838.53,1.3-1.83-2.18-2.47-3.16-3.32-3.94-103.16-94-225.94-147.62-369.07-158.83-8.81-.69-12-2.7-11.93-11.52.14-25.42-.89-50.86-1.37-76.29-.15-7.66,0-15.33,0-24.41,21.93,2.32,41.1-3.12,59.19-13.13l-10-10.63,25-2.77-16.33-14.08,1-1.43,36.59,7.41c.41-.88.81-1.77,1.22-2.65l-20.09-17a16,16,0,0,1,8.53,1.72c23.24,11,46.36,22.2,69.71,33,16.76,7.74,33.57,15.46,50.83,22.08,8,3.07,17.14,3.51,25.77,5.13l1.27-3.35L2134,1748.52l8.63-1.72-61.69-54.29c3.48,1.44,4.86,1.92,6.15,2.56q49.46,24.66,98.92,49.3a62.75,62.75,0,0,0,14.43,5.39c3,.64,6.5-.82,9.78-1.34-1.33-3-2.38-6.22-4.11-9-.82-1.36-2.83-2.15-4.42-3-26.95-14.62-40.68-41.22-62.24-60.87,24.59,10.36,46.37,24.74,66.65,40.79,22,17.37,46.86,29.15,73.06,39,3.83,1.45,8.33,1.31,13.2,2-4.88-14.7-13.44-25.09-25.65-31.56-21.25-11.25-31-31.92-46.73-48.07,50.58,34,106,56.64,166.05,69.15l2.25-2.77-41.83-46a140.49,140.49,0,0,1,21.33,10.73c16.29,9.73,32.3,19.89,48.81,29.26,5,2.85,11.34,3.7,17.06,5.46l2.17-3.46c-35.58-28-68.53-58.23-96.18-95l93.15,34.39,1.7-2.4-22.72-22.1.95-1.45,89.3,37.54,1.76-2.06c-1.44-2.1-2.36-5-4.4-6.18-34.6-19.73-64.35-44.81-92-72.5-19.5-19.56-39.17-39.09-60.13-57.22-13-11.22-29.25-18.94-42.66-29.76-19.52-15.74-37.73-32.93-56.61-49.37-7-6.11-14.37-11.87-21.56-17.79,19,10.48,39,19.75,55.85,32.68,21.9,16.85,47,28,71,41.14,5.74,3.15,12.46,4.72,18.73,7l1.18-2.13q-17-18.36-34-36.71c28.29,15.09,56.3,29.25,85.48,41.27l2.31-2.84-28.76-24.83c21.59,9.89,42,20.87,62.72,31.46,4.25,2.17,9.35,2.86,14.06,4.24l1.32-2.19-10.63-11.48,1.09-1,40.85,16.31c.76-1.22,1.53-2.43,2.29-3.64q-17.76-14.4-35.53-28.79c9.49.88,17.77,3.73,26.23,6,8.27,2.21,16.72,3.79,25.1,5.65.13-.79.26-1.58.4-2.37-102.28-52-204.67-103.76-291.77-178.13,16.85,3.74,33,8.8,49.1,13.9,11,3.47,21.94,7.19,33.06,10.33,2.15.6,5.48-.4,7.3-1.79.83-.64-.47-4.08-1.2-6.12-.49-1.4-1.66-2.59-3.28-5L2354,1370.2c-5.6-17.57-19.3-25.2-30.1-35l1.37-1.86L2443,1384.05l-1.65-12.17c13.92,3.11,22.86,16.7,40.37,15.62l-9.82-16.87,51.08,13.18c-4.9-6.23-10.24-11.92-16.87-15.39-30.45-15.93-60.42-33-92.14-46.35-45-18.91-88.25-40-125.56-70.74-2.68-2.21-5.19-4.62-7.77-6.93,1.88-.82,2.76-.71,3.56-.41,19.31,7.24,38.6,14.54,57.92,21.74,7.19,2.68,14.43,5.62,23,2l-6.92-9.31,1.47-1.82,40.74,22.53,2.83-3.35c-4.69-4.34-9.22-8.84-14.09-13-17.94-15.25-36-30.36-53.95-45.61-1.34-1.14-2-3-3.5-5.22,26.84,14.94,52.59,29.21,78.28,43.58,11.54,6.46,15,5.74,17.47-6.07l39.12,21.06c-1.06-7.32-1.72-11.79-2.49-17.06,13-1.6,23.95,10.58,36.76,4.37-4.67-4.69-8.67-9.45-13.48-13.32-5.09-4.11-11.2-7.07-16.42-11-44.12-33.61-89.59-65.27-139.59-90.92-16.27-8.35-31.75-18.27-46.71-28.63-10-7-18.18-16.31-27.78-23.93-21-16.69-42.42-33-63.67-49.4a56,56,0,0,1,10.7,5.15q38.63,23.41,77.19,46.88c5.73,3.48,11.37,6.16,13.26-3.27,12.37,4.3,23.33,11.44,37.77,9.61-.23-4-.43-7.48-.68-11.78l39.48,12.69,1.35-2.26c-4.38-3.93-9.15-7.54-13-11.87s-6.68-9.2-10-13.84l2.49-1.94c25.2,6.38,47.92,20.1,74.57,23-44.8-31.42-91.44-60.14-135.54-92-44.3-32-86.09-67.07-129.35-101.1,16.26,6.05,29.59,17.61,48.78,21.5l-5.95-13.86c8,4.14,14.45,7.81,21.19,10.84,9.32,4.19,18.56,9,28.42,11.53,11.45,2.93,13.65-.32,9.4-10.89-.46-1.13-.35-2.47-.63-4.64L2305,934.91l2.4-2.61-7.33-15.49c15.86,3.9,24.83,20.89,43.85,18.74l-6-13.37c11.93,4.63,20.58,13.15,33.53,7.45-5.74-6.07-11.76-11.63-18.66-16-38.4-24.08-73.62-51.24-104-84.47-19.25-21.07-41.89-39.57-64.34-57.77s-46.81-34.44-70-52c-11.12-8.4-21.43-17.75-32.1-26.68l.85-1,62.56,27.56c-.87-7-1.37-11-1.74-14.08,18,4.85,36.32,9.79,54.66,14.71,3.24.87,6.47,2.08,9.77,2.3,2.8.18,5.69-.84,8.54-1.32-.57-2.41-.81-5-1.78-7.2a71.89,71.89,0,0,0-4.49-7.76l1.87-1.39c10.06,7.44,19.92,15.15,30.3,22.19,3.94,2.67,9.06,3.78,13.65,5.61.19-4.58.36-9.16.59-13.73a2.69,2.69,0,0,1,.4-1c11.56,0,16.36,16,33.33,10.93-6.38-6.73-10.91-12.3-16.3-17-7.63-6.65-16.36-12.21-23.82-19-31.05-28.27-61.79-56.84-92.66-85.29-2.19-2-4.14-4.44-6.69-5.92-20.9-12.13-34.83-30.62-49.21-48.52-8-9.9-14.25-21-21.29-31.54l1.58-.67L2104.24,532c-1.14-7.81-1.84-12.6-2.55-17.48,12.84,2.58,14.37,19.68,30.82,17.38l-6.67-13.67c13.26,10.24,23.43,12,34,5.67-4.73-3.65-9-7.11-13.41-10.29-15.35-11-31.85-20.79-45.9-33.09-16.05-14-31.71-29.09-44.32-45.86-13.9-18.47-27.47-36.73-45.85-51.53-4.57-3.68-8.28-8.46-11.8-13.13q-12.45-16.59-24.31-33.57c-14.63-21-29.34-41.9-43.44-63.18-7.5-11.33-13.8-23.38-19.48-33.12-10.94,18.49-21.59,38.67-34.39,57.56-17.44,25.77-36.43,50.62-55,75.7-3.12,4.21-7.64,7.46-11.17,11.42-14.1,15.84-28.18,31.7-42.06,47.72-8.31,9.59-14.93,20.88-24.61,28.94-21.74,18.11-44.93,34.67-67.49,51.91-4.47,3.41-8.76,7-14.9,12,14.59,4.42,24.66,1.69,35.74-7.42l-7.34,13.73c16.91,3.06,18.34-15.85,31.53-16.88-1,5.25-1.84,10.11-2.72,15l2.11,1.74,21.29-12.73c-1.75,3.41-2.95,6.34-4.65,9-17.24,26.7-35.29,52.76-63,71.22a62.06,62.06,0,0,0-10.87,9.29c-35.94,38.51-77.07,71.81-117.94,105.4-4.78,3.92-8.12,9.41-13.06,15.27,16,4.66,21-11,31.47-11.32.67,5.12,1.29,9.93,1.92,14.75,5.27-2.32,10.58-4.56,15.78-7,1.31-.62,2.17-2,3.4-2.89,8.36-5.82,16.77-11.58,25.16-17.37l.92,1.18-6.68,14.36,1.82,2.48c24.61-4.24,49.05-9.15,72.16-19.33-.38,4.9-.69,8.88-1.2,15.44l64.21-28.32,1.37,1.9c-32.47,24.51-64.33,49.78-97.59,73.28-24.67,17.43-48.37,35.77-67.6,58.32-31.34,36.76-69.34,65.79-111,91.11-6,3.65-10.76,9.22-17.35,15,15.23,4.93,24-4.68,35.77-7.79l-6.64,13c19.19,2.09,28.32-15.38,43.86-18.53l-7,15.63,2.64,2.08,42.9-20.84c-1.07,3.42-1.41,4.77-1.91,6.06-3.53,9.06-1.51,12.08,8.38,10.16,7.63-1.49,15-4.62,22.12-7.84,9.4-4.28,18.4-9.35,29-14.85l-5.26,12,1.77,2.57,43.12-20.55a13.17,13.17,0,0,1-4.72,5.81c-26.28,19.81-52.7,39.46-78.84,59.43-18.3,14-35.53,29.27-54.48,42.37-31.86,22-64.77,42.65-97.09,64.07-9.2,6.1-17.86,12.93-26.77,19.43l1.59,2.9,74.58-26.3c-1.93,14.74-15.6,19.63-22.56,31.5l41.59-13.46c-.46,4.72-.78,8-1.38,14.24l39.52-12c2,7.16,4.86,7.72,13.73,2.3q39.27-24,78.5-48.1c2.39-1.46,5-2.58,7.52-3.86a6.87,6.87,0,0,1-3,4.42c-30.22,24-60.37,48-90.72,71.76a158.66,158.66,0,0,1-20.88,14c-19.8,10.94-40.89,20.07-59.69,32.34-40,26.09-79,53.6-118.12,80.84-5.67,3.94-10,9.58-15,14.44.24.87.47,1.74.7,2.61l36.21-7.38-2.7,17.6,40.09-21.49c.44,10.86,3.45,12.65,11.74,8.9,4.1-1.86,7.63-4.8,11.6-7,23.67-12.86,47.38-25.64,71.7-38.79-1,1.54-1.61,2.88-2.62,3.75-18.12,15.48-36.34,30.87-54.45,46.36-5.07,4.33-9.89,8.91-14.83,13.37l2.92,3.48,40.6-22.55c.48.62,1,1.25,1.45,1.87l-6.29,9.19,1.68,2.45c29.14-3.15,53-22.25,82.38-26.17-1,1.33-1.69,2.74-2.83,3.52-23.56,16-45.81,34.26-71.07,47.37-41.76,21.66-85.38,40.15-128.4,59.62-15.53,7-28.18,17.3-39.91,29.26l50.68-13.06c-3.32,6.13-5.91,10.91-9.46,17.48,17.49-.49,26.59-13,40.13-16.27-.39,3.58-.71,6.52-1.31,12.12l117.74-50.76c-9.5,11.82-23.6,19.14-28.64,36.69l32.51-10.16c-.84,3.86-1.63,7.52-2.43,11.18,4.39,0,8.77,0,13.16,0,.28,0,.56-.22.85-.31q33.33-11,66.68-21.92a75.88,75.88,0,0,1,8.3-1.74l1.07,2.24c-88,73-190.43,124.81-292.73,176.89l.87,2.8,50.18-13.36.54,1.33-35.32,28.85c.74,1.16,1.48,2.32,2.23,3.48l41.59-16.61.64,1.18q-5.34,5.85-10.7,11.69l1.92,2.36c27.08-8.4,49.57-25.79,77.74-37.38L1396,1536.72l2.7,3.66,85.69-42.72-34.69,37.26c.63.74,1.26,1.49,1.88,2.24,53.09-19.32,96.12-55,144.9-81.38-7.17,6.34-14.65,12.3-21.84,18.54-19.13,16.62-37.61,34-57.36,49.88-15.73,12.7-34,22.69-49.24,35.83-19.64,16.92-37.6,35.6-55.93,53.84-26.45,26.32-55.17,50-88.11,68.85-2.19,1.26-3.34,4.11-5,6.22l2.07,2.14,89.22-37.59,3.16,3.83-25.35,19.29,2.15,2.83L1483,1645.2c-27.1,36.85-60.51,66.76-94.79,96.63,6.86-.08,13.19-1,18.24-3.86,17.53-10,34.59-20.79,51.91-31.13,5.78-3.45,11.83-6.5,17.76-9.73.11.33.23.65.34,1l-41.85,46.12,2.25,3.22c29.16-7.66,58.87-14.4,86.21-26.79,27.56-12.49,53.56-28.05,80.59-42.44-5,5.7-10.15,11-14.58,16.79-9.58,12.52-20.36,23.5-34.55,31.81a49.74,49.74,0,0,0-23.61,30.38c4.06-.37,7.83.21,10.57-1.11,22.55-10.86,45.65-20.93,67.1-33.51,20.18-11.83,38.42-26.59,57.8-39.7,5.08-3.44,11.2-5.52,16.85-8.23l1.21,2c-23.56,19.6-38.22,47.62-67,62.29-1,.53-2.3,1.42-2.58,2.38a75.9,75.9,0,0,0-1.52,8c2.54.36,5.17,1.33,7.57,1a37.42,37.42,0,0,0,10.39-3.26q50-24.54,100-49.29c2.61-1.29,5.24-2.56,7.86-3.83.08.32.17.64.25,1L1680.11,1747l9.08,1.4-44.31,32.32c.6,1.21,1.2,2.43,1.81,3.64,9-1.94,18.66-2.64,27-6.07,19.9-8.15,39.23-17.54,58.75-26.52q33.94-15.63,67.82-31.4l1.17,1.63-20.6,17.13c.46.9.92,1.8,1.39,2.7l36.38-7.45.94,1.61-15.71,13.76,24.3,3.22-9.38,10.29c18.3,10.9,38.09,14.42,58.54,14a20.45,20.45,0,0,1,.83,3.69c-.69,33.52-1.57,67-2,100.57-.09,6.65-4.31,6.42-9,6.76-133,9.79-249.39,56.79-349.64,139.66C1508.88,2035,1500.73,2042.68,1492.37,2050.08Z" style="fill: #ae5634"/>
    <path d="M781.9,2119.59c332.76-92.19,664.73-92.23,998.33,1.44a57.18,57.18,0,0,0-4-4.38c-122.82-104.57-269-164.14-439.4-176.6-10.49-.77-14.27-3-14.21-12.8.16-28.28-1.06-56.56-1.63-84.84-.18-8.51,0-17,0-27.14,26.1,2.59,48.93-3.47,70.46-14.59l-11.89-11.82,29.79-3.09-19.44-15.65,1.2-1.59,43.56,8.24c.49-1,1-2,1.45-3l-23.92-18.91a20.29,20.29,0,0,1,10.16,1.91c27.67,12.21,55.2,24.68,83,36.67,19.95,8.6,40,17.19,60.51,24.55,9.53,3.41,20.41,3.89,30.68,5.7l1.51-3.73-52.28-35.73,10.28-1.9L1482.63,1722c4.14,1.61,5.79,2.14,7.32,2.86q58.88,27.42,117.77,54.81a77.8,77.8,0,0,0,17.18,6c3.57.71,7.74-.92,11.65-1.5-1.58-3.37-2.84-6.91-4.89-10.05-1-1.51-3.38-2.38-5.27-3.34-32.09-16.26-48.43-45.83-74.1-67.69,29.27,11.52,55.2,27.52,79.35,45.36,26.14,19.31,55.79,32.41,87,43.38,4.56,1.6,9.91,1.45,15.7,2.22-5.81-16.35-16-27.9-30.53-35.09-25.3-12.51-36.94-35.49-55.64-53.45,60.22,37.76,126.22,63,197.7,76.89l2.68-3.09-49.81-51.12a171.12,171.12,0,0,1,25.4,11.93c19.39,10.82,38.46,22.12,58.12,32.54,6,3.17,13.49,4.11,20.31,6.07l2.58-3.85c-42.36-31.09-81.59-64.74-114.51-105.6l110.9,38.23,2-2.67-27-24.57,1.13-1.62L1984,1720.4c.7-.77,1.4-1.53,2.09-2.3-1.71-2.33-2.8-5.58-5.23-6.87-41.2-21.94-76.62-49.82-109.49-80.6-23.22-21.75-46.63-43.47-71.59-63.63-15.43-12.47-34.83-21.06-50.8-33.09-23.23-17.5-44.91-36.61-67.4-54.9-8.34-6.79-17.1-13.19-25.66-19.77,22.66,11.64,46.46,22,66.49,36.34,26.08,18.73,56,31.08,84.56,45.74,6.84,3.5,14.83,5.24,22.3,7.8l1.4-2.37q-20.27-20.4-40.52-40.82c33.68,16.78,67,32.53,101.76,45.89l2.76-3.16-34.25-27.6c25.71,11,50.06,23.2,74.67,35,5.07,2.42,11.14,3.19,16.75,4.72.53-.81,1-1.62,1.57-2.43l-12.66-12.77,1.3-1.17,48.63,18.14,2.74-4-42.3-32c11.29,1,21.15,4.15,31.22,6.66,9.85,2.44,19.91,4.21,29.88,6.28l.48-2.64C1890.89,1479,1769,1421.39,1665.28,1338.7c20.07,4.15,39.27,9.78,58.47,15.45,13.1,3.87,26.12,8,39.35,11.48,2.56.68,6.53-.44,8.69-2,1-.72-.56-4.53-1.42-6.81-.59-1.55-2-2.88-3.91-5.55l41.33,12.34c-6.68-19.53-23-28-35.84-38.92l1.63-2.07,140.17,56.4c-1-6.82-1.47-10.1-2-13.53,16.57,3.45,27.2,18.56,48,17.37-4.24-6.82-7.42-11.92-11.69-18.77l60.82,14.66c-5.83-6.93-12.19-13.25-20.09-17.11-36.25-17.72-71.93-36.73-109.7-51.54-53.6-21-105.07-44.42-149.48-78.65-3.19-2.46-6.18-5.14-9.26-7.71,2.24-.91,3.29-.78,4.25-.45,23,8,45.94,16.16,69,24.16,8.56,3,17.18,6.26,27.35,2.2l-8.24-10.36c.59-.67,1.17-1.35,1.75-2l48.5,25,3.37-3.72c-5.58-4.82-11-9.83-16.77-14.43-21.36-17-42.87-33.76-64.23-50.72-1.59-1.26-2.41-3.29-4.17-5.8,32,16.61,62.62,32.47,93.2,48.46,13.74,7.18,17.81,6.38,20.8-6.76l46.58,23.42c-1.27-8.14-2-13.11-3-19,15.52-1.78,28.51,11.76,43.77,4.86-5.57-5.22-10.33-10.51-16-14.82-6.06-4.56-13.34-7.85-19.55-12.28-52.53-37.37-106.67-72.56-166.19-101.09-19.38-9.28-37.81-20.31-55.61-31.82-12-7.74-21.66-18.15-33.08-26.62-25-18.56-50.51-36.64-75.8-54.92a68.27,68.27,0,0,1,12.74,5.73q46,26,91.9,52.12c6.82,3.86,13.52,6.84,15.78-3.63,14.72,4.77,27.78,12.71,45,10.68-.28-4.48-.51-8.32-.81-13.1l47,14.11c.53-.84,1.07-1.67,1.61-2.51-5.21-4.37-10.89-8.39-15.5-13.2s-8-10.23-11.86-15.39l3-2.16c30,7.1,57.05,22.35,88.77,25.61-53.34-34.93-108.86-66.87-161.37-102.27-52.74-35.57-102.49-74.58-154-112.41,19.35,6.72,35.22,19.58,58.07,23.9l-7.09-15.41c9.57,4.61,17.21,8.68,25.24,12,11.09,4.66,22.1,10,33.83,12.83,13.64,3.25,16.25-.36,11.19-12.11-.54-1.27-.42-2.75-.75-5.16l50.39,22.82c1-1,1.92-1.93,2.87-2.9-2.78-5.47-5.55-11-8.73-17.22,18.88,4.34,29.56,23.23,52.2,20.83l-7.14-14.86c14.2,5.15,24.5,14.62,39.91,8.28-6.83-6.75-14-12.93-22.21-17.74-45.73-26.77-87.65-57-123.81-93.92-22.92-23.42-49.88-44-76.61-64.22s-55.73-38.3-83.31-57.78c-13.24-9.34-25.51-19.74-38.22-29.66.33-.36.67-.71,1-1.07L1559.83,640c-1-7.83-1.62-12.27-2.07-15.65,21.42,5.38,43.25,10.88,65.09,16.35,3.85,1,7.7,2.31,11.62,2.55,3.34.21,6.78-.92,10.17-1.46-.67-2.68-1-5.5-2.12-8-1.4-3-3.53-5.76-5.35-8.62l2.23-1.55c12,8.27,23.72,16.85,36.07,24.67,4.69,3,10.8,4.21,16.26,6.24.22-5.09.43-10.18.7-15.27a2.64,2.64,0,0,1,.48-1.15c13.76,0,19.48,17.75,39.68,12.15-7.6-7.48-13-13.68-19.41-18.9-9.09-7.39-19.47-13.58-28.36-21.14-37-31.43-73.57-63.2-110.31-94.83-2.61-2.25-4.93-4.93-8-6.58-24.89-13.49-41.47-34-58.6-53.95-9.46-11-17-23.34-25.34-35.07l1.88-.74,25.9,12.61c-1.36-8.68-2.19-14-3-19.43,15.28,2.87,17.1,21.88,36.68,19.32l-7.93-15.19c15.78,11.38,27.89,13.36,40.52,6.3-5.63-4.05-10.67-7.9-16-11.44-18.27-12.22-37.91-23.12-54.64-36.79-19.11-15.62-37.75-32.35-52.77-51-16.54-20.53-32.71-40.83-54.58-57.29-5.45-4.09-9.87-9.41-14.05-14.6q-14.83-18.44-28.95-37.33c-17.42-23.31-34.93-46.58-51.71-70.25-8.94-12.59-16.43-26-23.2-36.82-13,20.55-25.71,43-40.94,64-20.77,28.65-43.37,56.28-65.48,84.17-3.7,4.68-9.09,8.29-13.29,12.7q-25.2,26.42-50.08,53.05c-9.9,10.67-17.77,23.22-29.3,32.19-25.88,20.14-53.49,38.55-80.35,57.71-5.32,3.8-10.43,7.82-17.74,13.32,17.37,4.91,29.35,1.88,42.55-8.24l-8.73,15.26c20.13,3.41,21.83-17.62,37.53-18.77-1.14,5.84-2.19,11.24-3.24,16.63l2.52,1.93L1079.54,417c-2.08,3.79-3.51,7-5.53,10-20.53,29.69-42,58.66-75.06,79.18a73.05,73.05,0,0,0-13,10.34c-42.78,42.81-91.75,79.84-140.41,117.19-5.68,4.36-9.66,10.46-15.55,17,19.07,5.18,25-12.22,37.47-12.59.8,5.7,1.54,11.05,2.29,16.4,6.27-2.58,12.59-5.07,18.78-7.8,1.56-.68,2.59-2.26,4-3.2q14.94-9.7,30-19.32l1.09,1.31-7.95,16,2.17,2.76c29.3-4.71,58.4-10.17,85.9-21.5-.45,5.45-.81,9.87-1.42,17.17l76.45-31.48,1.63,2.1c-38.65,27.26-76.59,55.35-116.19,81.49-29.37,19.38-57.59,39.77-80.48,64.84-37.32,40.87-82.56,73.16-132.22,101.3-7.18,4.07-12.8,10.26-20.66,16.71,18.14,5.47,28.57-5.21,42.59-8.66-3,5.5-5.16,9.42-7.9,14.4,22.84,2.32,33.72-17.1,52.21-20.61-3,6.35-5.7,11.87-8.35,17.39l3.14,2.31,51.08-23.17c-1.28,3.8-1.68,5.3-2.27,6.74-4.21,10.07-1.81,13.43,10,11.29,9.08-1.65,17.89-5.13,26.32-8.72,11.2-4.75,21.91-10.39,34.6-16.51-2.76,5.87-4.51,9.59-6.27,13.31l2.11,2.86,51.34-22.85a14.79,14.79,0,0,1-5.63,6.46c-31.28,22-62.74,43.88-93.86,66.08-21.78,15.53-42.3,32.55-64.86,47.11-37.93,24.47-77.12,47.42-115.59,71.24-11,6.79-21.27,14.38-31.87,21.6l1.89,3.23L758.36,1029c-2.3,16.39-18.57,21.82-26.86,35l49.51-15c-.54,5.25-.92,8.87-1.64,15.83l47.06-13.3c2.32,8,5.79,8.59,16.34,2.56q46.76-26.7,93.46-53.48c2.84-1.62,6-2.87,9-4.29-.54,2.58-2,3.77-3.58,4.91-36,26.63-71.87,53.34-108,79.78a189.35,189.35,0,0,1-24.86,15.55c-23.57,12.17-48.67,22.32-71.06,36-47.62,29-94,59.6-140.63,89.88-6.76,4.39-11.94,10.66-17.85,16.06l.84,2.9,43.11-8.2c-1.16,7-2,12-3.22,19.57l47.73-23.9c.53,12.08,4.11,14.07,14,9.89,4.89-2.06,9.1-5.33,13.82-7.73,28.18-14.3,56.41-28.51,85.37-43.13-1.26,1.71-1.92,3.2-3.12,4.16-21.58,17.22-43.27,34.33-64.84,51.56-6,4.81-11.77,9.9-17.64,14.86l3.46,3.87L747,1237.34l1.73,2.08-7.49,10.22,2,2.72c34.7-3.51,63.09-24.73,98.08-29.09-1.24,1.47-2,3-3.37,3.9-28,17.8-54.54,38.1-84.61,52.67-49.72,24.08-101.65,44.65-152.87,66.29-18.5,7.82-33.55,19.24-47.52,32.54l60.34-14.53c-3.95,6.83-7,12.14-11.26,19.44,20.82-.55,31.65-14.44,47.78-18.09-.47,4-.84,7.25-1.57,13.47l140.19-56.43c-11.31,13.15-28.11,21.28-34.11,40.8l38.71-11.3c-1,4.29-1.94,8.36-2.89,12.43,5.22,0,10.45,0,15.67,0a4.49,4.49,0,0,0,1-.35q39.69-12.21,79.39-24.37a96.93,96.93,0,0,1,9.88-1.94l1.27,2.5C792.66,1421.39,670.66,1479,548.86,1536.93c.35,1,.7,2.08,1,3.12l59.74-14.85.65,1.47q-21,16-42,32.08l2.65,3.87,49.51-18.47.77,1.31-12.74,13c.76.87,1.52,1.75,2.29,2.62,32.23-9.33,59-28.67,92.55-41.56l-36.16,29.26,3.21,4.07,102-47.49L731,1546.78l2.25,2.49c63.2-21.48,114.44-61.14,172.51-90.47-8.54,7-17.44,13.66-26,20.61-22.78,18.48-44.78,37.74-68.29,55.46-18.74,14.12-40.47,25.23-58.63,39.84-23.39,18.81-44.77,39.58-66.59,59.86-31.48,29.27-65.68,55.54-104.9,76.56-2.6,1.39-4,4.56-5.92,6.9.82.8,1.64,1.6,2.47,2.39l106.22-41.79,3.76,4.25-30.18,21.45,2.56,3.14,110.43-38.07c-32.27,41-72.05,74.23-112.85,107.45,8.16-.09,15.69-1.09,21.71-4.29,20.87-11.14,41.18-23.12,61.81-34.62,6.88-3.84,14.08-7.22,21.14-10.81l.4,1.08-49.82,51.28,2.67,3.58c34.72-8.52,70.1-16,102.64-29.79,32.82-13.89,63.78-31.19,96-47.2-5.94,6.35-12.09,12.23-17.36,18.67-11.4,13.93-24.23,26.14-41.13,35.38-13.63,7.45-23.56,18.53-28.11,33.77,4.84-.41,9.33.23,12.59-1.23,26.84-12.08,54.35-23.27,79.88-37.25,24-13.17,45.75-29.58,68.82-44.15,6.05-3.83,13.34-6.14,20.05-9.15l1.45,2.17c-28,21.79-45.51,52.94-79.79,69.26-1.23.59-2.74,1.58-3.07,2.64a75.75,75.75,0,0,0-1.81,8.87c3,.41,6.16,1.48,9,1.06a46.55,46.55,0,0,0,12.37-3.63q59.58-27.27,119-54.8c3.11-1.44,6.24-2.84,9.36-4.26.1.36.21.71.31,1.07-23,19-46,37.9-70.51,58.11l10.81,1.56-52.75,35.93,2.14,4.05c10.77-2.16,22.22-2.94,32.18-6.75,23.69-9.06,46.71-19.5,69.94-29.49q40.42-17.37,80.75-34.92l1.4,1.82-24.53,19,1.65,3,43.31-8.28c.38.59.75,1.19,1.12,1.78l-18.7,15.31,28.93,3.58-11.17,11.44c21.79,12.12,45.36,16,69.7,15.53.57,2.27,1,3.19,1,4.1-.82,37.27-1.87,74.55-2.39,111.82-.11,7.4-5.14,7.14-10.71,7.52-158.38,10.88-296.92,63.15-416.28,155.29C801.55,2102.87,791.86,2111.36,781.9,2119.59Z" style="fill: #d65634"/>
    <path d="M1908.16,1991.93c2.82-3.64,5.32-7.6,8.52-10.87,10.26-10.52,21-20.54,31-31.3,2.65-2.84,5.29-8.54,4.11-11.31-1.24-2.93-7.19-5.77-10.81-5.47-19,1.61-38,4-56.92,6.55-39.93,5.35-79.82,11-119.76,16.37-4.86.65-9.88.09-14.83.09l-1.38-3.79c5.3-3.58,10.87-6.83,15.84-10.82,5.32-4.26,10.08-9.21,15.08-13.86-6.48-2.21-12.85-5.82-19.47-6.35-13.93-1.13-28-.52-42-.91a34.25,34.25,0,0,1-11-2c-5.3-2-5.71-5.73-1.38-9.2a65.27,65.27,0,0,1,11.2-7.11c14.59-7.44,29.57-14.19,43.85-22.19,6.32-3.54,13.11-8.48,16.45-14.56,3.52-6.42,7.78-8.57,14-9.75,80.81-15.3,161.56-31,242.44-45.92,96.77-17.89,193.34-36.8,284-76.62,32.71-14.36,63.62-32.85,95.3-49.53,2.85-1.51,5.36-3.65,8.74-6-28,9.46-55.28,18-82,27.87-39.74,14.72-81.28,20.28-122.83,26.29-104.06,15.06-208.27,29.6-309,61.48-28.6,9.06-56.71,19.73-84.81,30.28-16.94,6.36-34.23,8.79-53.39,8.35,1.4-10.46,8.22-15.39,16.26-18.07,12.27-4.1,25.16-6.38,37.38-10.6a264.77,264.77,0,0,0,32.5-14.25c3.16-1.6,5-5.91,7.36-9-3.71-1.92-7.32-5.22-11.15-5.5-12.59-.94-25.3-.17-37.86-1.3-6.61-.6-13-3.77-19.48-5.78,4.83-4.34,9.12-9.58,14.59-12.84,11.13-6.63,23-12,34.35-18.28a57.5,57.5,0,0,0,13.09-9.62c8.71-8.87,8.76-16.33,1.13-26.27-7.32-9.53-6.42-16.7,3.83-22.87a64.22,64.22,0,0,1,17-6.83c34.71-8.85,69.53-17.26,104.23-26.14a26,26,0,0,0,11.21-6.34c18.48-18.12,36.54-36.66,55-54.78,2.21-2.16,6-2.9,9.24-3.77,64.73-17.52,124.16-45.7,176.75-87.68,2.83-2.26,5.61-4.58,7.58-8.19-13,6.31-25.62,13.85-39.18,18.71-46.87,16.82-94.1,32.61-141.14,49-34.27,11.91-66.32,28.19-98.1,45.83-19.4,10.77-43.29,13.47-65.23,19.59-1.59.44-3.68-.86-7.68-1.91,3.76-4.69,6.25-8.51,9.44-11.61,7.6-7.37,15.68-14.24,23.2-21.68,1.66-1.64,3.08-5.35,2.31-7.09s-4.64-3.11-6.85-2.76c-12.77,2.05-25.52,4.36-38.16,7.13-30,6.59-59.91,13.54-89.9,20.19-3.39.75-7,.5-10.52.71l-1-2.73c4.23-3,8.26-6.31,12.73-8.86,29.09-16.55,58.43-32.66,87.29-49.59,5.63-3.3,9.53-9.55,14.23-14.44-6.22-2.74-12.25-6.13-18.71-8s-13.64-1.55-20-3.58c-7.66-2.44-8.29-7.29-2.56-13a23.72,23.72,0,0,1,4.87-3.72c28.56-16,56.56-33.21,85.87-47.74,67.26-33.37,134.77-66.31,203-97.67,32.78-15.08,67.37-26.2,101.15-39.08,3.29-1.26,6.67-2.26,10-3.39-.26-1.42-.53-2.84-.79-4.26-21.08,2.3-42.38,3.35-63.18,7.15-47.19,8.62-89.91,29.59-132.5,50.61-18.37,9.07-36.64,18.32-55,27.41-7.17,3.55-23.9,1.27-28.25-5-2-2.83-1.76-9.2.2-12.14,2.65-4,7.78-6.46,12.11-9.14,35.12-21.78,70.34-43.4,105.43-65.22,4.64-2.88,8.74-6.6,13.1-9.94l-1.41-3.48c-6.51.56-13.1.7-19.54,1.78-12.45,2.07-24.74,5.24-37.25,6.73-4.38.52-9.2-2.57-13.81-4,1.55-4.27,2.17-9.27,4.83-12.67,9-11.56,18.51-22.84,28.47-33.62,3.52-3.8,8.66-6.51,13.53-8.59,51.62-22,98.26-51.19,133.33-95.86,12.69-16.17,22.76-34.4,34-51.69l-2.95-3.15c-8.54,3.79-17.87,6.41-25.47,11.58q-42.72,29-84.42,59.56c-10.21,7.44-19.88,14.41-32.8,17.48-18.52,4.42-36.34,11.73-54.6,17.35-5.54,1.7-11.55,1.89-17.34,2.77l-2-3.14c3.18-4.4,5.89-9.25,9.62-13.13,25.79-26.87,51.79-53.53,77.71-80.27a91.4,91.4,0,0,0,7-7.51c7.85-10.18,4.41-18.45-8.34-20-7-.84-17,.43-17.49-8.24-.33-5.87,5.48-13.58,10.65-18,23.54-20.29,47.78-39.78,71.93-59.35,3-2.46,6.89-4.81,10.64-5.34,39.76-5.65,74.72-23,108.58-43.43q53.51-32.22,107.42-63.72c6.65-3.9,14.07-6.47,23.94-10.92-25.76-3.32-48-.34-68.75,8.27-23.26,9.65-45.68,21.41-68.05,33-21.19,11-41.85,23-61.38,33.79l-16.08-10.62,52.43-31.48c-.14-.65-.29-1.3-.43-2h-41.61c12.85-15.43,23.84-28.61,35.74-42.91-2.64,0-3.9.31-4.93,0-5.36-1.85-10.65-3.88-16-5.84,2.86-4.44,4.71-10.53,8.76-13,15.4-9.47,31.79-17.32,47.22-26.74,6.17-3.77,10.82-10,16.16-15.16l-2.88-5L2266.9,795.3l-1.69-2.52c7-15.33,22.41-24.21,32.37-38.76l-16-.74c22.3-10.88,42.67-22.37,56.26-42.29l-1.46-3.12L2311.76,714l-1.7-2c1.88-2.75,3.43-5.81,5.71-8.18,11.59-12.08,23.69-23.69,35-36.06,5.71-6.27,13.16-10.61,14.66-21.43.91-6.58,11.09-11.88,16.26-19l-18.08,7c34.33-44.78,83.33-70.66,123.95-103.58,5,5.93,8.37,11.57,13.19,15.29,27.86,21.49,56.08,42.52,84.15,63.73,2.88,2.18,5.62,4.52,6.54,5.26-4.36,2.12-10.73,3.13-12.9,6.7-4.87,8-5.3,17.9,2,24.7q24.64,23,50.9,44.19c7.84,6.34,17.31,10.65,26.61,16.21h-17.52l100.45,109.27-2.28,3h-52.8c15.51,18.47,30.59,36.44,45.7,54.4,9,10.72,17.85,21.6,27.2,32,4.4,4.91,9.79,8.92,13.55,12.28,3.15,6,5.86,11.16,10,19h-63.84c-.14,1.26-.29,2.51-.44,3.77l94.49,34.9-1,4.27-66.54-5.22-1.76,2.88c10.1,6.76,19.37,15.82,30.46,19.84,26.59,9.62,54.06,16.83,81.14,25.13,4.31,1.32,8.44,3.24,12.66,4.89l-.61,3.52-59-2.63,7,8.32-311.37-95.93c23.69,20.73,48.6,36.67,74.78,50.74,55.38,29.74,115.44,47.3,174.68,67,20.38,6.79,40.62,14,60.92,21.08,10.93,19.46,32.56,26.76,47.41,41.76a15.38,15.38,0,0,1,4.6,8.79l-16.53-1.6,37.42,38.49c6.42,6.62,13.09,13,19.09,20,2.15,2.51,2.63,6.45,3.87,9.74-3.52.46-7.41,2.13-10.51,1.19-19.25-5.85-38.3-12.39-57.49-18.48a64.81,64.81,0,0,0-14.91-3.23c-6.65-.44-8.82,3.16-5.47,9.06a62,62,0,0,0,6.72,9q34,40.34,68.16,80.62a98,98,0,0,1,8.26,10.43c4.73,7.45,2.26,13-6.64,13a108.1,108.1,0,0,1-25.23-3.54c-63-15.39-126.06-30.37-188.7-47-26.28-7-51.59-17.62-77.33-26.61-1.84-.64-3.64-1.36-5.46-2l-1.31,2.31c13.14,8.72,25.91,18.07,39.49,26,49.93,29.31,104.82,45.93,160,61.74,35.09,10.06,70.68,18.87,104.82,31.55,20.44,7.6,38.91,21,57.44,33,9.14,5.93,7,14.16-3.49,18.13-5.08,1.93-10.59,2.82-15.55,5-8.56,3.74-9.55,10.42-2.57,16.72a61.29,61.29,0,0,0,10.14,6.88c42.33,25,84.8,49.81,126.92,75.18,5.26,3.17,8.7,9.36,13,14.15-5.88,2.68-11.56,6-17.69,7.82-4.8,1.44-10.4.25-15.17,1.76-4.45,1.41-8.26,4.84-12.36,7.38,2.72,3.63,5.08,7.62,8.26,10.79,2.35,2.34,5.73,3.65,8.7,5.33q41.49,23.4,83,46.8c4.55,2.59,8.74,5.8,13.1,8.72l-1.06,3.28c-5.78-.8-11.66-1.18-17.34-2.46-34.95-7.91-69.8-16.31-104.83-23.83-6.81-1.46-14.3.26-21.47.5,3.92,5.52,7.32,11.52,11.89,16.43,7.05,7.58,14.9,14.42,22.41,21.57l-1.69,4c-4.95-.24-10.18.47-14.82-.86-36.08-10.32-71.66-22.75-108.18-31.11-33.75-7.73-62.1-25.65-91.77-41.35-34.56-18.3-69.72-34.72-109.1-39.55-6.23-.76-12.54-.88-21.88-1.5,3.6,2.74,4.51,3.62,5.57,4.22,64.76,36.76,129.65,73.16,200.91,96.46,6.65,2.18,12.9,7.77,17.61,13.26,16.66,19.43,37.1,30,62.55,34.42,26.13,4.53,51.62,12.85,77.27,19.94a53.16,53.16,0,0,1,16.46,7.77c6.87,5,7.47,11.7,2.41,18.81-9.93,14-8.2,24.72,6.88,33.75,13.74,8.22,28.45,14.81,42.51,22.52,4.76,2.61,8.83,6.47,13.21,9.75-.27,1.13-.53,2.27-.8,3.4-4.36,1.1-8.69,3-13.09,3.17-14.32.69-28.7.39-43,1.36-4.19.29-8.17,3.55-12.25,5.44,2.79,3.2,5.15,7,8.45,9.49,15.21,11.6,34.13,13,51.63,18.43,8.69,2.69,17.68,5.7,25.12,10.68,3.7,2.48,6,9.8,5.73,14.77-.34,6.4-6.17,8.47-12.77,9.1-59.15,5.62-118.24,11.89-177.41,17.36-62,5.74-124.06,8.56-185.68-4.74-58.41-12.6-107.77-40.11-145.52-87.11a6.89,6.89,0,0,0-4.86-2.94c2.37,3.82,4.62,7.71,7.12,11.43,31.4,46.63,75.48,76.26,127.67,94.87,57.22,20.39,116.84,27.72,177,30.46,76.44,3.49,152.94,5.52,229.41,8.51,14.86.58,29.67,2.62,44.5,4,0,1.26,0,2.52,0,3.78-9.73,0-19.47-.2-29.19,0-10.56.28-21.13.7-31.63,1.71-2.61.24-7.07,3.06-7,4.55.11,2.79,2.32,6.26,4.71,8,4.9,3.64,10.59,6.2,15.76,9.51,3.3,2.11,6.24,4.78,9.34,7.2-.23,1.22-.46,2.43-.68,3.65-6.32,0-12.72.67-18.94-.12-21.34-2.71-42.61-5.94-63.91-8.94a12.56,12.56,0,0,0-6.23.43l65.47,22.3c-.33,1.63-.65,3.26-1,4.89-5.9,0-11.83.38-17.69-.06-30-2.24-59.92-4.88-89.91-7-9.47-.66-19-.1-28.56-.1-.39,1.56-.79,3.13-1.19,4.69,4.67,3.44,9,7.46,14.06,10.23,19.15,10.52,38.53,20.62,57.79,30.93a23,23,0,0,1,8.1,6.6l-29.13-7,5,6.29a13.1,13.1,0,0,1-3,0c-30.78-7.73-61.52-15.62-92.36-23.12-3.51-.85-7.55.5-11.35.83.48,4.14-.16,8.89,1.69,12.3,4,7.47,9.72,14,13.94,21.43,1.62,2.84,2.43,7.54,1.14,10.18-1,2-5.9,3-9,2.89-21.06-.68-41.36-4-61.25-12.19-30-12.3-60.75-22.64-91.29-33.5-3.42-1.22-9.55-1.94-11-.16-2.53,3.22-3.71,8.66-3.16,12.87,1.14,8.76,3.94,17.29,5.75,26,2.22,10.62-2.24,15.71-12.86,15.24-19.46-.88-38-4.3-55.51-14-19.07-10.57-39.27-19.12-59.11-28.26-3.39-1.57-7.45-1.69-11.2-2.47-.44,4.26-2.05,8.79-1.11,12.72,3.79,15.93,8.38,31.67,12.66,47.48.62,2.3,1.31,4.6,1.77,6.94,2.23,11.24-2.06,13.4-13.36,13.3-23.06-.19-40.17-13.08-58.54-23.69-18-10.38-35.84-20.93-55.37-32.34v229.82H2399.43v-213c-3.39,1.45-5.8,1.85-7.3,3.23-11.52,10.6-25.36,10.28-39.45,8.59-8-1-11.76-6.34-12.9-13.8-1.08-7.09-1.83-14.23-2.88-21.32-3-20.15-11.94-25.92-31.23-19.54-30.14,10-60,20.92-90.32,30.12-11.11,3.36-23.37,4-35.09,3.94-13.19-.12-17.23-6.29-15.29-19.4.6-4,1.56-8,2.08-12.11,1.63-12.72-5.24-19.3-17.57-15.88-14.45,4-28.44,9.77-43,13.4a131.56,131.56,0,0,1-31.15,3.67c-11.31,0-15.11-6.31-11.76-17.08,1.52-4.88,4.23-9.51,5-14.47.84-5.32,2.18-13.48-.54-15.72-3.72-3.06-11.56-3.39-16.8-1.91-19.36,5.44-38.38,12.14-57.54,18.31-21.12,6.79-42.18,13.76-63.42,20.14-6.47,1.94-13.43,2.2-20.17,3.23ZM2612.89,712l1.17-3.62c-5.86-2.05-11.64-5.48-17.6-5.86-13.28-.84-25.67-2.21-33-15.4-.81-1.44-2.83-2.2-5-3.8C2562.84,703.71,2579.75,712.3,2612.89,712Z" style="fill: #9d2b33"/>
    <path d="M2283.4,2137.28c-2.58-3.33-4.86-6.94-7.78-9.93-9.37-9.61-19.22-18.77-28.35-28.6-2.41-2.6-4.83-7.8-3.75-10.33,1.13-2.68,6.57-5.28,9.88-5,17.38,1.47,34.71,3.67,52,6,36.48,4.88,72.93,10.07,109.42,15,4.44.59,9,.08,13.55.08l1.26-3.46c-4.84-3.27-9.93-6.24-14.47-9.89-4.86-3.89-9.21-8.41-13.78-12.66,5.92-2,11.74-5.32,17.79-5.8,12.73-1,25.58-.47,38.37-.83a31.19,31.19,0,0,0,10-1.87c4.85-1.82,5.22-5.23,1.26-8.41a59.77,59.77,0,0,0-10.23-6.49c-13.33-6.8-27-13-40.06-20.27-5.79-3.24-12-7.75-15-13.31-3.22-5.86-7.12-7.83-12.8-8.9-73.84-14-147.62-28.3-221.52-42-88.42-16.35-176.65-33.63-259.52-70-29.88-13.13-58.12-30-87.07-45.26-2.6-1.38-4.9-3.34-8-5.47,25.6,8.64,50.52,16.4,75,25.46,36.32,13.45,74.27,18.53,112.24,24,95.08,13.77,190.3,27,282.3,56.18,26.13,8.28,51.81,18,77.49,27.66,15.48,5.81,31.27,8,48.79,7.63-1.28-9.55-7.52-14.06-14.86-16.51-11.22-3.74-23-5.82-34.15-9.68a240.36,240.36,0,0,1-29.71-13c-2.88-1.45-4.51-5.39-6.72-8.19,3.39-1.75,6.69-4.76,10.19-5,11.5-.85,23.12-.15,34.59-1.18,6-.55,11.88-3.45,17.8-5.28-4.41-4-8.33-8.76-13.33-11.74-10.17-6.05-21-10.94-31.38-16.69a52.48,52.48,0,0,1-12-8.8c-8-8.1-8-14.92-1-24,6.69-8.71,5.87-15.26-3.5-20.89a58,58,0,0,0-15.51-6.24c-31.71-8.09-63.53-15.77-95.23-23.9a23.63,23.63,0,0,1-10.24-5.79c-16.89-16.55-33.39-33.49-50.28-50-2-2-5.5-2.65-8.44-3.44-59.14-16-113.44-41.76-161.49-80.12-2.59-2.06-5.13-4.18-6.93-7.48,11.91,5.77,23.41,12.66,35.79,17.1,42.83,15.36,86,29.8,129,44.73,31.31,10.88,60.59,25.76,89.63,41.88,17.73,9.84,39.56,12.31,59.6,17.89,1.46.41,3.36-.78,7-1.74-3.44-4.28-5.72-7.78-8.63-10.61-6.94-6.73-14.33-13-21.2-19.8-1.52-1.5-2.82-4.9-2.11-6.48s4.24-2.85,6.26-2.53c11.67,1.87,23.32,4,34.86,6.52,27.41,6,54.75,12.37,82.15,18.44,3.1.69,6.4.46,9.61.65l.93-2.49c-3.86-2.72-7.54-5.77-11.63-8.1-26.58-15.12-53.39-29.84-79.76-45.3-5.14-3-8.71-8.73-13-13.2,5.68-2.5,11.19-5.61,17.1-7.34s12.45-1.41,18.31-3.27c7-2.23,7.58-6.66,2.34-11.84a21.34,21.34,0,0,0-4.45-3.4c-26.09-14.65-51.68-30.34-78.45-43.62-61.46-30.49-123.15-60.59-185.48-89.25-30-13.77-61.56-23.94-92.42-35.7-3-1.15-6.1-2.07-9.15-3.09l.72-3.9c19.26,2.1,38.73,3.06,57.73,6.53,43.12,7.88,82.16,27,121.07,46.25,16.78,8.28,33.48,16.74,50.25,25,6.56,3.24,21.84,1.16,25.82-4.62,1.78-2.58,1.6-8.4-.19-11.09-2.42-3.64-7.11-5.89-11.07-8.35-32.09-19.9-64.26-39.65-96.33-59.59-4.23-2.63-8-6-12-9.08l1.28-3.18c6,.51,12,.64,17.86,1.62,11.37,1.9,22.61,4.8,34,6.16,4,.47,8.4-2.35,12.62-3.67-1.42-3.9-2-8.47-4.41-11.58-8.27-10.56-16.91-20.87-26-30.72-3.21-3.47-7.9-5.94-12.36-7.84-47.17-20.12-89.78-46.77-121.82-87.6-11.6-14.77-20.8-31.43-31.09-47.22l2.7-2.88c7.8,3.46,16.32,5.86,23.27,10.58q39,26.52,77.13,54.42c9.34,6.8,18.17,13.16,30,16,16.93,4,33.21,10.71,49.89,15.85,5.07,1.55,10.56,1.72,15.85,2.53l1.86-2.88c-2.9-4-5.38-8.44-8.78-12-23.57-24.55-47.33-48.91-71-73.34a82.51,82.51,0,0,1-6.36-6.87c-7.17-9.3-4-16.85,7.62-18.24,6.39-.77,15.52.39,16-7.53.31-5.37-5-12.41-9.73-16.48-21.51-18.53-43.66-36.34-65.72-54.23-2.78-2.25-6.3-4.39-9.72-4.88-36.34-5.16-68.28-21-99.22-39.68q-48.88-29.43-98.15-58.22c-6.08-3.56-12.86-5.91-21.87-10,23.53-3,43.85-.3,62.82,7.56,21.24,8.82,41.73,19.56,62.18,30.17,19.35,10,38.23,21,56.07,30.88l14.7-9.7c-15.82-9.51-31.87-19.14-47.91-28.77.13-.6.27-1.19.4-1.78h38l-32.65-39.21c2.41,0,3.56.28,4.51,0,4.89-1.69,9.73-3.54,14.58-5.33-2.61-4.06-4.29-9.62-8-11.9-14.07-8.66-29-15.84-43.14-24.45-5.64-3.44-9.89-9.16-14.77-13.84l2.63-4.61,41.89,13.4,1.54-2.3c-6.42-14-20.48-22.12-29.58-35.41l14.67-.68c-20.38-9.94-39-20.44-51.4-38.64.44-1,.88-1.9,1.33-2.85l22.45,5.55,1.55-1.81c-1.72-2.51-3.14-5.31-5.22-7.48-10.59-11-21.65-21.64-31.94-32.94-5.21-5.73-12-9.7-13.4-19.59-.83-6-10.13-10.85-14.85-17.36l16.52,6.41c-31.37-40.92-76.14-64.57-113.25-94.65-4.6,5.42-7.65,10.58-12.06,14-25.46,19.64-51.24,38.85-76.89,58.23-2.63,2-5.13,4.13-6,4.81,4,1.93,9.8,2.86,11.79,6.12,4.45,7.31,4.84,16.35-1.83,22.57q-22.51,21-46.51,40.38c-7.16,5.79-15.82,9.72-24.31,14.8h16l-91.79,99.84,2.09,2.73h48.24c-14.17,16.87-28,33.3-41.75,49.7-8.24,9.8-16.32,19.74-24.86,29.27-4,4.48-9,8.15-12.38,11.22-2.88,5.49-5.35,10.2-9.11,17.35H1543c.13,1.15.27,2.3.4,3.45l-86.33,31.88c.32,1.3.63,2.6,1,3.91l60.8-4.77c.54.87,1.07,1.75,1.61,2.63-9.23,6.18-17.7,14.45-27.83,18.12-24.3,8.8-49.4,15.38-74.14,23-3.94,1.2-7.71,3-11.57,4.46l.56,3.22,53.88-2.4c-2.6,3.08-4.2,5-6.41,7.6l284.5-87.65c-21.65,18.94-44.41,33.51-68.33,46.36-50.6,27.18-105.48,43.22-159.6,61.25-18.63,6.2-37.12,12.83-55.67,19.26-10,17.78-29.75,24.45-43.32,38.16a14,14,0,0,0-4.2,8l15.1-1.46c-12.2,12.55-23.2,23.85-34.18,35.16-5.87,6.05-12,11.91-17.45,18.29-2,2.3-2.4,5.9-3.54,8.9,3.22.43,6.78,2,9.6,1.09,17.6-5.35,35-11.32,52.54-16.88a58,58,0,0,1,13.62-3c6.07-.41,8.06,2.89,5,8.27a56.7,56.7,0,0,1-6.14,8.22q-31.11,36.87-62.28,73.67a90.21,90.21,0,0,0-7.55,9.53c-4.32,6.81-2.06,11.9,6.07,11.89a98.26,98.26,0,0,0,23.06-3.23c57.53-14.06,115.17-27.75,172.41-42.94,24-6.37,47.14-16.1,70.66-24.31,1.67-.59,3.32-1.25,5-1.87l1.2,2.11c-12,8-23.67,16.51-36.08,23.8-45.62,26.78-95.78,42-146.22,56.42-32.06,9.18-64.59,17.23-95.78,28.83-18.67,6.94-35.55,19.14-52.48,30.13-8.35,5.42-6.39,13,3.19,16.58,4.64,1.75,9.67,2.57,14.21,4.55,7.82,3.42,8.72,9.52,2.34,15.28a56.29,56.29,0,0,1-9.26,6.29c-38.68,22.86-77.49,45.51-116,68.69-4.8,2.9-7.94,8.55-11.86,12.93,5.37,2.44,10.57,5.46,16.16,7.14,4.39,1.32,9.51.23,13.86,1.61,4.07,1.29,7.55,4.42,11.3,6.74-2.48,3.32-4.64,7-7.55,9.86-2.14,2.14-5.23,3.34-8,4.87-25.27,14.25-50.58,28.44-75.81,42.77-4.16,2.36-8,5.29-12,8,.32,1,.65,2,1,3,5.29-.73,10.66-1.08,15.84-2.25,31.94-7.23,63.78-14.9,95.79-21.77,6.22-1.33,13.07.23,19.62.46-3.59,5-6.69,10.52-10.87,15-6.44,6.92-13.61,13.17-20.47,19.7l1.54,3.68c4.53-.22,9.3.43,13.54-.78,33-9.43,65.48-20.8,98.85-28.44,30.84-7.06,56.74-23.43,83.85-37.78,31.58-16.72,63.7-31.72,99.68-36.13,5.7-.7,11.47-.81,20-1.38-3.29,2.51-4.12,3.31-5.1,3.86-59.16,33.59-118.46,66.85-183.57,88.14-6.07,2-11.79,7.1-16.09,12.11-15.22,17.75-33.89,27.41-57.15,31.45-23.87,4.15-47.16,11.74-70.6,18.23a48.18,48.18,0,0,0-15,7.09c-6.28,4.53-6.82,10.69-2.21,17.19,9.08,12.79,7.5,22.59-6.28,30.84-12.56,7.51-26,13.53-38.84,20.58-4.35,2.38-8.07,5.9-12.07,8.9.24,1,.49,2.08.73,3.11,4,1,7.94,2.7,12,2.89,13.09.64,26.22.36,39.29,1.25,3.82.26,7.47,3.24,11.19,5-2.55,2.92-4.7,6.37-7.72,8.68-13.9,10.59-31.19,11.88-47.17,16.83-8,2.46-16.15,5.21-23,9.76-3.38,2.26-5.48,9-5.24,13.49.31,5.85,5.64,7.74,11.66,8.32,54,5.14,108,10.86,162.11,15.86,56.69,5.25,113.35,7.82,169.66-4.33,53.37-11.51,98.47-36.65,133-79.59a6.33,6.33,0,0,1,4.44-2.69c-2.17,3.49-4.22,7.05-6.51,10.45-28.68,42.61-69,69.68-116.65,86.68-52.29,18.63-106.75,25.32-161.74,27.83-69.85,3.19-139.75,5.05-209.62,7.77-13.58.53-27.11,2.4-40.66,3.65,0,1.15,0,2.31,0,3.46,8.89,0,17.79-.19,26.67,0,9.65.25,19.3.63,28.9,1.55,2.39.23,6.46,2.8,6.41,4.17-.1,2.54-2.13,5.71-4.31,7.33-4.47,3.33-9.68,5.67-14.4,8.7-3,1.93-5.69,4.37-8.53,6.58.21,1.11.42,2.22.62,3.33,5.78,0,11.63.61,17.31-.11,19.49-2.48,38.93-5.43,58.39-8.17a11.61,11.61,0,0,1,5.7.4l-59.82,20.37c.29,1.49.58,3,.88,4.47,5.39,0,10.81.34,16.17-.06,27.38-2.05,54.75-4.45,82.14-6.37,8.66-.61,17.4-.09,26.1-.09.36,1.42.73,2.85,1.09,4.28-4.27,3.15-8.25,6.81-12.85,9.35-17.5,9.61-35.2,18.84-52.8,28.26a20.8,20.8,0,0,0-7.4,6l26.62-6.43c-2.31,2.9-3.35,4.2-4.58,5.76a12.06,12.06,0,0,0,2.71,0c28.12-7.07,56.21-14.28,84.38-21.13,3.21-.78,6.91.46,10.38.76-.44,3.78.14,8.12-1.54,11.24-3.7,6.82-8.88,12.83-12.74,19.58-1.49,2.59-2.23,6.88-1,9.3.9,1.83,5.39,2.74,8.24,2.65,19.24-.63,37.79-3.69,56-11.15,27.39-11.23,55.51-20.69,83.42-30.61,3.13-1.11,8.73-1.77,10-.14,2.31,2.94,3.39,7.91,2.89,11.76-1,8-3.6,15.79-5.26,23.73-2,9.7,2.06,14.35,11.76,13.92,17.78-.8,34.68-3.93,50.72-12.82,17.42-9.66,35.88-17.47,54-25.82,3.1-1.43,6.8-1.54,10.23-2.26.4,3.89,1.87,8,1,11.63-3.46,14.55-7.65,28.93-11.56,43.38-.57,2.1-1.2,4.2-1.62,6.34-2,10.27,1.88,12.24,12.2,12.15,21.07-.17,36.71-12,53.49-21.64,16.42-9.48,32.75-19.12,50.59-29.56v210h155.28V2183.73c3.1,1.33,5.3,1.69,6.67,2.95,10.53,9.69,23.18,9.4,36,7.85,7.31-.87,10.74-5.79,11.78-12.61,1-6.47,1.67-13,2.64-19.48,2.73-18.41,10.91-23.67,28.53-17.85,27.54,9.11,54.79,19.11,82.53,27.52,10.15,3.08,21.36,3.7,32.07,3.61,12-.12,15.73-5.75,14-17.74-.54-3.7-1.43-7.35-1.9-11.06-1.49-11.62,4.79-17.64,16.05-14.51,13.21,3.67,26,8.93,39.27,12.25a120.65,120.65,0,0,0,28.47,3.35c10.33,0,13.81-5.77,10.74-15.61-1.39-4.46-3.86-8.68-4.58-13.22-.77-4.86-2-12.32.49-14.36,3.4-2.8,10.56-3.1,15.35-1.75,17.69,5,35.07,11.09,52.58,16.73,19.29,6.21,38.54,12.57,58,18.4,5.9,1.78,12.27,2,18.42,3C2282.2,2139.87,2282.8,2138.57,2283.4,2137.28ZM1639.48,967.74c-.35-1.1-.71-2.2-1.07-3.3,5.36-1.87,10.63-5,16.09-5.35,12.13-.77,23.45-2,30.16-14.08.73-1.31,2.58-2,4.57-3.47C1685.22,960.22,1669.76,968.07,1639.48,967.74Z"/>
    <path d="M1143.39,2045.38c-2.44-3.16-4.6-6.59-7.38-9.42-8.89-9.12-18.23-17.81-26.89-27.13-2.29-2.47-4.58-7.4-3.56-9.8s6.24-5,9.38-4.74c16.48,1.39,32.92,3.48,49.33,5.68,34.61,4.63,69.18,9.55,103.79,14.18,4.22.56,8.57.08,12.86.08l1.2-3.29c-4.6-3.1-9.42-5.92-13.74-9.37-4.6-3.69-8.73-8-13.06-12,5.62-1.92,11.14-5,16.87-5.5,12.07-1,24.26-.45,36.4-.79a29.48,29.48,0,0,0,9.49-1.77c4.59-1.73,5-5,1.19-8a56,56,0,0,0-9.7-6.16c-12.65-6.45-25.63-12.3-38-19.23-5.48-3.08-11.36-7.35-14.25-12.62-3-5.57-6.76-7.43-12.14-8.45-70.05-13.26-140-26.84-210.13-39.8-83.87-15.51-167.57-31.9-246.17-66.41-28.35-12.45-55.14-28.47-82.6-42.94-2.47-1.3-4.65-3.16-7.57-5.18,24.28,8.2,47.91,15.56,71.09,24.15,34.45,12.76,70.45,17.58,106.46,22.79,90.2,13,180.52,25.65,267.79,53.29,24.78,7.85,49.15,17.09,73.5,26.23,14.69,5.52,29.67,7.63,46.28,7.25-1.21-9.07-7.13-13.35-14.09-15.67-10.64-3.55-21.81-5.52-32.4-9.19a226.44,226.44,0,0,1-28.17-12.35c-2.74-1.38-4.29-5.12-6.38-7.77,3.22-1.66,6.35-4.52,9.67-4.77,10.9-.81,21.93-.14,32.81-1.12,5.73-.52,11.26-3.27,16.89-5-4.19-3.77-7.91-8.31-12.66-11.13-9.64-5.75-19.94-10.38-29.76-15.84a49.73,49.73,0,0,1-11.35-8.35c-7.55-7.68-7.59-14.15-1-22.76,6.34-8.26,5.56-14.48-3.32-19.82a55.52,55.52,0,0,0-14.71-5.92c-30.08-7.67-60.26-15-90.34-22.66a22.51,22.51,0,0,1-9.71-5.49c-16-15.71-31.67-31.78-47.69-47.48-1.91-1.88-5.22-2.52-8-3.27-56.1-15.19-107.61-39.61-153.19-76-2.45-2-4.86-4-6.57-7.09,11.3,5.47,22.21,12,33.95,16.21,40.63,14.58,81.57,28.27,122.34,42.44,29.7,10.32,57.47,24.43,85,39.72,16.82,9.34,37.52,11.68,56.54,17,1.38.39,3.19-.74,6.66-1.65-3.26-4.06-5.42-7.38-8.19-10.06-6.58-6.39-13.58-12.34-20.11-18.79-1.43-1.42-2.67-4.64-2-6.14s4-2.7,5.94-2.4c11.07,1.78,22.12,3.78,33.07,6.18,26,5.71,51.93,11.74,77.92,17.5,2.94.65,6.08.43,9.12.61.3-.78.59-1.57.89-2.36-3.67-2.58-7.16-5.47-11-7.68-25.21-14.34-50.64-28.31-75.65-43-4.88-2.86-8.26-8.28-12.34-12.52,5.39-2.37,10.62-5.31,16.22-7s11.82-1.34,17.37-3.1c6.65-2.11,7.19-6.32,2.22-11.23a20,20,0,0,0-4.22-3.22c-24.75-13.9-49-28.79-74.42-41.39-58.3-28.92-116.81-57.46-175.94-84.65-28.4-13.06-58.39-22.71-87.67-33.87-2.85-1.09-5.78-2-8.67-2.93.23-1.23.45-2.46.68-3.7,18.27,2,36.73,2.91,54.76,6.2,40.9,7.47,77.93,25.65,114.84,43.87,15.92,7.86,31.76,15.88,47.67,23.75,6.22,3.08,20.72,1.1,24.49-4.38,1.69-2.45,1.52-8-.17-10.52-2.3-3.45-6.75-5.59-10.51-7.92-30.44-18.87-61-37.61-91.37-56.52-4-2.5-7.58-5.73-11.35-8.62.4-1,.81-2,1.21-3,5.65.49,11.36.61,16.94,1.54,10.79,1.8,21.45,4.55,32.29,5.84,3.8.45,8-2.23,12-3.48-1.35-3.7-1.88-8-4.19-11-7.84-10-16-19.8-24.68-29.14-3-3.29-7.5-5.64-11.72-7.44-44.74-19.09-85.16-44.37-115.56-83.09-11-14-19.73-29.81-29.49-44.8l2.56-2.73c7.4,3.29,15.49,5.56,22.07,10q37,25.17,73.17,51.63c8.85,6.45,17.23,12.49,28.43,15.15,16.05,3.83,31.5,10.17,47.33,15,4.8,1.48,10,1.64,15,2.4l1.77-2.73c-2.76-3.81-5.11-8-8.34-11.37-22.35-23.29-44.89-46.4-67.36-69.57a80.54,80.54,0,0,1-6-6.51c-6.8-8.83-3.82-16,7.23-17.31,6.06-.73,14.72.37,15.15-7.15.3-5.08-4.74-11.77-9.22-15.62-20.41-17.58-41.41-34.48-62.35-51.45-2.62-2.13-6-4.16-9.21-4.62-34.47-4.9-64.77-20-94.12-37.64q-46.37-27.93-93.1-55.23c-5.77-3.38-12.2-5.61-20.75-9.46,22.32-2.88,41.6-.29,59.59,7.17,20.15,8.36,39.59,18.55,59,28.61,18.36,9.53,36.27,19.93,53.19,29.29l13.95-9.2-45.45-27.29c.13-.56.25-1.13.38-1.69h36.06l-31-37.19c2.29,0,3.38.27,4.28,0,4.64-1.61,9.23-3.36,13.84-5.07-2.48-3.84-4.08-9.12-7.6-11.29-13.34-8.21-27.54-15-40.92-23.18-5.35-3.27-9.38-8.69-14-13.13l2.5-4.38,39.73,12.72,1.46-2.19c-6.09-13.27-19.42-21-28-33.59l13.91-.64c-19.33-9.43-37-19.39-48.76-36.65l1.26-2.71,21.3,5.27,1.47-1.72c-1.63-2.38-3-5-4.95-7.09-10.05-10.47-20.53-20.53-30.3-31.25-4.95-5.44-11.41-9.2-12.71-18.58-.79-5.7-9.61-10.3-14.09-16.47l15.68,6.08c-29.76-38.82-72.23-61.25-107.44-89.78-4.35,5.14-7.25,10-11.43,13.26-24.15,18.63-48.6,36.85-72.94,55.24-2.49,1.88-4.87,3.91-5.66,4.56,3.77,1.83,9.3,2.71,11.18,5.8,4.22,6.94,4.59,15.51-1.73,21.41q-21.36,19.91-44.12,38.3c-6.79,5.49-15,9.22-23.06,14h15.18l-87.06,94.71,2,2.59h45.76c-13.45,16-26.52,31.58-39.61,47.15-7.82,9.29-15.48,18.72-23.58,27.76-3.81,4.25-8.48,7.73-11.74,10.64l-8.64,16.46H441.1l.39,3.27-81.89,30.24.9,3.71,57.67-4.53,1.53,2.5c-8.75,5.86-16.79,13.71-26.4,17.19-23.05,8.34-46.85,14.59-70.32,21.78-3.74,1.15-7.32,2.82-11,4.24l.53,3.06,51.11-2.28-6.08,7.21,269.87-83.15c-20.54,18-42.13,31.79-64.82,44-48,25.78-100.05,41-151.39,58.1-17.67,5.88-35.21,12.17-52.8,18.27-9.48,16.87-28.23,23.19-41.1,36.19a13.32,13.32,0,0,0-4,7.62l14.32-1.38c-11.58,11.9-22,22.62-32.43,33.35-5.57,5.74-11.35,11.29-16.54,17.35-1.87,2.18-2.28,5.59-3.36,8.44,3.05.41,6.42,1.86,9.11,1,16.69-5.08,33.2-10.74,49.83-16a55.66,55.66,0,0,1,12.92-2.8c5.76-.38,7.64,2.74,4.74,7.85a52.79,52.79,0,0,1-5.83,7.8q-29.49,35-59.07,69.88a85.82,85.82,0,0,0-7.16,9c-4.1,6.45-2,11.29,5.76,11.28A93.92,93.92,0,0,0,307.5,1441c54.57-13.35,109.25-26.33,163.55-40.74,22.78-6,44.71-15.27,67-23.06,1.59-.56,3.15-1.18,4.73-1.77l1.14,2c-11.39,7.56-22.46,15.66-34.23,22.57-43.28,25.41-90.85,39.82-138.7,53.52-30.41,8.71-61.27,16.35-90.85,27.35-17.71,6.58-33.72,18.16-49.79,28.59-7.91,5.14-6.06,12.27,3,15.72,4.4,1.66,9.17,2.44,13.47,4.32,7.43,3.24,8.28,9,2.23,14.49a53.25,53.25,0,0,1-8.79,6c-36.69,21.69-73.5,43.17-110,65.16-4.56,2.75-7.54,8.12-11.25,12.27,5.09,2.32,10,5.18,15.33,6.77,4.16,1.26,9,.22,13.15,1.53,3.86,1.22,7.16,4.19,10.71,6.39-2.35,3.16-4.4,6.61-7.16,9.36-2,2-5,3.16-7.54,4.62q-36,20.27-71.92,40.56c-3.94,2.24-7.58,5-11.36,7.56l.93,2.84c5-.69,10.11-1,15-2.13,30.3-6.86,60.5-14.14,90.87-20.65,5.9-1.27,12.39.22,18.61.43-3.41,4.78-6.35,10-10.32,14.24-6.1,6.57-12.9,12.49-19.41,18.69l1.46,3.49c4.29-.21,8.82.41,12.84-.74,31.28-8.95,62.12-19.73,93.77-27,29.25-6.7,53.82-22.23,79.54-35.84,29.95-15.86,60.42-30.1,94.55-34.28,5.41-.66,10.88-.76,19-1.3-3.12,2.38-3.91,3.14-4.83,3.66-56.12,31.86-112.37,63.41-174.14,83.6-5.76,1.89-11.17,6.74-15.25,11.49-14.45,16.84-32.16,26-54.22,29.83-22.64,3.94-44.74,11.14-67,17.29a45.66,45.66,0,0,0-14.26,6.73c-6,4.3-6.48,10.14-2.1,16.31,8.61,12.12,7.12,21.42-6,29.25-11.91,7.12-24.66,12.83-36.85,19.52-4.12,2.26-7.64,5.6-11.44,8.45l.69,3c3.78,1,7.53,2.55,11.35,2.74,12.41.6,24.87.34,37.26,1.18,3.63.25,7.09,3.07,10.62,4.72-2.42,2.77-4.46,6-7.32,8.22-13.19,10.06-29.59,11.28-44.75,16-7.53,2.33-15.32,5-21.77,9.26-3.21,2.15-5.2,8.5-5,12.8.29,5.55,5.35,7.34,11.07,7.89,51.27,4.87,102.48,10.3,153.77,15,53.77,5,107.52,7.42,160.93-4.11,50.63-10.92,93.41-34.76,126.13-75.5a6,6,0,0,1,4.2-2.55c-2.05,3.31-4,6.68-6.16,9.91-27.22,40.42-65.43,66.1-110.66,82.22-49.6,17.68-101.26,24-153.42,26.4-66.26,3-132.57,4.79-198.84,7.38-12.88.5-25.72,2.27-38.57,3.46,0,1.09,0,2.18,0,3.27,8.43,0,16.87-.17,25.3.05,9.15.24,18.31.61,27.41,1.47,2.26.22,6.13,2.67,6.08,4-.1,2.41-2,5.42-4.09,7-4.24,3.16-9.18,5.37-13.66,8.24-2.85,1.84-5.4,4.15-8.09,6.24.2,1.06.39,2.11.59,3.17,5.48,0,11,.57,16.42-.11,18.49-2.35,36.92-5.14,55.38-7.75a11,11,0,0,1,5.41.38l-56.74,19.32c.27,1.42.55,2.83.83,4.25,5.12,0,10.25.32,15.34-.06,26-1.94,51.93-4.22,77.92-6,8.21-.58,16.5-.09,24.75-.09.35,1.35.69,2.71,1,4.06-4.05,3-7.82,6.46-12.19,8.86-16.6,9.12-33.39,17.88-50.09,26.82a19.89,19.89,0,0,0-7,5.72l25.25-6.1-4.34,5.46a11.4,11.4,0,0,0,2.57,0c26.68-6.7,53.32-13.54,80.05-20,3-.74,6.55.43,9.84.72-.42,3.59.14,7.7-1.46,10.66-3.51,6.47-8.43,12.17-12.09,18.58-1.4,2.45-2.11,6.52-1,8.81.85,1.74,5.12,2.6,7.82,2.52,18.25-.6,35.84-3.5,53.08-10.57,26-10.66,52.65-19.63,79.13-29,3-1,8.27-1.68,9.49-.14,2.19,2.79,3.21,7.51,2.74,11.16-1,7.59-3.42,15-5,22.51-1.92,9.2,1.94,13.62,11.15,13.2,16.87-.76,32.9-3.72,48.11-12.16,16.53-9.16,34-16.57,51.23-24.49,2.94-1.36,6.46-1.46,9.71-2.14.38,3.69,1.77,7.62,1,11-3.29,13.81-7.26,27.45-11,41.16-.54,2-1.13,4-1.54,6-1.93,9.74,1.79,11.61,11.58,11.53,20-.16,34.82-11.34,50.74-20.53,15.57-9,31.06-18.14,48-28v199.2H717.6V2089.44c2.94,1.26,5,1.61,6.33,2.8,10,9.19,22,8.91,34.19,7.44,6.93-.83,10.19-5.49,11.18-12,.94-6.14,1.58-12.33,2.5-18.47,2.59-17.47,10.35-22.46,27.07-16.93,26.12,8.63,52,18.12,78.28,26.1,9.62,2.91,20.26,3.51,30.42,3.42,11.43-.11,14.92-5.45,13.24-16.82-.51-3.51-1.35-7-1.8-10.5-1.41-11,4.54-16.73,15.23-13.76,12.53,3.48,24.65,8.47,37.25,11.61a114.06,114.06,0,0,0,27,3.19c9.8,0,13.1-5.47,10.19-14.81-1.32-4.23-3.67-8.24-4.35-12.54-.73-4.61-1.89-11.69.47-13.63,3.23-2.65,10-2.93,14.56-1.65,16.78,4.72,33.26,10.52,49.87,15.87,18.3,5.89,36.56,11.92,55,17.45,5.6,1.69,11.64,1.91,17.48,2.81ZM532.59,936l-1-3.14c5.09-1.77,10.09-4.75,15.26-5.08,11.52-.73,22.25-1.91,28.62-13.35.69-1.24,2.45-1.9,4.33-3.29C576,928.85,561.31,936.29,532.59,936Z"/>
    <path d="M543.74,2097.56c2.36-3,4.46-6.37,7.13-9.11,8.59-8.8,17.61-17.19,26-26.2,2.21-2.38,4.42-7.15,3.44-9.47s-6-4.84-9.06-4.58c-15.92,1.35-31.8,3.36-47.65,5.49-33.43,4.47-66.83,9.22-100.27,13.7-4.06.54-8.27.07-12.41.07l-1.16-3.17c4.44-3,9.1-5.72,13.26-9.06,4.45-3.56,8.44-7.71,12.63-11.6-5.43-1.86-10.76-4.87-16.3-5.32-11.67-.94-23.44-.43-35.16-.76a28.58,28.58,0,0,1-9.17-1.71c-4.44-1.67-4.78-4.79-1.15-7.71a54.34,54.34,0,0,1,9.37-5.94c12.22-6.23,24.76-11.88,36.71-18.58,5.3-3,11-7.1,13.78-12.19,2.94-5.38,6.52-7.18,11.72-8.16,67.66-12.81,135.27-25.93,203-38.45,81-15,161.88-30.81,237.8-64.15,27.39-12,53.26-27.5,79.79-41.48,2.39-1.25,4.49-3,7.32-5-23.46,7.92-46.29,15-68.68,23.32-33.27,12.33-68,17-102.84,22-87.13,12.61-174.38,24.78-258.68,51.47-23.94,7.59-47.47,16.52-71,25.35-14.19,5.33-28.66,7.36-44.71,7,1.17-8.76,6.89-12.89,13.62-15.14,10.27-3.42,21.06-5.33,31.29-8.87a221.4,221.4,0,0,0,27.22-11.93c2.64-1.34,4.14-5,6.16-7.51-3.11-1.61-6.13-4.37-9.34-4.61-10.54-.78-21.18-.14-31.69-1.08-5.54-.5-10.89-3.16-16.32-4.84,4-3.64,7.64-8,12.22-10.76,9.32-5.54,19.27-10,28.76-15.29a48.38,48.38,0,0,0,11-8.06c7.29-7.43,7.33-13.67.94-22-6.12-8-5.37-14,3.21-19.14a53.39,53.39,0,0,1,14.21-5.72c29.06-7.41,58.22-14.45,87.27-21.89a21.75,21.75,0,0,0,9.38-5.31c15.47-15.17,30.59-30.69,46.07-45.86,1.84-1.81,5-2.43,7.73-3.16,54.2-14.67,104-38.26,148-73.41,2.36-1.89,4.7-3.83,6.34-6.86-10.91,5.29-21.45,11.6-32.8,15.67-39.24,14.08-78.78,27.31-118.17,41-28.69,10-55.52,23.6-82.13,38.38-16.24,9-36.25,11.27-54.61,16.39-1.34.37-3.09-.72-6.44-1.6,3.15-3.92,5.23-7.12,7.91-9.72,6.36-6.17,13.12-11.92,19.42-18.14,1.39-1.38,2.58-4.49,1.94-5.94s-3.89-2.61-5.74-2.31c-10.69,1.71-21.37,3.65-31.95,6-25.11,5.51-50.16,11.33-75.27,16.9-2.84.63-5.87.41-8.81.59l-.85-2.28c3.54-2.49,6.91-5.29,10.66-7.42,24.35-13.86,48.91-27.34,73.08-41.52,4.71-2.76,8-8,11.92-12.09-5.21-2.29-10.26-5.13-15.67-6.73s-11.42-1.29-16.78-3c-6.42-2-6.95-6.1-2.15-10.85a19.58,19.58,0,0,1,4.08-3.11c23.91-13.43,47.35-27.81,71.89-40,56.32-27.94,112.84-55.51,169.95-81.77,27.45-12.62,56.41-21.94,84.7-32.72,2.75-1,5.58-1.89,8.37-2.83l-.66-3.57c-17.64,1.92-35.48,2.8-52.9,6-39.51,7.22-75.27,24.78-110.93,42.38-15.38,7.59-30.68,15.34-46,22.94-6,3-20,1.07-23.65-4.22-1.64-2.37-1.48-7.71.16-10.17,2.22-3.33,6.52-5.4,10.15-7.65,29.4-18.23,58.89-36.34,88.27-54.6,3.88-2.41,7.32-5.53,11-8.33l-1.17-2.91c-5.46.47-11,.59-16.36,1.49-10.43,1.73-20.72,4.39-31.19,5.64-3.67.43-7.7-2.16-11.57-3.37,1.3-3.57,1.82-7.76,4.05-10.6,7.57-9.68,15.49-19.13,23.84-28.15,2.94-3.18,7.24-5.45,11.32-7.19,43.22-18.44,82.27-42.86,111.63-80.26,10.63-13.54,19.06-28.8,28.49-43.28l-2.48-2.63c-7.14,3.17-14.95,5.36-21.32,9.69q-35.76,24.3-70.68,49.86c-8.55,6.24-16.64,12.07-27.46,14.65-15.51,3.69-30.43,9.82-45.72,14.52-4.63,1.43-9.66,1.58-14.51,2.32l-1.71-2.63c2.66-3.69,4.93-7.75,8-11,21.59-22.5,43.37-44.82,65.07-67.21a75.24,75.24,0,0,0,5.83-6.29c6.57-8.52,3.69-15.44-7-16.72-5.86-.7-14.22.36-14.64-6.9-.28-4.91,4.59-11.37,8.91-15.09,19.71-17,40-33.31,60.23-49.7,2.53-2.06,5.77-4,8.9-4.47,33.3-4.73,62.56-19.28,90.91-36.36q44.79-27,89.94-53.35c5.57-3.26,11.78-5.42,20-9.14-21.56-2.78-40.18-.28-57.56,6.93-19.47,8.07-38.24,17.92-57,27.64-17.73,9.2-35,19.25-51.38,28.29l-13.47-8.89,43.91-26.36c-.13-.54-.25-1.08-.37-1.63H812.07L842,1138.54c-2.21,0-3.27.25-4.13,0-4.48-1.55-8.92-3.24-13.37-4.89,2.4-3.71,3.94-8.81,7.34-10.9,12.88-7.93,26.61-14.51,39.52-22.4,5.17-3.15,9.07-8.39,13.54-12.69l-2.41-4.22-38.38,12.28-1.42-2.11c5.88-12.83,18.77-20.27,27.1-32.45l-13.43-.62c18.67-9.1,35.72-18.73,47.1-35.41l-1.22-2.61-20.57,5.09-1.43-1.66c1.58-2.3,2.88-4.87,4.78-6.85,9.71-10.11,19.84-19.83,29.27-30.19,4.78-5.25,11-8.88,12.28-17.94.76-5.51,9.28-9.95,13.61-15.91L925,960.88c28.75-37.5,69.77-59.17,103.78-86.73,4.21,5,7,9.69,11,12.81,23.32,18,47,35.6,70.45,53.36,2.41,1.82,4.71,3.78,5.48,4.4-3.65,1.78-9,2.62-10.81,5.61-4.08,6.7-4.43,15,1.68,20.68q20.63,19.23,42.62,37c6.56,5.31,14.49,8.91,22.27,13.57h-14.67l84.11,91.48-1.91,2.5h-44.21c13,15.46,25.61,30.51,38.26,45.55,7.55,9,14.95,18.08,22.78,26.81,3.68,4.11,8.19,7.47,11.34,10.29l8.35,15.89h-53.45c-.12,1.06-.25,2.11-.37,3.16l79.11,29.22-.87,3.58-55.72-4.37-1.47,2.41c8.46,5.66,16.21,13.24,25.5,16.61,22.27,8,45.26,14.09,67.93,21,3.62,1.1,7.08,2.71,10.61,4.09l-.51,3-49.37-2.2,5.87,7-260.69-80.32c19.83,17.35,40.69,30.7,62.61,42.47,46.36,24.91,96.65,39.61,146.25,56.13,17.06,5.69,34,11.76,51,17.65,9.15,16.3,27.27,22.4,39.7,35a12.83,12.83,0,0,1,3.84,7.36l-13.83-1.33c11.18,11.5,21.26,21.85,31.32,32.22,5.38,5.54,11,10.91,16,16.76,1.8,2.1,2.2,5.4,3.24,8.15-3,.39-6.2,1.79-8.8,1-16.12-4.9-32.07-10.37-48.13-15.47a53.52,53.52,0,0,0-12.49-2.71c-5.56-.36-7.38,2.65-4.58,7.59a51.8,51.8,0,0,0,5.63,7.53q28.5,33.78,57.07,67.5a83.74,83.74,0,0,1,6.92,8.74c4,6.23,1.89,10.9-5.57,10.9a90.25,90.25,0,0,1-21.12-3c-52.72-12.89-105.54-25.43-158-39.34-22-5.84-43.19-14.76-64.75-22.28-1.53-.54-3-1.14-4.56-1.72-.37.65-.74,1.29-1.1,1.94,11,7.3,21.69,15.13,33.06,21.81,41.81,24.54,87.77,38.46,134,51.69,29.38,8.42,59.19,15.8,87.77,26.42,17.11,6.36,32.57,17.54,48.09,27.61,7.65,5,5.86,11.87-2.92,15.19-4.26,1.61-8.87,2.36-13,4.17-7.17,3.14-8,8.73-2.15,14a51.3,51.3,0,0,0,8.49,5.76c35.44,20.94,71,41.7,106.26,62.94,4.4,2.65,7.28,7.84,10.87,11.85-4.92,2.24-9.68,5-14.81,6.54-4,1.21-8.71.21-12.7,1.48-3.73,1.18-6.92,4-10.35,6.17,2.27,3,4.25,6.39,6.92,9,2,2,4.79,3.06,7.28,4.46,23.16,13.06,46.35,26.06,69.47,39.19,3.81,2.16,7.32,4.85,11,7.3-.29.91-.59,1.83-.89,2.74-4.84-.67-9.76-1-14.51-2.06-29.27-6.62-58.44-13.65-87.78-20-5.7-1.22-12,.21-18,.42,3.28,4.62,6.13,9.64,10,13.76,5.9,6.34,12.47,12.07,18.75,18.05l-1.41,3.37c-4.15-.2-8.52.39-12.4-.72-30.22-8.64-60-19-90.58-26-28.26-6.47-52-21.47-76.84-34.62-28.93-15.32-58.37-29.07-91.34-33.11-5.22-.64-10.5-.74-18.32-1.26,3,2.3,3.78,3,4.67,3.54,54.21,30.77,108.55,61.25,168.21,80.76,5.57,1.82,10.8,6.5,14.74,11.1,14,16.26,31.06,25.12,52.37,28.82,21.88,3.79,43.22,10.75,64.7,16.7a44,44,0,0,1,13.77,6.5c5.76,4.15,6.26,9.79,2,15.75-8.32,11.71-6.87,20.7,5.76,28.25,11.5,6.89,23.82,12.4,35.59,18.86,4,2.19,7.39,5.41,11.06,8.16-.23,1-.45,1.9-.67,2.85-3.66.92-7.28,2.47-11,2.65-12,.58-24,.33-36,1.14-3.51.24-6.85,3-10.26,4.56,2.34,2.68,4.31,5.83,7.08,7.95,12.73,9.71,28.57,10.88,43.22,15.42,7.28,2.25,14.8,4.78,21,9,3.1,2.07,5,8.2,4.8,12.36-.28,5.36-5.17,7.09-10.69,7.62-49.52,4.7-99,10-148.54,14.54-51.94,4.8-103.87,7.16-155.46-4-48.9-10.55-90.23-33.58-121.84-72.94a5.78,5.78,0,0,0-4.06-2.46c2,3.2,3.86,6.46,6,9.57,26.28,39,63.2,63.85,106.89,79.43,47.91,17.08,97.82,23.21,148.21,25.5,64,2.92,128,4.63,192.07,7.13,12.45.48,24.84,2.19,37.26,3.34,0,1.06,0,2.11,0,3.16-8.15,0-16.3-.16-24.44,0-8.83.23-17.68.58-26.48,1.42-2.18.21-5.92,2.57-5.87,3.82.1,2.34,2,5.24,4,6.73,4.1,3,8.86,5.19,13.19,8,2.76,1.77,5.22,4,7.82,6l-.57,3.05c-5.29,0-10.65.56-15.86-.1-17.86-2.27-35.67-5-53.5-7.48a10.47,10.47,0,0,0-5.22.36l54.81,18.67-.81,4.1c-4.94,0-9.9.31-14.81-.06-25.1-1.87-50.17-4.08-75.27-5.84-7.94-.55-15.94-.08-23.91-.08-.34,1.31-.67,2.62-1,3.92,3.91,2.89,7.56,6.25,11.78,8.57,16,8.81,32.26,17.26,48.38,25.9a19.16,19.16,0,0,1,6.78,5.52l-24.39-5.89,4.19,5.27a11.26,11.26,0,0,1-2.48,0c-25.77-6.48-51.5-13.09-77.32-19.36-2.94-.71-6.33.42-9.51.69.41,3.47-.13,7.45,1.41,10.3,3.39,6.25,8.14,11.76,11.68,17.95,1.36,2.37,2,6.3,1,8.52-.82,1.67-4.94,2.51-7.55,2.42-17.63-.57-34.63-3.38-51.28-10.21-25.1-10.3-50.86-19-76.44-28-2.86-1-8-1.62-9.17-.13-2.11,2.69-3.1,7.25-2.64,10.78,1,7.33,3.3,14.47,4.82,21.74,1.85,8.89-1.88,13.15-10.77,12.75-16.3-.73-31.78-3.59-46.48-11.74-16-8.85-32.88-16-49.49-23.66-2.84-1.31-6.24-1.41-9.38-2.07-.36,3.56-1.71,7.36-.93,10.65,3.18,13.34,7,26.52,10.6,39.75.53,1.93,1.1,3.85,1.49,5.81,1.86,9.41-1.73,11.22-11.18,11.14-19.31-.16-33.64-11-49-19.83-15-8.69-30-17.52-46.36-27.08v192.42H955.06V2140.12c-2.84,1.22-4.86,1.55-6.11,2.7-9.65,8.88-21.24,8.61-33,7.19-6.69-.8-9.84-5.3-10.79-11.55-.91-5.93-1.53-11.91-2.42-17.85-2.5-16.87-10-21.7-26.14-16.36-25.23,8.35-50.2,17.51-75.62,25.22-9.3,2.82-19.57,3.39-29.39,3.3-11-.1-14.42-5.26-12.79-16.25.5-3.39,1.31-6.74,1.74-10.13,1.36-10.65-4.39-16.17-14.71-13.3-12.1,3.36-23.82,8.19-36,11.22a109.94,109.94,0,0,1-26.08,3.08c-9.46,0-12.65-5.29-9.84-14.3,1.27-4.09,3.54-8,4.2-12.12.7-4.45,1.83-11.29-.46-13.16-3.11-2.56-9.67-2.84-14.06-1.61-16.21,4.56-32.13,10.17-48.18,15.34-17.68,5.68-35.31,11.51-53.09,16.86-5.42,1.62-11.25,1.84-16.89,2.71C544.85,2099.92,544.3,2098.74,543.74,2097.56Zm590-1071.67,1-3c-4.91-1.71-9.74-4.59-14.74-4.91-11.12-.7-21.49-1.84-27.64-12.89-.67-1.21-2.37-1.84-4.18-3.19C1091.87,1019,1106,1026.18,1133.77,1025.89Z" style="fill: #c0444d"/>
    <path d="M2832.16,2199.09a80.46,80.46,0,0,0-5.78-7.39c-7-7.15-14.29-14-21.08-21.27-1.8-1.93-3.59-5.8-2.8-7.68s4.89-3.93,7.35-3.72c12.93,1.1,25.81,2.73,38.68,4.45,27.13,3.64,54.23,7.49,81.37,11.12,3.3.44,6.71.06,10.07.06.32-.86.63-1.71.94-2.57-3.6-2.43-7.38-4.64-10.76-7.35-3.61-2.89-6.85-6.26-10.24-9.42,4.4-1.5,8.73-4,13.22-4.31,9.47-.77,19-.35,28.53-.62a23.23,23.23,0,0,0,7.44-1.39c3.61-1.36,3.88-3.89.94-6.25a44.31,44.31,0,0,0-7.61-4.83c-9.92-5.05-20.09-9.64-29.79-15.07-4.3-2.41-8.91-5.77-11.18-9.9-2.39-4.36-5.29-5.82-9.51-6.62-54.91-10.4-109.78-21-164.73-31.2-65.75-12.16-131.37-25-193-52.07-22.23-9.75-43.23-22.31-64.75-33.65a63.25,63.25,0,0,1-5.94-4.07c19,6.43,37.56,12.2,55.73,18.93,27,10,55.23,13.79,83.46,17.87,70.71,10.23,141.52,20.11,209.93,41.78,19.43,6.15,38.53,13.4,57.62,20.57,11.51,4.32,23.26,6,36.28,5.67-1-7.11-5.59-10.46-11.05-12.28-8.34-2.78-17.09-4.33-25.4-7.2A179.52,179.52,0,0,1,2868,2061c-2.15-1.09-3.36-4-5-6.1,2.52-1.3,5-3.54,7.58-3.73,8.55-.64,17.19-.12,25.72-.89,4.49-.4,8.83-2.56,13.24-3.92-3.28-3-6.2-6.52-9.92-8.73-7.56-4.5-15.63-8.14-23.34-12.42a38.73,38.73,0,0,1-8.89-6.54c-5.92-6-5.95-11.09-.77-17.84,5-6.48,4.36-11.35-2.6-15.54a43.61,43.61,0,0,0-11.53-4.64c-23.59-6-47.25-11.73-70.82-17.77a17.65,17.65,0,0,1-7.62-4.3c-12.55-12.31-24.83-24.91-37.38-37.22-1.5-1.47-4.1-2-6.28-2.57-44-11.9-84.36-31-120.09-59.57a18.27,18.27,0,0,1-5.15-5.56c8.85,4.28,17.41,9.41,26.61,12.71,31.85,11.42,63.94,22.16,95.9,33.26,23.29,8.1,45.06,19.16,66.66,31.15,13.18,7.31,29.41,9.15,44.32,13.3,1.08.3,2.5-.58,5.22-1.3-2.56-3.18-4.25-5.78-6.42-7.88-5.16-5-10.65-9.68-15.76-14.73-1.13-1.11-2.09-3.64-1.57-4.82s3.15-2.11,4.66-1.87c8.67,1.39,17.34,3,25.92,4.84,20.38,4.48,40.71,9.2,61.09,13.72,2.3.51,4.76.33,7.14.48.24-.62.47-1.24.7-1.85-2.88-2-5.61-4.29-8.65-6-19.77-11.24-39.7-22.19-59.31-33.69-3.82-2.24-6.48-6.49-9.67-9.81,4.23-1.86,8.32-4.17,12.72-5.46s9.26-1,13.61-2.43c5.21-1.66,5.64-5,1.74-8.8a15.57,15.57,0,0,0-3.3-2.53c-19.41-10.89-38.43-22.56-58.35-32.44-45.7-22.67-91.57-45-137.92-66.36-22.27-10.25-45.78-17.81-68.73-26.56-2.23-.85-4.53-1.53-6.8-2.3l.54-2.89c14.32,1.56,28.79,2.27,42.93,4.86,32.06,5.85,61.09,20.1,90,34.39,12.48,6.16,24.9,12.44,37.37,18.62,4.88,2.41,16.24.86,19.2-3.44,1.32-1.92,1.19-6.25-.14-8.25-1.8-2.7-5.28-4.38-8.23-6.21-23.86-14.79-47.79-29.48-71.63-44.31-3.15-2-5.94-4.49-8.9-6.75.32-.79.64-1.58,1-2.37,4.43.38,8.91.48,13.28,1.21,8.46,1.41,16.82,3.57,25.31,4.58,3,.35,6.25-1.75,9.39-2.73-1.06-2.9-1.48-6.3-3.29-8.61-6.14-7.85-12.57-15.52-19.34-22.84-2.39-2.58-5.88-4.42-9.2-5.84-35.07-15-66.75-34.78-90.59-65.13-8.62-11-15.46-23.37-23.11-35.12l2-2.14c5.8,2.57,12.13,4.35,17.3,7.86q29,19.74,57.36,40.47c6.94,5.06,13.5,9.79,22.28,11.88,12.59,3,24.7,8,37.1,11.79,3.77,1.16,7.85,1.29,11.79,1.89l1.38-2.14c-2.16-3-4-6.29-6.53-8.92-17.53-18.26-35.19-36.37-52.81-54.54a63.18,63.18,0,0,1-4.73-5.1c-5.33-6.92-3-12.54,5.66-13.57,4.76-.57,11.55.29,11.89-5.6.23-4-3.73-9.23-7.23-12.25-16-13.79-32.47-27-48.88-40.33a16,16,0,0,0-7.23-3.63c-27-3.84-50.77-15.65-73.77-29.51q-36.36-21.88-73-43.29c-4.52-2.65-9.57-4.4-16.27-7.42,17.5-2.25,32.61-.23,46.72,5.62,15.8,6.55,31,14.54,46.23,22.43,14.4,7.47,28.43,15.62,41.7,23l10.93-7.21-35.63-21.39.3-1.33h28.27l-24.28-29.15c1.79,0,2.65.21,3.35,0,3.64-1.26,7.24-2.63,10.85-4-1.95-3-3.2-7.16-5.95-8.86-10.47-6.43-21.6-11.77-32.08-18.17-4.2-2.56-7.36-6.81-11-10.3l2-3.42,31.15,10,1.14-1.71c-4.77-10.41-15.22-16.45-22-26.33l10.91-.51c-15.16-7.39-29-15.2-38.23-28.73l1-2.12,16.7,4.13,1.15-1.35a41.46,41.46,0,0,0-3.88-5.56c-7.88-8.2-16.1-16.09-23.75-24.5-3.88-4.26-8.95-7.21-10-14.56-.61-4.47-7.53-8.07-11-12.91l12.28,4.76c-23.32-30.42-56.61-48-84.21-70.38-3.42,4-5.69,7.87-9,10.4-18.93,14.6-38.1,28.89-57.17,43.3-2,1.47-3.82,3.07-4.45,3.57,3,1.44,7.29,2.13,8.77,4.55,3.31,5.44,3.6,12.17-1.36,16.79q-16.74,15.6-34.59,30c-5.32,4.31-11.76,7.23-18.07,11h11.9l-68.25,74.25,1.55,2h35.87c-10.54,12.55-20.79,24.77-31.05,37-6.12,7.28-12.13,14.67-18.48,21.76-3,3.33-6.65,6.06-9.21,8.34l-6.77,12.91h43.37l.3,2.56-64.2,23.71c.24,1,.48,1.93.71,2.9l45.22-3.55c.39.66.79,1.31,1.19,2-6.86,4.6-13.16,10.75-20.69,13.48-18.07,6.54-36.74,11.44-55.13,17.08-2.94.89-5.74,2.2-8.61,3.32l.41,2.39,40.07-1.78-4.76,5.65,211.56-65.18c-16.1,14.08-33,24.91-50.81,34.47-37.63,20.21-78.44,32.14-118.69,45.55-13.85,4.61-27.6,9.54-41.39,14.32-7.43,13.22-22.13,18.18-32.22,28.37a10.46,10.46,0,0,0-3.12,6l11.23-1.09-25.42,26.15c-4.37,4.5-8.9,8.85-13,13.6-1.47,1.71-1.79,4.39-2.64,6.62,2.4.31,5,1.45,7.14.81,13.09-4,26-8.42,39.07-12.55a43.26,43.26,0,0,1,10.13-2.2c4.51-.3,6,2.15,3.72,6.15a42.17,42.17,0,0,1-4.57,6.12q-23.13,27.4-46.31,54.78a66.62,66.62,0,0,0-5.62,7.08c-3.21,5.07-1.53,8.86,4.52,8.85a73.94,73.94,0,0,0,17.14-2.4c42.79-10.46,85.65-20.64,128.22-31.94,17.85-4.73,35-12,52.54-18.08,1.24-.43,2.47-.92,3.7-1.39l.89,1.57c-8.93,5.93-17.6,12.28-26.83,17.7-33.92,19.92-71.22,31.21-108.73,42-23.84,6.83-48,12.81-71.22,21.43-13.89,5.16-26.44,14.24-39,22.41-6.21,4-4.75,9.63,2.37,12.33,3.46,1.31,7.2,1.91,10.57,3.39,5.82,2.54,6.48,7.07,1.74,11.36a41.92,41.92,0,0,1-6.89,4.67c-28.76,17-57.62,33.84-86.23,51.08-3.58,2.16-5.91,6.36-8.82,9.62,4,1.81,7.85,4.06,12,5.31,3.26,1,7.07.17,10.3,1.2,3,1,5.62,3.28,8.4,5-1.84,2.47-3.45,5.18-5.61,7.33-1.59,1.59-3.89,2.48-5.91,3.62-18.8,10.6-37.62,21.15-56.38,31.8-3.09,1.76-5.94,3.94-8.91,5.93.25.74.49,1.48.73,2.23,3.93-.55,7.92-.8,11.78-1.68,23.75-5.37,47.42-11.08,71.23-16.18,4.62-1,9.71.17,14.59.33-2.67,3.75-5,7.83-8.09,11.17-4.79,5.15-10.12,9.79-15.22,14.65l1.15,2.73c3.36-.16,6.91.32,10.07-.58,24.51-7,48.69-15.46,73.5-21.14,22.93-5.25,42.2-17.43,62.36-28.1,23.48-12.43,47.36-23.59,74.12-26.87,4.24-.52,8.53-.6,14.87-1-2.45,1.87-3.06,2.46-3.79,2.87-44,25-88.09,49.71-136.51,65.54-4.51,1.48-8.76,5.28-12,9-11.32,13.2-25.2,20.38-42.5,23.38-17.75,3.09-35.07,8.74-52.5,13.56a35.66,35.66,0,0,0-11.18,5.28c-4.67,3.36-5.08,7.94-1.65,12.78,6.75,9.5,5.58,16.79-4.67,22.93-9.34,5.58-19.33,10.06-28.88,15.3-3.23,1.77-6,4.39-9,6.62.18.77.37,1.54.55,2.31,3,.75,5.9,2,8.89,2.16,9.73.47,19.5.26,29.22.92,2.84.2,5.55,2.41,8.32,3.7-1.9,2.17-3.5,4.73-5.74,6.45-10.34,7.88-23.19,8.84-35.08,12.52-5.91,1.82-12,3.87-17.07,7.26-2.51,1.68-4.07,6.66-3.89,10,.23,4.35,4.19,5.75,8.67,6.18,40.19,3.82,80.35,8.08,120.55,11.8,42.15,3.9,84.29,5.81,126.16-3.22,39.69-8.56,73.22-27.25,98.88-59.19a4.68,4.68,0,0,1,3.29-2c-1.61,2.6-3.13,5.24-4.83,7.77-21.33,31.69-51.29,51.82-86.75,64.46-38.88,13.86-79.38,18.83-120.28,20.7-51.93,2.36-103.92,3.75-155.87,5.78-10.1.39-20.16,1.78-30.24,2.71,0,.86,0,1.71,0,2.57,6.61,0,13.22-.14,19.83,0,7.17.19,14.36.48,21.49,1.16,1.77.17,4.81,2.09,4.77,3.1a8.22,8.22,0,0,1-3.21,5.45c-3.32,2.48-7.19,4.22-10.7,6.47-2.24,1.44-4.24,3.25-6.35,4.89.16.83.31,1.65.46,2.48,4.3,0,8.65.45,12.87-.08,14.5-1.84,29-4,43.42-6.08a8.53,8.53,0,0,1,4.24.3l-44.48,15.15c.22,1.11.43,2.22.65,3.32,4,0,8,.26,12,0,20.37-1.52,40.72-3.31,61.09-4.74,6.44-.45,12.94-.07,19.41-.07l.81,3.19c-3.17,2.34-6.13,5.06-9.56,7-13,7.15-26.17,14-39.26,21a15.65,15.65,0,0,0-5.51,4.49l19.8-4.78c-1.71,2.15-2.49,3.12-3.4,4.28a8.86,8.86,0,0,0,2,0c20.91-5.26,41.8-10.62,62.75-15.71,2.39-.58,5.14.33,7.72.56-.33,2.81.1,6-1.15,8.36-2.75,5.07-6.6,9.54-9.48,14.56-1.1,1.93-1.65,5.12-.77,6.91.67,1.37,4,2,6.13,2,14.3-.46,28.1-2.74,41.61-8.28,20.36-8.36,41.28-15.39,62-22.77,2.33-.82,6.49-1.31,7.44-.1a12.73,12.73,0,0,1,2.15,8.74c-.78,5.95-2.68,11.75-3.91,17.65-1.51,7.21,1.52,10.67,8.74,10.35,13.22-.6,25.79-2.92,37.71-9.53,13-7.19,26.69-13,40.17-19.21,2.3-1.06,5.06-1.14,7.61-1.67.3,2.89,1.39,6,.75,8.64-2.58,10.82-5.69,21.52-8.6,32.26-.42,1.57-.89,3.13-1.2,4.71-1.52,7.64,1.39,9.11,9.07,9,15.67-.12,27.3-8.89,39.78-16.09,12.21-7.05,24.35-14.22,37.62-22v156.16h115.47V2233.63c2.3,1,3.94,1.26,5,2.19,7.83,7.2,17.23,7,26.81,5.84,5.43-.65,8-4.31,8.76-9.38.73-4.81,1.24-9.67,1.95-14.48,2-13.69,8.12-17.61,21.23-13.28,20.47,6.77,40.73,14.21,61.36,20.46,7.55,2.29,15.88,2.76,23.85,2.69,9-.09,11.7-4.28,10.38-13.19-.4-2.75-1.06-5.47-1.41-8.23-1.11-8.64,3.56-13.11,11.94-10.79,9.82,2.73,19.32,6.65,29.2,9.11a89.66,89.66,0,0,0,21.17,2.5c7.68,0,10.26-4.29,8-11.61-1-3.32-2.88-6.46-3.41-9.84-.58-3.61-1.49-9.16.36-10.68,2.53-2.07,7.86-2.3,11.42-1.3,13.15,3.7,26.07,8.25,39.1,12.45,14.34,4.61,28.66,9.34,43.09,13.68,4.39,1.32,9.12,1.5,13.7,2.2C2831.27,2201,2831.72,2200.05,2832.16,2199.09Zm-478.83-869.7c-.26-.82-.53-1.64-.8-2.46,4-1.39,7.91-3.72,12-4,9-.57,17.44-1.5,22.43-10.46.54-1,1.92-1.5,3.39-2.59C2387.34,1323.79,2375.85,1329.63,2353.33,1329.39Z"/>
    <path d="M1665.08,2146a83.26,83.26,0,0,0-5.78-7.39c-7-7.14-14.3-13.95-21.08-21.26-1.8-1.93-3.6-5.8-2.8-7.68s4.89-3.93,7.35-3.72c12.93,1.09,25.81,2.73,38.67,4.45,27.14,3.64,54.24,7.49,81.37,11.12,3.31.44,6.72.06,10.08.06.31-.86.63-1.72.94-2.57-3.6-2.43-7.38-4.64-10.77-7.35-3.61-2.9-6.84-6.26-10.24-9.42,4.41-1.51,8.73-3.95,13.23-4.32,9.46-.76,19-.35,28.53-.61a23.51,23.51,0,0,0,7.44-1.39c3.6-1.36,3.88-3.89.94-6.25a43.71,43.71,0,0,0-7.61-4.83c-9.92-5.06-20.09-9.64-29.79-15.08-4.3-2.41-8.91-5.76-11.18-9.89-2.39-4.36-5.29-5.82-9.52-6.62-54.91-10.4-109.77-21-164.72-31.21-65.76-12.15-131.37-25-193-52.06-22.22-9.76-43.22-22.32-64.74-33.65a66.67,66.67,0,0,1-6-4.07c19,6.43,37.57,12.2,55.74,18.93,27,10,55.23,13.78,83.46,17.87,70.71,10.23,141.51,20.11,209.92,41.77,19.44,6.16,38.53,13.41,57.63,20.57,11.51,4.32,23.25,6,36.28,5.68-1-7.11-5.59-10.46-11-12.28-8.34-2.78-17.1-4.33-25.4-7.2a179.71,179.71,0,0,1-22.09-9.69c-2.14-1.08-3.35-4-5-6.09,2.52-1.3,5-3.54,7.58-3.74,8.54-.64,17.19-.11,25.72-.88,4.49-.4,8.83-2.56,13.24-3.93-3.29-3-6.2-6.51-9.92-8.72-7.57-4.5-15.64-8.14-23.34-12.42a39,39,0,0,1-8.89-6.54c-5.92-6-6-11.09-.77-17.85,5-6.47,4.36-11.35-2.6-15.53a43.34,43.34,0,0,0-11.54-4.64c-23.58-6-47.24-11.73-70.81-17.77a17.57,17.57,0,0,1-7.62-4.31c-12.56-12.31-24.83-24.91-37.39-37.22-1.49-1.46-4.09-2-6.27-2.56-44-11.9-84.36-31-120.1-59.57a18.44,18.44,0,0,1-5.15-5.57c8.86,4.29,17.41,9.41,26.62,12.72,31.85,11.42,63.94,22.16,95.9,33.26,23.29,8.09,45.06,19.16,66.66,31.14,13.18,7.32,29.41,9.16,44.32,13.31,1.08.3,2.5-.58,5.22-1.3-2.56-3.18-4.25-5.78-6.42-7.89-5.16-5-10.65-9.67-15.76-14.72-1.13-1.12-2.1-3.64-1.57-4.82s3.15-2.12,4.65-1.88c8.68,1.39,17.34,3,25.93,4.85,20.38,4.48,40.71,9.2,61.09,13.71,2.3.52,4.76.34,7.14.49l.7-1.86c-2.88-2-5.61-4.29-8.66-6-19.76-11.24-39.69-22.19-59.3-33.69-3.83-2.24-6.48-6.49-9.67-9.81,4.22-1.86,8.32-4.17,12.71-5.46s9.27-1,13.62-2.43c5.21-1.66,5.64-5,1.74-8.81a15.58,15.58,0,0,0-3.31-2.52c-19.4-10.9-38.43-22.57-58.34-32.45-45.7-22.67-91.57-45-137.92-66.36-22.27-10.24-45.78-17.8-68.73-26.55-2.24-.85-4.53-1.54-6.8-2.3l.54-2.9c14.32,1.57,28.79,2.28,42.92,4.86,32.07,5.86,61.1,20.11,90,34.39,12.48,6.16,24.9,12.45,37.37,18.62,4.87,2.42,16.24.86,19.2-3.43,1.32-1.92,1.19-6.25-.14-8.25-1.8-2.7-5.29-4.38-8.23-6.21-23.86-14.79-47.79-29.48-71.64-44.31-3.14-2-5.94-4.49-8.89-6.75l1-2.37c4.43.38,8.91.48,13.28,1.21,8.46,1.41,16.81,3.56,25.31,4.57,3,.36,6.25-1.74,9.38-2.72-1-2.9-1.47-6.3-3.28-8.61-6.15-7.86-12.57-15.52-19.34-22.84-2.39-2.59-5.88-4.43-9.2-5.84-35.07-15-66.76-34.78-90.59-65.14-8.62-11-15.46-23.37-23.11-35.12l2-2.13c5.8,2.57,12.14,4.35,17.31,7.86q29,19.73,57.36,40.47c6.94,5.06,13.5,9.79,22.28,11.88,12.59,3,24.69,8,37.1,11.79,3.77,1.16,7.85,1.28,11.78,1.88.47-.71.93-1.42,1.39-2.14-2.16-3-4-6.28-6.53-8.91-17.53-18.26-35.2-36.38-52.81-54.54a61.55,61.55,0,0,1-4.73-5.11c-5.33-6.92-3-12.53,5.66-13.57,4.76-.56,11.55.3,11.88-5.6.23-4-3.72-9.22-7.23-12.25-16-13.78-32.46-27-48.87-40.33a16,16,0,0,0-7.23-3.62c-27-3.84-50.77-15.65-73.78-29.51q-36.35-21.88-73-43.3c-4.51-2.64-9.56-4.39-16.26-7.41,17.5-2.26,32.61-.23,46.71,5.62,15.8,6.55,31,14.54,46.24,22.43,14.39,7.47,28.43,15.62,41.7,23l10.93-7.21-35.63-21.4.3-1.32h28.27L1423,1367.7c1.8,0,2.65.2,3.36,0,3.63-1.26,7.23-2.63,10.85-4-2-3-3.2-7.15-6-8.85-10.46-6.43-21.59-11.77-32.08-18.17-4.19-2.56-7.35-6.82-11-10.3l2-3.43,31.14,10,1.15-1.71c-4.77-10.41-15.23-16.45-22-26.34l10.9-.5c-15.15-7.39-29-15.2-38.22-28.73l1-2.12,16.69,4.13,1.16-1.35a42.39,42.39,0,0,0-3.88-5.56c-7.88-8.21-16.1-16.09-23.75-24.5-3.88-4.26-9-7.21-10-14.56-.62-4.48-7.53-8.08-11-12.91l12.28,4.76c-23.33-30.43-56.62-48-84.22-70.38-3.41,4-5.68,7.86-9,10.39-18.93,14.6-38.1,28.89-57.18,43.3-2,1.48-3.82,3.08-4.44,3.58,3,1.44,7.29,2.13,8.77,4.55,3.31,5.44,3.6,12.16-1.36,16.78q-16.76,15.62-34.59,30c-5.32,4.31-11.76,7.23-18.08,11h11.91L1099.24,1347c.52.68,1,1.35,1.55,2h35.88c-10.54,12.55-20.79,24.76-31.05,37-6.13,7.29-12.13,14.68-18.48,21.76-3,3.34-6.66,6.07-9.21,8.35l-6.77,12.9h43.37l.3,2.56-64.2,23.71c.24,1,.47,1.94.71,2.91l45.21-3.55,1.2,2c-6.86,4.59-13.16,10.75-20.7,13.48-18.07,6.53-36.73,11.43-55.13,17.07-2.93.9-5.74,2.21-8.6,3.32l.41,2.4,40.07-1.79-4.77,5.66,211.56-65.19c-16.09,14.09-33,24.92-50.81,34.48-37.62,20.21-78.44,32.14-118.68,45.54-13.85,4.62-27.6,9.54-41.39,14.33-7.43,13.22-22.13,18.18-32.22,28.37a10.46,10.46,0,0,0-3.12,6l11.23-1.09c-9.08,9.33-17.26,17.73-25.42,26.15-4.37,4.49-8.91,8.85-13,13.6-1.46,1.71-1.79,4.38-2.63,6.62,2.39.31,5,1.45,7.14.81,13.08-4,26-8.42,39.06-12.56a43.43,43.43,0,0,1,10.14-2.19c4.51-.3,6,2.15,3.71,6.15a40.68,40.68,0,0,1-4.57,6.11q-23.13,27.42-46.3,54.78a67.76,67.76,0,0,0-5.62,7.09c-3.21,5.06-1.53,8.85,4.51,8.85a73.43,73.43,0,0,0,17.15-2.41c42.78-10.46,85.65-20.63,128.21-31.93,17.86-4.74,35-12,52.54-18.08,1.25-.44,2.48-.93,3.71-1.39l.89,1.57c-8.93,5.93-17.6,12.28-26.83,17.7-33.93,19.92-71.22,31.21-108.73,42-23.84,6.83-48,12.82-71.22,21.44-13.89,5.16-26.44,14.24-39,22.41-6.21,4-4.76,9.63,2.37,12.32,3.45,1.31,7.19,1.92,10.56,3.39,5.82,2.55,6.49,7.08,1.75,11.36a41.35,41.35,0,0,1-6.89,4.68c-28.76,17-57.62,33.84-86.23,51.08-3.58,2.15-5.91,6.36-8.82,9.62,4,1.81,7.85,4.06,12,5.31,3.26,1,7.07.17,10.31,1.19,3,1,5.62,3.29,8.4,5-1.85,2.48-3.45,5.19-5.61,7.34-1.6,1.59-3.9,2.48-5.92,3.62-18.79,10.6-37.61,21.15-56.37,31.8-3.1,1.76-5.95,3.94-8.91,5.92.24.75.48,1.49.73,2.23,3.93-.54,7.92-.8,11.78-1.67,23.74-5.37,47.42-11.08,71.23-16.19,4.62-1,9.71.17,14.58.34-2.66,3.75-5,7.83-8.08,11.16-4.79,5.15-10.12,9.8-15.22,14.66l1.15,2.73c3.36-.16,6.91.32,10.06-.58,24.52-7,48.7-15.46,73.51-21.15,22.93-5.25,42.19-17.42,62.36-28.09,23.48-12.43,47.36-23.59,74.12-26.87,4.24-.52,8.52-.6,14.87-1-2.45,1.86-3.07,2.46-3.79,2.87-44,25-88.09,49.7-136.51,65.54-4.52,1.48-8.76,5.28-12,9-11.32,13.2-25.21,20.38-42.5,23.38-17.75,3.08-35.08,8.73-52.5,13.56a35.79,35.79,0,0,0-11.19,5.27c-4.67,3.37-5.07,7.95-1.64,12.78,6.75,9.51,5.58,16.8-4.67,22.93-9.34,5.59-19.33,10.07-28.89,15.31-3.23,1.77-6,4.39-9,6.62.18.77.36,1.54.55,2.31,3,.75,5.9,2,8.89,2.15,9.73.47,19.5.27,29.21.93,2.85.19,5.56,2.41,8.33,3.7-1.9,2.17-3.5,4.73-5.74,6.45-10.34,7.88-23.2,8.83-35.08,12.51-5.91,1.83-12,3.88-17.07,7.26-2.51,1.69-4.07,6.66-3.9,10,.23,4.35,4.2,5.75,8.68,6.18,40.19,3.82,80.34,8.08,120.54,11.8,42.16,3.9,84.3,5.81,126.17-3.22,39.69-8.57,73.22-27.26,98.87-59.19a4.69,4.69,0,0,1,3.3-2c-1.61,2.59-3.13,5.24-4.84,7.77-21.33,31.68-51.28,51.81-86.74,64.45-38.88,13.86-79.39,18.84-120.28,20.7-51.94,2.37-103.92,3.76-155.87,5.78-10.1.4-20.16,1.79-30.24,2.72,0,.85,0,1.71,0,2.56,6.61,0,13.22-.13,19.83,0,7.17.19,14.35.48,21.49,1.16,1.77.17,4.81,2.08,4.76,3.09a8.23,8.23,0,0,1-3.2,5.46c-3.33,2.48-7.19,4.22-10.71,6.47-2.24,1.43-4.23,3.24-6.34,4.89.15.82.31,1.65.46,2.48,4.29,0,8.65.45,12.87-.09,14.5-1.84,29-4,43.42-6.07a8.64,8.64,0,0,1,4.24.29l-44.49,15.15.66,3.33c4,0,8,.26,12,0,20.37-1.53,40.72-3.31,61.09-4.74,6.44-.45,12.93-.07,19.4-.07.27,1.06.55,2.12.82,3.18-3.18,2.34-6.14,5.07-9.56,6.95-13,7.15-26.18,14-39.27,21a15.71,15.71,0,0,0-5.5,4.49l19.8-4.79-3.41,4.28a8.94,8.94,0,0,0,2,0c20.91-5.25,41.8-10.61,62.75-15.71,2.39-.58,5.14.34,7.72.56-.33,2.82.1,6-1.15,8.36-2.75,5.08-6.61,9.55-9.48,14.57-1.1,1.92-1.65,5.11-.77,6.91.66,1.36,4,2,6.12,2,14.31-.47,28.11-2.74,41.62-8.29,20.36-8.35,41.27-15.38,62-22.76,2.32-.83,6.49-1.32,7.44-.11a12.77,12.77,0,0,1,2.15,8.75c-.78,6-2.68,11.74-3.91,17.64-1.51,7.22,1.52,10.68,8.74,10.35,13.22-.59,25.79-2.91,37.71-9.53,13-7.18,26.69-13,40.17-19.2,2.3-1.06,5.06-1.14,7.61-1.68.29,2.9,1.39,6,.75,8.65-2.58,10.82-5.69,21.51-8.6,32.26-.43,1.56-.89,3.12-1.21,4.71-1.51,7.64,1.4,9.1,9.08,9,15.67-.13,27.3-8.89,39.78-16.1,12.21-7.05,24.35-14.21,37.62-22v156.15h115.47V2180.51c2.3,1,3.93,1.26,5,2.2,7.83,7.2,17.24,7,26.81,5.83,5.43-.65,8-4.3,8.76-9.37.74-4.82,1.25-9.67,2-14.49,2-13.69,8.12-17.6,21.22-13.27,20.48,6.77,40.74,14.21,61.37,20.46,7.55,2.29,15.88,2.76,23.85,2.68,9-.08,11.7-4.27,10.38-13.18-.4-2.76-1.06-5.47-1.41-8.23-1.11-8.64,3.56-13.12,11.93-10.79,9.83,2.73,19.33,6.64,29.21,9.1a89.12,89.12,0,0,0,21.16,2.5c7.69,0,10.27-4.29,8-11.6-1-3.32-2.87-6.47-3.41-9.84-.57-3.61-1.48-9.16.37-10.68,2.53-2.08,7.86-2.3,11.41-1.3,13.16,3.7,26.08,8.25,39.1,12.44,14.35,4.62,28.66,9.35,43.09,13.69,4.4,1.32,9.13,1.49,13.71,2.19C1664.18,2147.89,1664.63,2146.93,1665.08,2146Zm-478.83-869.69c-.27-.82-.53-1.64-.8-2.46,4-1.39,7.91-3.72,12-4,9-.57,17.44-1.5,22.43-10.47.55-1,1.92-1.49,3.4-2.58C1220.26,1270.68,1208.76,1276.52,1186.25,1276.28Z"/>
    <path d="M2366.08,2211a83.26,83.26,0,0,0-5.78-7.39c-7-7.14-14.3-13.95-21.08-21.26-1.8-1.93-3.6-5.8-2.8-7.68s4.89-3.93,7.35-3.72c12.93,1.09,25.81,2.73,38.67,4.45,27.14,3.64,54.24,7.49,81.37,11.12,3.31.44,6.72.06,10.08.06.31-.86.63-1.72.94-2.57-3.6-2.43-7.38-4.64-10.77-7.35-3.61-2.9-6.84-6.26-10.24-9.42,4.41-1.51,8.73-3.95,13.23-4.32,9.46-.76,19-.35,28.53-.61a23.51,23.51,0,0,0,7.44-1.39c3.6-1.36,3.88-3.89.94-6.25a43.71,43.71,0,0,0-7.61-4.83c-9.92-5.06-20.09-9.64-29.79-15.08-4.3-2.41-8.91-5.76-11.18-9.89-2.39-4.36-5.29-5.82-9.52-6.62-54.91-10.4-109.77-21-164.72-31.21-65.76-12.15-131.37-25-193-52.06-22.22-9.76-43.22-22.32-64.74-33.65a66.67,66.67,0,0,1-6-4.07c19,6.43,37.57,12.2,55.74,18.93,27,10,55.23,13.78,83.46,17.87,70.71,10.23,141.51,20.11,209.92,41.77,19.44,6.16,38.53,13.41,57.63,20.57,11.51,4.32,23.25,6,36.28,5.68-.95-7.11-5.59-10.46-11-12.28-8.34-2.78-17.1-4.33-25.4-7.2a179.71,179.71,0,0,1-22.09-9.69c-2.14-1.08-3.35-4-5-6.09,2.52-1.3,5-3.54,7.58-3.74,8.54-.64,17.19-.11,25.72-.88,4.49-.4,8.83-2.56,13.24-3.93-3.29-2.95-6.2-6.51-9.92-8.72-7.57-4.5-15.64-8.14-23.34-12.42a39,39,0,0,1-8.89-6.54c-5.92-6-6-11.09-.77-17.85,5-6.47,4.36-11.35-2.6-15.53a43.34,43.34,0,0,0-11.54-4.64c-23.58-6-47.24-11.73-70.81-17.77a17.57,17.57,0,0,1-7.62-4.31c-12.56-12.31-24.83-24.91-37.39-37.22-1.49-1.46-4.09-2-6.27-2.56-44-11.9-84.36-31-120.1-59.57a18.44,18.44,0,0,1-5.15-5.57c8.86,4.29,17.41,9.41,26.62,12.72,31.85,11.42,63.94,22.16,95.9,33.26,23.29,8.09,45.06,19.16,66.66,31.14,13.18,7.32,29.41,9.16,44.32,13.31,1.08.3,2.5-.58,5.22-1.3-2.56-3.18-4.25-5.78-6.42-7.89-5.16-5-10.65-9.67-15.76-14.72-1.13-1.12-2.1-3.64-1.57-4.82s3.15-2.12,4.65-1.88c8.68,1.39,17.34,3,25.93,4.85,20.38,4.48,40.71,9.2,61.09,13.71,2.3.52,4.76.34,7.14.49l.7-1.86c-2.88-2-5.61-4.29-8.66-6-19.76-11.24-39.69-22.19-59.3-33.69-3.83-2.24-6.48-6.49-9.67-9.81,4.22-1.86,8.32-4.17,12.71-5.46s9.27-1,13.62-2.43c5.21-1.66,5.64-5,1.74-8.81a15.58,15.58,0,0,0-3.31-2.52c-19.4-10.9-38.43-22.57-58.34-32.45-45.7-22.67-91.57-45-137.92-66.36-22.27-10.24-45.78-17.8-68.73-26.55-2.24-.85-4.53-1.54-6.8-2.3l.54-2.9c14.32,1.57,28.79,2.28,42.92,4.86,32.07,5.86,61.1,20.11,90,34.39,12.48,6.16,24.9,12.45,37.37,18.62,4.87,2.42,16.24.86,19.2-3.43,1.32-1.92,1.19-6.25-.14-8.25-1.8-2.7-5.29-4.38-8.23-6.21-23.86-14.79-47.79-29.48-71.64-44.31-3.14-2-5.94-4.49-8.89-6.75l1-2.37c4.43.38,8.91.48,13.28,1.21,8.46,1.41,16.81,3.56,25.31,4.57,3,.36,6.25-1.74,9.38-2.72-1.05-2.9-1.47-6.3-3.28-8.61-6.15-7.86-12.57-15.52-19.34-22.84-2.39-2.59-5.88-4.43-9.2-5.84-35.07-15-66.76-34.78-90.59-65.14-8.62-11-15.46-23.37-23.11-35.12l2-2.13c5.8,2.57,12.14,4.35,17.31,7.86q29,19.73,57.36,40.47c6.94,5.06,13.5,9.79,22.28,11.88,12.59,3,24.69,8,37.1,11.79,3.77,1.16,7.85,1.28,11.78,1.88.47-.71.93-1.42,1.39-2.14-2.16-3-4-6.28-6.53-8.91-17.53-18.26-35.2-36.38-52.81-54.54a61.55,61.55,0,0,1-4.73-5.11c-5.33-6.92-3-12.53,5.66-13.57,4.76-.56,11.55.3,11.88-5.6.23-4-3.72-9.22-7.23-12.25-16-13.78-32.46-27-48.87-40.33a16,16,0,0,0-7.23-3.62c-27-3.84-50.77-15.65-73.78-29.51q-36.34-21.88-73-43.3c-4.51-2.64-9.56-4.39-16.26-7.41,17.5-2.26,32.61-.23,46.71,5.62,15.8,6.55,31,14.54,46.24,22.43,14.39,7.47,28.43,15.62,41.7,23l10.93-7.21-35.63-21.4.3-1.32h28.27L2124,1432.7c1.8,0,2.65.2,3.36,0,3.63-1.26,7.23-2.63,10.85-4-1.95-3-3.2-7.15-6-8.85-10.46-6.43-21.59-11.77-32.08-18.17-4.19-2.56-7.35-6.82-11-10.3l2-3.43,31.14,10,1.15-1.71c-4.77-10.41-15.23-16.45-22-26.34l10.9-.5c-15.15-7.39-29-15.2-38.22-28.73l1-2.12,16.69,4.13,1.16-1.35a42.39,42.39,0,0,0-3.88-5.56c-7.88-8.21-16.1-16.09-23.75-24.5-3.88-4.26-9-7.21-10-14.56-.62-4.48-7.53-8.08-11-12.91l12.28,4.76c-23.33-30.43-56.62-48-84.22-70.38-3.41,4-5.68,7.86-9,10.39-18.93,14.6-38.1,28.89-57.18,43.3-2,1.48-3.82,3.08-4.44,3.58,3,1.44,7.29,2.13,8.77,4.55,3.31,5.44,3.6,12.16-1.36,16.78q-16.76,15.62-34.59,30c-5.32,4.31-11.76,7.23-18.08,11h11.91L1800.24,1412c.52.68,1,1.35,1.55,2h35.88c-10.54,12.55-20.79,24.76-31.05,37-6.13,7.29-12.13,14.68-18.48,21.76-3,3.34-6.66,6.07-9.21,8.35l-6.77,12.9h43.37l.3,2.56-64.2,23.71c.24,1,.47,1.94.71,2.91l45.21-3.55,1.2,2c-6.86,4.59-13.16,10.75-20.7,13.48-18.07,6.53-36.73,11.43-55.13,17.07-2.93.9-5.74,2.21-8.6,3.32l.41,2.4,40.07-1.79-4.77,5.66,211.56-65.19c-16.09,14.09-33,24.92-50.81,34.48-37.62,20.21-78.44,32.14-118.68,45.54-13.85,4.62-27.6,9.54-41.39,14.33-7.43,13.22-22.13,18.18-32.22,28.37a10.46,10.46,0,0,0-3.12,6l11.23-1.09c-9.08,9.33-17.26,17.73-25.42,26.15-4.37,4.49-8.91,8.85-13,13.6-1.46,1.71-1.79,4.38-2.63,6.62,2.39.31,5,1.45,7.14.81,13.08-4,26-8.42,39.06-12.56a43.43,43.43,0,0,1,10.14-2.19c4.51-.3,6,2.15,3.71,6.15a40.68,40.68,0,0,1-4.57,6.11q-23.13,27.42-46.3,54.78a67.76,67.76,0,0,0-5.62,7.09c-3.21,5.06-1.53,8.85,4.51,8.85a73.43,73.43,0,0,0,17.15-2.41c42.78-10.46,85.65-20.63,128.21-31.93,17.86-4.74,35-12,52.54-18.08,1.25-.44,2.48-.93,3.71-1.39l.89,1.57c-8.93,5.93-17.6,12.28-26.83,17.7-33.93,19.92-71.22,31.21-108.73,42-23.84,6.83-48,12.82-71.22,21.44-13.89,5.16-26.44,14.24-39,22.41-6.21,4-4.76,9.63,2.37,12.32,3.45,1.31,7.19,1.92,10.56,3.39,5.82,2.55,6.49,7.08,1.75,11.36a41.35,41.35,0,0,1-6.89,4.68c-28.76,17-57.62,33.84-86.23,51.08-3.58,2.15-5.91,6.36-8.82,9.62,4,1.81,7.85,4.06,12,5.31,3.26,1,7.07.17,10.31,1.19,3,1,5.62,3.29,8.4,5-1.85,2.48-3.45,5.19-5.61,7.34-1.6,1.59-3.9,2.48-5.92,3.62-18.79,10.6-37.61,21.15-56.37,31.8-3.1,1.76-6,3.94-8.91,5.92.24.75.48,1.49.73,2.23,3.93-.54,7.92-.8,11.78-1.67,23.74-5.37,47.42-11.08,71.23-16.19,4.62-1,9.71.17,14.58.34-2.66,3.75-5,7.83-8.08,11.16-4.79,5.15-10.12,9.8-15.22,14.66l1.15,2.73c3.36-.16,6.91.32,10.06-.58,24.52-7,48.7-15.46,73.51-21.15,22.93-5.25,42.19-17.42,62.36-28.09,23.48-12.43,47.36-23.59,74.12-26.87,4.24-.52,8.52-.6,14.87-1-2.45,1.86-3.07,2.46-3.79,2.87-44,25-88.09,49.7-136.51,65.54-4.52,1.48-8.76,5.28-12,9-11.32,13.2-25.21,20.38-42.5,23.38-17.75,3.08-35.08,8.73-52.5,13.56a35.79,35.79,0,0,0-11.19,5.27c-4.67,3.37-5.07,7.95-1.64,12.78,6.75,9.51,5.58,16.8-4.67,22.93-9.34,5.59-19.33,10.07-28.89,15.31-3.23,1.77-6,4.39-9,6.62.18.77.36,1.54.55,2.31,3,.75,5.9,2,8.89,2.15,9.73.47,19.5.27,29.21.93,2.85.19,5.56,2.41,8.33,3.7-1.9,2.17-3.5,4.73-5.74,6.45-10.34,7.88-23.2,8.83-35.08,12.51-5.91,1.83-12,3.88-17.07,7.26-2.51,1.69-4.07,6.66-3.9,10,.23,4.35,4.2,5.75,8.68,6.18,40.19,3.82,80.34,8.08,120.54,11.8,42.16,3.9,84.3,5.81,126.17-3.22,39.69-8.57,73.22-27.26,98.87-59.19a4.69,4.69,0,0,1,3.3-2c-1.61,2.59-3.13,5.24-4.84,7.77-21.33,31.68-51.28,51.81-86.74,64.45-38.88,13.86-79.39,18.84-120.28,20.7-51.94,2.37-103.92,3.76-155.87,5.78-10.1.4-20.16,1.79-30.24,2.72,0,.85,0,1.71,0,2.56,6.61,0,13.22-.13,19.83,0,7.17.19,14.35.48,21.49,1.16,1.77.17,4.81,2.08,4.76,3.09a8.23,8.23,0,0,1-3.2,5.46c-3.33,2.48-7.19,4.22-10.71,6.47-2.24,1.43-4.23,3.24-6.34,4.89.15.82.31,1.65.46,2.48,4.29,0,8.65.45,12.87-.09,14.5-1.84,28.95-4,43.42-6.07a8.64,8.64,0,0,1,4.24.29l-44.49,15.15.66,3.33c4,0,8,.26,12,0,20.37-1.53,40.72-3.31,61.09-4.74,6.44-.45,12.93-.07,19.4-.07.27,1.06.55,2.12.82,3.18-3.18,2.34-6.14,5.07-9.56,6.95-13,7.15-26.18,14-39.27,21a15.71,15.71,0,0,0-5.5,4.49l19.8-4.79-3.41,4.28a8.94,8.94,0,0,0,2,0c20.91-5.25,41.8-10.61,62.75-15.71,2.39-.58,5.14.34,7.72.56-.33,2.82.1,6-1.15,8.36-2.75,5.08-6.61,9.55-9.48,14.57-1.1,1.92-1.65,5.11-.77,6.91.66,1.36,4,2,6.12,2,14.31-.47,28.11-2.74,41.62-8.29,20.36-8.35,41.27-15.38,62-22.76,2.32-.83,6.49-1.32,7.44-.11a12.77,12.77,0,0,1,2.15,8.75c-.78,6-2.68,11.74-3.91,17.64-1.51,7.22,1.52,10.68,8.74,10.35,13.22-.59,25.79-2.91,37.71-9.53,13-7.18,26.69-13,40.17-19.2,2.3-1.06,5.06-1.14,7.61-1.68.29,2.9,1.39,6,.75,8.65-2.58,10.82-5.69,21.51-8.6,32.26-.43,1.56-.89,3.12-1.21,4.71-1.51,7.64,1.4,9.1,9.08,9,15.67-.13,27.3-8.89,39.78-16.1,12.21-7.05,24.35-14.21,37.62-22v156.15h115.47V2245.51c2.3,1,3.93,1.26,5,2.2,7.83,7.2,17.24,7,26.81,5.83,5.43-.65,8-4.3,8.76-9.37.74-4.82,1.25-9.67,2-14.49,2-13.69,8.12-17.6,21.22-13.27,20.48,6.77,40.74,14.21,61.37,20.46,7.55,2.29,15.88,2.76,23.85,2.68,9-.08,11.7-4.27,10.38-13.18-.4-2.76-1.06-5.47-1.41-8.23-1.11-8.64,3.56-13.12,11.93-10.79,9.83,2.73,19.33,6.64,29.21,9.1a89.12,89.12,0,0,0,21.16,2.5c7.69,0,10.27-4.29,8-11.6-1-3.32-2.87-6.47-3.41-9.84-.57-3.61-1.48-9.16.37-10.68,2.53-2.08,7.86-2.3,11.41-1.3,13.16,3.7,26.08,8.25,39.1,12.44,14.35,4.62,28.66,9.35,43.09,13.69,4.4,1.32,9.13,1.49,13.71,2.19C2365.18,2212.89,2365.63,2211.93,2366.08,2211Z" style="fill: #d65634"/>
  </g>
</svg>
