<svg xmlns="http://www.w3.org/2000/svg" width="113.31mm" height="179.03mm" viewBox="0 0 321.19 507.49">
  <title>h-k</title>
  <g id="Layer_1" data-name="Layer 1">
    <rect x="28.69" y="54.47" width="263.77" height="403.09" style="fill: none;stroke: #2e3192;stroke-miterlimit: 10"/>
    <g>
      <path d="M1,253.7Q1,364.39,1,475.08c0,11.37,4,20.35,13.17,26.67a26.85,26.85,0,0,0,15.59,4.74H79.55q105.59,0,211.16,0c12.62,0,22-6,27-18,1.77-4.21,2.31-9.26,2.31-13.93q.21-126.25.1-252.51c0-63.31-.12-126.62.08-189.93.05-15.87-9.91-27.34-22-30.22A38.55,38.55,0,0,0,289.29,1q-129-.08-258,0C13,1,1.05,13.37,1.05,32.32Q1,143,1,253.7Zm318.18-.12q0,111.15,0,222.31c0,17.13-11.86,29.5-28.3,29.5q-130.34,0-260.66,0c-16.45,0-28.31-12.39-28.31-29.5q0-222.15,0-444.32c0-17.12,11.88-29.51,28.3-29.51q130.34,0,260.66,0a26.76,26.76,0,0,1,5.37.38c14,2.83,22.94,14.19,22.94,29.12Q319.24,142.57,319.22,253.58Z" style="fill: #fff;stroke: #231f20;stroke-miterlimit: 10;stroke-width: 2px"/>
      <path d="M319.22,253.58q0-111,0-222c0-14.93-8.95-26.29-22.94-29.12a26.76,26.76,0,0,0-5.37-.38q-130.32,0-260.66,0c-16.42,0-28.3,12.39-28.3,29.51q0,222.17,0,444.32c0,17.11,11.86,29.5,28.31,29.5q130.32,0,260.66,0c16.44,0,28.3-12.37,28.3-29.5Q319.24,364.74,319.22,253.58Z" style="fill: #fff;stroke: #231f20;stroke-miterlimit: 10;stroke-width: 2px"/>
    </g>
  </g>
  <g id="Layer_2" data-name="Layer 2">
    <rect x="27.26" y="56.29" width="263.77" height="403.09" style="fill: #fff;stroke: #231f20;stroke-miterlimit: 10"/>
    <g>
      <text transform="translate(29.27 112.41)" style="font-size: 72px;fill: #ed1c24;font-family: LumberjackRough, Lumberjack">K</text>
      <path d="M52,127.14c.08-.34.16-.69.25-1a13,13,0,0,1,1.64-4,7.3,7.3,0,0,1,5.64-3.32,11.44,11.44,0,0,1,5.48.65,7.84,7.84,0,0,1,5,5.72,12.58,12.58,0,0,1,0,5,16.74,16.74,0,0,1-4.42,8.49A76.79,76.79,0,0,1,60,144.08a66.75,66.75,0,0,0-5.17,5.06,29.16,29.16,0,0,0-2.77,3.62c0,.07-.09.13-.14.21s-.07-.07-.08-.1a35.38,35.38,0,0,0-5.7-6.66c-1.84-1.72-3.73-3.4-5.57-5.13a29.55,29.55,0,0,1-4.18-4.7,15.18,15.18,0,0,1-2.64-6.62,11.73,11.73,0,0,1,.13-4.72,8.24,8.24,0,0,1,7.1-6.16,11.68,11.68,0,0,1,4.71.16,7.11,7.11,0,0,1,4.48,3.35,13.89,13.89,0,0,1,1.56,4.1c.05.22.11.43.16.65Z" style="fill: #ed1c24"/>
    </g>
    <circle cx="104.7" cy="91.6" r="12.72" style="fill: #c2262d"/>
    <polyline points="216.1 261.08 238.32 266.29 279.4 232.54 264.08 213.44 200.2 217.93" style="fill: none"/>
    <path d="M198.16,236.53l10.12,20.86L223,262.5l19.18-4.83,39-25.13-17.18-19.1s-49.65-.84-52.24,0S194.51,225,194.51,225Z" style="fill: #b80545"/>
    <polyline points="106.47 191.3 108.64 175.66 96.22 138.73 94.53 134.68 89.86 125.79 89.86 121.12 89.86 115.04 91.92 109.14 97.37 104.35 117.41 96.74 151.4 91.95 184.97 95.38 196 102.94 202.76 111.43 202.76 116.56 202.76 125.79 199.97 135.83 192.32 157.57 174.37 198.96 151.4 219.91" style="fill: #d5b49f"/>
    <g>
      <path d="M96.56,145.55a17.89,17.89,0,0,1-6.17-9.47c-.18-.8-.37-1.74.94-2.16a3.59,3.59,0,0,1,3.2.76,26.07,26.07,0,0,1,2.37,1.83,8.43,8.43,0,0,0,8.5,1.24,29.08,29.08,0,0,0,4.94-2.43c2.49-1.45,4.77-3.07,7.32-4.46a26.2,26.2,0,0,1,10-3,21.59,21.59,0,0,1,14,3.22,36.35,36.35,0,0,1,3.54,2.87c.07-.07.22-.2.36-.35,3.21-3.48,7.86-5.49,14-5.85a24.6,24.6,0,0,1,9.19,1.47,33.86,33.86,0,0,1,7.74,3.83c1.86,1.2,3.65,2.45,5.62,3.56a11.84,11.84,0,0,0,7.57,1.59,6.8,6.8,0,0,0,3.46-1.51l2.44-1.9a3.7,3.7,0,0,1,.61-.38,3.43,3.43,0,0,1,2.87-.46c1.07.4,1,1.19.88,1.88a16.6,16.6,0,0,1-4.88,8.49c-.22.23-.47.44-.7.66l-.67.61a20.65,20.65,0,0,1,6.28,5.2c3.63,4.72,3.7,9.48.12,14.23a2.31,2.31,0,0,0-.58,1.82c.51,3.33-1.06,6.3-3.66,9.08-3.73,4-8.67,7.21-14,10.19a224.76,224.76,0,0,1-35.33,15.33,2.35,2.35,0,0,1-1.31.05c-14.73-5.13-28.91-10.84-41.13-18.46-4.32-2.69-8.19-5.64-10.77-9.25a9.09,9.09,0,0,1-2-6.86,1.07,1.07,0,0,0-.28-.83c-6.43-7-3.58-15.16,5.22-20.32A3.08,3.08,0,0,0,96.56,145.55Zm48.5-2.6c-.86.67-1.8,1.47-2.86,2.2s-2.21,1.38-3.33,2.06c3.57,2.49,9.44,2.49,12.53.1Z" style="fill: #231f20"/>
      <path d="M108.07,82.89c0,2.25,0,4.42,0,6.59a5.9,5.9,0,0,0,.46,2.38,2.17,2.17,0,0,0,1.51,1,2.26,2.26,0,0,0,1.52-1,4.53,4.53,0,0,0,.5-2.09c0-2.58,0-5.17,0-7.87,3.13-.49,6.2-1,9.28-1.43A173.88,173.88,0,0,1,151.66,79a170,170,0,0,1,48.78,8.79c2.91,1,4.4,2.82,4.43,5.12.07,5.54,0,11.09,0,16.63,0,2.21-1.76,2.87-4.77,1.86A165.88,165.88,0,0,0,172,104.64a180.06,180.06,0,0,0-35.15-1.81,171.39,171.39,0,0,0-46.63,8.56,10,10,0,0,1-1.45.4c-1.75.31-3-.3-3.25-1.58a6,6,0,0,1-.09-1.12c0-5.23,0-10.46,0-15.7,0-2.77,1.65-4.76,5.23-5.88,1.26-.39,2.52-.8,4-1.27v1.55c0,2.87,0,5.73,0,8.6a4.05,4.05,0,0,0,.67,2,1.45,1.45,0,0,0,2.52,0,4.28,4.28,0,0,0,.7-2.14c.07-3.24,0-6.48,0-9.72,0-1.76,0-1.76,2.76-2.11v7.75a12.68,12.68,0,0,0,.09,2,2.59,2.59,0,0,0,.59,1.32,2.3,2.3,0,0,0,1.36.7,1.68,1.68,0,0,0,1.22-.68,5.41,5.41,0,0,0,.7-2.24c.08-2.81,0-5.61,0-8.41C105.36,83.2,105.36,83.2,108.07,82.89Z" style="fill: #ed1c24"/>
      <path d="M146,55.48c15.23.28,29.85,4,41.57,12.67,6.9,5.11,11.06,11.22,12.33,18.31,0,.31,0,.82-.25.92a2.39,2.39,0,0,1-1.39-.07,173.63,173.63,0,0,0-33.63-7.11,184.57,184.57,0,0,0-28.9-.86,174,174,0,0,0-44.86,8,2.57,2.57,0,0,1-1.26.11,1.39,1.39,0,0,1-.3-1.09C91.82,74,101.8,65.73,116.73,60.16,125.46,56.91,134.86,55.54,146,55.48Z" style="fill: #c6262c"/>
    </g>
    <polygon points="165.54 197.54 188.09 180.1 203.68 187.27 193.01 198.68 183.21 222.39 180.86 243.55 182.13 261.6 185.5 280.67 128.88 271.41 165.54 197.54" style="fill: #754c29"/>
    <g>
      <path d="M251.62,196.35c-6.85-10.12-5.91-24-18.63-30.11-9.49,14.44-20.31,27.86-27.5,42.71-7.39,15.24-11.24,31.87-16.59,47.91-.56,1.69-.78,3.46-1.24,5.57-13.21.67-24.52-3.5-36.13-8.71l52.12-99.67-11.94-5.66c5.93-11.33,11.75-22.48,17.77-34l11.43,4.52c4.66-4.8,11.63-5.08,20.31-.9,8.46,4.08,11,7.6,9.25,13.55,13.78,5.44,25-4.28,37.53-5.8C299.77,146,288.44,185,251.62,196.35Zm-41.07-79.49-16,30.76c12.26,5.25,23.94,10.48,35.85,15.26,7.88,3.16,13.2,8,15.68,15.61,1.08,3.31,2.71,6.46,4.11,9.73,23.88-11.55,37-37.13,30.16-58.22-2.05.63-4.16,1.1-6.11,1.91-11,4.54-21.34,3.9-31.91-1.38C232.22,125.5,221.51,121.53,210.55,116.86ZM153.86,253.78l31.8,8.11c.76-3.74,1.18-5.88,1.64-8,4.6-21.34,11.23-41.92,25-60.26,6.67-8.86,12.11-18.49,18.43-28.27l-25-10.7Zm97.48-60.88,2.12.85C288.88,181,296.3,143,285.52,127.07c-.8,2.18-1.85,3.6-1.71,4.89,2.62,24.35-6.92,43.41-29.8,56.87C252.71,189.6,252.21,191.52,251.34,192.9Zm-3.87-62.55c2.18-4.57-2.32-9.3-11.07-12.07-8-2.55-10.23-2.15-11.75,2.37Z"/>
      <path d="M210.55,116.86c11,4.67,21.67,8.64,31.74,13.67,10.57,5.28,20.92,5.92,31.91,1.38,1.95-.81,4.06-1.28,6.11-1.91,6.88,21.09-6.28,46.67-30.16,58.22-1.4-3.27-3-6.42-4.11-9.73-2.48-7.58-7.8-12.45-15.68-15.61-11.91-4.78-23.59-10-35.85-15.26Z" style="fill: #ed1c24"/>
      <path d="M153.86,253.78l51.88-99.13,25,10.7c-6.32,9.78-11.76,19.41-18.43,28.27-13.82,18.34-20.45,38.92-25,60.26-.46,2.13-.88,4.27-1.64,8Z" style="fill: #c49a6c"/>
      <path d="M251.34,192.9c.87-1.38,1.37-3.3,2.67-4.07,22.88-13.46,32.42-32.52,29.8-56.87-.14-1.29.91-2.71,1.71-4.89,10.78,15.93,3.36,53.9-32.06,66.68Z" style="fill: #fff"/>
      <path d="M247.47,130.35l-22.82-9.7c1.52-4.52,3.72-4.92,11.75-2.37C245.15,121.05,249.65,125.78,247.47,130.35Z" style="fill: #e6e7e8"/>
    </g>
    <path d="M264.08,213.44c-12.11-9.68-23.5-20-39.53-24.11-5.49-1.41-9.63.42-13.87,3.07-6.33,3.95-11,9.27-16.12,14.48-8.07,8.23-13.39,16.59-12.46,27.9,1.06,12.83,5,17.75,18.07,21.8,5,1.55,10.12,2.86,15.93,4.5V253l-2.56,3.94c-.4-2.69-.65-4.32-.95-6.34l-2.22,4.26c-1.65-4.57-2.88-7.95-3.89-10.76.06-.17-.23.59-.52,1.36l-.65,0v-8.34l-2.41,4.78c-.56-7.78-1-14.34-1.51-20.9l1.36-.36c4,9.27,6.61,19.27,16,26.44-.26-1.61-.41-2.57-.7-4.41l6.43,5-1.91-3.54c4.2-1.72,8.58-3.13,12.54-5.22,5.66-3,10.81-6.81,16.55-9.62A17.68,17.68,0,0,0,261.31,218C261.75,216.63,262.86,215.42,264.08,213.44Z" style="fill: #da1c5c"/>
    <path d="M180.34,186c-5.29,3.82-10.71,7.51-15.83,11.5-3.67,2.86-6.87,6.17-10.41,9.17-4.45,3.76-6.16,3.62-9.9-.84-2-2.37-3.68-4.94-5.49-7.4-8.49,3.19-12.26,10.24-11.37,17.46.56,4.54-1.06,9.36-2.22,14-3,11.84-6.39,23.61-9.32,35.47-.32,1.28,1.36,2.91,2.09,4.39.47.95.9,1.91,1.33,2.86l1.9-2.45c.49,1.38.78,2.21,1.2,3.42l1.62-2.63c.53,1.23.91,2.09,1.39,3.21l2.17-2.92c.34,1.33.56,2.16.47,1.84l7.5.57,1.1-1.21,1.34,2.21c7.33-8.67,6.88-19,9.35-28.73.76-3,2.63-5.73,3.76-8.65,3.72-9.61,6.33-19.65,11.34-28.74,3.66-6.64,10.42-12.05,15.81-18,1.06-1.17,2.18-2.29,3.27-3.44Z" style="fill: #da1c5c"/>
    <path d="M101.89,195.6c-9.08,21.53-7.17,44.59-3.38,67.72.42,2.55,7.72,7,10.9,6.54,14.27-2.18,20-20.21,16.8-36.69-1.59-8.11,4.67-17.09,7.72-26.77-5.53-2.18-10.14-17.7-20-4.8C113.21,202.54,106.79,198.11,101.89,195.6Z" style="fill: #da1c5c"/>
    <path d="M60.28,246.05l-18.1-7.6c-1.23,2.27-6.19,3.88-.22,7l-4.57,1.22c.08.61,0,1.13.18,1.19,6.86,2.75,13.45,6.85,23,3.5l-6.21-4.7,5.46.54Z" style="fill: #da1c5c"/>
    <path d="M108.28,191.3a39.24,39.24,0,0,0-3.54,2.07c-2.89,2.24-2.69,3.18.65,4.65,5.93,2.6,11.84,5.23,17.69,7.95,1.78.83,3.2,1.06,4.48-.55s2.16-2.87-.27-4.29c-4.81-2.79-9.36-5.88-14.2-8.63C111.68,191.7,109.63,191.62,108.28,191.3Z" style="fill: #da1c5c"/>
    <path d="M35.72,252.64c3.9,4.77,5.77,7.74,8.37,10.1,9.07,8.24,12.88,7.58,18.82-2.15C73.46,243.3,84.12,226.05,95.16,209c3.37-5.2,4.28-9.32-2.24-12.94-6.1-3.38-11.62-6.07-17.35,1-11.32,14.08-23.84,27.41-35,41.57C37.32,242.79,37,248.71,35.72,252.64Z" style="fill: #da1c5c"/>
    <polygon points="85.44 194.52 100.18 180.1 110.37 186.03 103.39 195.45 96.99 215.06 95.45 232.54 96.28 247.47 98.48 263.22 61.47 255.57 85.44 194.52" style="fill: #754c29"/>
    <g>
      <path d="M138.92,126.89c.53-1.66,2.83-5.11,1.68-6a16.8,16.8,0,0,0-9.95-3.18c-5.56.22-11.07,1.82-17.84,3.07l4.31-3.49-.86-.69-11.88,9.24L105.6,128Zm-9-8.68,10.54,3.8-9.68,3.72Zm-21.25,7.67,9.57-4.36,1.49,5.56Z"/>
      <path d="M101.64,110.7c5.77-1.58,12.66-4.19,19.88-5.15,3.88-.52,8.42,1.64,12.5,2.89,3.46,1.06,6.67,2.55,10.58,3-2.68-1.82-5.41-3.6-8-5.47C124.43,97.3,107.51,100.21,101.64,110.7Z"/>
      <path d="M129.88,118.21l.86,7.52,9.68-3.72Z" style="fill: #fff"/>
      <path d="M108.63,125.88l11.06,1.2-1.49-5.56Z" style="fill: #fff"/>
    </g>
    <g>
      <path d="M182.38,127.19c.72-1.61,3.4-4.85,2.35-5.88a16.27,16.27,0,0,0-9.54-4c-5.55-.24-11.22.9-18.1,1.59l4.69-3.12L161,115l-12.86,8.22,1,2.24Zm-8-9.38,10.06,4.65-10.06,2.9Zm-22,5.88,10-3.55.86,5.65Z"/>
      <path d="M147.11,108c5.92-1.1,13.07-3.14,20.36-3.5,3.93-.19,8.21,2.33,12.13,3.92,3.31,1.34,6.35,3.08,10.19,3.84-2.47-2-5-4-7.38-6.1C171.31,96.54,154.14,98.05,147.11,108Z"/>
      <path d="M174.37,117.81v7.55l10.06-2.9Z" style="fill: #fff"/>
      <path d="M152.35,123.69l10.87,2.1-.86-5.65Z" style="fill: #fff"/>
    </g>
    <path d="M97.52,256.67c-1.43,2.25-2.46,3.42-3,4.81-1.86,4.86-.55,6.38,5.93,7.59,11.52,2.16,23,4.37,34.56,6.77,3.51.73,5.85.58,6-2.62.16-3,.11-5.65-5-7.11-10.07-2.9-20.08-6.41-30.16-9.23C102.94,256.06,99.85,256.7,97.52,256.67Z" style="fill: #da1c5c"/>
    <path d="M229,255c1.17,3.12,1.52,5,2.54,6.62,3.58,5.79,6.35,6.09,13.34,2.05,12.4-7.18,24.86-14.32,37.53-21.29,3.86-2.12,5.74-4.1,2.46-7.07-3.07-2.77-6-5.09-12-2.37-11.94,5.39-24.46,10.18-36.31,15.64C233.11,250.12,231.09,253.13,229,255Z" style="fill: #da1c5c"/>
    <polyline points="214.67 252.78 236.89 247.56 277.96 281.31 262.65 300.42 198.77 295.92" style="fill: none"/>
    <path d="M196.73,277.32l10.12-20.86,14.76-5.1,19.18,4.82,39,25.13-17.18,19.11s-49.66.83-52.24,0-17.34-11.52-17.34-11.52Z" style="fill: #b80545"/>
    <polyline points="105.03 322.55 107.2 338.2 94.79 375.12 93.09 379.17 88.43 388.06 88.43 392.74 88.43 398.81 90.49 404.71 95.93 409.5 115.98 417.12 149.97 421.91 183.54 418.48 194.57 410.91 201.33 402.42 201.33 397.29 201.33 388.06 198.54 378.02 190.89 356.28 172.94 314.89 149.97 293.95" style="fill: #d5b49f"/>
    <polygon points="171.48 332.81 189.57 349.1 202.07 342.4 193.51 331.75 185.66 309.61 183.77 289.86 184.79 273.01 187.49 255.21 142.08 263.85 171.48 332.81" style="fill: #754c29"/>
    <g>
      <path d="M250.18,317.5c-6.84,10.13-5.9,24.06-18.62,30.11-9.49-14.44-20.31-27.86-27.5-42.71C196.67,289.66,192.82,273,187.47,257c-.56-1.69-.78-3.46-1.24-5.56-13.21-.68-24.52,3.49-36.13,8.71l52.12,99.66-11.94,5.66,17.76,34,11.44-4.51c4.66,4.79,11.63,5.08,20.3.89,8.47-4.08,11-7.6,9.25-13.55,13.79-5.44,25,4.28,37.54,5.8C298.34,367.9,287,328.81,250.18,317.5ZM209.12,397l-16.05-30.76c12.27-5.24,24-10.48,35.86-15.25,7.88-3.16,13.2-8,15.68-15.62,1.08-3.3,2.71-6.45,4.11-9.73,23.87,11.55,37,37.13,30.15,58.22-2-.63-4.15-1.1-6.1-1.9-11-4.55-21.34-3.91-31.92,1.37C230.78,388.35,220.07,392.33,209.12,397Zm-56.7-136.91L184.23,252c.76,3.74,1.18,5.88,1.64,8,4.6,21.34,11.22,41.93,25,60.26,6.68,8.87,12.12,18.5,18.44,28.27l-25,10.7C187.19,326.49,170.25,294.12,152.42,260.08ZM249.91,321l2.12-.86c35.42,12.78,42.84,50.75,32.06,66.69-.8-2.19-1.85-3.61-1.71-4.9,2.62-24.35-6.92-43.41-29.8-56.87C251.28,324.25,250.78,322.34,249.91,321ZM246,383.5c2.18,4.57-2.32,9.3-11.08,12.08-8,2.54-10.22,2.14-11.74-2.38Z"/>
      <path d="M209.12,397c10.95-4.66,21.66-8.64,31.73-13.67,10.58-5.28,20.93-5.92,31.92-1.37,2,.8,4.06,1.27,6.1,1.9,6.89-21.09-6.28-46.67-30.15-58.22-1.4,3.28-3,6.43-4.11,9.73-2.48,7.58-7.8,12.46-15.68,15.62-11.91,4.77-23.59,10-35.86,15.25Z" style="fill: #ed1c24"/>
      <path d="M152.42,260.08c17.83,34,34.77,66.41,51.89,99.12l25-10.7c-6.32-9.77-11.76-19.4-18.44-28.27-13.82-18.33-20.44-38.92-25-60.26-.46-2.13-.88-4.27-1.64-8Z" style="fill: #c49a6c"/>
      <path d="M249.91,321c.87,1.38,1.37,3.29,2.67,4.06,22.88,13.46,32.42,32.52,29.8,56.87-.14,1.29.91,2.71,1.71,4.9,10.78-15.94,3.36-53.91-32.06-66.69Z" style="fill: #fff"/>
      <path d="M246,383.5l-22.82,9.7c1.52,4.52,3.72,4.92,11.74,2.38C243.72,392.8,248.22,388.07,246,383.5Z" style="fill: #e6e7e8"/>
    </g>
    <path d="M159.52,259.11a43.62,43.62,0,0,1-6.72,1.25c-1.72.08-3.49-.63-5.24-1,.51-1.71.42-3.92,1.66-5,1.91-1.66,4.75-2.56,6.82-4.91a37.11,37.11,0,0,1-5.38,1.07c-1.33.08-3.75-.28-3.87-.75-.28-1.21,0-3.33.88-3.77,6.73-3.26,12.51-7.82,20.84-8.84a166.44,166.44,0,0,0,27.77-5.61c20.95-6.3,41.61-13.32,62.4-20,2.68-.87,5.42-1.64,8.18-2.34,12.39-3.14,13.19-2,17.63,8.3,6.94,16.11,4.2,31.93.54,47.9-1.49,6.48-5.39,8.46-12.45,5.94-9.88-3.53-19.47-7.68-29.28-11.37-4.14-1.56-5.89-3.88-4.62-8.11l1.74,2.62.54-3.87,2.39,2.15.84-3,.79,1.48a57.49,57.49,0,0,1,6.06-2c2.14-.47,4.46-.38,6.58-.88,1.12-.26,2-1.28,3-1.95-1.16-.58-2.43-1.77-3.47-1.63a135.78,135.78,0,0,0-16.3,2.69c-16.53,4.17-32.91,8.73-49.42,12.94-6.3,1.6-9.33,5.3-10.93,10.35-.88,2.78-2,5.52-3.34,9.25-4.32-5.76-9.07-4.72-14-2.54-1.87.84-3.62,2-5.6,2.45-1.31.29-3.6-.07-4.21-.85s-.29-2.88.55-3.67c1.94-1.82,4.44-3.19,6.36-5.77a29.23,29.23,0,0,1-5.31,1.07,21.67,21.67,0,0,1-4.82-1c.58-1.48.67-3.41,1.84-4.36,2.33-1.88,5.26-3.22,7.94-4.78Z" style="fill: #d5b49f"/>
    <path d="M262.65,300.42c-12.11,9.67-23.5,20-39.53,24.11-5.49,1.41-9.63-.43-13.87-3.07-6.33-4-11-9.27-16.12-14.48-8.07-8.24-13.39-16.6-12.46-27.91,1.06-12.83,5-17.75,18.07-21.79,5-1.56,10.12-2.87,15.93-4.5v8.11L212.11,257c-.4,2.69-.65,4.33-1,6.35L208.94,259c-1.66,4.57-2.88,8-3.89,10.76.06.18-.23-.59-.52-1.36l-.65,0v8.34L201.47,272c-.56,7.78-1,14.34-1.51,20.9l1.36.37c4-9.28,6.6-19.28,16-26.45-.26,1.62-.41,2.57-.71,4.41l6.44-5-1.91,3.55c4.2,1.71,8.58,3.12,12.54,5.21,5.65,3,10.81,6.81,16.55,9.62a17.72,17.72,0,0,1,9.67,11.29C260.32,297.23,261.43,298.44,262.65,300.42Z" style="fill: #da1c5c"/>
    <path d="M178.91,327.83c-5.29-3.82-10.71-7.52-15.83-11.5-3.68-2.87-6.87-6.18-10.41-9.18-4.45-3.75-6.16-3.62-9.91.84-2,2.38-3.68,4.95-5.48,7.4-8.49-3.18-12.26-10.24-11.37-17.45.56-4.55-1.06-9.37-2.22-14-3-11.84-6.39-23.61-9.32-35.46-.32-1.28,1.36-2.92,2.09-4.39.47-1,.89-1.92,1.33-2.86l1.9,2.44c.48-1.38.78-2.21,1.2-3.42l1.62,2.63c.53-1.23.9-2.09,1.39-3.2l2.17,2.91c.34-1.32.55-2.16.47-1.84l7.5-.57,1.09,1.21,1.35-2.2c7.33,8.67,6.88,19,9.35,28.73.76,3,2.62,5.73,3.76,8.65,3.72,9.6,6.33,19.65,11.34,28.73,3.66,6.65,10.42,12.05,15.81,18,1.06,1.16,2.18,2.29,3.27,3.43Z" style="fill: #da1c5c"/>
    <path d="M102.32,318.4c-10-21.67-8.35-44.69-4.66-67.77.41-2.54,8.13-6.9,11.52-6.37,15.27,2.4,21.7,20.52,18.5,37-1.57,8.07,5.25,17.15,8.65,26.88-5.86,2.09-10.54,17.54-21.26,4.49C114.29,311.64,107.51,316,102.32,318.4Z" style="fill: #da1c5c"/>
    <path d="M58.85,267.8l-18.1,7.61c-1.23-2.28-6.19-3.89-.22-7L36,267.22c.08-.61,0-1.12.18-1.19,6.85-2.74,13.45-6.85,23-3.5L53,267.24l5.46-.54Z" style="fill: #da1c5c"/>
    <path d="M106.85,322.55a37,37,0,0,1-3.54-2.07c-2.89-2.24-2.69-3.18.65-4.65,5.93-2.6,11.84-5.23,17.68-7.95,1.79-.83,3.21-1.06,4.49.56s2.16,2.87-.27,4.28c-4.81,2.79-9.36,5.88-14.2,8.64C110.25,322.16,108.2,322.23,106.85,322.55Z" style="fill: #da1c5c"/>
    <polygon points="84 319.34 98.75 333.75 108.94 327.83 101.96 318.4 95.56 298.8 94.02 281.31 94.85 266.39 97.05 250.63 60.04 258.28 84 319.34" style="fill: #754c29"/>
    <g>
      <path d="M137.49,387c.53,1.67,2.83,5.11,1.67,6.05a16.74,16.74,0,0,1-9.94,3.17c-5.56-.21-11.07-1.82-17.85-3.07l4.32,3.49-.86.69L103,388.05l1.21-2.15Zm-9,8.68,10.54-3.8-9.69-3.72ZM107.2,388l9.57,4.36,1.49-5.55Z"/>
      <path d="M100.21,403.15c5.77,1.58,12.65,4.2,19.87,5.16,3.89.51,8.43-1.65,12.51-2.9,3.46-1.06,6.67-2.55,10.58-3-2.68,1.82-5.42,3.6-8,5.47C123,416.56,106.08,413.64,100.21,403.15Z"/>
      <path d="M128.45,395.64l.85-7.52,9.69,3.72Z" style="fill: #fff"/>
      <path d="M107.2,388l11.06-1.19-1.49,5.55Z" style="fill: #fff"/>
    </g>
    <g>
      <path d="M181,386.66c.72,1.62,3.4,4.85,2.35,5.88a16.3,16.3,0,0,1-9.54,4c-5.56.24-11.22-.9-18.11-1.58l4.7,3.12-.79.75-12.86-8.22,1-2.24Zm-8,9.38L183,391.39l-10.06-2.9Zm-22-5.88,10,3.55.86-5.65Z"/>
      <path d="M145.67,405.85c5.93,1.1,13.08,3.13,20.37,3.49,3.93.19,8.2-2.33,12.13-3.91,3.31-1.34,6.34-3.09,10.19-3.85-2.47,2-5,4-7.38,6.11C169.88,417.31,152.71,415.81,145.67,405.85Z"/>
      <path d="M172.94,396v-7.55l10.06,2.9Z" style="fill: #fff"/>
      <path d="M150.92,390.16l10.87-2.1-.86,5.65Z" style="fill: #fff"/>
    </g>
    <path d="M95.71,276.78a21.86,21.86,0,0,0,3.35,2.55c.86.42,1.75.1,2.62.1-.26-1.74-.22-3.85-.85-5.14-1-2-2.37-3.43-3.41-6.11a18.75,18.75,0,0,0,2.69,2.12c.66.34,1.87.49,1.93.05a7.79,7.79,0,0,0-.45-3.8c-3.37-4.49-6.27-10-10.43-12.69a86,86,0,0,1-13.88-11C66.8,232.57,56.47,221.66,46.08,211c-1.35-1.38-2.72-2.67-4.09-3.9-6.2-5.52-6.59-4.61-8.79,4.43-3.41,14.09-2,29.86-.13,46,.76,6.53,2.71,9.22,6.23,8.21,4.93-1.4,9.7-3.45,14.58-5,2.07-.66,2.94-2.54,2.29-6.86L55.31,256,55,252.18l-1.19,1.58-.43-3.1c-.25.81-.39,1.28-.39,1.26a38.92,38.92,0,0,0-3-3.17c-1.07-.88-2.22-1.26-3.29-2.17a11.51,11.51,0,0,1-1.48-2.48c.57-.32,1.2-1.21,1.72-.87a63.73,63.73,0,0,1,8.15,5.88c8.26,7.34,16.45,15,24.71,22.41,3.15,2.81,4.67,7,5.48,12.16.45,2.85,1,5.71,1.69,9.57,2.14-4.67,4.52-2.71,7,.37a24.42,24.42,0,0,0,2.8,3.48c.66.54,1.8.66,2.1,0a6.31,6.31,0,0,0-.28-3.64,57.94,57.94,0,0,1-3.19-6.84A14.49,14.49,0,0,0,98,288.77a5.45,5.45,0,0,0,2.41.05c-.3-1.55-.35-3.42-.94-4.57a66.91,66.91,0,0,0-4-6.2Z" style="fill: #d5b49f"/>
    <path d="M103.22,257.18c-1.42-2.25-2.45-3.42-3-4.81-1.86-4.86-.54-6.37,5.94-7.59,11.52-2.16,23-4.37,34.56-6.77,3.51-.73,5.85-.58,6,2.62.15,3,.1,5.65-5,7.12-10.08,2.9-20.08,6.4-30.17,9.22C108.65,257.79,105.56,257.16,103.22,257.18Z" style="fill: #da1c5c"/>
    <path d="M227.58,258.91c1.17-3.12,1.52-5,2.54-6.63,3.58-5.78,6.35-6.08,13.33-2,12.41,7.17,24.87,14.31,37.54,21.28,3.86,2.13,5.74,4.11,2.46,7.07-3.07,2.77-6,5.09-12,2.37-11.94-5.38-24.46-10.18-36.32-15.64C231.68,263.73,229.65,260.73,227.58,258.91Z" style="fill: #da1c5c"/>
    <path d="M33.27,263.73c3.74-4.38,5.52-7.12,8-9.28,8.77-7.51,12.56-6.8,18.68,2.49,10.87,16.5,21.85,33,33.2,49.24,3.46,5,4.47,8.86-1.9,12.1-6,3-11.36,5.41-17.2-1.41-11.55-13.5-24.28-26.32-35.67-39.9C35.1,273,34.64,267.46,33.27,263.73Z" style="fill: #da1c5c"/>
    <ellipse cx="168.06" cy="324.02" rx="4.02" ry="7.56" transform="translate(-161.32 166.73) rotate(-37.06)" style="fill: #d5b49f"/>
    <circle cx="101.29" cy="423.3" r="12.72" style="fill: #c2262d"/>
    <g>
      <path d="M95.13,368.3c-3.29,2.85-5.38,6-6.17,9.48-.18.79-.37,1.73.93,2.15a3.54,3.54,0,0,0,3.2-.76,23.31,23.31,0,0,0,2.38-1.82,8.38,8.38,0,0,1,8.5-1.24,28.68,28.68,0,0,1,4.94,2.42c2.49,1.45,4.77,3.07,7.32,4.46a26.15,26.15,0,0,0,10,3,21.5,21.5,0,0,0,14-3.22,35.32,35.32,0,0,0,3.55-2.87l.36.35c3.21,3.49,7.86,5.5,14,5.86a24.64,24.64,0,0,0,9.19-1.48,33.46,33.46,0,0,0,7.74-3.83c1.86-1.19,3.65-2.44,5.62-3.55a11.78,11.78,0,0,1,7.57-1.6,6.73,6.73,0,0,1,3.45,1.51l2.44,1.9a5.44,5.44,0,0,0,.62.39,3.43,3.43,0,0,0,2.87.46c1.07-.41,1-1.2.88-1.89a16.67,16.67,0,0,0-4.88-8.49c-.22-.22-.47-.44-.71-.66l-.66-.6a20.94,20.94,0,0,0,6.28-5.21c3.63-4.72,3.7-9.47.12-14.22a2.33,2.33,0,0,1-.58-1.83c.5-3.32-1.06-6.3-3.66-9.08-3.73-4-8.67-7.21-14-10.19a224.24,224.24,0,0,0-35.32-15.33,2.35,2.35,0,0,0-1.31-.05c-14.74,5.14-28.92,10.84-41.13,18.46-4.32,2.69-8.19,5.65-10.77,9.25a9.11,9.11,0,0,0-2,6.87,1.05,1.05,0,0,1-.29.83c-6.42,7-3.57,15.15,5.22,20.31A2,2,0,0,1,95.13,368.3Zm48.5,2.6c-.87-.67-1.81-1.47-2.86-2.2s-2.22-1.38-3.33-2.06c3.57-2.48,9.44-2.48,12.53-.1Z" style="fill: #231f20"/>
      <path d="M106.64,431c0-2.25,0-4.43,0-6.6a5.93,5.93,0,0,1,.45-2.38,2.19,2.19,0,0,1,1.52-1.05,2.29,2.29,0,0,1,1.52,1,4.56,4.56,0,0,1,.5,2.09c0,2.59,0,5.17,0,7.88,3.13.48,6.19,1,9.28,1.43a173.88,173.88,0,0,0,30.28,1.47A169.67,169.67,0,0,0,199,426.06c2.91-1,4.39-2.82,4.43-5.12.07-5.54.05-11.08,0-16.63,0-2.21-1.75-2.87-4.76-1.85a166.94,166.94,0,0,1-28.12,6.75A179.14,179.14,0,0,1,135.42,411a171,171,0,0,1-46.63-8.56,10,10,0,0,0-1.45-.4c-1.75-.31-3,.31-3.25,1.59a5.87,5.87,0,0,0-.09,1.11c0,5.23,0,10.47,0,15.7,0,2.78,1.65,4.76,5.24,5.88l4,1.28v-1.56c0-2.86,0-5.73,0-8.59a4.1,4.1,0,0,1,.68-2.06,1.45,1.45,0,0,1,2.51,0,4.23,4.23,0,0,1,.71,2.14c.07,3.24,0,6.48,0,9.72,0,1.76,0,1.76,2.76,2.11,0-2.59,0-5.17,0-7.74a11.6,11.6,0,0,1,.09-2,2.6,2.6,0,0,1,.59-1.31,2.26,2.26,0,0,1,1.36-.71,1.66,1.66,0,0,1,1.22.69,5.32,5.32,0,0,1,.7,2.24c.08,2.8,0,5.6,0,8.41C103.92,430.65,103.92,430.65,106.64,431Z" style="fill: #ed1c24"/>
      <path d="M144.57,458.38c15.22-.29,29.85-4,41.57-12.67,6.89-5.12,11.06-11.23,12.33-18.32.05-.31,0-.81-.25-.92a2.47,2.47,0,0,0-1.39.07,173.79,173.79,0,0,1-33.63,7.11,184.7,184.7,0,0,1-28.91.86,174,174,0,0,1-44.85-8,2.54,2.54,0,0,0-1.26-.1,1.34,1.34,0,0,0-.3,1.09c2.51,12.3,12.48,20.61,27.42,26.18C124,457,133.43,458.31,144.57,458.38Z" style="fill: #c6262c"/>
    </g>
    <path d="M143.64,120.14c-.4,2.53-.77,5.07-1.22,7.59-.51,2.91-.14,3.72,2.2,4.91a12.52,12.52,0,0,1,1.85,1.38l-.18.57a3.18,3.18,0,0,1-1.12-.19c-4-2.33-5.07-2.32-3.67-8.27.46-2,.84-4,1.25-6Z"/>
    <path d="M143.68,393.12c-.4-2.53-.76-5.07-1.21-7.59-.51-2.91-.15-3.72,2.2-4.91a12.52,12.52,0,0,0,1.85-1.38l-.18-.57a3.14,3.14,0,0,0-1.12.19c-4,2.34-5.07,2.32-3.67,8.27.46,2,.83,4,1.25,6Z"/>
    <path d="M199.2,115.66c.29,1.52.56,3,.88,4.54.38,1.74.11,2.23-1.59,2.93a9.41,9.41,0,0,0-1.35.83l.13.34a2.71,2.71,0,0,0,.82-.11c2.9-1.4,3.68-1.39,2.67-4.94-.34-1.19-.61-2.39-.91-3.59Z"/>
    <path d="M94,125.44c-.3-1.52-.56-3-.89-4.54-.37-1.74-.1-2.23,1.6-2.93a10,10,0,0,0,1.35-.83l-.13-.34a2.67,2.67,0,0,0-.82.11c-2.9,1.4-3.68,1.39-2.67,4.94.34,1.19.61,2.39.91,3.59Z"/>
    <path d="M195.2,388.42c.29,1.51.56,3,.88,4.53.38,1.74.11,2.23-1.59,2.94a9.35,9.35,0,0,0-1.35.82l.13.34a2.43,2.43,0,0,0,.82-.11c2.9-1.39,3.68-1.39,2.67-4.94-.34-1.19-.61-2.39-.91-3.58Z"/>
    <path d="M91.94,388c-.3,1.51-.56,3-.89,4.54-.37,1.74-.1,2.22,1.6,2.93a10,10,0,0,1,1.35.83l-.13.34a3,3,0,0,1-.82-.11c-2.9-1.4-3.68-1.39-2.67-5,.34-1.18.61-2.39.91-3.58Z"/>
  </g>
</svg>
