<svg id="Layer_1" data-name="Layer 1" xmlns="http://www.w3.org/2000/svg" width="113.31mm" height="179.03mm" viewBox="0 0 321.19 507.49">
  <title>r-1</title>
  <g>
    <path d="M1,253.7Q1,364.39,1,475.08c0,11.37,4,20.35,13.17,26.67a26.85,26.85,0,0,0,15.59,4.74H79.55q105.59,0,211.16,0c12.62,0,22-6,27-18,1.77-4.21,2.31-9.26,2.31-13.93q.21-126.25.1-252.51c0-63.31-.12-126.62.08-189.93.05-15.87-9.91-27.34-22-30.22A38.55,38.55,0,0,0,289.29,1q-129-.08-258,0C13,1,1.05,13.37,1.05,32.32Q1,143,1,253.7Zm318.18-.12q0,111.15,0,222.31c0,17.13-11.86,29.5-28.3,29.5q-130.34,0-260.66,0c-16.45,0-28.31-12.39-28.31-29.5q0-222.15,0-444.32c0-17.12,11.88-29.51,28.3-29.51q130.34,0,260.66,0a26.76,26.76,0,0,1,5.37.38c14,2.83,22.94,14.19,22.94,29.12Q319.24,142.57,319.22,253.58Z" style="fill: #fff;stroke: #231f20;stroke-miterlimit: 10;stroke-width: 2px"/>
    <path d="M319.22,253.58q0-111,0-222c0-14.93-8.95-26.29-22.94-29.12a26.76,26.76,0,0,0-5.37-.38q-130.32,0-260.66,0c-16.42,0-28.3,12.39-28.3,29.51q0,222.17,0,444.32c0,17.11,11.86,29.5,28.31,29.5q130.32,0,260.66,0c16.44,0,28.3-12.37,28.3-29.5Q319.24,364.74,319.22,253.58Z" style="fill: #fff;stroke: #231f20;stroke-miterlimit: 10;stroke-width: 2px"/>
  </g>
  <text transform="translate(16.9 61.45)" style="font-size: 72px;fill: #ed1c24;font-family: LumberjackRough, Lumberjack;letter-spacing: -0.03999159071180555em">A</text>
  <g>
    <path d="M38.53,108.47A165.7,165.7,0,0,1,53.05,89.35c-5-6.5-9.85-12.87-14.72-19.25-.08.1-.31.34-.49.6-1,1.39-1.83,2.84-2.86,4.18-3.37,4.37-6.79,8.71-10.2,13.05-1.18,1.49-1.07,1.09-.05,2.39,2,2.53,4.06,5,6,7.53C33.37,101.34,35.92,104.9,38.53,108.47Z" style="fill: #ed1c24"/>
    <path d="M38.53,108.47c-2.61-3.57-5.16-7.13-7.8-10.62-1.94-2.55-4-5-6-7.53-1-1.3-1.13-.9.05-2.39,3.41-4.34,6.83-8.68,10.2-13.05,1-1.34,1.9-2.79,2.86-4.18.18-.26.41-.5.49-.6,4.87,6.38,9.75,12.75,14.72,19.25A165.7,165.7,0,0,0,38.53,108.47Z" style="fill: #ed1c24"/>
  </g>
  <g>
    <path d="M324.62,399.78h-328V107.71h328Zm-132.74-223c-4.28,8.85-8.2,17-12.21,25.18q-8.86,18-17.86,35.87c-.26.52-1,1.21-1.43,1.18a2.54,2.54,0,0,1-1.9-1c-2.38-4.65-4.62-9.36-6.92-14-3.07-6.22-6.17-12.44-9.22-18.67S136.46,193,133.45,187c-1.64-3.28-3.44-6.48-5.29-9.95a85.62,85.62,0,0,0-17.48,11.37,2.08,2.08,0,0,0-.49,1.92c1.52,3.34,3.19,6.63,4.84,9.92,5.75,11.49,11.55,23,17.28,34.48,4.32,8.67,8.67,17.33,12.79,26.1,1,2.14,3.2,4.19,1.92,6.92-1.62,3.48-3.38,6.9-5.1,10.34-3.67,7.36-7.37,14.71-11,22.08-3.1,6.2-6.16,12.42-9.24,18.63-2.83,5.68-5.7,11.33-8.5,17-3.06,6.23-6,12.5-9.1,18.73-2.92,5.91-6,11.74-8.84,17.69-1.64,3.44,0,6.9,3.65,8.47,2.64,1.15,5.26,2.36,7.83,3.64,3.79,1.89,6.37,1.31,8.4-2.2,1.33-2.3,2.48-4.7,3.64-7.08,3.52-7.23,6.94-14.51,10.51-21.72,4.58-9.21,9.35-18.32,13.9-27.55,5.13-10.37,10.09-20.82,15.19-31.21a2.72,2.72,0,0,1,1.86-1.42c.58,0,1.38.86,1.71,1.51,2.6,5.13,5.12,10.29,7.65,15.44,3,6.16,6,12.33,9,18.47,3,6,6,11.92,9,17.9s5.86,11.85,8.77,17.78,5.67,11.9,8.76,17.71c2,3.82,4.75,4.32,8.79,2.26,2.48-1.26,5-2.45,7.57-3.57,3.55-1.54,5.15-5,3.51-8.52-2.73-5.81-5.63-11.54-8.5-17.3-3.58-7.21-7.24-14.39-10.79-21.61S198.8,319.05,195.32,312c-3.64-7.38-7.38-14.71-11-22.08-2.93-5.9-5.63-11.92-8.8-17.69-1.95-3.54-3.68-6.78-.86-10.57a16,16,0,0,0,1.37-2.47c3.58-7.32,7.13-14.66,10.73-22,4.09-8.29,8.23-16.55,12.34-24.83,3.58-7.22,7.21-14.43,10.67-21.71a2.91,2.91,0,0,0-.67-2.69,79.81,79.81,0,0,0-7.4-5.33C198.61,180.67,195.45,178.88,191.88,176.75ZM55.42,145.88c-5.73,0-11.46.06-17.19,0-2,0-2.83.62-2.38,2.55,1.06,4.65,1.89,9.37,3.28,13.93a122.73,122.73,0,0,0,5.61,15.37,135.6,135.6,0,0,0,9.39,17.76c4.58,7.05,9.81,13.72,15,20.36,2.11,2.7,2.63,2.47,4.73-.12.82-1,1.55-2.07,2.37-3.08,6.15-7.58,12-15.48,18.57-22.66,10.58-11.48,23.78-19.49,38.21-25.72,2.9-1.25,4.28-2.49,3.06-4.94-4.28-8.6-8.38-17.27-12.58-25.9-1.61-3.32-2.77-3.67-5.79-2.31-8.17,3.69-16.08,7.93-24.84,10.32-8.56,2.34-17.15,4.32-26.07,4.47C63,145.94,59.21,145.88,55.42,145.88Zm228.73,2.69c.05-2.66,0-2.61-2.34-2.69-13.77-.51-27.65,1.53-41.32-1.58-5.28-1.2-10.77-1.81-15.8-3.65-7.75-2.85-15.22-6.45-22.72-9.93-1.87-.88-3-.69-3.94.92-1.38,2.46-2.64,5-3.89,7.51-3.15,6.37-6.35,12.73-9.36,19.17-1.52,3.24-.52,4.54,2.8,6.17,6.62,3.24,13.31,6.45,19.56,10.3,15.48,9.53,26.18,23.61,36.78,37.75,4.74,6.32,3.6,6.62,9.28.28a121.35,121.35,0,0,0,17.35-26.18c2.72-5.33,4.91-10.91,7.15-16.46,1.62-4,3.06-8.14,4.31-12.29C283,154.62,283.55,151.23,284.15,148.57Zm19.93-2.79v0c-2.56,0-5.13-.14-7.66.08a3.18,3.18,0,0,0-2.35,1.63c-1.56,5.77-2.69,11.65-4.4,17.38A126,126,0,0,1,284,180.55c-2.73,6.09-5.87,12-9.12,17.88A109,109,0,0,1,256,223.63c-1.68,1.64-1.54,2.81-.29,4.39,3.06,3.86,6.22,7.65,9.09,11.64,1.38,1.92,2.3,1.81,3.88.34a103.88,103.88,0,0,0,17-20.54c4.46-7,8.59-14.27,12.51-21.6a127,127,0,0,0,6.94-15.43,161.73,161.73,0,0,0,5.5-17.57c1.37-5.47,2.08-11.08,3.11-16.63.38-2-.66-2.55-2.53-2.48C308.84,145.84,306.46,145.78,304.08,145.78Zm-288,0v-.06c-2.47,0-4.94.08-7.4,0-1.83-.08-2.46.45-2.33,2.36a82.19,82.19,0,0,0,4.73,22.28c2.86,7.86,5.41,15.88,8.92,23.47,4.93,10.66,10.59,21,17.86,30.39,4.33,5.57,9.29,10.69,14,16,1.08,1.24,2,1.42,3.14-.07,3.08-4.06,6.27-8,9.41-12.05a2.52,2.52,0,0,0-.29-3.85c-8.23-8-14.62-17.29-20.19-27.1S33.18,177.08,30.22,166q-2.45-9.16-4.47-18.42c-.32-1.46-.88-1.85-2.24-1.82C21.05,145.85,18.58,145.82,16.11,145.82Zm87.71-18.21c-.85-1.89-1.39-3.23-2-4.51a25.09,25.09,0,0,0-2.15-3.78,5.89,5.89,0,0,0-7.22-2.07c-3.41,1.49-6.78,3.13-10,4.92s-3.46,5.89-.5,10.78c1.49,2.47,3.67.72,5.55.07.41-.14.84-.25,1.25-.39Zm112.6-.47c1.81.8,3.27,1.58,4.81,2.12,3.86,1.33,7.8,2.45,11.63,3.86,4.29,1.58,4.94,1.42,6.75-2.54s.63-7.11-3.33-9.07c-2.64-1.3-5.24-2.67-7.87-4a6,6,0,0,0-7.87,1.89C219,121.76,217.89,124.35,216.42,127.14Z" style="fill: none"/>
    <path d="M191.88,176.75c3.57,2.13,6.73,3.92,9.77,5.89a79.81,79.81,0,0,1,7.4,5.33,2.91,2.91,0,0,1,.67,2.69c-3.46,7.28-7.09,14.49-10.67,21.71-4.11,8.28-8.25,16.54-12.34,24.83-3.6,7.31-7.15,14.65-10.73,22a16,16,0,0,1-1.37,2.47c-2.82,3.79-1.09,7,.86,10.57,3.17,5.77,5.87,11.79,8.8,17.69,3.67,7.37,7.41,14.7,11,22.08,3.48,7.07,6.84,14.19,10.33,21.26s7.21,14.4,10.79,21.61c2.87,5.76,5.77,11.49,8.5,17.3,1.64,3.49,0,7-3.51,8.52-2.56,1.12-5.09,2.31-7.57,3.57-4,2.06-6.77,1.56-8.79-2.26-3.09-5.81-5.85-11.8-8.76-17.71s-5.82-11.86-8.77-17.78-6-11.92-9-17.9c-3-6.14-6-12.31-9-18.47-2.53-5.15-5-10.31-7.65-15.44-.33-.65-1.13-1.52-1.71-1.51a2.72,2.72,0,0,0-1.86,1.42c-5.1,10.39-10.06,20.84-15.19,31.21-4.55,9.23-9.32,18.34-13.9,27.55-3.57,7.21-7,14.49-10.51,21.72-1.16,2.38-2.31,4.78-3.64,7.08-2,3.51-4.61,4.09-8.4,2.2-2.57-1.28-5.19-2.49-7.83-3.64-3.62-1.57-5.29-5-3.65-8.47,2.83-5.95,5.92-11.78,8.84-17.69,3.07-6.23,6-12.5,9.1-18.73,2.8-5.7,5.67-11.35,8.5-17,3.08-6.21,6.14-12.43,9.24-18.63,3.67-7.37,7.37-14.72,11-22.08,1.72-3.44,3.48-6.86,5.1-10.34,1.28-2.73-.92-4.78-1.92-6.92-4.12-8.77-8.47-17.43-12.79-26.1-5.73-11.51-11.53-23-17.28-34.48-1.65-3.29-3.32-6.58-4.84-9.92a2.08,2.08,0,0,1,.49-1.92A85.62,85.62,0,0,1,128.16,177c1.85,3.47,3.65,6.67,5.29,9.95,3,6.06,5.91,12.18,8.89,18.26s6.15,12.45,9.22,18.67c2.3,4.68,4.54,9.39,6.92,14a2.54,2.54,0,0,0,1.9,1c.47,0,1.17-.66,1.43-1.18q9-17.91,17.86-35.87C183.68,193.79,187.6,185.6,191.88,176.75Z"/>
    <path d="M55.42,145.88c3.79,0,7.59.06,11.38,0,8.92-.15,17.51-2.13,26.07-4.47,8.76-2.39,16.67-6.63,24.84-10.32,3-1.36,4.18-1,5.79,2.31,4.2,8.63,8.3,17.3,12.58,25.9,1.22,2.45-.16,3.69-3.06,4.94-14.43,6.23-27.63,14.24-38.21,25.72-6.62,7.18-12.42,15.08-18.57,22.66-.82,1-1.55,2.07-2.37,3.08-2.1,2.59-2.62,2.82-4.73.12-5.2-6.64-10.43-13.31-15-20.36a135.6,135.6,0,0,1-9.39-17.76,122.73,122.73,0,0,1-5.61-15.37c-1.39-4.56-2.22-9.28-3.28-13.93-.45-1.93.39-2.58,2.38-2.55C44,145.94,49.69,145.88,55.42,145.88Z"/>
    <path d="M284.15,148.57c-.6,2.66-1.16,6.05-2.14,9.32-1.25,4.15-2.69,8.26-4.31,12.29-2.24,5.55-4.43,11.13-7.15,16.46a121.35,121.35,0,0,1-17.35,26.18c-5.68,6.34-4.54,6-9.28-.28-10.6-14.14-21.3-28.22-36.78-37.75-6.25-3.85-12.94-7.06-19.56-10.3-3.32-1.63-4.32-2.93-2.8-6.17,3-6.44,6.21-12.8,9.36-19.17,1.25-2.53,2.51-5.05,3.89-7.51.9-1.61,2.07-1.8,3.94-.92,7.5,3.48,15,7.08,22.72,9.93,5,1.84,10.52,2.45,15.8,3.65,13.67,3.11,27.55,1.07,41.32,1.58C284.17,146,284.2,145.91,284.15,148.57Z"/>
    <path d="M304.08,145.78c2.38,0,4.76.06,7.13,0,1.87-.07,2.91.43,2.53,2.48-1,5.55-1.74,11.16-3.11,16.63a161.73,161.73,0,0,1-5.5,17.57,127,127,0,0,1-6.94,15.43c-3.92,7.33-8.05,14.57-12.51,21.6a103.88,103.88,0,0,1-17,20.54c-1.58,1.47-2.5,1.58-3.88-.34-2.87-4-6-7.78-9.09-11.64-1.25-1.58-1.39-2.75.29-4.39a109,109,0,0,0,18.85-25.2c3.25-5.85,6.39-11.79,9.12-17.88a126,126,0,0,0,5.68-15.65c1.71-5.73,2.84-11.61,4.4-17.38a3.18,3.18,0,0,1,2.35-1.63c2.53-.22,5.1-.08,7.66-.08Z"/>
    <path d="M16.11,145.82c2.47,0,4.94,0,7.4,0,1.36,0,1.92.36,2.24,1.82q2,9.24,4.47,18.42c3,11,8.08,21.24,13.7,31.14s12,19.14,20.19,27.1a2.52,2.52,0,0,1,.29,3.85c-3.14,4-6.33,8-9.41,12.05-1.13,1.49-2.06,1.31-3.14.07-4.67-5.32-9.63-10.44-14-16C30.62,214.88,25,204.51,20,193.85c-3.51-7.59-6.06-15.61-8.92-23.47A82.19,82.19,0,0,1,6.38,148.1c-.13-1.91.5-2.44,2.33-2.36,2.46.1,4.93,0,7.4,0Z"/>
    <path d="M103.82,127.61l-15.15,5c-.41.14-.84.25-1.25.39-1.88.65-4.06,2.4-5.55-.07-3-4.89-2.68-9,.5-10.78s6.63-3.43,10-4.92a5.89,5.89,0,0,1,7.22,2.07,25.09,25.09,0,0,1,2.15,3.78C102.43,124.38,103,125.72,103.82,127.61Z"/>
    <path d="M216.42,127.14c1.47-2.79,2.59-5.38,4.12-7.73a6,6,0,0,1,7.87-1.89c2.63,1.32,5.23,2.69,7.87,4,4,2,5.13,5.1,3.33,9.07s-2.46,4.12-6.75,2.54c-3.83-1.41-7.77-2.53-11.63-3.86C219.69,128.72,218.23,127.94,216.42,127.14Z"/>
  </g>
  <g>
    <path d="M160.85,375.13a1049.13,1049.13,0,0,1,91.87-121L159.57,132.33a42.33,42.33,0,0,0-3.12,3.82c-6,8.8-11.54,18-18.06,26.43-21.33,27.67-43,55.1-64.58,82.58-7.44,9.47-6.78,6.92-.31,15.16,12.52,16,25.72,31.49,38,47.66C128.21,330.07,144.33,352.6,160.85,375.13Z" style="fill: #ed1c24"/>
    <path d="M160.85,375.13c-16.52-22.53-32.64-45.06-49.38-67.15C99.22,291.81,86,276.3,73.5,260.32c-6.47-8.24-7.13-5.69.31-15.16,21.58-27.48,43.25-54.91,64.58-82.58,6.52-8.45,12-17.63,18.06-26.43a42.33,42.33,0,0,1,3.12-3.82l93.15,121.83A1049.13,1049.13,0,0,0,160.85,375.13Z" style="fill: #ed1c24"/>
  </g>
</svg>
