<svg id="Layer_1" data-name="Layer 1" xmlns="http://www.w3.org/2000/svg" width="113.31mm" height="179.03mm" viewBox="0 0 321.19 507.49">
  <title>s-9</title>
  <g>
    <path d="M1,253.7Q1,364.39,1,475.08c0,11.37,4,20.35,13.17,26.67a26.85,26.85,0,0,0,15.59,4.74H79.55q105.59,0,211.16,0c12.62,0,22-6,27-18,1.77-4.21,2.31-9.26,2.31-13.93q.21-126.25.1-252.51c0-63.31-.12-126.62.08-189.93.05-15.87-9.91-27.34-22-30.22A38.55,38.55,0,0,0,289.29,1q-129-.08-258,0C13,1,1.05,13.37,1.05,32.32Q1,143,1,253.7Zm318.18-.12q0,111.15,0,222.31c0,17.13-11.86,29.5-28.3,29.5q-130.34,0-260.66,0c-16.45,0-28.31-12.39-28.31-29.5q0-222.15,0-444.32c0-17.12,11.88-29.51,28.3-29.51q130.34,0,260.66,0a26.76,26.76,0,0,1,5.37.38c14,2.83,22.94,14.19,22.94,29.12Q319.24,142.57,319.22,253.58Z" style="fill: #fff;stroke: #231f20;stroke-miterlimit: 10;stroke-width: 2px"/>
    <path d="M319.22,253.58q0-111,0-222c0-14.93-8.95-26.29-22.94-29.12a26.76,26.76,0,0,0-5.37-.38q-130.32,0-260.66,0c-16.42,0-28.3,12.39-28.3,29.51q0,222.17,0,444.32c0,17.11,11.86,29.5,28.31,29.5q130.32,0,260.66,0c16.44,0,28.3-12.37,28.3-29.5Q319.24,364.74,319.22,253.58Z" style="fill: #fff;stroke: #231f20;stroke-miterlimit: 10;stroke-width: 2px"/>
  </g>
  <text transform="translate(20.48 61.45)" style="font-size: 72px;fill: #231f20;font-family: LumberjackRough, Lumberjack">9</text>
  <g>
    <path d="M43.1,102.47C41,99.75,39,97.22,39.65,93.64l1.45.94a8.38,8.38,0,0,0,12.76-8.1c-.27-3.53-2.23-6.31-4.79-8.75-1.92-1.84-4-3.52-5.92-5.36-2.08-2-4-4.12-6-6.15-1.39,1.53-2.77,3.2-4.33,4.73-2.54,2.5-5.26,4.84-7.78,7.35C22.37,81,20.57,84,20.7,87.83a7.42,7.42,0,0,0,4.73,7A8.6,8.6,0,0,0,34,94.2a7.89,7.89,0,0,1,.81-.39c1,3.51-.95,6-2.94,8.66Z" style="fill: #231f20"/>
    <path d="M43.1,102.47H31.89c2-2.62,3.92-5.15,2.94-8.66a7.89,7.89,0,0,0-.81.39,8.6,8.6,0,0,1-8.59.67,7.42,7.42,0,0,1-4.73-7C20.57,84,22.37,81,25,78.3c2.52-2.51,5.24-4.85,7.78-7.35,1.56-1.53,2.94-3.2,4.33-4.73,2,2,3.93,4.15,6,6.15,1.91,1.84,4,3.52,5.92,5.36,2.56,2.44,4.52,5.22,4.79,8.75a8.38,8.38,0,0,1-12.76,8.1l-1.45-.94C39,97.22,41,99.75,43.1,102.47Z"/>
  </g>
  <g>
    <path d="M91.27,165.12c-3.39-4.41-6.68-8.51-5.59-14.32,1,.64,1.66,1.1,2.36,1.53a13.57,13.57,0,0,0,20.67-13.12c-.44-5.73-3.62-10.23-7.76-14.19-3.11-3-6.51-5.69-9.6-8.68-3.37-3.24-6.53-6.67-9.73-10-2.25,2.48-4.5,5.2-7,7.67-4.13,4-8.53,7.84-12.62,11.92-4.31,4.3-7.22,9.29-7,15.44.18,5.18,2.59,9.24,7.65,11.41a14,14,0,0,0,13.93-1.1,11.66,11.66,0,0,1,1.3-.62c1.6,5.67-1.53,9.78-4.75,14Z" style="fill: #231f20"/>
    <path d="M91.27,165.12H73.11c3.22-4.25,6.35-8.36,4.75-14a11.66,11.66,0,0,0-1.3.62,14,14,0,0,1-13.93,1.1c-5.06-2.17-7.47-6.23-7.65-11.41-.21-6.15,2.7-11.14,7-15.44,4.09-4.08,8.49-7.88,12.62-11.92,2.51-2.47,4.76-5.19,7-7.67,3.2,3.3,6.36,6.73,9.73,10,3.09,3,6.49,5.71,9.6,8.68,4.14,4,7.32,8.46,7.76,14.19A13.57,13.57,0,0,1,88,152.33c-.7-.43-1.38-.89-2.36-1.53C84.59,156.61,87.88,160.71,91.27,165.12Z"/>
  </g>
  <g>
    <path d="M91.27,271.66c-3.39-4.4-6.68-8.5-5.59-14.31,1,.64,1.66,1.1,2.36,1.53a13.51,13.51,0,0,0,15.39-.7c4.16-3.22,5.66-7.53,5.28-12.43-.44-5.72-3.62-10.23-7.76-14.18-3.11-3-6.51-5.69-9.6-8.68-3.37-3.25-6.53-6.67-9.73-10-2.25,2.48-4.5,5.19-7,7.66-4.13,4-8.53,7.84-12.62,11.92-4.31,4.31-7.22,9.29-7,15.45.18,5.18,2.59,9.24,7.65,11.4a14,14,0,0,0,13.93-1.09,11.47,11.47,0,0,1,1.3-.63c1.6,5.68-1.53,9.78-4.75,14Z" style="fill: #231f20"/>
    <path d="M91.27,271.66H73.11c3.22-4.25,6.35-8.35,4.75-14a11.47,11.47,0,0,0-1.3.63,14,14,0,0,1-13.93,1.09c-5.06-2.16-7.47-6.22-7.65-11.4-.21-6.16,2.7-11.14,7-15.45,4.09-4.08,8.49-7.87,12.62-11.92,2.51-2.47,4.76-5.18,7-7.66,3.2,3.3,6.36,6.72,9.73,10,3.09,3,6.49,5.7,9.6,8.68,4.14,4,7.32,8.46,7.76,14.18.38,4.9-1.12,9.21-5.28,12.43a13.51,13.51,0,0,1-15.39.7c-.7-.43-1.38-.89-2.36-1.53C84.59,263.16,87.88,267.26,91.27,271.66Z"/>
  </g>
  <g>
    <path d="M91.27,372.15c-3.39-4.4-6.68-8.51-5.59-14.31,1,.64,1.66,1.09,2.36,1.52a13.51,13.51,0,0,0,15.39-.69c4.16-3.23,5.66-7.53,5.28-12.43-.44-5.72-3.62-10.23-7.76-14.19-3.11-3-6.51-5.69-9.6-8.68-3.37-3.24-6.53-6.66-9.73-10-2.25,2.47-4.5,5.19-7,7.66C70.48,325.12,66.08,328.91,62,333c-4.31,4.31-7.22,9.29-7,15.44.18,5.19,2.59,9.24,7.65,11.41a14,14,0,0,0,13.93-1.1,13.77,13.77,0,0,1,1.3-.62c1.6,5.68-1.53,9.78-4.75,14Z" style="fill: #231f20"/>
    <path d="M91.27,372.15H73.11c3.22-4.25,6.35-8.35,4.75-14a13.77,13.77,0,0,0-1.3.62,14,14,0,0,1-13.93,1.1c-5.06-2.17-7.47-6.22-7.65-11.41-.21-6.15,2.7-11.13,7-15.44,4.09-4.08,8.49-7.87,12.62-11.92,2.51-2.47,4.76-5.19,7-7.66,3.2,3.3,6.36,6.72,9.73,10,3.09,3,6.49,5.71,9.6,8.68,4.14,4,7.32,8.47,7.76,14.19.38,4.9-1.12,9.2-5.28,12.43a13.51,13.51,0,0,1-15.39.69c-.7-.43-1.38-.88-2.36-1.52C84.59,363.64,87.88,367.75,91.27,372.15Z"/>
  </g>
  <g>
    <path d="M91.27,472.64c-3.39-4.41-6.68-8.51-5.59-14.32,1,.64,1.66,1.1,2.36,1.53a13.57,13.57,0,0,0,20.67-13.12c-.44-5.73-3.62-10.23-7.76-14.19-3.11-3-6.51-5.69-9.6-8.68-3.37-3.24-6.53-6.67-9.73-10-2.25,2.48-4.5,5.19-7,7.67-4.13,4-8.53,7.84-12.62,11.91-4.31,4.31-7.22,9.3-7,15.45.18,5.18,2.59,9.24,7.65,11.41a14,14,0,0,0,13.93-1.1,13.49,13.49,0,0,1,1.3-.63c1.6,5.68-1.53,9.79-4.75,14Z" style="fill: #231f20"/>
    <path d="M91.27,472.64H73.11c3.22-4.25,6.35-8.36,4.75-14a13.49,13.49,0,0,0-1.3.63,14,14,0,0,1-13.93,1.1c-5.06-2.17-7.47-6.23-7.65-11.41-.21-6.15,2.7-11.14,7-15.45,4.09-4.07,8.49-7.87,12.62-11.91,2.51-2.48,4.76-5.19,7-7.67,3.2,3.3,6.36,6.73,9.73,10,3.09,3,6.49,5.71,9.6,8.68,4.14,4,7.32,8.46,7.76,14.19A13.57,13.57,0,0,1,88,459.85c-.7-.43-1.38-.89-2.36-1.53C84.59,464.13,87.88,468.23,91.27,472.64Z"/>
  </g>
  <g>
    <path d="M170,319.15c-3.4-4.4-6.68-8.51-5.6-14.31,1,.64,1.67,1.1,2.36,1.53a13.58,13.58,0,0,0,20.68-13.13c-.44-5.72-3.62-10.23-7.76-14.18-3.11-3-6.51-5.7-9.61-8.68-3.36-3.25-6.52-6.67-9.73-10-2.24,2.47-4.49,5.19-7,7.66-4.12,4.05-8.53,7.84-12.61,11.92-4.31,4.31-7.23,9.29-7,15.45.18,5.18,2.59,9.24,7.65,11.4a14,14,0,0,0,13.93-1.1,12.66,12.66,0,0,1,1.3-.62c1.59,5.68-1.53,9.78-4.75,14Z" style="fill: #231f20"/>
    <path d="M170,319.15H151.84c3.22-4.25,6.34-8.35,4.75-14a12.66,12.66,0,0,0-1.3.62,14,14,0,0,1-13.93,1.1c-5.06-2.16-7.47-6.22-7.65-11.4-.22-6.16,2.7-11.14,7-15.45,4.08-4.08,8.49-7.87,12.61-11.92,2.52-2.47,4.77-5.19,7-7.66,3.21,3.3,6.37,6.72,9.73,10,3.1,3,6.5,5.7,9.61,8.68,4.14,3.95,7.32,8.46,7.76,14.18a13.58,13.58,0,0,1-20.68,13.13c-.69-.43-1.37-.89-2.36-1.53C163.32,310.64,166.6,314.75,170,319.15Z"/>
  </g>
  <g>
    <path d="M248.73,165.12c-3.4-4.41-6.68-8.51-5.6-14.32,1,.64,1.66,1.1,2.36,1.53a13.51,13.51,0,0,0,15.39-.69c4.16-3.23,5.66-7.54,5.29-12.43-.44-5.73-3.63-10.23-7.76-14.19-3.11-3-6.51-5.69-9.61-8.68-3.36-3.24-6.52-6.67-9.73-10-2.25,2.48-4.49,5.2-7,7.67-4.12,4-8.53,7.84-12.61,11.92-4.31,4.3-7.23,9.29-7,15.44.18,5.18,2.59,9.24,7.65,11.41a14,14,0,0,0,13.93-1.1,10.15,10.15,0,0,1,1.3-.62c1.59,5.67-1.53,9.78-4.76,14Z" style="fill: #231f20"/>
    <path d="M248.73,165.12H230.56c3.23-4.25,6.35-8.36,4.76-14a10.15,10.15,0,0,0-1.3.62,14,14,0,0,1-13.93,1.1c-5.06-2.17-7.47-6.23-7.65-11.41-.22-6.15,2.7-11.14,7-15.44,4.08-4.08,8.49-7.88,12.61-11.92,2.52-2.47,4.76-5.19,7-7.67,3.21,3.3,6.37,6.73,9.73,10,3.1,3,6.5,5.71,9.61,8.68,4.13,4,7.32,8.46,7.76,14.19.37,4.89-1.13,9.2-5.29,12.43a13.51,13.51,0,0,1-15.39.69c-.7-.43-1.37-.89-2.36-1.53C242.05,156.61,245.33,160.71,248.73,165.12Z"/>
  </g>
  <g>
    <path d="M248.73,260.44c-3.4-4.41-6.68-8.51-5.6-14.32,1,.64,1.66,1.1,2.36,1.53a13.51,13.51,0,0,0,15.39-.69c4.16-3.23,5.66-7.54,5.29-12.43-.44-5.73-3.63-10.23-7.76-14.19-3.11-3-6.51-5.69-9.61-8.68-3.36-3.24-6.52-6.67-9.73-10-2.25,2.48-4.49,5.19-7,7.67-4.12,4-8.53,7.84-12.61,11.91-4.31,4.31-7.23,9.3-7,15.45.18,5.18,2.59,9.24,7.65,11.41A14,14,0,0,0,234,247a11.49,11.49,0,0,1,1.3-.63c1.59,5.68-1.53,9.79-4.76,14Z" style="fill: #231f20"/>
    <path d="M248.73,260.44H230.56c3.23-4.25,6.35-8.36,4.76-14a11.49,11.49,0,0,0-1.3.63,14,14,0,0,1-13.93,1.1c-5.06-2.17-7.47-6.23-7.65-11.41-.22-6.15,2.7-11.14,7-15.45,4.08-4.07,8.49-7.87,12.61-11.91,2.52-2.48,4.76-5.19,7-7.67,3.21,3.3,6.37,6.73,9.73,10,3.1,3,6.5,5.7,9.61,8.68,4.13,4,7.32,8.46,7.76,14.19.37,4.89-1.13,9.2-5.29,12.43a13.51,13.51,0,0,1-15.39.69c-.7-.43-1.37-.89-2.36-1.53C242.05,251.93,245.33,256,248.73,260.44Z"/>
  </g>
  <g>
    <path d="M248.73,373.92c-3.4-4.41-6.68-8.51-5.6-14.32,1,.64,1.66,1.1,2.36,1.53a13.51,13.51,0,0,0,15.39-.7c4.16-3.22,5.66-7.53,5.29-12.42-.44-5.73-3.63-10.24-7.76-14.19-3.11-3-6.51-5.69-9.61-8.68-3.36-3.25-6.52-6.67-9.73-10-2.25,2.48-4.49,5.19-7,7.67-4.12,4-8.53,7.83-12.61,11.91-4.31,4.31-7.23,9.29-7,15.45.18,5.18,2.59,9.24,7.65,11.41a14,14,0,0,0,13.93-1.1,10,10,0,0,1,1.3-.63c1.59,5.68-1.53,9.79-4.76,14Z" style="fill: #231f20"/>
    <path d="M248.73,373.92H230.56c3.23-4.25,6.35-8.36,4.76-14a10,10,0,0,0-1.3.63,14,14,0,0,1-13.93,1.1c-5.06-2.17-7.47-6.23-7.65-11.41-.22-6.16,2.7-11.14,7-15.45,4.08-4.08,8.49-7.87,12.61-11.91,2.52-2.48,4.76-5.19,7-7.67,3.21,3.3,6.37,6.72,9.73,10,3.1,3,6.5,5.7,9.61,8.68,4.13,3.95,7.32,8.46,7.76,14.19.37,4.89-1.13,9.2-5.29,12.42a13.51,13.51,0,0,1-15.39.7c-.7-.43-1.37-.89-2.36-1.53C242.05,365.41,245.33,369.51,248.73,373.92Z"/>
  </g>
  <g>
    <path d="M248.73,476.17c-3.4-4.41-6.68-8.51-5.6-14.32,1,.64,1.66,1.1,2.36,1.53a13.51,13.51,0,0,0,15.39-.69c4.16-3.23,5.66-7.54,5.29-12.43-.44-5.73-3.63-10.23-7.76-14.19-3.11-3-6.51-5.69-9.61-8.68-3.36-3.24-6.52-6.67-9.73-10-2.25,2.48-4.49,5.19-7,7.67-4.12,4-8.53,7.84-12.61,11.91-4.31,4.31-7.23,9.3-7,15.45.18,5.18,2.59,9.24,7.65,11.41a14,14,0,0,0,13.93-1.1,11.49,11.49,0,0,1,1.3-.63c1.59,5.68-1.53,9.79-4.76,14Z" style="fill: #231f20"/>
    <path d="M248.73,476.17H230.56c3.23-4.25,6.35-8.36,4.76-14a11.49,11.49,0,0,0-1.3.63,14,14,0,0,1-13.93,1.1c-5.06-2.17-7.47-6.23-7.65-11.41-.22-6.15,2.7-11.14,7-15.45,4.08-4.07,8.49-7.87,12.61-11.91,2.52-2.48,4.76-5.19,7-7.67,3.21,3.3,6.37,6.73,9.73,10,3.1,3,6.5,5.71,9.61,8.68,4.13,4,7.32,8.46,7.76,14.19.37,4.89-1.13,9.2-5.29,12.43a13.51,13.51,0,0,1-15.39.69c-.7-.43-1.37-.89-2.36-1.53C242.05,467.66,245.33,471.76,248.73,476.17Z"/>
  </g>
</svg>
