<svg id="Layer_1" data-name="Layer 1" xmlns="http://www.w3.org/2000/svg" width="113.31mm" height="179.03mm" viewBox="0 0 321.19 507.49">
  <title>h-10</title>
  <g>
    <path d="M1,253.7Q1,364.39,1,475.08c0,11.37,4,20.35,13.17,26.67a26.85,26.85,0,0,0,15.59,4.74H79.55q105.59,0,211.16,0c12.62,0,22-6,27-18,1.77-4.21,2.31-9.26,2.31-13.93q.21-126.25.1-252.51c0-63.31-.12-126.62.08-189.93.05-15.87-9.91-27.34-22-30.22A38.55,38.55,0,0,0,289.29,1q-129-.08-258,0C13,1,1.05,13.37,1.05,32.32Q1,143,1,253.7Zm318.18-.12q0,111.15,0,222.31c0,17.13-11.86,29.5-28.3,29.5q-130.34,0-260.66,0c-16.45,0-28.31-12.39-28.31-29.5q0-222.15,0-444.32c0-17.12,11.88-29.51,28.3-29.51q130.34,0,260.66,0a26.76,26.76,0,0,1,5.37.38c14,2.83,22.94,14.19,22.94,29.12Q319.24,142.57,319.22,253.58Z" style="fill: #fff;stroke: #231f20;stroke-miterlimit: 10;stroke-width: 2px"/>
    <path d="M319.22,253.58q0-111,0-222c0-14.93-8.95-26.29-22.94-29.12a26.76,26.76,0,0,0-5.37-.38q-130.32,0-260.66,0c-16.42,0-28.3,12.39-28.3,29.51q0,222.17,0,444.32c0,17.11,11.86,29.5,28.31,29.5q130.32,0,260.66,0c16.44,0,28.3-12.37,28.3-29.5Q319.24,364.74,319.22,253.58Z" style="fill: #fff;stroke: #231f20;stroke-miterlimit: 10;stroke-width: 2px"/>
  </g>
  <g>
    <text transform="translate(14.48 61.45)" style="font-size: 72px;fill: #ed1c24;font-family: LumberjackRough, Lumberjack"><tspan style="letter-spacing: -0.019992404513888888em">1</tspan><tspan x="18.43" y="0">0</tspan></text>
    <path d="M38.32,73.92c.08-.34.16-.69.25-1a12.77,12.77,0,0,1,1.65-4,7.26,7.26,0,0,1,5.63-3.32,11.44,11.44,0,0,1,5.48.65,7.82,7.82,0,0,1,5,5.72,12.58,12.58,0,0,1,0,5A16.74,16.74,0,0,1,52,85.48a74.81,74.81,0,0,1-5.59,5.38,66.75,66.75,0,0,0-5.17,5.06,29.16,29.16,0,0,0-2.77,3.62l-.14.21-.08-.1A34.66,34.66,0,0,0,32.52,93c-1.84-1.72-3.72-3.4-5.57-5.13a30,30,0,0,1-4.18-4.7,15.3,15.3,0,0,1-2.64-6.62,11.91,11.91,0,0,1,.14-4.72,8.22,8.22,0,0,1,7.1-6.16,11.81,11.81,0,0,1,4.7.15,7.16,7.16,0,0,1,4.48,3.36,13.89,13.89,0,0,1,1.56,4.1c.06.22.11.43.16.65Z" style="fill: #ed1c24"/>
    <g>
      <path d="M81.92,119.48c.15-.64.3-1.28.46-1.92a24.41,24.41,0,0,1,3.07-7.46A13.65,13.65,0,0,1,96,103.9a21.46,21.46,0,0,1,10.24,1.22,14.6,14.6,0,0,1,9.38,10.67,23.35,23.35,0,0,1,.07,9.42c-1,6.08-4.08,11.22-8.26,15.86a141.56,141.56,0,0,1-10.44,10,125,125,0,0,0-9.66,9.46,55,55,0,0,0-5.17,6.76l-.27.39-.15-.19A64.14,64.14,0,0,0,71.08,155.1c-3.44-3.22-7-6.36-10.4-9.58a57.07,57.07,0,0,1-7.81-8.79,28.4,28.4,0,0,1-4.93-12.36,22.39,22.39,0,0,1,.25-8.82c1.6-6.24,6.48-10.46,13.26-11.49a22,22,0,0,1,8.79.28,13.27,13.27,0,0,1,8.37,6.28,26.3,26.3,0,0,1,2.92,7.64c.09.41.19.82.29,1.22Z" style="fill: #ed1c24"/>
      <path d="M81.92,433.33c.15-.65.3-1.3.47-1.94a24.35,24.35,0,0,1,3.09-7.53,13.81,13.81,0,0,1,10.62-6.25,21.54,21.54,0,0,1,10.32,1.24,14.69,14.69,0,0,1,9.46,10.76,23.34,23.34,0,0,1,.07,9.49c-1,6.13-4.11,11.31-8.32,16A143.84,143.84,0,0,1,97.1,465.21a127.31,127.31,0,0,0-9.74,9.55,54.18,54.18,0,0,0-5.22,6.81l-.27.39a1.55,1.55,0,0,1-.15-.18A65,65,0,0,0,71,469.24c-3.47-3.24-7-6.42-10.48-9.66a57,57,0,0,1-7.88-8.86,28.78,28.78,0,0,1-5-12.46,22.42,22.42,0,0,1,.25-8.9c1.61-6.29,6.53-10.54,13.37-11.59a22.21,22.21,0,0,1,8.86.29,13.37,13.37,0,0,1,8.45,6.33,26.35,26.35,0,0,1,2.93,7.71l.3,1.23Z" style="fill: #ed1c24"/>
      <path d="M239.37,119c.16-.65.31-1.3.47-1.94a24.56,24.56,0,0,1,3.1-7.52,13.78,13.78,0,0,1,10.61-6.26,21.58,21.58,0,0,1,10.33,1.24,14.72,14.72,0,0,1,9.46,10.76,23.51,23.51,0,0,1,.06,9.49c-1,6.14-4.11,11.32-8.32,16-3.25,3.6-6.91,6.84-10.53,10.12a127.15,127.15,0,0,0-9.74,9.54,54.42,54.42,0,0,0-5.21,6.82l-.27.39c-.07-.09-.12-.14-.15-.19a64.6,64.6,0,0,0-10.74-12.53c-3.46-3.25-7-6.42-10.48-9.67a56.47,56.47,0,0,1-7.87-8.86,28.58,28.58,0,0,1-5-12.46,22.37,22.37,0,0,1,.26-8.89c1.6-6.3,6.53-10.55,13.37-11.59a22,22,0,0,1,8.85.28A13.41,13.41,0,0,1,236,110a26.48,26.48,0,0,1,2.94,7.71c.1.41.19.82.29,1.23Z" style="fill: #ed1c24"/>
      <path d="M239.37,433.55c.16-.65.31-1.3.47-1.94a24.62,24.62,0,0,1,3.1-7.53,13.79,13.79,0,0,1,10.61-6.25,21.58,21.58,0,0,1,10.33,1.24,14.72,14.72,0,0,1,9.46,10.76,23.51,23.51,0,0,1,.06,9.49c-1,6.13-4.11,11.32-8.32,16a144.06,144.06,0,0,1-10.53,10.13,127.15,127.15,0,0,0-9.74,9.54,55.06,55.06,0,0,0-5.21,6.81c-.08.13-.17.24-.27.39a1.55,1.55,0,0,1-.15-.18,64.65,64.65,0,0,0-10.74-12.54c-3.46-3.24-7-6.42-10.48-9.66a56.47,56.47,0,0,1-7.87-8.86,28.58,28.58,0,0,1-5-12.46,22.37,22.37,0,0,1,.26-8.89c1.6-6.3,6.53-10.55,13.37-11.6a22.17,22.17,0,0,1,8.85.29,13.41,13.41,0,0,1,8.45,6.33,26.48,26.48,0,0,1,2.94,7.71c.1.41.19.82.29,1.23Z" style="fill: #ed1c24"/>
      <path d="M157.73,162.52c.15-.65.3-1.3.47-1.94a24.3,24.3,0,0,1,3.09-7.52,13.79,13.79,0,0,1,10.62-6.26A21.54,21.54,0,0,1,182.23,148a14.69,14.69,0,0,1,9.46,10.76,23.34,23.34,0,0,1,.07,9.49c-1,6.14-4.11,11.32-8.32,16-3.26,3.6-6.91,6.84-10.53,10.12a125.35,125.35,0,0,0-9.74,9.54,53.56,53.56,0,0,0-5.22,6.82l-.27.39c-.07-.09-.12-.14-.15-.19a64.89,64.89,0,0,0-10.73-12.53c-3.47-3.25-7-6.42-10.48-9.67a56.53,56.53,0,0,1-7.88-8.86,28.68,28.68,0,0,1-5-12.46,22.37,22.37,0,0,1,.25-8.89c1.61-6.3,6.53-10.55,13.37-11.59a22,22,0,0,1,8.86.28,13.43,13.43,0,0,1,8.45,6.33,26.45,26.45,0,0,1,2.93,7.71l.3,1.23Z" style="fill: #ed1c24"/>
      <path d="M160.55,408.15c-.15.65-.3,1.3-.46,1.94a24.36,24.36,0,0,1-3.07,7.54,13.74,13.74,0,0,1-10.59,6.29,21.58,21.58,0,0,1-10.33-1.19A14.72,14.72,0,0,1,126.6,412a23.38,23.38,0,0,1-.1-9.5c1-6.13,4.06-11.33,8.26-16a146,146,0,0,1,10.48-10.17,123.43,123.43,0,0,0,9.7-9.57,55,55,0,0,0,5.19-6.84l.27-.39a1.55,1.55,0,0,1,.15.18,64.68,64.68,0,0,0,10.79,12.49c3.48,3.24,7,6.39,10.52,9.63a57,57,0,0,1,7.91,8.82,28.86,28.86,0,0,1,5,12.44,22.41,22.41,0,0,1-.22,8.9c-1.58,6.3-6.49,10.57-13.32,11.64a22,22,0,0,1-8.86-.25,13.38,13.38,0,0,1-8.47-6.29,26.49,26.49,0,0,1-3-7.7l-.3-1.23Z" style="fill: #ed1c24"/>
      <path d="M239.37,218.61c.16-.64.3-1.28.47-1.92a24.16,24.16,0,0,1,3.07-7.46,13.64,13.64,0,0,1,10.53-6.2,21.41,21.41,0,0,1,10.23,1.22,14.6,14.6,0,0,1,9.39,10.67,23.35,23.35,0,0,1,.06,9.42c-1,6.08-4.07,11.22-8.25,15.86-3.23,3.58-6.86,6.79-10.44,10a123.28,123.28,0,0,0-9.66,9.46,55.07,55.07,0,0,0-5.18,6.76c-.07.12-.16.24-.26.39a1.49,1.49,0,0,1-.15-.19,64.54,64.54,0,0,0-10.65-12.43c-3.43-3.22-6.95-6.36-10.39-9.58a56.49,56.49,0,0,1-7.81-8.79,28.54,28.54,0,0,1-4.94-12.36,22.2,22.2,0,0,1,.26-8.82c1.59-6.24,6.47-10.46,13.26-11.49a22,22,0,0,1,8.78.28,13.32,13.32,0,0,1,8.38,6.28,26.28,26.28,0,0,1,2.91,7.64c.1.41.2.82.29,1.22Z" style="fill: #ed1c24"/>
      <path d="M239.37,328.29c.16-.64.3-1.28.47-1.92a24.27,24.27,0,0,1,3.07-7.46,13.64,13.64,0,0,1,10.53-6.2,21.41,21.41,0,0,1,10.23,1.22,14.61,14.61,0,0,1,9.39,10.67,23.35,23.35,0,0,1,.06,9.42c-1,6.08-4.07,11.22-8.25,15.86-3.23,3.58-6.86,6.79-10.44,10a125.09,125.09,0,0,0-9.66,9.46,55.07,55.07,0,0,0-5.18,6.76c-.07.12-.16.24-.26.39a1.49,1.49,0,0,1-.15-.19,64.84,64.84,0,0,0-10.65-12.43c-3.43-3.22-6.95-6.36-10.39-9.58a56.42,56.42,0,0,1-7.81-8.78,28.63,28.63,0,0,1-4.94-12.37,22.21,22.21,0,0,1,.26-8.82c1.59-6.24,6.47-10.46,13.26-11.49a22,22,0,0,1,8.78.28,13.32,13.32,0,0,1,8.38,6.28,26.23,26.23,0,0,1,2.91,7.65c.1.4.2.81.29,1.21Z" style="fill: #ed1c24"/>
      <path d="M81.92,223.39c.15-.64.3-1.28.46-1.92A24.41,24.41,0,0,1,85.45,214,13.65,13.65,0,0,1,96,207.81,21.46,21.46,0,0,1,106.22,209a14.6,14.6,0,0,1,9.38,10.67,23.35,23.35,0,0,1,.07,9.42c-1,6.08-4.08,11.22-8.26,15.86A141.56,141.56,0,0,1,97,255a126.9,126.9,0,0,0-9.66,9.46,55,55,0,0,0-5.17,6.76l-.27.39-.15-.19A64.43,64.43,0,0,0,71.08,259c-3.44-3.22-7-6.36-10.4-9.58a57.07,57.07,0,0,1-7.81-8.79,28.4,28.4,0,0,1-4.93-12.36,22.39,22.39,0,0,1,.25-8.82c1.6-6.24,6.48-10.46,13.26-11.49a22,22,0,0,1,8.79.28,13.27,13.27,0,0,1,8.37,6.28,26.3,26.3,0,0,1,2.92,7.64c.09.41.19.82.29,1.22Z" style="fill: #ed1c24"/>
      <path d="M81.92,328.29c.15-.64.3-1.28.46-1.92a24.51,24.51,0,0,1,3.07-7.46A13.65,13.65,0,0,1,96,312.71a21.46,21.46,0,0,1,10.24,1.22,14.6,14.6,0,0,1,9.38,10.67,23.35,23.35,0,0,1,.07,9.42c-1,6.08-4.08,11.22-8.26,15.86a141.56,141.56,0,0,1-10.44,10,126.9,126.9,0,0,0-9.66,9.46,55,55,0,0,0-5.17,6.76l-.27.39-.15-.19a64.43,64.43,0,0,0-10.64-12.43c-3.44-3.22-7-6.36-10.4-9.58a57.47,57.47,0,0,1-7.81-8.78,28.49,28.49,0,0,1-4.93-12.37,22.4,22.4,0,0,1,.25-8.82c1.6-6.24,6.48-10.46,13.26-11.49a22,22,0,0,1,8.79.28,13.27,13.27,0,0,1,8.37,6.28,26.25,26.25,0,0,1,2.92,7.65c.09.4.19.81.29,1.21Z" style="fill: #ed1c24"/>
    </g>
  </g>
</svg>
