<svg id="Layer_1" data-name="Layer 1" xmlns="http://www.w3.org/2000/svg" width="113.31mm" height="179.03mm" viewBox="0 0 321.19 507.49">
  <title>h-2</title>
  <g>
    <path d="M1,253.7Q1,364.39,1,475.08c0,11.37,4,20.35,13.17,26.67a26.85,26.85,0,0,0,15.59,4.74H79.55q105.59,0,211.16,0c12.62,0,22-6,27-18,1.77-4.21,2.31-9.26,2.31-13.93q.21-126.25.1-252.51c0-63.31-.12-126.62.08-189.93.05-15.87-9.91-27.34-22-30.22A38.55,38.55,0,0,0,289.29,1q-129-.08-258,0C13,1,1.05,13.37,1.05,32.32Q1,143,1,253.7Zm318.18-.12q0,111.15,0,222.31c0,17.13-11.86,29.5-28.3,29.5q-130.34,0-260.66,0c-16.45,0-28.31-12.39-28.31-29.5q0-222.15,0-444.32c0-17.12,11.88-29.51,28.3-29.51q130.34,0,260.66,0a26.76,26.76,0,0,1,5.37.38c14,2.83,22.94,14.19,22.94,29.12Q319.24,142.57,319.22,253.58Z" style="fill: #fff;stroke: #231f20;stroke-miterlimit: 10;stroke-width: 2px"/>
    <path d="M319.22,253.58q0-111,0-222c0-14.93-8.95-26.29-22.94-29.12a26.76,26.76,0,0,0-5.37-.38q-130.32,0-260.66,0c-16.42,0-28.3,12.39-28.3,29.51q0,222.17,0,444.32c0,17.11,11.86,29.5,28.31,29.5q130.32,0,260.66,0c16.44,0,28.3-12.37,28.3-29.5Q319.24,364.74,319.22,253.58Z" style="fill: #fff;stroke: #231f20;stroke-miterlimit: 10;stroke-width: 2px"/>
  </g>
  <g>
    <g>
      <path d="M160.64,410.86c.16-.65.31-1.3.47-1.94a24.62,24.62,0,0,1,3.1-7.53,13.81,13.81,0,0,1,10.62-6.25,21.54,21.54,0,0,1,10.32,1.24,14.71,14.71,0,0,1,9.46,10.76,23.69,23.69,0,0,1,.07,9.49c-1,6.13-4.11,11.32-8.33,16a146,146,0,0,1-10.52,10.13,125.35,125.35,0,0,0-9.74,9.54,54.18,54.18,0,0,0-5.22,6.81c-.08.13-.16.24-.27.39a1.55,1.55,0,0,1-.15-.18,64.65,64.65,0,0,0-10.74-12.54c-3.46-3.24-7-6.41-10.47-9.66a56,56,0,0,1-7.88-8.86,28.7,28.7,0,0,1-5-12.46,22.55,22.55,0,0,1,.26-8.89c1.61-6.3,6.53-10.55,13.37-11.6a22.22,22.22,0,0,1,8.86.29,13.39,13.39,0,0,1,8.44,6.33,26.48,26.48,0,0,1,2.94,7.71l.3,1.23Z" style="fill: #ed1c24"/>
      <path d="M160.64,114.88c.16-.64.31-1.29.47-1.93a24.62,24.62,0,0,1,3.1-7.53,13.81,13.81,0,0,1,10.62-6.25,21.54,21.54,0,0,1,10.32,1.24,14.71,14.71,0,0,1,9.46,10.75,23.74,23.74,0,0,1,.07,9.5c-1,6.13-4.11,11.31-8.33,16a143.7,143.7,0,0,1-10.52,10.12,127.18,127.18,0,0,0-9.74,9.54,55,55,0,0,0-5.22,6.82l-.27.39a1,1,0,0,1-.15-.19,64.89,64.89,0,0,0-10.74-12.53c-3.46-3.25-7-6.42-10.47-9.66a56.48,56.48,0,0,1-7.88-8.86,28.8,28.8,0,0,1-5-12.46,22.6,22.6,0,0,1,.26-8.9c1.61-6.3,6.53-10.55,13.37-11.59a22.22,22.22,0,0,1,8.86.29,13.35,13.35,0,0,1,8.44,6.33,26.37,26.37,0,0,1,2.94,7.71l.3,1.23Z" style="fill: #ed1c24"/>
    </g>
    <text transform="translate(21.75 61.45)" style="font-size: 72px;fill: #ed1c24;font-family: LumberjackRough, Lumberjack">2</text>
    <path d="M38.32,73.92c.08-.34.16-.69.25-1a12.77,12.77,0,0,1,1.65-4,7.26,7.26,0,0,1,5.63-3.32,11.44,11.44,0,0,1,5.48.65,7.82,7.82,0,0,1,5,5.72,12.58,12.58,0,0,1,0,5A16.74,16.74,0,0,1,52,85.48a74.81,74.81,0,0,1-5.59,5.38,66.75,66.75,0,0,0-5.17,5.06,29.16,29.16,0,0,0-2.77,3.62l-.14.21-.08-.1A34.66,34.66,0,0,0,32.52,93c-1.84-1.72-3.72-3.4-5.57-5.13a30,30,0,0,1-4.18-4.7,15.3,15.3,0,0,1-2.64-6.62,11.91,11.91,0,0,1,.14-4.72,8.22,8.22,0,0,1,7.1-6.16,11.81,11.81,0,0,1,4.7.15,7.16,7.16,0,0,1,4.48,3.36,13.89,13.89,0,0,1,1.56,4.1c.06.22.11.43.16.65Z" style="fill: #ed1c24"/>
  </g>
</svg>
