<svg xmlns="http://www.w3.org/2000/svg" width="113.31mm" height="179.03mm" viewBox="0 0 321.19 507.49">
  <title>h-j</title>
  <g id="Layer_2" data-name="Layer 2">
    <g>
      <rect x="28.23" y="54.69" width="263.77" height="403.09" style="fill: none;stroke: #2e3192;stroke-miterlimit: 10"/>
      <g>
        <path d="M.58,253.92q0,110.7,0,221.38c0,11.38,4,20.36,13.18,26.67a26.82,26.82,0,0,0,15.58,4.74H79.08q105.59,0,211.17,0c12.61,0,22-6,27-18,1.76-4.2,2.3-9.26,2.31-13.92q.19-126.25.09-252.52c0-63.31-.11-126.62.09-189.93,0-15.87-9.91-27.34-22-30.22a38.69,38.69,0,0,0-8.93-.83q-129-.06-258,0C12.56,1.23.59,13.59.58,32.55Q.55,143.24.58,253.92Zm318.17-.12q0,111.15,0,222.31c0,17.13-11.86,29.5-28.3,29.5q-130.33,0-260.66,0c-16.44,0-28.3-12.38-28.31-29.5q0-222.15,0-444.31c0-17.13,11.88-29.51,28.31-29.52q130.34,0,260.66,0a26.61,26.61,0,0,1,5.36.38c14,2.83,22.94,14.19,22.95,29.12Q318.77,142.8,318.75,253.8Z" style="fill: #fff;stroke: #231f20;stroke-miterlimit: 10;stroke-width: 2px"/>
        <path d="M318.75,253.8q0-111,0-222c0-14.93-9-26.29-22.95-29.12a26.61,26.61,0,0,0-5.36-.38q-130.33,0-260.66,0C13.35,2.29,1.47,14.67,1.47,31.8q0,222.15,0,444.31c0,17.12,11.87,29.5,28.31,29.5q130.34,0,260.66,0c16.44,0,28.3-12.37,28.3-29.5Q318.77,365,318.75,253.8Z" style="fill: #fff;stroke: #231f20;stroke-miterlimit: 10;stroke-width: 2px"/>
      </g>
      <rect x="26.8" y="56.51" width="263.77" height="403.09" style="fill: #fff;stroke: #231f20;stroke-miterlimit: 10"/>
      <text transform="translate(30.91 111.01)" style="font-size: 72px;fill: #ed1c24;font-family: LumberjackRough, Lumberjack">J</text>
      <polyline points="214.2 253 236.42 247.78 277.5 281.53 262.19 300.64 198.31 296.14" style="fill: none"/>
      <polygon points="151.11 189.28 133.68 167.91 128.98 157.73 123.33 138.91 120.97 121.7 129.92 100.13 138.39 94.11 157.23 86.88 174.65 86.88 192.07 92.3 202.43 104.5 202.43 118.79 204.79 138.91 196.31 161.29 186.42 180.19 175.12 189.28 159.11 195.84 151.11 189.28" style="fill: #d6b59f"/>
      <polyline points="224.58 201.91 230.86 204.16 241.53 206.41 247.81 209.94 255.97 211.87 268.21 219.26 273.87 228.91 278.26 242.41 278.26 246.59 51.6 257.19 54.74 237.26 66.67 221.19 81.11 215.09 93.98 209.94 110.62 207.37 114.08 207.37" style="fill: #00aeef"/>
      <polygon points="128.83 188.09 157.4 210.91 153.32 214.76 147.04 218.3 143.12 222.16 139.5 228.91 137.94 231.8 128.83 226.98 119.1 214.12 112.82 204.16 128.83 188.09" style="fill: #0067b4"/>
      <polygon points="180.94 214.76 201.03 188.73 219.87 199.66 205.12 223.44 200.41 231.16 180.94 214.76" style="fill: #0067b4"/>
      <polygon points="91.47 211.55 101.2 207.37 106.54 207.37 112.82 231.16 116.27 248.51 116.27 260.08 95.24 260.08 91.47 211.55" style="fill: #e77f3c"/>
      <polyline points="214.44 242.09 214.44 221.75 218.84 206.99 221.97 201.97 229.19 201.97 237.04 205.04 241.13 206.99 241.13 224.82 241.13 239.98 238.93 247.94 216.64 246.55" style="fill: #e0843b"/>
      <path d="M157.4,215.09l13.5,18.64,8.16-10.93,17.58-28V190l-7.54-8-4.7-2.89L177,182.62s-5.18,3.86-6.12,3.86-9.11,1.61-9.11,1.61l-6.59-2.9-7.22-6.1h-4.39l-6.91,9-2.79,4" style="fill: #d6b59f"/>
      <g>
        <path d="M159.67,130.48c.35-1.22,1.89-3.74,1.11-4.42a10.47,10.47,0,0,0-6.62-2.32c-3.71.15-7.38,1.33-11.89,2.24l2.87-2.55-.57-.5-7.92,6.76.81,1.57Zm-6-6.35,7,2.78-6.46,2.72Zm-14.15,5.61,6.37-3.18,1,4.06Z"/>
        <path d="M134.82,118.64c3.85-1.16,8.44-3.07,13.25-3.77,2.59-.38,5.62,1.2,8.33,2.12,2.31.77,4.45,1.86,7,2.18-1.78-1.33-3.61-2.63-5.35-4C150,108.83,138.74,111,134.82,118.64Z"/>
        <path d="M153.64,124.13l.57,5.5,6.46-2.72Z" style="fill: #fff"/>
        <path d="M139.49,129.74l7.36.88-1-4.06Z" style="fill: #fff"/>
      </g>
      <g>
        <path d="M188.63,130.7c.47-1.18,2.26-3.55,1.56-4.3a10.38,10.38,0,0,0-6.35-2.91c-3.71-.18-7.48.66-12.07,1.16l3.13-2.28-.52-.56-8.58,6,.65,1.64Zm-5.34-6.86,6.7,3.4-6.7,2.12Zm-14.67,4.3,6.67-2.6.57,4.14Z"/>
        <path d="M165.12,116.66c3.95-.8,8.71-2.29,13.57-2.55,2.62-.14,5.47,1.7,8.08,2.86,2.21,1,4.23,2.26,6.79,2.82-1.64-1.49-3.32-3-4.92-4.47C181.25,108.27,169.81,109.38,165.12,116.66Z"/>
        <path d="M183.29,123.84v5.52l6.7-2.12Z" style="fill: #fff"/>
        <path d="M168.62,128.14l7.24,1.54-.57-4.14Z" style="fill: #fff"/>
      </g>
      <path d="M110.39,176l3.2-.73,0-1.19c-1.24,0-2.76-.48-3.65.14s-1.5,2.73-1.11,3.47c.71,1.34,2.17,2.89,3.46,3.06,4.21.56,8.53-4.25,8.61-9.73.1-6.6-.24-13.2-.48-19.79a109.92,109.92,0,0,1,6.43-41.35c-1.09,6.39-2.76,12.73-3.14,19.17-.67,11.61-.56,23.26-.77,34.9,0,2.81.13,5.64-.11,8.42-.6,6.78-6.46,11.62-12.07,10.15-3.46-.91-5.08-3.68-4.42-7.53.57-3.37,3.85-6.18,6.73-5.07,1.44.56,3.23,2.74,3.28,4.23s-1.65,3.46-3,4.58c-.56.46-2.23-.72-3.4-1.15Z" style="fill: #ffde17"/>
      <path d="M135.71,107.13c-.83,7.69-1.52,14.76-2.35,21.8a145,145,0,0,0-.18,36.53c1.21,9-2,16.36-8.25,19.52,6.29-5.3,6.64-12.68,6-20.37-1.59-18.34.11-36.44,3-54.46a11.52,11.52,0,0,1,.6-2C134.63,108,134.9,107.83,135.71,107.13Z" style="fill: #ffde17"/>
      <path d="M129.48,109.31c-1,8.45-2.49,16.87-3,25.36-.51,9.07,0,18.19-.08,27.29a79,79,0,0,1-.64,12.52c-1,5.83-4.3,8.82-10.13,9.88,9.61-4,9.48-12.83,8.79-21.65a164.27,164.27,0,0,1,4-51.3,23.36,23.36,0,0,1,.75-2.28Z" style="fill: #ffde17"/>
      <path d="M132.19,108.13c-2.18,16-3.78,32-3.2,48.17.17,4.77.64,9.54.63,14.31,0,5.49-1.73,10.17-6.61,13,7.57-8.76,4.79-19.27,4.41-29.4A172.65,172.65,0,0,1,132.19,108.13Z" style="fill: #ffde17"/>
      <path d="M215.5,173.84l-3.2-.73,0-1.18c1.25,0,2.76-.48,3.65.14s1.5,2.73,1.12,3.46c-.71,1.35-2.17,2.89-3.46,3.06-4.21.56-8.53-4.24-8.61-9.73-.1-6.59.23-13.19.48-19.78A110.06,110.06,0,0,0,199,107.73c1.09,6.38,2.77,12.73,3.14,19.17.67,11.6.57,23.26.77,34.9.05,2.8-.13,5.63.12,8.41.59,6.79,6.46,11.63,12.07,10.15,3.45-.91,5.07-3.67,4.42-7.52-.58-3.37-3.86-6.19-6.74-5.08-1.44.56-3.23,2.74-3.27,4.24s1.65,3.46,3,4.57c.57.47,2.24-.71,3.4-1.14Z" style="fill: #ffde17"/>
      <path d="M190.19,105c.82,7.69,1.51,14.76,2.35,21.81a145.38,145.38,0,0,1,.18,36.52c-1.21,9,2,16.37,8.25,19.52-6.3-5.3-6.65-12.68-6-20.36,1.59-18.34-.1-36.45-3.05-54.47a10.58,10.58,0,0,0-.59-2C191.27,105.77,191,105.66,190.19,105Z" style="fill: #ffde17"/>
      <path d="M196.41,107.14c1,8.45,2.5,16.87,3,25.36.5,9.06,0,18.19.07,27.29a78.8,78.8,0,0,0,.65,12.51c1,5.84,4.29,8.83,10.13,9.89-9.61-4-9.49-12.84-8.8-21.65a164.65,164.65,0,0,0-4-51.31c-.19-.77-.5-1.51-.75-2.27Z" style="fill: #ffde17"/>
      <path d="M193.7,106c2.19,16,3.79,32,3.21,48.17-.17,4.77-.65,9.53-.64,14.3,0,5.49,1.74,10.18,6.61,13-7.56-8.76-4.78-19.27-4.4-29.41A172.13,172.13,0,0,0,193.7,106Z" style="fill: #ffde17"/>
      <path d="M163.67,147.59c-1.71-1-3-1.86-4.5-2.61-5.63-2.86-11.16-2.72-17,0a36.65,36.65,0,0,1-9.63,3.15c-7.57,1.18-11.91-1-14.07-6.45-5.7,4.84-3.19,12.83,5.44,17.15s24.67,5.44,39-5.68L170,157a38.2,38.2,0,0,0,27.18,3.95c12.57-2.78,18.25-12.53,11.26-19.55-.47,3.06-2.06,5.55-6.86,6.57a22.65,22.65,0,0,1-14.07-1.6c-.83-.36-1.63-.76-2.43-1.16-6.28-3.16-12.08-3.09-18.1.27C165.87,146.07,164.89,146.8,163.67,147.59Z" style="fill: #231f20"/>
      <polygon points="176.05 325.17 192.78 347.11 197.16 357.44 202.2 376.44 204 393.72 194.37 414.99 185.71 420.72 166.65 427.3 149.23 426.72 131.99 420.72 122.03 408.18 122.49 393.89 120.78 373.7 129.97 351.62 140.46 333.06 152.05 324.36 168.26 318.34 176.05 325.17" style="fill: #d6b59f"/>
      <ellipse cx="135.27" cy="98.43" rx="8.79" ry="10.71" style="fill: #262262"/>
      <path d="M137.7,91.79c0,2,0,3.87,0,5.77a6.32,6.32,0,0,0,.31,2.08,1.59,1.59,0,0,0,1.05.92c.36,0,.88-.52,1.06-.91a4.79,4.79,0,0,0,.34-1.83c0-2.26,0-4.52,0-6.89,2.17-.42,4.3-.87,6.44-1.25a98.39,98.39,0,0,1,54.88,6.4,4.7,4.7,0,0,1,3.07,4.47c.05,4.85,0,9.7,0,14.55,0,1.93-1.22,2.51-3.31,1.63a96.78,96.78,0,0,0-19.52-5.92,99.63,99.63,0,0,0-24.39-1.57,97,97,0,0,0-32.37,7.48,5.74,5.74,0,0,1-1,.35,1.67,1.67,0,0,1-2.25-1.39,6.32,6.32,0,0,1-.06-1c0-4.58,0-9.16,0-13.73a5.14,5.14,0,0,1,3.63-5.14l2.77-1.12v1.36c0,2.51,0,5,0,7.52a4.37,4.37,0,0,0,.47,1.79.92.92,0,0,0,1.75,0,4.4,4.4,0,0,0,.48-1.87c.06-2.84,0-5.67,0-8.5,0-1.54,0-1.54,1.91-1.85,0,2.27,0,4.52,0,6.78a12.22,12.22,0,0,0,.06,1.71,2.49,2.49,0,0,0,.41,1.15,1.49,1.49,0,0,0,.94.62,1.17,1.17,0,0,0,.85-.6,5.75,5.75,0,0,0,.48-2c.06-2.45,0-4.9,0-7.35C135.82,92.07,135.82,92.07,137.7,91.79Z" style="fill: #2e3192"/>
      <path d="M164,67.82c10.57.25,20.72,3.48,28.85,11.08a26.59,26.59,0,0,1,8.56,16c0,.27,0,.71-.17.8a1.37,1.37,0,0,1-1-.06A99.52,99.52,0,0,0,177,89.44a102.65,102.65,0,0,0-20.06-.75,98.76,98.76,0,0,0-31.14,7c-.27.1-.81.19-.87.09a1.4,1.4,0,0,1-.21-1c1.74-10.76,8.66-18,19-22.91C149.77,69.07,156.3,67.88,164,67.82Z" style="fill: #262262"/>
      <polyline points="103.03 310.07 96.82 307.61 86.23 305.01 80.06 301.26 71.97 299.06 59.97 291.26 54.63 281.43 50.67 267.79 50.81 263.61 277.68 260.64 273.9 280.45 261.46 296.11 246.84 301.73 233.81 306.44 217.09 308.45 213.64 308.33" style="fill: #00aeef"/>
      <polygon points="198.28 327.11 170.46 303.34 174.66 299.62 181.05 296.3 185.09 292.57 188.92 285.95 190.58 283.11 199.53 288.24 208.84 301.42 214.79 311.58 198.28 327.11" style="fill: #0067b4"/>
      <polygon points="147.05 298.69 126.13 324.04 107.66 312.48 123.17 289.2 128.12 281.65 147.05 298.69" style="fill: #0067b4"/>
      <polygon points="236.37 304.91 226.51 308.76 221.17 308.58 215.66 284.6 212.77 267.14 213.14 255.57 234.16 256.28 236.37 304.91" style="fill: #e77f3c"/>
      <polyline points="107.84 267.85 107.18 288.17 102.32 302.78 99.02 307.69 91.8 307.44 84.06 304.12 80.04 302.03 80.61 284.21 81.1 269.06 83.55 261.18 105.78 263.32" style="fill: #e0843b"/>
      <path d="M170.59,299.16,157.7,280.08l-8.51,10.64-18.47,27.36-.15,4.82,7.27,8.28,4.61,3.05,7.49-3.28s5.3-3.68,6.24-3.65,9.15-1.3,9.15-1.3l6.5,3.11,7,6.35,4.39.15,7.19-8.77,2.92-3.94" style="fill: #d6b59f"/>
      <g>
        <path d="M165.61,383.64c-.39,1.21-2,3.68-1.26,4.39a10.55,10.55,0,0,0,6.55,2.54c3.71,0,7.41-1.08,12-1.84l-3,2.45.56.52,8.13-6.49-.76-1.6Zm5.82,6.55-6.93-3,6.53-2.5Zm14.33-5.13-6.48,3-.86-4.09Z"/>
        <path d="M190.06,396.32c-3.88,1-8.53,2.78-13.36,3.32-2.6.29-5.57-1.39-8.26-2.4-2.28-.85-4.38-2-7-2.42,1.75,1.39,3.53,2.75,5.23,4.18C174.57,405.61,185.9,403.86,190.06,396.32Z"/>
        <path d="M171.43,390.19l-.4-5.51-6.53,2.5Z" style="fill: #fff"/>
        <path d="M185.76,385.06l-7.34-1.12.86,4.09Z" style="fill: #fff"/>
      </g>
      <g>
        <path d="M136.67,382.45c-.51,1.16-2.38,3.47-1.7,4.24a10.3,10.3,0,0,0,6.26,3.13c3.69.3,7.49-.41,12.09-.75l-3.19,2.17.5.57,8.76-5.72-.59-1.66Zm5.12,7-6.59-3.63L142,384Zm14.8-3.81-6.75,2.37-.44-4.15Z"/>
        <path d="M159.72,397.27c-4,.67-8.79,2-13.65,2.1-2.62.05-5.41-1.89-8-3.14-2.18-1.05-4.16-2.39-6.7-3,1.59,1.55,3.23,3.06,4.77,4.63C143.33,405.11,154.8,404.4,159.72,397.27Z"/>
        <path d="M141.79,389.49,142,384l-6.77,1.89Z" style="fill: #fff"/>
        <path d="M156.59,385.68l-7.19-1.78.44,4.15Z" style="fill: #fff"/>
      </g>
      <path d="M216.32,339.79l-3.22.62L213,341.6c1.24,0,2.74.57,3.65,0s1.59-2.68,1.23-3.43c-.67-1.37-2.08-3-3.36-3.17-4.19-.7-8.66,4-8.92,9.44-.31,6.58-.19,13.19-.16,19.79a109.92,109.92,0,0,1-7.75,41.11c1.29-6.35,3.17-12.64,3.75-19.06,1-11.57,1.31-23.23,1.89-34.85.14-2.81.05-5.64.39-8.41.81-6.76,6.83-11.4,12.39-9.74,3.42,1,5,3.84,4.17,7.67-.69,3.35-4.05,6.05-6.89,4.85-1.43-.61-3.15-2.85-3.14-4.35S212,338,213.42,337c.58-.44,2.21.79,3.36,1.26Z" style="fill: #ffde17"/>
      <path d="M188.81,407.79c1.07-7.65,2-14.7,3-21.71a144.82,144.82,0,0,0,1.36-36.5c-.92-9.07,2.51-16.29,8.87-19.23-6.46,5.08-7.05,12.45-6.63,20.15,1,18.38-1.27,36.42-4.79,54.33a11.5,11.5,0,0,1-.66,2C189.92,407,189.64,407.12,188.81,407.79Z" style="fill: #ffde17"/>
      <path d="M195.1,405.82c1.3-8.41,3-16.78,3.78-25.25.79-9,.59-18.18.94-27.27a80.85,80.85,0,0,1,1.05-12.49c1.17-5.8,4.58-8.68,10.44-9.54-9.73,3.7-9.89,12.51-9.48,21.35a164.53,164.53,0,0,1-5.61,51.14c-.21.77-.54,1.5-.82,2.25Z" style="fill: #ffde17"/>
      <path d="M192.35,406.91c2.7-15.89,4.81-31.84,4.75-48,0-4.77-.33-9.55-.18-14.32.19-5.48,2.07-10.11,7-12.76-7.84,8.5-5.4,19.09-5.35,29.24A172.17,172.17,0,0,1,192.35,406.91Z" style="fill: #ffde17"/>
      <path d="M111.2,338.43l3.17.84v1.18c-1.24,0-2.77.39-3.64-.26s-1.41-2.78-1-3.5c.75-1.32,2.26-2.82,3.55-2.94,4.23-.42,8.39,4.53,8.3,10-.12,6.59-.66,13.18-1.12,19.76a109.91,109.91,0,0,0,5.11,41.54c-.89-6.42-2.36-12.81-2.53-19.26-.29-11.62.19-23.27.35-34.91,0-2.81.31-5.63.16-8.42-.38-6.79-6.09-11.83-11.74-10.54-3.48.79-5.19,3.5-4.66,7.37.47,3.39,3.66,6.31,6.57,5.3,1.46-.51,3.32-2.63,3.41-4.13s-1.54-3.51-2.86-4.67c-.55-.48-2.25.64-3.43,1Z" style="fill: #ffde17"/>
      <path d="M134.29,408.13c-.58-7.71-1-14.8-1.65-21.87a144.92,144.92,0,0,1,1-36.51c1.5-9-1.46-16.42-7.62-19.79,6.12,5.51,6.23,12.9,5.32,20.56-2.18,18.27-1.06,36.43,1.3,54.54a10.83,10.83,0,0,0,.53,2C133.23,407.28,133.5,407.4,134.29,408.13Z" style="fill: #ffde17"/>
      <path d="M128.14,405.74c-.76-8.48-2-16.95-2.16-25.45-.21-9.07.58-18.18.81-27.28a79.15,79.15,0,0,0-.25-12.52c-.79-5.87-4-9-9.8-10.22,9.47,4.33,9.06,13.14,8.09,21.93a164.47,164.47,0,0,0,2.32,51.41c.16.78.45,1.53.67,2.3Z" style="fill: #ffde17"/>
      <path d="M130.81,407c-1.68-16-2.76-32.09-1.66-48.25.32-4.76.95-9.51,1.09-14.28.17-5.48-1.4-10.22-6.19-13.21,7.28,9,4.17,19.42,3.46,29.54A172.44,172.44,0,0,0,130.81,407Z" style="fill: #ffde17"/>
      <path d="M162.15,366.41c1.68,1,3,2,4.42,2.76,5.54,3.05,11.07,3.09,17,.58a36.68,36.68,0,0,1,9.72-2.83c7.6-.92,11.87,1.41,13.85,6.93,5.85-4.65,3.61-12.71-4.89-17.32s-24.48-6.28-39.2,4.35c-2.27-1.33-4.59-2.69-6.92-4A38.14,38.14,0,0,0,129.07,352c-12.64,2.36-18.64,11.91-11.88,19.16.57-3,2.24-5.47,7.07-6.34a22.74,22.74,0,0,1,14,2.08c.82.39,1.61.81,2.39,1.24,6.17,3.37,12,3.49,18.1.34C159.91,367.85,160.92,367.16,162.15,366.41Z" style="fill: #231f20"/>
      <ellipse cx="190.88" cy="416.93" rx="8.79" ry="10.71" style="fill: #262262"/>
      <path d="M186.32,423.05c.07-2,.15-3.86.17-5.76a6.12,6.12,0,0,0-.25-2.09c-.13-.4-.65-.94-1-.95s-.89.49-1.08.87a4.69,4.69,0,0,0-.4,1.82c-.11,2.25-.16,4.51-.24,6.88-2.18.35-4.33.73-6.48,1a98.49,98.49,0,0,1-54.64-8.24,4.73,4.73,0,0,1-2.93-4.58q.17-7.26.46-14.53c.08-1.93,1.3-2.47,3.36-1.52a96.5,96.5,0,0,0,19.32,6.57,99.31,99.31,0,0,0,24.33,2.4,97.2,97.2,0,0,0,32.58-6.39,6,6,0,0,1,1-.32,1.68,1.68,0,0,1,2.21,1.46,6.38,6.38,0,0,1,0,1c-.14,4.57-.3,9.15-.43,13.72a5.13,5.13,0,0,1-3.8,5c-.89.31-1.77.64-2.8,1,0-.52,0-.94.05-1.36.08-2.5.19-5,.21-7.51a4.06,4.06,0,0,0-.41-1.81.91.91,0,0,0-1.74-.08,4.4,4.4,0,0,0-.55,1.86c-.14,2.82-.2,5.66-.3,8.49,0,1.54,0,1.54-2,1.78.08-2.27.15-4.52.22-6.77a14.1,14.1,0,0,0,0-1.72,2.56,2.56,0,0,0-.37-1.16,1.57,1.57,0,0,0-.92-.65,1.17,1.17,0,0,0-.87.58,5.59,5.59,0,0,0-.55,1.94c-.13,2.45-.18,4.9-.26,7.35C188.21,422.84,188.22,422.84,186.32,423.05Z" style="fill: #2e3192"/>
      <path d="M159.24,446.13c-10.56-.61-20.6-4.18-28.48-12.05a26.65,26.65,0,0,1-8-16.3c0-.27,0-.71.2-.79a1.31,1.31,0,0,1,1,.09,99.59,99.59,0,0,0,23.13,7,102.5,102.5,0,0,0,20,1.43,98.62,98.62,0,0,0,31.34-5.94c.28-.1.82-.16.88-.06a1.46,1.46,0,0,1,.18,1c-2.09,10.69-9.25,17.73-19.76,22.25C173.53,445.36,167,446.33,159.24,446.13Z" style="fill: #262262"/>
      <g>
        <path d="M257.22,232.93a14.49,14.49,0,0,1,1,3.27c.23,2.85.19,2.91,3.07,2.92h.41c3.22,0,3.26,0,3.29-3.22,0-1.42.37-2.83,1.88-2.66.68.07,1.36,1.65,1.75,2.66s-.63,2.9,1.18,3.45c2.33.71,4.59,3.17,7.19.49a2.85,2.85,0,0,1,1.61-.92c.71-.06,1.8,0,2.09.49a2.64,2.64,0,0,1-.29,2.18c-.63,1-2.11,1.9-2.18,2.91s1.12,2.16,1.77,3.23c.32.54.68,1.06,1.14,1.76a15.87,15.87,0,0,1,3-1.91,7.49,7.49,0,0,1,2.67,0c-.18.87-.11,1.95-.61,2.58a12.19,12.19,0,0,1-2.75,2.21c-2.23,1.58-2.28,3.9-.1,5.49a16.78,16.78,0,0,1,2.8,2.18,6.85,6.85,0,0,1,.83,2.33c-.81.19-1.72.71-2.4.5a18.45,18.45,0,0,1-3.41-1.9c-1,1.54-2.07,2.94-2.92,4.45a1.86,1.86,0,0,0,.26,1.62c.39.54,1.12.82,1.63,1.29.87.82,1.43,1.77.58,3s-1.84.71-2.51,0c-2.75-3-5.65-1.67-8.47-.31-.54.26-.79,1.33-1,2.07-.28,1.06-.28,2.21-.65,3.23a1.68,1.68,0,0,1-1.41.88c-.56-.14-1-.79-1.45-1.29-.16-.18-.13-.54-.16-.82-.42-3.84-1.49-4.67-5.25-3.77-.59.14-1.17,1-1.42,1.72s.11,1.63-.17,2.29a9,9,0,0,1-1.6,2c-.61-.66-1.24-1.31-1.83-2-.08-.08,0-.28,0-.42-.22-1.13-.17-3-.74-3.24a10,10,0,0,0-4.69-.26c-.45.06-1,1.38-1,2.16-.18,1.54.16,3.62-1.9,3.64s-2-2-1.9-3.58c.07-1.81-.71-2.62-2.51-2.42a13.26,13.26,0,0,1-2.09,0c-1.34-.05-1.91.64-1.94,1.92a6.78,6.78,0,0,1-.12,2.31c-.27.69-.91,1.61-1.5,1.69s-1.3-.75-1.75-1.35a3.16,3.16,0,0,1-.25-1.63c-.11-2.7-.33-2.93-2.89-2.95-3.59,0-3.59,0-3.84,3.65-.07,1.17-.21,2.58-1.69,2.34-.66-.11-1.21-1.4-1.63-2.25-.23-.45,0-1.11-.09-1.67-.11-1.32-.74-2.1-2.14-2.06h-2.3c-1.62,0-2.48.71-2.42,2.43a6.27,6.27,0,0,1-.18,2.3,2.11,2.11,0,0,1-1.33,1.27,1.84,1.84,0,0,1-1.42-1.07,9.19,9.19,0,0,1-.33-2.69c-.07-1.45-.75-2.23-2.21-2.24h-2.3c-1.75,0-2.55.86-2.47,2.64a6.1,6.1,0,0,1-.2,2.3c-.16.48-.8,1.14-1.19,1.11a2.18,2.18,0,0,1-1.49-1.05,5.18,5.18,0,0,1-.27-2.07c-.12-2.61-.48-2.93-3.44-2.94s-3.43.34-3.53,2.83a3.29,3.29,0,0,1,0,.63c-.23,1.1.07,2.68-1.69,2.63s-1.53-1.53-1.56-2.7a3.78,3.78,0,0,0-5.82-3.14,3.2,3.2,0,0,0-1,1.72c-.17.51.11,1.22-.12,1.67-.46.87-1.07,2.24-1.75,2.32-1.48.18-1.51-1.3-1.57-2.44-.17-3.26-2-4.54-5-3.32a2.8,2.8,0,0,0-1.24,1.92c-.72,4.33-3.47,6.8-7.89,6.8q-42.37,0-84.75,0c-6.57,0-10.83-3.51-13.71-9-1.06-2-2.09-3.05-4.56-3-7.18.2-14.37-.06-21.55.12a8.54,8.54,0,0,1-8.93-8.91c.29-6.34.3-12.72,0-19.07-.25-5.52,3.39-7.82,7.21-8.93,6.07-1.76,12.21-3.31,18.33-4.9,6.66-1.73,13.23-3.41,20.28-3.22,14.16.38,28.32.11,42.48.11,3,0,3.22-.23,3.24-3.23,0-3.68-.07-7.35,0-11,.13-3.85,1.85-5.59,5.32-5.67,3.29-.07,5.52,2,5.58,5.49.08,5.94,0,11.87,0,17.81,0,3.32,0,3.33,3.22,3.33h27c5.31,0,7.72,2.13,8.73,7.38.12.64,1,1.33,1.68,1.62a7.45,7.45,0,0,0,2.28.08c1.6.11,2.25-.61,2.23-2.24,0-1.48-.46-3.67,1.71-3.65,1.87,0,1.62,2.11,1.64,3.55,0,1.65.71,2.52,2.44,2.35a10.73,10.73,0,0,1,1.88,0c1.86.14,2.67-.66,2.62-2.59,0-1.33-.44-3.32,1.59-3.27,1.84,0,1.66,2,1.62,3.33,0,2,.86,2.69,2.69,2.53a7.91,7.91,0,0,1,1.46,0c2,.19,3.08-.61,2.84-2.78a2,2,0,0,1,0-.42c.07-1.2,0-2.71,1.59-2.73s1.42,1.52,1.62,2.68.44,2.8.9,2.88a20.19,20.19,0,0,0,5.32-.07c.25,0,.5-.93.6-1.45a10.86,10.86,0,0,1,.19-2.1,10.52,10.52,0,0,1,1.48-2c.56.69,1.51,1.31,1.62,2.07.6,4,.52,4,4.58,4,1.74,0,2.39-.74,2.4-2.4a6.1,6.1,0,0,1,.36-2.46,2,2,0,0,1,1.49-1.06c.53.08,1,.82,1.42,1.34.15.18.06.55.11.82.19,1.15.12,3.11.63,3.29a13.51,13.51,0,0,0,4.93.32c.4,0,.92-.93,1.07-1.51.21-.8-.11-1.77.2-2.5a7.8,7.8,0,0,1,1.71-1.9c.59.68,1.22,1.35,1.76,2.07.14.18,0,.55,0,.83.07,3.12.07,3.12,3.18,3.13s3.26,0,3.34-3.37c0-1.4.63-2.58,1.88-2.6s1.94,1.1,1.91,2.54c-.09,3.94,0,3.41,3.63,3.42,2.84,0,2.9,0,2.86-3C254.73,234.58,255.11,233.47,257.22,232.93ZM122.36,276.62q19,0,38.07,0c1.64,0,2.67-.33,2.66-2.31q0-19.27,0-38.56c0-1.43-.55-2.06-2-2.06q-10.35,0-20.71,0c-1.67,0-2.15.75-2.11,2.34a82.36,82.36,0,0,1,0,8.89,8.41,8.41,0,0,1-1.54,4.44c-3.64,4.44-7.48,8.72-11.35,13a5.16,5.16,0,0,1-7.79.42c-2.1-1.88-2.25-5.59-.24-8a63.09,63.09,0,0,1,5.56-6.29,13.32,13.32,0,0,0,4.52-12.24c-.21-1.79-.76-2.52-2.52-2.51q-20.4,0-40.79,0a9.58,9.58,0,0,0-6.66,2.59C73.14,240.25,71.37,245.4,71,251c-.33,4.77-.42,9.58,1.16,14.25,2.18,6.44,6,11.62,14,11.44C98.23,276.43,110.3,276.62,122.36,276.62Zm100.91-34.11h-43.1c-2.74,0-3,.27-3,3V264c0,3.94,0,3.94,4,3.94h81c1.39,0,2.79.09,4.18,0,5.4-.52,9.39-3.31,11.24-8.44a12.2,12.2,0,0,0-2.13-12.34c-2.79-3.41-6.47-4.63-10.74-4.61C250.88,242.54,237.07,242.51,223.27,242.51Zm-149.41-8.2a7.12,7.12,0,0,0-1.76-.08c-3.76,1-7.51,2-11.26,3-4,1.09-8,2.4-12.07,3.19-2.15.42-2.81,1.3-2.78,3.32.07,3.81.11,7.63,0,11.43-.07,2,.73,2.55,2.59,2.52,5.29-.09,10.59-.12,15.88,0,2,.06,2.59-.59,2.62-2.62a34.4,34.4,0,0,1,3.55-15.47C71.51,237.93,72.62,236.33,73.86,234.31ZM100,230c7.95,0,15.91,0,23.86,0,1.24,0,3.25.71,3.3-1.44s-2-1.75-3.34-1.76c-14.58,0-29.17.15-43.74-.1-5.28-.08-10.21,1.15-15.2,2.39-6.4,1.6-12.81,3.22-19.14,5.09-5.6,1.64-6.63,2.37-6.48,8,.14,5.51,0,11,0,16.53,0,4.14,1.41,5.73,5.44,5.76,7,.05,14,0,20.93,0,.35,0,.77.09,1-.07a10.74,10.74,0,0,0,1.41-1.21c-.45-.52-.81-1.24-1.38-1.51a5.18,5.18,0,0,0-2.06-.15c-6.42,0-12.84,0-19.26,0-2.28,0-3-.66-3-2.81,0-6-.09-12,.07-18a3.54,3.54,0,0,1,1.82-2.67c3.56-1.17,7.24-2,10.86-2.93,4.09-1.09,8.15-2.33,12.27-3.31a49.64,49.64,0,0,1,9.6-1.73C84.69,229.86,92.37,230,100,230Zm66.61,25.12c0,6.36,0,12.71,0,19.07,0,1.71.6,2.43,2.32,2.4,3.3,0,5-1.73,5-5.4q0-15.89,0-31.77a10.12,10.12,0,0,0-.79-3.68c-.7-1.72-3.12-2.55-5.27-2-1.86.48-1.15,2-1.16,3.16C166.61,243,166.65,249.09,166.65,255.16ZM134.8,227h0c0-5.86.08-11.73-.09-17.58,0-.9-1.2-1.77-1.84-2.65a21.75,21.75,0,0,0-2.17,2.66c-.28.47-.07,1.24-.07,1.88,0,9.53-.14,19.07.08,28.6a11,11,0,0,1-3.49,9,77.09,77.09,0,0,0-7.29,8.69c-.38.5-.31,2.07.06,2.3a4.44,4.44,0,0,0,2.63.19c.39-.05.74-.6,1.06-1,3.13-3.59,6.21-7.23,9.39-10.77a6.85,6.85,0,0,0,1.78-5C134.75,237.87,134.8,232.43,134.8,227Z"/>
        <path d="M223.27,242.51c13.8,0,27.61,0,41.42,0,4.27,0,7.95,1.2,10.74,4.61a12.2,12.2,0,0,1,2.13,12.34c-1.85,5.13-5.84,7.92-11.24,8.44-1.39.13-2.79,0-4.18,0h-81c-4,0-4,0-4-3.94V245.55c0-2.76.23-3,3-3Zm41.2,19.29c4.31.44,6.68-3.69,6.67-6.75a6.65,6.65,0,1,0-13.29.19C257.88,258.36,260.42,262.25,264.47,261.8Z" style="fill: #939598"/>
        <path d="M100,230c-7.67,0-15.35-.17-23,.08a49.64,49.64,0,0,0-9.6,1.73c-4.12,1-8.18,2.22-12.27,3.31-3.62,1-7.3,1.76-10.86,2.93a3.54,3.54,0,0,0-1.82,2.67c-.16,6-.11,12-.07,18,0,2.15.74,2.8,3,2.81,6.42,0,12.84,0,19.26,0a5.18,5.18,0,0,1,2.06.15c.57.27.93,1,1.38,1.51a10.74,10.74,0,0,1-1.41,1.21c-.26.16-.68.07-1,.07-7,0-14,0-20.93,0-4,0-5.46-1.62-5.44-5.76,0-5.51.13-11,0-16.53-.15-5.66.88-6.39,6.48-8,6.33-1.87,12.74-3.49,19.14-5.09,5-1.24,9.92-2.47,15.2-2.39,14.57.25,29.16.08,43.74.1,1.38,0,3.39-.43,3.34,1.76s-2.06,1.43-3.3,1.44C116,230.06,108,230,100,230Z" style="fill: #6d6d6d"/>
        <path d="M166.65,255.16c0-6.07,0-12.14,0-18.22,0-1.12-.7-2.68,1.16-3.16,2.15-.55,4.57.28,5.27,2a10.12,10.12,0,0,1,.79,3.68q.09,15.89,0,31.77c0,3.67-1.68,5.36-5,5.4-1.72,0-2.33-.69-2.32-2.4C166.68,267.87,166.65,261.52,166.65,255.16Z" style="fill: #8c7347"/>
        <path d="M134.8,227c0,5.44-.05,10.88,0,16.31a6.85,6.85,0,0,1-1.78,5c-3.18,3.54-6.26,7.18-9.39,10.77-.32.37-.67.92-1.06,1a4.44,4.44,0,0,1-2.63-.19c-.37-.23-.44-1.8-.06-2.3a77.09,77.09,0,0,1,7.29-8.69,11,11,0,0,0,3.49-9c-.22-9.53-.08-19.07-.08-28.6,0-.64-.21-1.41.07-1.88a21.75,21.75,0,0,1,2.17-2.66c.64.88,1.82,1.75,1.84,2.65.17,5.85.09,11.72.09,17.58Z" style="fill: #6d6d6d"/>
        <path d="M152.92,239c4.39-.21,6.62,3.12,6.7,6.69a6.62,6.62,0,0,1-6.55,6.75,6.74,6.74,0,0,1-6.63-6.93C146.53,242.31,148.92,238.66,152.92,239Zm.07,9.63a3,3,0,0,0,3.2-2.88,3.13,3.13,0,1,0-6.25-.14A2.89,2.89,0,0,0,153,248.59Z"/>
        <path d="M153.1,258.54a6.56,6.56,0,0,1,6.55,6.74,6.82,6.82,0,0,1-6.55,6.83,6.9,6.9,0,0,1-6.68-6.95A6.55,6.55,0,0,1,153.1,258.54Zm3.1,6.64a3.76,3.76,0,0,0-3.2-3.34c-1.48,0-3.07,1.83-3.06,3.45a3,3,0,0,0,3.06,3.07A3.14,3.14,0,0,0,156.2,265.18Z"/>
        <path d="M264.47,261.8c-4.05.45-6.59-3.44-6.62-6.56a6.65,6.65,0,1,1,13.29-.19C271.15,258.11,268.78,262.24,264.47,261.8Zm3.13-6.57a3.12,3.12,0,0,0-3.12-3.24,3.3,3.3,0,0,0-3.17,3,3.45,3.45,0,0,0,3.07,3.4A3.33,3.33,0,0,0,267.6,255.23Z"/>
        <path d="M153,248.59a2.89,2.89,0,0,1-3.05-3,3.13,3.13,0,1,1,6.25.14A3,3,0,0,1,153,248.59Z" style="fill: #fff"/>
        <path d="M156.2,265.18a3.14,3.14,0,0,1-3.2,3.18,3,3,0,0,1-3.06-3.07c0-1.62,1.58-3.43,3.06-3.45A3.76,3.76,0,0,1,156.2,265.18Z" style="fill: #fff"/>
      </g>
      <path d="M164.34,129.47c.32,3.23.6,6.47.94,9.69.4,3.72.12,4.76-1.69,6.27a12.56,12.56,0,0,0-1.44,1.77l.15.73c.29-.07.61,0,.86-.24,3.09-3,3.91-3,2.84-10.57-.36-2.53-.65-5.1-1-7.65Z"/>
      <path d="M163.14,384c.31-3.24.59-6.48.94-9.7.39-3.71.11-4.76-1.7-6.27a13,13,0,0,1-1.43-1.76l.14-.73c.29.07.62,0,.86.23,3.09,3,3.92,3,2.84,10.57-.36,2.54-.65,5.11-1,7.66Z"/>
      <path d="M122.36,277c-12.06,0-24.13-.2-36.19.07-8,.18-11.84-5-14-11.44-1.58-4.68-1.49-9.48-1.16-14.25.38-5.6,2.15-10.75,6.44-14.67a9.58,9.58,0,0,1,6.66-2.59q20.4,0,40.79,0c1.76,0,2.31.72,2.52,2.51a13.32,13.32,0,0,1-4.52,12.24,63.09,63.09,0,0,0-5.56,6.29c-2,2.42-1.86,6.13.24,8a5.16,5.16,0,0,0,7.79-.41c3.87-4.24,7.71-8.52,11.35-13a8.37,8.37,0,0,0,1.54-4.43,82.37,82.37,0,0,0,0-8.89c0-1.59.44-2.35,2.11-2.34q10.36.06,20.71,0c1.43,0,2,.63,2,2.06q0,19.28,0,38.56c0,2-1,2.31-2.66,2.31Q141.4,277,122.36,277Zm30.56-37.66c-4-.31-6.39,3.34-6.48,6.51a6.73,6.73,0,0,0,6.63,6.92,6.61,6.61,0,0,0,6.55-6.74C159.54,242.45,157.31,239.12,152.92,239.33Zm.18,19.57a6.56,6.56,0,0,0-6.68,6.63,6.91,6.91,0,0,0,6.68,7,6.82,6.82,0,0,0,6.55-6.83A6.57,6.57,0,0,0,153.1,258.9Z" style="fill: #dd823a"/>
      <path d="M49.54,130c.08-.35.16-.69.25-1a13.15,13.15,0,0,1,1.64-4,7.33,7.33,0,0,1,5.64-3.32,11.45,11.45,0,0,1,5.48.66,7.79,7.79,0,0,1,5,5.71,12.58,12.58,0,0,1,0,5,16.7,16.7,0,0,1-4.42,8.49,74.81,74.81,0,0,1-5.59,5.38A68.75,68.75,0,0,0,52.43,152a28.44,28.44,0,0,0-2.77,3.62l-.14.2a.31.31,0,0,1-.08-.1,34.66,34.66,0,0,0-5.7-6.65c-1.84-1.73-3.73-3.41-5.57-5.13A30.57,30.57,0,0,1,34,139.23a15.26,15.26,0,0,1-2.64-6.62,12.1,12.1,0,0,1,.13-4.72,8.23,8.23,0,0,1,7.1-6.15,11.86,11.86,0,0,1,4.71.15,7.09,7.09,0,0,1,4.48,3.36,13.94,13.94,0,0,1,1.56,4.09c.05.22.11.44.16.66Z" style="fill: #ed1c24"/>
    </g>
  </g>
</svg>
