<svg id="Layer_1" data-name="Layer 1" xmlns="http://www.w3.org/2000/svg" width="113.31mm" height="179.03mm" viewBox="0 0 321.19 507.49">
  <title>r-6</title>
  <g>
    <path d="M1,253.7Q1,364.39,1,475.08c0,11.37,4,20.35,13.17,26.67a26.85,26.85,0,0,0,15.59,4.74H79.55q105.59,0,211.16,0c12.62,0,22-6,27-18,1.77-4.21,2.31-9.26,2.31-13.93q.21-126.25.1-252.51c0-63.31-.12-126.62.08-189.93.05-15.87-9.91-27.34-22-30.22A38.55,38.55,0,0,0,289.29,1q-129-.08-258,0C13,1,1.05,13.37,1.05,32.32Q1,143,1,253.7Zm318.18-.12q0,111.15,0,222.31c0,17.13-11.86,29.5-28.3,29.5q-130.34,0-260.66,0c-16.45,0-28.31-12.39-28.31-29.5q0-222.15,0-444.32c0-17.12,11.88-29.51,28.3-29.51q130.34,0,260.66,0a26.76,26.76,0,0,1,5.37.38c14,2.83,22.94,14.19,22.94,29.12Q319.24,142.57,319.22,253.58Z" style="fill: #fff;stroke: #231f20;stroke-miterlimit: 10;stroke-width: 2px"/>
    <path d="M319.22,253.58q0-111,0-222c0-14.93-8.95-26.29-22.94-29.12a26.76,26.76,0,0,0-5.37-.38q-130.32,0-260.66,0c-16.42,0-28.3,12.39-28.3,29.51q0,222.17,0,444.32c0,17.11,11.86,29.5,28.31,29.5q130.32,0,260.66,0c16.44,0,28.3-12.37,28.3-29.5Q319.24,364.74,319.22,253.58Z" style="fill: #fff;stroke: #231f20;stroke-miterlimit: 10;stroke-width: 2px"/>
  </g>
  <text transform="translate(21.75 61.45)" style="font-size: 72px;fill: #ed1c24;font-family: LumberjackRough, Lumberjack">6</text>
  <g>
    <path d="M81.94,166.87a269,269,0,0,1,23.56-31L81.61,104.6a11,11,0,0,0-.8,1c-1.55,2.25-3,4.61-4.63,6.78-5.47,7.09-11,14.13-16.57,21.17-1.9,2.43-1.73,1.78-.07,3.89,3.21,4.1,6.59,8.08,9.73,12.22C73.57,155.31,77.7,161.09,81.94,166.87Z" style="fill: #ed1c24"/>
    <path d="M81.94,166.87c-4.24-5.78-8.37-11.56-12.67-17.23-3.14-4.14-6.52-8.12-9.73-12.22-1.66-2.11-1.83-1.46.07-3.89,5.54-7,11.1-14.08,16.57-21.17,1.67-2.17,3.08-4.53,4.63-6.78a11,11,0,0,1,.8-1l23.89,31.24A269,269,0,0,0,81.94,166.87Z" style="fill: #ed1c24"/>
  </g>
  <g>
    <path d="M81.94,309.51a269,269,0,0,1,23.56-31c-8.07-10.54-16-20.89-23.89-31.24a11,11,0,0,0-.8,1c-1.55,2.26-3,4.61-4.63,6.78-5.47,7.09-11,14.13-16.57,21.18-1.9,2.43-1.73,1.77-.07,3.89,3.21,4.09,6.59,8.07,9.73,12.22C73.57,298,77.7,303.73,81.94,309.51Z" style="fill: #ed1c24"/>
    <path d="M81.94,309.51c-4.24-5.78-8.37-11.56-12.67-17.22-3.14-4.15-6.52-8.13-9.73-12.22-1.66-2.12-1.83-1.46.07-3.89,5.54-7.05,11.1-14.09,16.57-21.18,1.67-2.17,3.08-4.52,4.63-6.78a11,11,0,0,1,.8-1c7.91,10.35,15.82,20.7,23.89,31.24A269,269,0,0,0,81.94,309.51Z" style="fill: #ed1c24"/>
  </g>
  <g>
    <path d="M81.94,458.38a269,269,0,0,1,23.56-31L81.61,396.11a11,11,0,0,0-.8,1c-1.55,2.26-3,4.61-4.63,6.78-5.47,7.09-11,14.13-16.57,21.18-1.9,2.43-1.73,1.77-.07,3.88,3.21,4.1,6.59,8.08,9.73,12.23C73.57,446.82,77.7,452.6,81.94,458.38Z" style="fill: #ed1c24"/>
    <path d="M81.94,458.38c-4.24-5.78-8.37-11.56-12.67-17.22-3.14-4.15-6.52-8.13-9.73-12.23-1.66-2.11-1.83-1.45.07-3.88C65.15,418,70.71,411,76.18,403.87c1.67-2.17,3.08-4.52,4.63-6.78a11,11,0,0,1,.8-1l23.89,31.24A269,269,0,0,0,81.94,458.38Z" style="fill: #ed1c24"/>
  </g>
  <g>
    <path d="M239.39,166.87a270.18,270.18,0,0,1,23.57-31l-23.9-31.24a11.37,11.37,0,0,0-.79,1c-1.55,2.25-3,4.61-4.64,6.78-5.47,7.09-11,14.13-16.56,21.17-1.91,2.43-1.74,1.78-.08,3.89,3.21,4.1,6.6,8.08,9.74,12.22C231,155.31,235.16,161.09,239.39,166.87Z" style="fill: #ed1c24"/>
    <path d="M239.39,166.87c-4.23-5.78-8.37-11.56-12.66-17.23-3.14-4.14-6.53-8.12-9.74-12.22-1.66-2.11-1.83-1.46.08-3.89,5.54-7,11.09-14.08,16.56-21.17,1.67-2.17,3.09-4.53,4.64-6.78a11.37,11.37,0,0,1,.79-1L263,135.84A270.18,270.18,0,0,0,239.39,166.87Z" style="fill: #ed1c24"/>
  </g>
  <g>
    <path d="M239.39,307.24a269.32,269.32,0,0,1,23.57-31L239.06,245c-.13.17-.5.55-.79,1-1.55,2.26-3,4.62-4.64,6.78-5.47,7.1-11,14.13-16.56,21.18-1.91,2.43-1.74,1.78-.08,3.89,3.21,4.1,6.6,8.08,9.74,12.22C231,295.68,235.16,301.46,239.39,307.24Z" style="fill: #ed1c24"/>
    <path d="M239.39,307.24c-4.23-5.78-8.37-11.56-12.66-17.23-3.14-4.14-6.53-8.12-9.74-12.22-1.66-2.11-1.83-1.46.08-3.89,5.54-7,11.09-14.08,16.56-21.18,1.67-2.16,3.09-4.52,4.64-6.78.29-.43.66-.81.79-1L263,276.21A269.32,269.32,0,0,0,239.39,307.24Z" style="fill: #ed1c24"/>
  </g>
  <g>
    <path d="M237.69,452.52a271.26,271.26,0,0,1,23.56-31c-8.06-10.55-16-20.89-23.89-31.24-.13.16-.5.55-.8,1-1.54,2.26-3,4.61-4.63,6.78-5.47,7.09-11,14.13-16.56,21.18-1.91,2.43-1.74,1.77-.08,3.88,3.21,4.1,6.6,8.08,9.74,12.23C229.32,441,233.46,446.74,237.69,452.52Z" style="fill: #ed1c24"/>
    <path d="M237.69,452.52c-4.23-5.78-8.37-11.56-12.66-17.22-3.14-4.15-6.53-8.13-9.74-12.23-1.66-2.11-1.83-1.45.08-3.88,5.53-7.05,11.09-14.09,16.56-21.18,1.67-2.17,3.09-4.52,4.63-6.78.3-.43.67-.82.8-1,7.92,10.35,15.83,20.69,23.89,31.24A271.26,271.26,0,0,0,237.69,452.52Z" style="fill: #ed1c24"/>
  </g>
  <g>
    <path d="M34.56,106.81A165.7,165.7,0,0,1,49.08,87.69c-5-6.5-9.85-12.87-14.72-19.25a6.16,6.16,0,0,0-.49.6c-1,1.39-1.83,2.84-2.86,4.18-3.37,4.37-6.79,8.71-10.2,13-1.18,1.5-1.07,1.09,0,2.39,2,2.53,4.06,5,6,7.53C29.4,99.69,32,103.25,34.56,106.81Z" style="fill: #ed1c24"/>
    <path d="M34.56,106.81c-2.61-3.56-5.16-7.12-7.8-10.62-1.94-2.55-4-5-6-7.53-1-1.3-1.13-.89,0-2.39,3.41-4.34,6.83-8.68,10.2-13,1-1.34,1.9-2.79,2.86-4.18a6.16,6.16,0,0,1,.49-.6c4.87,6.38,9.75,12.75,14.72,19.25A165.7,165.7,0,0,0,34.56,106.81Z" style="fill: #ed1c24"/>
  </g>
</svg>
