<svg xmlns="http://www.w3.org/2000/svg" width="113.31mm" height="179.03mm" viewBox="0 0 321.19 507.49">
  <title>s-j</title>
  <g id="Layer_2" data-name="Layer 2">
    <rect x="28.69" y="54.47" width="263.77" height="403.09" style="fill: none;stroke: #2e3192;stroke-miterlimit: 10"/>
    <g>
      <path d="M1,253.7Q1,364.39,1,475.08c0,11.37,4,20.35,13.17,26.67a26.85,26.85,0,0,0,15.59,4.74H79.55q105.59,0,211.16,0c12.62,0,22-6,27-18,1.77-4.21,2.31-9.26,2.31-13.93q.21-126.25.1-252.51c0-63.31-.12-126.62.08-189.93.05-15.87-9.91-27.34-22-30.22A38.55,38.55,0,0,0,289.29,1q-129-.08-258,0C13,1,1.05,13.37,1.05,32.32Q1,143,1,253.7Zm318.18-.12q0,111.15,0,222.31c0,17.13-11.86,29.5-28.3,29.5q-130.34,0-260.66,0c-16.45,0-28.31-12.39-28.31-29.5q0-222.15,0-444.32c0-17.12,11.88-29.51,28.3-29.51q130.34,0,260.66,0a26.76,26.76,0,0,1,5.37.38c14,2.83,22.94,14.19,22.94,29.12Q319.24,142.57,319.22,253.58Z" style="fill: #fff;stroke: #231f20;stroke-miterlimit: 10;stroke-width: 2px"/>
      <path d="M319.22,253.58q0-111,0-222c0-14.93-8.95-26.29-22.94-29.12a26.76,26.76,0,0,0-5.37-.38q-130.32,0-260.66,0c-16.42,0-28.3,12.39-28.3,29.51q0,222.17,0,444.32c0,17.11,11.86,29.5,28.31,29.5q130.32,0,260.66,0c16.44,0,28.3-12.37,28.3-29.5Q319.24,364.74,319.22,253.58Z" style="fill: #fff;stroke: #231f20;stroke-miterlimit: 10;stroke-width: 2px"/>
    </g>
    <rect x="27.26" y="56.29" width="263.77" height="403.09" style="fill: #fff;stroke: #231f20;stroke-miterlimit: 10"/>
    <text transform="translate(31.37 110.79)" style="font-size: 72px;fill: #231f20;font-family: LumberjackRough, Lumberjack">J</text>
    <polyline points="214.67 252.78 236.89 247.56 277.96 281.31 262.65 300.42 198.77 295.92" style="fill: none"/>
    <polygon points="151.57 189.06 134.15 167.69 129.44 157.51 123.79 138.69 121.44 121.48 130.38 99.9 138.86 93.88 157.69 86.66 175.12 86.66 192.54 92.08 202.9 104.28 202.9 118.57 205.25 138.69 196.78 161.06 186.89 179.97 175.59 189.06 159.58 195.62 151.57 189.06" style="fill: #d6b59f"/>
    <polyline points="225.04 201.69 231.32 203.94 242 206.19 248.28 209.72 256.44 211.65 268.68 219.04 274.33 228.69 278.73 242.19 278.73 246.36 52.07 256.97 55.21 237.04 67.14 220.97 81.58 214.86 94.45 209.72 111.09 207.15 114.54 207.15" style="fill: #00aeef"/>
    <polygon points="129.3 187.86 157.86 210.69 153.78 214.54 147.5 218.08 143.58 221.94 139.97 228.69 138.4 231.58 129.3 226.76 119.56 213.9 113.29 203.94 129.3 187.86" style="fill: #0067b4"/>
    <polygon points="181.41 214.54 201.5 188.51 220.34 199.44 205.58 223.22 200.87 230.94 181.41 214.54" style="fill: #0067b4"/>
    <polygon points="91.94 211.33 101.67 207.15 107.01 207.15 113.29 230.94 116.74 248.29 116.74 259.86 95.71 259.86 91.94 211.33" style="fill: #e77f3c"/>
    <polyline points="214.91 241.87 214.91 221.53 219.3 206.77 222.44 201.75 229.66 201.75 237.51 204.82 241.59 206.77 241.59 224.6 241.59 239.76 239.39 247.72 217.1 246.32" style="fill: #e0843b"/>
    <path d="M157.86,214.86l13.5,18.65,8.16-10.93,17.58-28v-4.82l-7.53-8-4.71-2.9-7.38,3.54s-5.18,3.86-6.12,3.86-9.1,1.6-9.1,1.6L155.67,185l-7.22-6.11h-4.4l-6.91,9-2.79,4" style="fill: #d6b59f"/>
    <g>
      <path d="M160.13,130.26c.36-1.22,1.89-3.74,1.12-4.42a10.48,10.48,0,0,0-6.63-2.32c-3.7.15-7.37,1.33-11.89,2.24l2.88-2.55-.58-.5-7.91,6.76.81,1.57Zm-6-6.35,7,2.78-6.45,2.72ZM140,129.52l6.37-3.19,1,4.07Z"/>
      <path d="M135.29,118.42c3.84-1.16,8.43-3.07,13.25-3.78,2.58-.37,5.61,1.21,8.33,2.12,2.3.78,4.44,1.87,7,2.19-1.79-1.33-3.61-2.63-5.36-4C150.48,108.61,139.2,110.74,135.29,118.42Z"/>
      <path d="M154.11,123.91l.57,5.5,6.45-2.72Z" style="fill: #fff"/>
      <path d="M140,129.52l7.37.88-1-4.07Z" style="fill: #fff"/>
    </g>
    <g>
      <path d="M189.09,130.48c.48-1.18,2.27-3.55,1.57-4.3a10.38,10.38,0,0,0-6.36-2.91c-3.7-.18-7.47.66-12.06,1.16l3.12-2.29-.52-.55-8.57,6,.64,1.64Zm-5.34-6.86,6.71,3.4-6.71,2.12Zm-14.67,4.3,6.67-2.6.57,4.14Z"/>
      <path d="M165.59,116.44c3.94-.8,8.71-2.29,13.57-2.55,2.61-.15,5.46,1.7,8.08,2.86,2.21,1,4.23,2.26,6.79,2.81-1.64-1.48-3.32-2.94-4.92-4.46C181.71,108.05,170.27,109.15,165.59,116.44Z"/>
      <path d="M183.75,123.62v5.52l6.71-2.12Z" style="fill: #fff"/>
      <path d="M169.08,127.92l7.24,1.54-.57-4.14Z" style="fill: #fff"/>
    </g>
    <path d="M110.86,175.8l3.2-.73,0-1.19c-1.25,0-2.76-.48-3.65.14s-1.5,2.73-1.12,3.46c.71,1.35,2.17,2.89,3.46,3.06,4.21.56,8.53-4.24,8.61-9.73.1-6.59-.23-13.19-.48-19.78a110.09,110.09,0,0,1,6.44-41.35c-1.09,6.39-2.77,12.73-3.14,19.17-.67,11.6-.57,23.26-.77,34.9,0,2.81.13,5.63-.12,8.42-.59,6.78-6.46,11.62-12.07,10.14-3.45-.91-5.07-3.67-4.42-7.52.58-3.37,3.86-6.19,6.74-5.07,1.44.55,3.23,2.73,3.27,4.23s-1.65,3.46-3,4.58c-.57.46-2.24-.72-3.4-1.15Z" style="fill: #ffde17"/>
    <path d="M136.17,106.91c-.82,7.68-1.51,14.75-2.35,21.8a145.39,145.39,0,0,0-.18,36.52c1.21,9-2,16.37-8.25,19.52,6.3-5.3,6.65-12.68,6-20.36-1.59-18.34.1-36.44,3-54.47a10.81,10.81,0,0,1,.59-2C135.09,107.72,135.36,107.61,136.17,106.91Z" style="fill: #ffde17"/>
    <path d="M130,109.09c-1,8.45-2.5,16.87-3,25.36-.5,9.06,0,18.19-.07,27.29a78.8,78.8,0,0,1-.65,12.51c-1,5.84-4.29,8.83-10.13,9.89,9.61-4,9.49-12.83,8.8-21.65a164.56,164.56,0,0,1,4-51.3c.19-.78.5-1.52.75-2.28Z" style="fill: #ffde17"/>
    <path d="M132.66,107.91c-2.19,16-3.78,32-3.21,48.17.17,4.77.65,9.54.64,14.3,0,5.49-1.74,10.18-6.61,13,7.56-8.76,4.78-19.27,4.4-29.41A172.13,172.13,0,0,1,132.66,107.91Z" style="fill: #ffde17"/>
    <path d="M216,173.62l-3.2-.73,0-1.19c1.24,0,2.76-.47,3.65.15s1.5,2.73,1.11,3.46c-.71,1.35-2.17,2.89-3.46,3.06-4.21.56-8.52-4.25-8.61-9.73-.1-6.59.24-13.19.48-19.79a109.83,109.83,0,0,0-6.43-41.34c1.09,6.38,2.76,12.73,3.14,19.17.67,11.6.56,23.26.77,34.9.05,2.8-.13,5.63.11,8.41.6,6.79,6.46,11.63,12.07,10.15,3.46-.91,5.08-3.67,4.42-7.52-.57-3.38-3.85-6.19-6.73-5.08-1.44.56-3.23,2.74-3.28,4.24s1.65,3.45,3,4.57c.56.47,2.23-.71,3.4-1.14Z" style="fill: #ffde17"/>
    <path d="M190.65,104.73c.83,7.69,1.52,14.76,2.35,21.81a144.91,144.91,0,0,1,.18,36.52c-1.21,9,2,16.36,8.25,19.52-6.29-5.3-6.64-12.68-6-20.37,1.59-18.33-.11-36.44-3.05-54.46a11.41,11.41,0,0,0-.6-2C191.74,105.55,191.46,105.43,190.65,104.73Z" style="fill: #ffde17"/>
    <path d="M196.88,106.92c1,8.45,2.49,16.87,3,25.36.51,9.06,0,18.19.08,27.29a80.06,80.06,0,0,0,.64,12.51c1,5.84,4.3,8.83,10.13,9.89-9.61-4-9.48-12.84-8.79-21.66a164.31,164.31,0,0,0-4-51.3,22.33,22.33,0,0,0-.75-2.27Z" style="fill: #ffde17"/>
    <path d="M194.17,105.74c2.18,16,3.78,32,3.2,48.17-.17,4.77-.64,9.53-.63,14.3,0,5.49,1.73,10.17,6.61,13-7.57-8.77-4.79-19.27-4.41-29.41A172.53,172.53,0,0,0,194.17,105.74Z" style="fill: #ffde17"/>
    <path d="M164.14,147.37c-1.71-1-3-1.87-4.5-2.61-5.63-2.86-11.17-2.72-17,0A36.46,36.46,0,0,1,133,147.9c-7.57,1.18-11.91-1-14.07-6.46-5.7,4.85-3.2,12.84,5.44,17.15s24.67,5.45,39-5.67c2.31,1.25,4.67,2.54,7,3.81a38.17,38.17,0,0,0,27.19,4c12.56-2.78,18.25-12.53,11.26-19.55-.47,3.06-2.07,5.54-6.86,6.57A22.57,22.57,0,0,1,188,146.1c-.84-.35-1.64-.75-2.43-1.15-6.28-3.16-12.08-3.09-18.1.27C166.34,145.85,165.35,146.58,164.14,147.37Z" style="fill: #231f20"/>
    <polygon points="176.52 324.95 193.25 346.89 197.63 357.22 202.67 376.22 204.47 393.5 194.84 414.76 186.17 420.5 167.11 427.08 149.7 426.5 132.46 420.5 122.5 407.95 122.96 393.67 121.25 373.48 130.44 351.4 140.93 332.84 152.51 324.14 168.73 318.12 176.52 324.95" style="fill: #d6b59f"/>
    <ellipse cx="135.73" cy="98.2" rx="8.79" ry="10.71" style="fill: #262262"/>
    <path d="M138.17,91.57c0,2,0,3.87,0,5.77a6.11,6.11,0,0,0,.32,2.08,1.53,1.53,0,0,0,1.05.91c.36,0,.88-.52,1-.91A4.72,4.72,0,0,0,141,97.6c0-2.26,0-4.52,0-6.89,2.17-.42,4.3-.87,6.45-1.25a98.36,98.36,0,0,1,54.87,6.4,4.7,4.7,0,0,1,3.07,4.47c.06,4.85,0,9.7,0,14.55,0,1.93-1.22,2.51-3.31,1.62a96.67,96.67,0,0,0-19.51-5.91,99.19,99.19,0,0,0-24.4-1.58,97.24,97.24,0,0,0-32.36,7.49,7.09,7.09,0,0,1-1,.35,1.68,1.68,0,0,1-2.26-1.39,6.32,6.32,0,0,1-.06-1c0-4.58,0-9.16,0-13.73a5.13,5.13,0,0,1,3.63-5.15c.88-.34,1.75-.7,2.76-1.11v1.36c0,2.5,0,5,0,7.52a4.22,4.22,0,0,0,.47,1.79.91.91,0,0,0,1.74,0,4.27,4.27,0,0,0,.49-1.87c.05-2.84,0-5.67,0-8.5,0-1.54,0-1.54,1.92-1.85v6.77a12.31,12.31,0,0,0,.06,1.72,2.53,2.53,0,0,0,.41,1.15,1.52,1.52,0,0,0,1,.61,1.12,1.12,0,0,0,.84-.6,5.65,5.65,0,0,0,.49-2c.05-2.45,0-4.9,0-7.35C136.28,91.85,136.28,91.85,138.17,91.57Z" style="fill: #2e3192"/>
    <path d="M164.5,67.6c10.56.24,20.72,3.48,28.85,11.08a26.64,26.64,0,0,1,8.56,16c0,.27,0,.71-.18.8a1.35,1.35,0,0,1-1-.06,99.47,99.47,0,0,0-23.35-6.22,102.65,102.65,0,0,0-20.06-.75,99,99,0,0,0-31.13,7c-.27.11-.82.19-.88.1a1.48,1.48,0,0,1-.21-1c1.75-10.75,8.67-18,19-22.9C150.23,68.85,156.76,67.65,164.5,67.6Z" style="fill: #262262"/>
    <polyline points="103.49 309.85 97.29 307.39 86.69 304.78 80.53 301.04 72.44 298.84 60.44 291.04 55.1 281.21 51.14 267.57 51.27 263.39 278.14 260.42 274.37 280.23 261.93 295.89 247.3 301.51 234.27 306.21 217.56 308.22 214.11 308.11" style="fill: #00aeef"/>
    <polygon points="198.74 326.89 170.92 303.12 175.13 299.4 181.51 296.08 185.56 292.35 189.39 285.73 191.05 282.89 199.99 288.01 209.31 301.19 215.26 311.36 198.74 326.89" style="fill: #0067b4"/>
    <polygon points="147.52 298.47 126.6 323.82 108.13 312.26 123.64 288.98 128.59 281.43 147.52 298.47" style="fill: #0067b4"/>
    <polygon points="236.83 304.69 226.97 308.54 221.64 308.36 216.13 284.38 213.23 266.91 213.6 255.35 234.63 256.06 236.83 304.69" style="fill: #e77f3c"/>
    <polyline points="108.3 267.63 107.65 287.95 102.78 302.56 99.48 307.47 92.27 307.22 84.52 303.9 80.51 301.81 81.08 283.99 81.56 268.84 84.02 260.96 106.25 263.1" style="fill: #e0843b"/>
    <path d="M171.06,298.94l-12.9-19.09-8.5,10.65-18.47,27.36-.16,4.82,7.28,8.28,4.61,3.05,7.49-3.28s5.3-3.68,6.24-3.65,9.15-1.3,9.15-1.3l6.49,3.11,7,6.35,4.39.15,7.19-8.77,2.92-3.94" style="fill: #d6b59f"/>
    <g>
      <path d="M166.08,383.42c-.4,1.21-2,3.67-1.26,4.38a10.46,10.46,0,0,0,6.55,2.55c3.7,0,7.41-1.08,11.95-1.85l-3,2.46.57.52,8.12-6.49-.76-1.6Zm5.81,6.55L165,387l6.54-2.5Zm14.33-5.13-6.47,3-.86-4.09Z"/>
      <path d="M190.53,396.09c-3.88,1-8.53,2.79-13.36,3.33-2.6.29-5.58-1.39-8.27-2.4-2.27-.85-4.38-2-7-2.42,1.74,1.39,3.52,2.75,5.22,4.18C175,405.39,186.37,403.64,190.53,396.09Z"/>
      <path d="M171.89,390l-.39-5.52L165,387Z" style="fill: #fff"/>
      <path d="M186.22,384.84l-7.33-1.12.86,4.09Z" style="fill: #fff"/>
    </g>
    <g>
      <path d="M137.14,382.23c-.52,1.16-2.38,3.47-1.71,4.24a10.44,10.44,0,0,0,6.26,3.13c3.7.3,7.5-.41,12.1-.75l-3.2,2.17.51.57,8.76-5.72-.59-1.66Zm5.12,7-6.6-3.63,6.77-1.89Zm14.79-3.81-6.75,2.37-.43-4.15Z"/>
      <path d="M160.18,397.05c-4,.67-8.78,2-13.65,2.1-2.62.05-5.4-1.89-8-3.14-2.18-1.05-4.15-2.4-6.69-3,1.59,1.54,3.22,3.06,4.77,4.63C143.79,404.89,155.26,404.18,160.18,397.05Z"/>
      <path d="M142.26,389.27l.17-5.52-6.77,1.89Z" style="fill: #fff"/>
      <path d="M157.05,385.46l-7.18-1.78.43,4.15Z" style="fill: #fff"/>
    </g>
    <path d="M216.78,339.57l-3.22.62-.08,1.19c1.25,0,2.75.57,3.66,0s1.58-2.68,1.22-3.43c-.66-1.37-2.07-3-3.36-3.17-4.18-.7-8.66,4-8.91,9.43-.31,6.59-.19,13.2-.16,19.79a109.65,109.65,0,0,1-7.76,41.11c1.3-6.34,3.18-12.63,3.75-19,1.05-11.57,1.32-23.23,1.9-34.85.14-2.81.05-5.64.38-8.41C205,336,211,331.38,216.59,333c3.42,1,5,3.84,4.17,7.67-.68,3.35-4,6.05-6.89,4.84-1.42-.6-3.14-2.84-3.13-4.34s1.75-3.4,3.14-4.47c.58-.45,2.21.79,3.36,1.26Z" style="fill: #ffde17"/>
    <path d="M189.27,407.57c1.07-7.66,2-14.7,3-21.72a144.72,144.72,0,0,0,1.35-36.49c-.92-9.07,2.51-16.29,8.87-19.23-6.45,5.08-7,12.45-6.62,20.15,1,18.38-1.28,36.42-4.8,54.33a10,10,0,0,1-.66,2C190.38,406.79,190.11,406.9,189.27,407.57Z" style="fill: #ffde17"/>
    <path d="M195.57,405.59c1.29-8.41,3-16.77,3.77-25.24.8-9,.59-18.18.95-27.27a78.45,78.45,0,0,1,1.05-12.49c1.17-5.8,4.57-8.68,10.44-9.54-9.73,3.69-9.89,12.51-9.48,21.35a164.24,164.24,0,0,1-5.62,51.14c-.21.77-.54,1.5-.81,2.25Z" style="fill: #ffde17"/>
    <path d="M192.82,406.69c2.69-15.9,4.81-31.84,4.75-48,0-4.78-.34-9.55-.18-14.32.18-5.49,2.06-10.11,7-12.77-7.85,8.51-5.4,19.1-5.35,29.25A172.17,172.17,0,0,1,192.82,406.69Z" style="fill: #ffde17"/>
    <path d="M111.66,338.21l3.18.83v1.19c-1.24,0-2.77.39-3.65-.26s-1.41-2.78-1-3.5c.76-1.33,2.26-2.82,3.56-3,4.22-.41,8.39,4.54,8.29,10-.11,6.59-.66,13.18-1.11,19.76a109.9,109.9,0,0,0,5.1,41.54c-.88-6.42-2.36-12.82-2.52-19.26-.3-11.62.18-23.27.35-34.91,0-2.81.31-5.63.15-8.42-.38-6.8-6.08-11.83-11.74-10.54-3.47.79-5.19,3.5-4.65,7.36.47,3.4,3.65,6.32,6.56,5.3,1.46-.5,3.32-2.62,3.41-4.12s-1.53-3.51-2.85-4.67c-.55-.49-2.26.64-3.44,1Z" style="fill: #ffde17"/>
    <path d="M134.75,407.91c-.57-7.71-1-14.8-1.65-21.87a145.38,145.38,0,0,1,1-36.51c1.49-9-1.46-16.42-7.62-19.79,6.12,5.51,6.23,12.9,5.32,20.56-2.18,18.27-1.07,36.42,1.3,54.54a11,11,0,0,0,.53,2C133.7,407.06,134,407.18,134.75,407.91Z" style="fill: #ffde17"/>
    <path d="M128.6,405.52c-.76-8.48-1.95-16.95-2.15-25.45-.21-9.07.58-18.18.8-27.28a79.3,79.3,0,0,0-.24-12.53c-.8-5.86-4-9-9.81-10.22,9.48,4.34,9.07,13.15,8.1,21.94a164.18,164.18,0,0,0,2.32,51.41c.16.78.44,1.53.67,2.3Z" style="fill: #ffde17"/>
    <path d="M131.27,406.79c-1.67-16-2.75-32.09-1.66-48.26.33-4.76.95-9.5,1.1-14.27.17-5.49-1.41-10.22-6.19-13.21,7.28,9,4.16,19.42,3.46,29.54A172.44,172.44,0,0,0,131.27,406.79Z" style="fill: #ffde17"/>
    <path d="M162.62,366.19c1.68,1.05,3,2,4.42,2.76,5.53,3.05,11.07,3.09,17,.58a36.9,36.9,0,0,1,9.72-2.83c7.6-.92,11.88,1.41,13.86,6.93,5.85-4.65,3.6-12.72-4.89-17.32s-24.48-6.28-39.2,4.35l-6.93-4.05a38.17,38.17,0,0,0-27.05-4.86c-12.64,2.35-18.63,11.91-11.88,19.16.57-3,2.25-5.47,7.07-6.34a22.66,22.66,0,0,1,14,2.08c.83.39,1.61.81,2.39,1.24,6.18,3.37,12,3.49,18.1.34C160.37,367.63,161.38,366.93,162.62,366.19Z" style="fill: #231f20"/>
    <ellipse cx="191.34" cy="416.71" rx="8.79" ry="10.71" style="fill: #262262"/>
    <path d="M186.79,422.83c.06-2,.15-3.86.17-5.76a6.38,6.38,0,0,0-.25-2.09c-.13-.4-.65-.94-1-1s-.9.48-1.08.87a4.69,4.69,0,0,0-.41,1.81c-.11,2.26-.16,4.52-.23,6.88-2.19.36-4.33.73-6.49,1a98.51,98.51,0,0,1-54.64-8.24,4.72,4.72,0,0,1-2.92-4.58c.1-4.84.27-9.69.46-14.53.07-1.94,1.3-2.47,3.36-1.52a96.19,96.19,0,0,0,19.31,6.57,98.91,98.91,0,0,0,24.33,2.39A96.77,96.77,0,0,0,200,398.33a6,6,0,0,1,1-.31,1.67,1.67,0,0,1,2.21,1.46,6.38,6.38,0,0,1,0,1q-.22,6.85-.44,13.72a5.13,5.13,0,0,1-3.79,5c-.89.31-1.77.64-2.8,1,0-.52,0-.94,0-1.36.08-2.51.19-5,.22-7.52a4.27,4.27,0,0,0-.41-1.81.92.92,0,0,0-1.75-.07,4.35,4.35,0,0,0-.54,1.85c-.14,2.83-.21,5.67-.3,8.5-.05,1.54-.05,1.54-2,1.78.07-2.27.15-4.52.21-6.77a12.34,12.34,0,0,0,0-1.72,2.64,2.64,0,0,0-.37-1.16,1.52,1.52,0,0,0-.93-.65,1.17,1.17,0,0,0-.87.57,5.68,5.68,0,0,0-.54,1.95c-.14,2.44-.18,4.9-.26,7.35C188.68,422.62,188.68,422.62,186.79,422.83Z" style="fill: #2e3192"/>
    <path d="M159.7,445.91c-10.55-.61-20.59-4.18-28.48-12.05a26.65,26.65,0,0,1-8-16.3c0-.27,0-.71.2-.79a1.34,1.34,0,0,1,1,.09,99.3,99.3,0,0,0,23.13,7,101.63,101.63,0,0,0,20,1.42,98.67,98.67,0,0,0,31.35-5.93c.27-.1.82-.16.87-.06a1.41,1.41,0,0,1,.18,1c-2.09,10.69-9.24,17.73-19.76,22.25C174,445.14,167.43,446.11,159.7,445.91Z" style="fill: #262262"/>
    <g>
      <path d="M257.69,232.71a14.49,14.49,0,0,1,1.05,3.27c.22,2.85.19,2.91,3.06,2.92h.42c3.21,0,3.25,0,3.29-3.22,0-1.42.36-2.84,1.87-2.67.69.08,1.37,1.66,1.75,2.67s-.63,2.9,1.18,3.45c2.33.71,4.6,3.17,7.19.48a2.93,2.93,0,0,1,1.61-.91c.71-.06,1.81,0,2.09.48a2.62,2.62,0,0,1-.29,2.19c-.63,1-2.1,1.9-2.17,2.91s1.11,2.15,1.76,3.23c.33.54.69,1.05,1.14,1.75a16.75,16.75,0,0,1,3-1.9,7.72,7.72,0,0,1,2.67,0c-.19.88-.12,1.95-.61,2.59a12.82,12.82,0,0,1-2.76,2.21c-2.23,1.58-2.28,3.9-.1,5.48a17.33,17.33,0,0,1,2.81,2.19,6.84,6.84,0,0,1,.82,2.33c-.8.19-1.71.71-2.4.49a18,18,0,0,1-3.4-1.89c-1,1.54-2.07,2.94-2.93,4.44a1.94,1.94,0,0,0,.26,1.63c.4.54,1.13.81,1.63,1.29.87.82,1.44,1.77.58,3s-1.84.71-2.5,0c-2.76-3-5.65-1.66-8.47-.3-.54.26-.8,1.32-1,2.07-.29,1.06-.29,2.21-.65,3.23a1.69,1.69,0,0,1-1.41.88c-.56-.14-1-.79-1.46-1.29-.16-.18-.13-.54-.16-.82-.41-3.84-1.48-4.67-5.25-3.78-.59.14-1.17,1.05-1.42,1.73s.12,1.62-.16,2.29a9,9,0,0,1-1.6,2c-.62-.66-1.24-1.31-1.84-2-.07-.08,0-.28,0-.42-.23-1.13-.18-3-.74-3.24a10.13,10.13,0,0,0-4.69-.27c-.45.06-1,1.38-1.05,2.17-.18,1.54.17,3.62-1.89,3.64s-2-2-1.91-3.58c.08-1.81-.7-2.62-2.51-2.42a14.57,14.57,0,0,1-2.09,0c-1.33-.06-1.9.64-1.93,1.92a7,7,0,0,1-.12,2.31c-.27.69-.92,1.61-1.5,1.69s-1.31-.75-1.76-1.35a3.29,3.29,0,0,1-.24-1.64c-.11-2.69-.34-2.92-2.9-2.94-3.59,0-3.59,0-3.83,3.65-.08,1.17-.22,2.58-1.7,2.34-.65-.11-1.21-1.4-1.62-2.25-.23-.46,0-1.11-.1-1.67-.1-1.32-.73-2.1-2.13-2.07-.77,0-1.54,0-2.3,0-1.62,0-2.48.71-2.43,2.43a6.06,6.06,0,0,1-.18,2.3,2.08,2.08,0,0,1-1.33,1.27,1.86,1.86,0,0,1-1.42-1.07,9.26,9.26,0,0,1-.32-2.7c-.08-1.44-.75-2.23-2.22-2.23H210c-1.74,0-2.54.86-2.46,2.64a6.53,6.53,0,0,1-.2,2.3c-.16.48-.81,1.14-1.19,1.11a2.19,2.19,0,0,1-1.49-1,5,5,0,0,1-.28-2.07c-.11-2.61-.47-2.93-3.43-2.94s-3.43.34-3.54,2.83a3.3,3.3,0,0,1,0,.63c-.23,1.1.07,2.68-1.7,2.63s-1.52-1.54-1.56-2.7a3.77,3.77,0,0,0-5.81-3.14,3.2,3.2,0,0,0-1,1.72c-.18.51.11,1.22-.13,1.66-.46.88-1.07,2.25-1.74,2.33-1.48.17-1.51-1.3-1.57-2.44-.17-3.26-2-4.54-5-3.32a2.83,2.83,0,0,0-1.24,1.92c-.72,4.33-3.47,6.8-7.88,6.8q-42.37,0-84.75,0c-6.57,0-10.83-3.51-13.71-9-1.06-2-2.09-3-4.57-3-7.17.21-14.37,0-21.55.12a8.52,8.52,0,0,1-8.92-8.9c.29-6.34.29-12.72,0-19.07-.25-5.52,3.39-7.82,7.2-8.93,6.08-1.76,12.21-3.31,18.34-4.9,6.65-1.73,13.22-3.41,20.28-3.22,14.15.38,28.32.11,42.48.11,3,0,3.22-.23,3.23-3.23,0-3.68-.07-7.36,0-11,.12-3.84,1.85-5.58,5.32-5.66,3.28-.07,5.52,2,5.57,5.49.09,5.94,0,11.87,0,17.81,0,3.32,0,3.32,3.21,3.32,9,0,18,0,27,0,5.3,0,7.71,2.13,8.73,7.38.12.64,1,1.33,1.68,1.62a7.39,7.39,0,0,0,2.27.08c1.6.11,2.26-.62,2.24-2.24s-.46-3.67,1.7-3.65c1.87,0,1.62,2.1,1.65,3.55,0,1.65.7,2.52,2.43,2.35a10.73,10.73,0,0,1,1.88,0c1.87.14,2.68-.66,2.63-2.6,0-1.32-.45-3.31,1.58-3.27,1.85.05,1.66,2,1.63,3.33,0,2,.85,2.7,2.68,2.54a7.22,7.22,0,0,1,1.47,0c2,.18,3.07-.61,2.84-2.78a2,2,0,0,1,0-.42c.06-1.2,0-2.71,1.59-2.74s1.42,1.53,1.62,2.69.44,2.8.9,2.88a20.12,20.12,0,0,0,5.31-.07c.26,0,.51-.93.61-1.46a10.83,10.83,0,0,1,.19-2.09,10.52,10.52,0,0,1,1.48-2c.56.68,1.51,1.31,1.62,2.06.59,4.06.52,4,4.58,4,1.74,0,2.39-.74,2.39-2.4a6.28,6.28,0,0,1,.36-2.46,2,2,0,0,1,1.5-1.06c.53.08,1,.82,1.41,1.34.15.18.07.55.11.82.2,1.15.13,3.11.64,3.28a13,13,0,0,0,4.92.32c.4,0,.93-.92,1.08-1.5.2-.8-.11-1.77.2-2.5a7.55,7.55,0,0,1,1.7-1.9c.6.68,1.22,1.34,1.77,2.07.13.18,0,.55,0,.83.06,3.12.06,3.12,3.17,3.13s3.27,0,3.35-3.37c0-1.41.62-2.58,1.88-2.61s1.94,1.1,1.9,2.55c-.08,3.94.05,3.41,3.64,3.42,2.83,0,2.9,0,2.86-3C255.2,234.35,255.57,233.25,257.69,232.71ZM122.83,276.4q19,0,38.07,0c1.64,0,2.66-.33,2.66-2.31q-.06-19.28,0-38.56c0-1.43-.54-2.06-2-2.06q-10.35,0-20.71,0c-1.68,0-2.16.75-2.11,2.34a85,85,0,0,1,0,8.89,8.38,8.38,0,0,1-1.55,4.43c-3.64,4.45-7.47,8.73-11.34,13a5.16,5.16,0,0,1-7.79.41c-2.11-1.87-2.26-5.58-.24-8a61.85,61.85,0,0,1,5.56-6.29A13.32,13.32,0,0,0,127.87,236c-.22-1.79-.77-2.52-2.52-2.51q-20.4,0-40.79,0a9.58,9.58,0,0,0-6.66,2.59c-4.3,3.92-6.06,9.07-6.45,14.67-.33,4.77-.42,9.58,1.17,14.25,2.18,6.43,6,11.62,14,11.44C98.7,276.2,110.76,276.4,122.83,276.4Zm100.9-34.11h-43.1c-2.74,0-3,.27-3,3q0,9.21,0,18.44c0,3.93,0,3.94,4,3.94h81c1.4,0,2.8.09,4.18,0,5.41-.53,9.4-3.31,11.24-8.44a12.17,12.17,0,0,0-2.13-12.34c-2.79-3.41-6.46-4.63-10.73-4.61C251.35,242.32,237.54,242.29,223.73,242.29Zm-149.4-8.21a7.55,7.55,0,0,0-1.76-.07c-3.76,1-7.52,2-11.27,3-4,1.1-8,2.41-12.07,3.2-2.15.42-2.81,1.3-2.77,3.32.06,3.81.1,7.62,0,11.43-.06,2,.74,2.55,2.59,2.52,5.3-.1,10.6-.13,15.89,0,2,.05,2.59-.59,2.61-2.62a34.41,34.41,0,0,1,3.56-15.47C72,237.71,73.09,236.11,74.33,234.08Zm26.18-4.27c7.95,0,15.9,0,23.86,0,1.24,0,3.25.72,3.29-1.43s-2-1.76-3.34-1.76c-14.58,0-29.16.15-43.74-.1-5.27-.09-10.21,1.14-15.19,2.39C59,230.48,52.58,232.1,46.24,234c-5.59,1.65-6.62,2.38-6.47,8,.14,5.5,0,11,0,16.53,0,4.14,1.42,5.73,5.45,5.76,7,0,14,0,20.93,0,.35,0,.77.09,1-.07A11.43,11.43,0,0,0,68.59,263c-.45-.52-.82-1.24-1.39-1.51a5,5,0,0,0-2.06-.15c-6.42,0-12.83,0-19.25,0-2.28,0-3-.66-3-2.82,0-6-.1-12,.07-18a3.51,3.51,0,0,1,1.81-2.67c3.56-1.17,7.24-2,10.87-2.93,4.09-1.09,8.15-2.33,12.26-3.31a49.88,49.88,0,0,1,9.61-1.73C85.15,229.64,92.83,229.81,100.51,229.81Zm66.6,25.13c0,6.36,0,12.71,0,19.07,0,1.71.6,2.42,2.32,2.4,3.29,0,5-1.73,5-5.4q0-15.88,0-31.77a9.92,9.92,0,0,0-.79-3.68c-.69-1.72-3.11-2.55-5.27-2-1.85.47-1.15,2-1.16,3.16C167.08,242.79,167.11,248.87,167.11,254.94Zm-31.85-28.17h0c0-5.86.09-11.73-.08-17.59,0-.89-1.2-1.76-1.85-2.64a21.92,21.92,0,0,0-2.17,2.66c-.28.46-.06,1.24-.06,1.87,0,9.54-.15,19.08.07,28.61a11,11,0,0,1-3.49,9,78.07,78.07,0,0,0-7.28,8.69c-.39.49-.32,2.07,0,2.29a4.36,4.36,0,0,0,2.63.2c.39-.05.74-.61,1.06-1,3.13-3.6,6.21-7.23,9.39-10.77a6.86,6.86,0,0,0,1.79-5C135.21,237.64,135.26,232.21,135.26,226.77Z"/>
      <path d="M122.83,276.4c-12.07,0-24.13-.2-36.19.07-8,.18-11.84-5-14-11.44-1.59-4.67-1.5-9.48-1.17-14.25.39-5.6,2.15-10.75,6.45-14.67a9.58,9.58,0,0,1,6.66-2.59q20.39,0,40.79,0c1.75,0,2.3.72,2.52,2.51a13.32,13.32,0,0,1-4.52,12.24,61.85,61.85,0,0,0-5.56,6.29c-2,2.42-1.87,6.13.24,8a5.16,5.16,0,0,0,7.79-.41c3.87-4.24,7.7-8.52,11.34-13a8.38,8.38,0,0,0,1.55-4.43,85,85,0,0,0,0-8.89c0-1.59.43-2.35,2.11-2.34q10.35.06,20.71,0c1.43,0,2,.63,2,2.06q0,19.27,0,38.56c0,2-1,2.31-2.66,2.31Q141.87,276.38,122.83,276.4Zm30.56-37.66c-4-.31-6.4,3.34-6.48,6.51a6.72,6.72,0,0,0,6.63,6.92,6.61,6.61,0,0,0,6.55-6.74C160,241.86,157.78,238.53,153.39,238.74Zm.18,19.57a6.56,6.56,0,0,0-6.68,6.63,6.9,6.9,0,0,0,6.68,6.95,6.83,6.83,0,0,0,6.55-6.83A6.57,6.57,0,0,0,153.57,258.31Z" style="fill: #dd823a"/>
      <path d="M223.73,242.29c13.81,0,27.62,0,41.43,0,4.27,0,7.94,1.2,10.73,4.61A12.17,12.17,0,0,1,278,259.23c-1.84,5.13-5.83,7.91-11.24,8.44-1.38.13-2.78,0-4.18,0h-81c-4,0-4,0-4-3.94q0-9.22,0-18.44c0-2.76.23-3,3-3Zm41.21,19.29c4.31.44,6.68-3.69,6.67-6.75a6.65,6.65,0,1,0-13.29.19C258.35,258.14,260.89,262,264.94,261.58Z" style="fill: #939598"/>
      <path d="M100.51,229.81c-7.68,0-15.36-.17-23,.08a49.88,49.88,0,0,0-9.61,1.73c-4.11,1-8.17,2.22-12.26,3.31-3.63,1-7.31,1.76-10.87,2.93a3.51,3.51,0,0,0-1.81,2.67c-.17,6-.12,12-.07,18,0,2.16.74,2.81,3,2.82,6.42,0,12.83,0,19.25,0a5,5,0,0,1,2.06.15c.57.27.94,1,1.39,1.51a11.43,11.43,0,0,1-1.41,1.21c-.26.16-.68.07-1,.07-7,0-14,0-20.93,0-4,0-5.46-1.62-5.45-5.76,0-5.51.14-11,0-16.53-.15-5.66.88-6.39,6.47-8,6.34-1.86,12.74-3.48,19.15-5.08,5-1.25,9.92-2.48,15.19-2.39,14.58.25,29.16.08,43.74.1,1.38,0,3.39-.43,3.34,1.76s-2,1.43-3.29,1.43C116.41,229.84,108.46,229.81,100.51,229.81Z" style="fill: #6d6d6d"/>
      <path d="M167.11,254.94c0-6.07,0-12.15,0-18.22,0-1.12-.69-2.69,1.16-3.16,2.16-.55,4.58.28,5.27,2a9.92,9.92,0,0,1,.79,3.68q.09,15.88,0,31.77c0,3.67-1.69,5.36-5,5.4-1.72,0-2.34-.69-2.32-2.4C167.15,267.65,167.11,261.3,167.11,254.94Z" style="fill: #8c7347"/>
      <path d="M135.26,226.77c0,5.44,0,10.87,0,16.31a6.86,6.86,0,0,1-1.79,5c-3.18,3.54-6.26,7.17-9.39,10.77-.32.36-.67.92-1.06,1a4.36,4.36,0,0,1-2.63-.2c-.37-.22-.44-1.8,0-2.29a78.07,78.07,0,0,1,7.28-8.69,11,11,0,0,0,3.49-9c-.22-9.53-.07-19.07-.07-28.61,0-.63-.22-1.41.06-1.87a21.92,21.92,0,0,1,2.17-2.66c.65.88,1.82,1.75,1.85,2.64.17,5.86.08,11.73.08,17.59Z" style="fill: #6d6d6d"/>
      <path d="M153.39,238.74c4.39-.21,6.62,3.12,6.7,6.69a6.61,6.61,0,0,1-6.55,6.74,6.72,6.72,0,0,1-6.63-6.92C147,242.08,149.38,238.43,153.39,238.74Zm.07,9.62a3,3,0,0,0,3.2-2.88,3.13,3.13,0,1,0-6.25-.13A2.87,2.87,0,0,0,153.46,248.36Z"/>
      <path d="M153.57,258.31a6.57,6.57,0,0,1,6.55,6.75,6.83,6.83,0,0,1-6.55,6.83,6.9,6.9,0,0,1-6.68-6.95A6.56,6.56,0,0,1,153.57,258.31Zm3.09,6.65a3.75,3.75,0,0,0-3.2-3.34c-1.47,0-3.06,1.82-3.05,3.45a3,3,0,0,0,3.06,3.07A3.14,3.14,0,0,0,156.66,265Z"/>
      <path d="M264.94,261.58c-4.05.44-6.59-3.44-6.62-6.56a6.65,6.65,0,1,1,13.29-.19C271.62,257.89,269.25,262,264.94,261.58Zm3.12-6.57a3.1,3.1,0,0,0-3.11-3.24,3.3,3.3,0,0,0-3.17,3,3.45,3.45,0,0,0,3.07,3.4A3.32,3.32,0,0,0,268.06,255Z"/>
      <path d="M153.46,248.36a2.87,2.87,0,0,1-3.05-3,3.13,3.13,0,1,1,6.25.13A3,3,0,0,1,153.46,248.36Z" style="fill: #fff"/>
      <path d="M156.66,265a3.14,3.14,0,0,1-3.19,3.18,3,3,0,0,1-3.06-3.07c0-1.63,1.58-3.43,3.05-3.45A3.75,3.75,0,0,1,156.66,265Z" style="fill: #fff"/>
    </g>
    <path d="M164.81,129.25c.31,3.23.59,6.47.94,9.69.39,3.72.11,4.76-1.7,6.27a12.52,12.52,0,0,0-1.43,1.77l.14.72c.29-.07.62,0,.87-.23,3.08-3,3.91-3,2.83-10.57-.36-2.53-.64-5.1-1-7.65Z"/>
    <path d="M163.6,383.75c.31-3.24.6-6.48.94-9.7.4-3.72.12-4.76-1.69-6.27a12.56,12.56,0,0,1-1.44-1.77l.14-.72c.3.07.62,0,.87.23,3.09,3,3.91,3,2.83,10.57-.35,2.53-.64,5.1-1,7.66Z"/>
    <g>
      <path d="M53.73,150.17c-2.1-2.72-4.13-5.25-3.46-8.84l1.46.95a8.38,8.38,0,0,0,12.76-8.1c-.27-3.53-2.24-6.32-4.79-8.76-1.92-1.83-4-3.51-5.93-5.35-2.07-2-4-4.12-6-6.16-1.39,1.53-2.77,3.21-4.33,4.73-2.54,2.5-5.26,4.84-7.78,7.36s-4.46,5.73-4.33,9.53a7.43,7.43,0,0,0,4.72,7,8.62,8.62,0,0,0,8.6-.68,6.15,6.15,0,0,1,.8-.38c1,3.5-.94,6-2.93,8.66Z" style="fill: #231f20"/>
      <path d="M53.73,150.17H42.52c2-2.63,3.91-5.16,2.93-8.66a6.15,6.15,0,0,0-.8.38,8.62,8.62,0,0,1-8.6.68,7.43,7.43,0,0,1-4.72-7c-.13-3.8,1.67-6.87,4.33-9.53s5.24-4.86,7.78-7.36c1.56-1.52,2.94-3.2,4.33-4.73,2,2,3.93,4.15,6,6.16,1.92,1.84,4,3.52,5.93,5.35,2.55,2.44,4.52,5.23,4.79,8.76a8.38,8.38,0,0,1-12.76,8.1l-1.46-.95C49.6,144.92,51.63,147.45,53.73,150.17Z"/>
    </g>
  </g>
</svg>
