<svg id="Layer_1" data-name="Layer 1" xmlns="http://www.w3.org/2000/svg" viewBox="0 0 2653.3 1509.55">
  <title>Artboard 17</title>
  <g>
    <path d="M692.24,295.67c3.09,1,6.17-.51,9.77,1a33.68,33.68,0,0,0,17.49,0c3.6-1,7.72.52,10.8-1.54,3.09-1.54,6.17-.52,9.26-1,0,1-.52,2.06,0,3.09h1.54c.52.51-.51,2,0,2.57,2.06,3.08,5.66,5.65,6.69,8.74,3.08,10.29,10.8,21.6,22.11,19.54,1.55-.51,3.09-4.11,5.66-3.6v-1.54h1.54v-1.54c3.6-1,6.69-5.14,8.75-8.23,7.71-8.74,20.57-8.74,30.85-5.14s22.12,8.74,31.38,4.63c5.27-2.2,11.67-5.53,16.31-10-32.28-51.77-66.68-89.87-105.83-103-19-6.37-42.71,31.81-68.39,94.22a8.58,8.58,0,0,1,2.07.22Z" style="fill: #fff"/>
    <path d="M1283.75,886.67C1078.07,916.33,986.17,507.4,863.93,303c-4.63,4.63-11,8.1-16.29,10.39-9.25,4.28-21.06-1.07-31.34-4.82s-23.12-3.75-30.82,5.36c-2.06,3.21-5.14,7.49-8.73,8.56v1.61H775.2v1.61c-2.56-.54-4.11,3.21-5.65,3.75-11.3,2.14-19-9.64-22.09-20.35-1-3.22-4.62-5.9-6.67-9.11-.52-.53.51-2.14,0-2.68h-1.55c-.51-1.07,0-2.14,0-3.21-3.08.53-6.16-.54-9.24,1.07-3.08,2.14-7.19.54-10.79,1.61a32.39,32.39,0,0,1-17.47,0c-3.59-1.61-6.67,0-9.76-1.07v-1.61a8.12,8.12,0,0,0-2.07-.23c-80.13,203-180,652.15-220.39,702.6V1216l2183.78,21.07V1092.58C2354.29,937.25,1704.31,826,1283.75,886.67Z" style="fill: #44433f"/>
    <path d="M2399.75,502.94c13.37,2.06,24.68,6.69,32.4,18,9.77,14.92,15.94,31.37,32.4,38.57A264.61,264.61,0,0,0,2521.12,576c17.44,3.08,34.37,1.55,51.81,2.06,1.12-94.32.29-182.73-17.38-234.33-34-99.17-140-28.56-260.81,100.91l.09.21C2318.49,481.85,2358.6,494.71,2399.75,502.94Z" style="fill: #f7f7f7"/>
    <path d="M2572.93,582.91c-17.44-.52-34.37,1.06-51.81-2.13a258.67,258.67,0,0,1-56.57-17.06c-16.46-7.47-22.63-24.53-32.4-40-7.72-11.73-19-16.52-32.4-18.66-41.15-8.53-81.26-21.85-104.92-60.24l-.09-.22c-209.63,232.81-463.85,649.23-463.85,649.23l822.38,8V987.15C2561.27,985.23,2570.75,772.55,2572.93,582.91Z" style="fill: #44433f"/>
    <path d="M700,1508.47c232.94-69.1,465.33-69.13,698.86,1.08-1.52-1.81-2.06-2.63-2.77-3.28-86-78.39-188.3-123-307.59-132.38-7.35-.57-10-2.24-10-9.59.12-21.2-.74-42.39-1.14-63.59-.12-6.39,0-12.78,0-20.35,18.27,1.94,34.25-2.6,49.32-10.94-2.56-2.73-4.84-5.16-8.32-8.85l20.85-2.32-13.61-11.73.84-1.19,30.5,6.18,1-2.22-16.75-14.17a13.35,13.35,0,0,1,7.11,1.43c19.37,9.15,38.64,18.5,58.1,27.48,14,6.45,28,12.89,42.37,18.41,6.67,2.56,14.28,2.92,21.47,4.27l1.06-2.79-36.6-26.78,7.2-1.43-51.42-45.26c2.9,1.21,4,1.61,5.13,2.14q41.21,20.57,82.43,41.09a52.55,52.55,0,0,0,12,4.49c2.5.54,5.42-.68,8.16-1.12a60.94,60.94,0,0,0-3.43-7.53c-.69-1.13-2.36-1.79-3.69-2.5-22.46-12.19-33.9-34.36-51.87-50.74,20.5,8.63,38.65,20.62,55.55,34,18.3,14.47,39.05,24.29,60.9,32.51,3.19,1.2,6.94,1.09,11,1.67-4.07-12.26-11.2-20.92-21.38-26.31-17.71-9.37-25.85-26.6-38.94-40.06,42.15,28.31,88.35,47.2,138.39,57.63l1.88-2.31-34.87-38.32a116,116,0,0,1,17.78,9c13.58,8.11,26.92,16.57,40.68,24.38,4.19,2.38,9.45,3.08,14.22,4.55l1.81-2.89c-29.65-23.3-57.12-48.52-80.16-79.15l77.63,28.66,1.42-2-18.93-18.42c.26-.41.52-.81.79-1.21l74.43,31.29,1.46-1.72c-1.2-1.75-2-4.18-3.66-5.15-28.84-16.45-53.64-37.35-76.65-60.42-16.26-16.31-32.64-32.58-50.11-47.7-10.8-9.34-24.39-15.78-35.56-24.8-16.27-13.12-31.44-27.44-47.18-41.15-5.85-5.09-12-9.89-18-14.82,15.87,8.73,32.52,16.46,46.54,27.24,18.26,14,39.21,23.3,59.2,34.28,4.78,2.63,10.38,3.94,15.61,5.85l1-1.77-28.37-30.6c23.58,12.58,46.93,24.38,71.24,34.4l1.93-2.37-24-20.69c18,8.24,35,17.39,52.27,26.21,3.54,1.82,7.8,2.4,11.72,3.54.37-.61.74-1.21,1.1-1.82l-8.86-9.57.91-.88,34,13.6,1.92-3-29.61-24c7.9.73,14.8,3.11,21.86,5,6.89,1.83,13.93,3.16,20.91,4.7.11-.66.22-1.31.34-2-85.25-43.31-170.58-86.48-243.18-148.46,14,3.11,27.49,7.33,40.93,11.58,9.17,2.9,18.28,6,27.55,8.61a8.09,8.09,0,0,0,6.08-1.49c.7-.54-.39-3.4-1-5.1-.42-1.17-1.39-2.16-2.74-4.17l28.93,9.26c-4.67-14.65-16.08-21-25.09-29.18l1.14-1.55,98.12,42.27c-.69-5.11-1-7.57-1.37-10.14,11.6,2.59,19,13.92,33.64,13l-8.18-14.07,42.57,11c-4.08-5.2-8.53-9.94-14.06-12.83-25.38-13.28-50.35-27.54-76.79-38.64-37.53-15.75-73.55-33.29-104.64-59-2.24-1.84-4.33-3.85-6.49-5.78,1.57-.68,2.31-.59,3-.34,16.09,6,32.16,12.12,48.27,18.12,6,2.23,12,4.69,19.14,1.64l-5.77-7.76,1.23-1.52,34,18.78,2.36-2.79c-3.91-3.61-7.68-7.36-11.74-10.82-15-12.71-30-25.3-45-38-1.12-.95-1.69-2.47-2.92-4.35,22.37,12.45,43.83,24.34,65.24,36.32,9.62,5.39,12.47,4.78,14.56-5.06L1512,858.74c-.89-6.1-1.44-9.82-2.08-14.21,10.86-1.34,20,8.81,30.64,3.64-3.9-3.91-7.23-7.88-11.24-11.11-4.24-3.42-9.33-5.88-13.68-9.2-36.77-28-74.68-54.39-116.34-75.77a348.08,348.08,0,0,1-38.93-23.86c-8.38-5.8-15.16-13.6-23.15-20-17.52-13.91-35.36-27.47-53.07-41.17a46,46,0,0,1,8.92,4.3q32.19,19.5,64.33,39.06c4.78,2.9,9.47,5.14,11.05-2.72,10.31,3.58,19.44,9.53,31.48,8-.19-3.36-.36-6.24-.56-9.82l32.89,10.58c.38-.63.76-1.26,1.13-1.89-3.65-3.27-7.62-6.28-10.85-9.89s-5.57-7.66-8.3-11.53l2.08-1.62c21,5.32,39.93,16.75,62.14,19.19-37.34-26.18-76.2-50.12-113-76.66-36.93-26.66-71.75-55.9-107.8-84.26,13.54,5,24.65,14.68,40.65,17.92l-5-11.55c6.69,3.45,12.05,6.5,17.66,9,7.77,3.5,15.47,7.52,23.69,9.62,9.54,2.43,11.37-.28,7.83-9.08a18.87,18.87,0,0,1-.52-3.87L1377.29,579l2-2.18L1373.18,564c13.22,3.26,20.7,17.42,36.55,15.62l-5-11.14c9.94,3.86,17.15,11,27.94,6.21a80.88,80.88,0,0,0-15.55-13.3c-32-20.06-61.36-42.7-86.67-70.4-16-17.55-34.92-33-53.63-48.14s-39-28.71-58.32-43.31c-9.27-7-17.86-14.79-26.76-22.23l.72-.8,52.13,23c-.72-5.87-1.13-9.2-1.45-11.73,15,4,30.28,8.16,45.56,12.26,2.7.72,5.4,1.73,8.14,1.91,2.34.16,4.75-.69,7.12-1.1a35.54,35.54,0,0,0-1.48-6,59.85,59.85,0,0,0-3.75-6.46l1.56-1.16c8.39,6.2,16.61,12.63,25.26,18.49,3.28,2.23,7.55,3.16,11.37,4.68.16-3.82.31-7.63.5-11.44a2.14,2.14,0,0,1,.33-.87c9.64,0,13.64,13.3,27.78,9.11-5.32-5.61-9.1-10.25-13.59-14.17-6.36-5.54-13.63-10.18-19.85-15.84-25.88-23.57-51.5-47.38-77.22-71.09-1.83-1.68-3.46-3.69-5.58-4.93-17.42-10.11-29-25.52-41-40.44-6.63-8.25-11.87-17.49-17.74-26.28l1.32-.57,18.12,9.46c-.94-6.51-1.53-10.5-2.12-14.57,10.7,2.16,12,16.41,25.68,14.49L1228,231.78c11,8.53,19.53,10,28.36,4.72-3.94-3-7.46-5.92-11.17-8.57-12.8-9.16-26.54-17.33-38.25-27.58-13.38-11.7-26.43-24.25-37-38.23-11.58-15.39-22.89-30.6-38.2-42.94-3.81-3.07-6.91-7.05-9.84-11q-10.38-13.82-20.26-28c-12.2-17.48-24.46-34.92-36.21-52.66C1059.21,18.16,1054,8.12,1049.23,0c-9.12,15.4-18,32.23-28.66,48-14.54,21.48-30.36,42.19-45.84,63.09-2.59,3.51-6.36,6.22-9.3,9.52-11.76,13.2-23.49,26.42-35.06,39.77-6.93,8-12.44,17.4-20.51,24.12-18.12,15.1-37.45,28.9-56.25,43.26-3.72,2.85-7.3,5.87-12.42,10,12.16,3.68,20.55,1.41,29.79-6.18L864.87,243c14.09,2.55,15.28-13.21,26.27-14.07-.8,4.38-1.53,8.42-2.27,12.47.59.48,1.18,1,1.76,1.45l17.75-10.61c-1.46,2.84-2.46,5.28-3.88,7.48-14.37,22.25-29.42,44-52.54,59.35a51.75,51.75,0,0,0-9.06,7.75c-30,32.09-64.23,59.84-98.3,87.84-4,3.27-6.76,7.84-10.88,12.73,13.35,3.88,17.52-9.16,26.23-9.44.55,4.27,1.08,8.28,1.6,12.29,4.39-1.93,8.82-3.79,13.15-5.84,1.09-.51,1.81-1.69,2.83-2.4q10.46-7.28,21-14.48l.76,1-5.57,12,1.52,2.07c20.51-3.53,40.88-7.63,60.14-16.12-.32,4.09-.58,7.4-1,12.87l53.52-23.6,1.14,1.58c-27.06,20.43-53.62,41.49-81.34,61.08-20.56,14.53-40.32,29.81-56.34,48.61-26.12,30.63-57.79,54.83-92.56,75.93-5,3-9,7.69-14.46,12.52,12.7,4.11,20-3.9,29.82-6.49l-5.53,10.8c16,1.74,23.6-12.82,36.55-15.45-2.14,4.76-4,8.9-5.85,13l2.2,1.74,35.75-17.37c-.89,2.85-1.17,4-1.59,5.05-2.94,7.55-1.26,10.07,7,8.46,6.36-1.24,12.53-3.85,18.43-6.53,7.84-3.57,15.34-7.8,24.22-12.38-1.94,4.4-3.16,7.19-4.39,10l1.48,2.14,35.93-17.12a11,11,0,0,1-3.93,4.84c-21.91,16.51-43.92,32.88-65.71,49.53-15.25,11.64-29.61,24.39-45.41,35.31-26.55,18.34-54,35.54-80.91,53.4-7.67,5.09-14.89,10.78-22.31,16.19l1.32,2.42L683.54,691c-1.61,12.29-13,16.36-18.8,26.25l34.65-11.21c-.38,3.93-.64,6.65-1.15,11.87l33-10c1.63,6,4,6.43,11.43,1.92q32.75-20,65.43-40.09c2-1.22,4.18-2.15,6.27-3.22a5.74,5.74,0,0,1-2.5,3.69c-25.19,20-50.31,40-75.61,59.8a131.29,131.29,0,0,1-17.4,11.65c-16.51,9.12-34.08,16.73-49.75,26.95-33.34,21.75-65.81,44.68-98.44,67.38-4.73,3.29-8.36,8-12.5,12,.2.73.39,1.46.59,2.18l30.18-6.15c-.81,5.27-1.38,9-2.26,14.67l33.42-17.91c.36,9,2.87,10.54,9.78,7.41,3.42-1.55,6.36-4,9.67-5.79,19.72-10.73,39.49-21.38,59.76-32.33a16.21,16.21,0,0,1-2.19,3.12c-15.1,12.9-30.28,25.73-45.38,38.64-4.22,3.61-8.24,7.42-12.35,11.14.8,1,1.61,1.93,2.42,2.9l33.84-18.79,1.21,1.56-5.24,7.66,1.4,2c24.29-2.63,44.16-18.54,68.66-21.81-.87,1.11-1.41,2.28-2.36,2.93C719.64,852.88,701.09,868.1,680,879c-34.81,18.05-71.16,33.46-107,49.69-12.95,5.86-23.49,14.42-33.27,24.39L582,942.21l-7.88,14.57c14.57-.41,22.15-10.83,33.44-13.56-.32,3-.59,5.43-1.09,10.1L704.6,911c-7.92,9.86-19.67,16-23.87,30.59l27.09-8.47c-.7,3.21-1.36,6.27-2,9.32,3.66,0,7.31,0,11,0a2.8,2.8,0,0,0,.71-.26q27.78-9.15,55.57-18.26a61.1,61.1,0,0,1,6.92-1.45l.89,1.87c-73.31,60.81-158.71,104-244,147.42.25.78.49,1.56.73,2.34l41.82-11.14.45,1.11-29.43,24c.61,1,1.23,1.93,1.85,2.9L587,1077.14l.54,1q-4.46,4.88-8.92,9.74l1.6,2c22.57-7,41.31-21.49,64.8-31.15l-25.32,21.93,2.24,3.05,71.42-35.6c-9.85,10.59-19.38,20.82-28.91,31L666,1081c44.24-16.1,80.11-45.84,120.76-67.82-6,5.28-12.21,10.24-18.2,15.45-15.94,13.85-31.35,28.29-47.8,41.57-13.12,10.58-28.33,18.91-41,29.86-16.37,14.1-31.33,29.67-46.61,44.88-22,21.93-46,41.62-73.44,57.38-1.82,1-2.78,3.42-4.14,5.18.58.59,1.15,1.19,1.73,1.79l74.36-31.33,2.63,3.19-21.13,16.08,1.8,2.35,77.3-28.54c-22.59,30.72-50.43,55.64-79,80.54,5.72-.07,11-.81,15.2-3.21C643,1240,657.22,1231,671.66,1222.4c4.81-2.88,9.86-5.42,14.79-8.11l.29.81-34.88,38.44,1.87,2.69c24.31-6.39,49.07-12,71.85-22.33,23-10.41,44.65-23.38,67.17-35.38-4.16,4.75-8.46,9.17-12.15,14-8,10.44-17,19.59-28.79,26.52a41.44,41.44,0,0,0-19.68,25.32c3.39-.31,6.53.17,8.81-.93,18.79-9.05,38-17.44,55.92-27.92,16.82-9.87,32-22.17,48.17-33.1,4.24-2.86,9.34-4.6,14-6.85l1,1.63c-19.64,16.33-31.86,39.68-55.86,51.91-.86.44-1.92,1.18-2.15,2a64.46,64.46,0,0,0-1.27,6.65c2.11.3,4.31,1.11,6.31.79a30.66,30.66,0,0,0,8.66-2.72q41.72-20.44,83.3-41.08l6.55-3.19.21.8c-16.09,14.21-32.19,28.42-49.36,43.56l7.58,1.17L827.13,1284l1.5,3c7.54-1.62,15.55-2.21,22.52-5.06,16.59-6.79,32.7-14.62,49-22.11q28.29-13,56.52-26.17l1,1.36-17.17,14.28,1.15,2.25,30.32-6.21.79,1.34-13.09,11.47,20.25,2.69-7.82,8.57c15.26,9.09,31.75,12,48.79,11.65a16.58,16.58,0,0,1,.69,3.07c-.57,27.94-1.31,55.88-1.67,83.82-.07,5.54-3.6,5.35-7.5,5.63-110.87,8.16-207.85,47.34-291.4,116.4C713.77,1495.94,707,1502.31,700,1508.47Z" style="fill: #ae5634"/>
    <g>
      <g>
        <path d="M2181.78,1191.22c-18.69-31.58-34.82-64.31-42.66-100.4-11.18-51.51,18.74-81.23,70-70,2.8.61,5.58,1.33,8.37,2,36,8.71,36,8.71,36.12-29.34l124.79-.37q-.17,3.58-.34,7.18l-38.45,1.26c-11.76-6.67-23.44-7.21-35,.42-7.75.1-15.52-.19-23.23.4-7,.54-17.48-3.12-17.39,9.21.08,12.56,9.89,8.65,17.22,8.35,7.73-.31,15.47-.51,23.2-.76,11.75,9.22,23.63,9.06,35.63.51l42.08.66c-2.35,33.24-1.39,66.41-.63,99.75,1.52,66.94-6.15,133.86-3.56,200.93.17,4.27,0,8.57-.11,12.85-.2,6.52-2.88,11.48-10.05,11.18-11.1-.46-22.91,3.94-33-4.26,0-58.07,0-116.14.22-174.21.07-16.28-3.25-31.24-13.07-44.46-33.58-28.18-76.78-39.28-112.95-63.34-13.32-8.85-27,6.91-22.54,24.06a253.7,253.7,0,0,0,20.75,53.69C2228.32,1177.37,2228,1177.76,2181.78,1191.22Z" style="fill: #71b5e1"/>
        <path d="M2404,767.84c28.3-3.9,28.6-4,34.25,28.12,9,50.91,16.72,101.9,18.44,153.8.87,26.12-3.32,52.67,4.61,78.54,1.72,5.59,3.34,13.3-6.06,15.6a3.19,3.19,0,0,0-2.62-1,51.88,51.88,0,0,0-27.42-2.46c-12.24-9.39-6.58-19.94-2-30.42,15.56-1.81,9.66-12.4,11.07-25.32l-7.08,12c-1-2.48-2-4.95-3-7.43l-1.71-56.84c7.65-6.31,19.93-12,3-21.68l-11.55-43.51v52q.27,26.07.55,52.14-1.72,7.92-3.43,15.84l-11.53,1a931.18,931.18,0,0,0-146.36-.28c-14.88-.82-14.64-10.3-12.13-21.09l24-.17c1.76,2,4.38,6,5.13,5.71,8.75-3.77,2.68-12.45,5.61-18.34,2.09,2.82,3.82,6,6.35,8.38,6.46,6,15,6.18,21.73,2.69,7.54-3.91,1.65-11.67.73-17.2-3.18-19-18.65-8.59-28.81-11q-.06-6.71-.13-13.42c5.62.08,11.25.39,16.87.18,6.08-.21,13.65,1.45,15.65-6.93,1.63-6.81,2.33-14.26-3.73-19.65-5.22-4.64-11.93-4-18.09-2.74-11.49,2.43-4.3,15.37-11.06,20.66l-.34-77.54c13-1.58,28.47,6.41,37.48-10.37,1.15-2.15,6.42-1.82,7.25.8,4.49,14.1,16.36,13,27.27,14,14.22,8.42,27.4,6.85,39.61-4.1q.08,6.39.14,12.78c-17.14-.54-34.22-.42-50.8,4.86-6.17,2-12.74,3.84-13.14,11.91-.41,8.26,6.17,10.28,12.16,12.74,4.59,1.89,9.3,6,13.58,5.61,13.51-1.37,17.89,4.1,16.82,16.9s8.36,12.73,17.29,12.66q-.48,10.75-1,21.53c-6.65.38-16.21-1.79-15.69,8.36.43,8.44-2,20.87,12.63,22.17,9.78,6.64,10.41,6.57,11.5-7.75C2394.81,895.67,2399.34,831.75,2404,767.84Zm-82.06,140.83c-1,7.68.79,15.77,14.39,15.05,9.16-.48,15-3.69,15.55-13.71.85-14.09-8.22-15.52-19.18-17.09C2320.48,891.17,2322.1,898.65,2321.92,908.67Zm-27.67-53.73c-9.15-.58-15.25,1.8-15.36,12.64-.11,10.69,5.58,13.21,14.82,13.16,8.95,0,15.23-1.84,15.23-12.77C2308.94,857.45,2303.57,854.17,2294.25,854.94Zm53.46,96c.74-8.34-1.68-14.79-12.59-14-10,.71-13.23,6.79-12.94,15.82.27,8.37,4.31,13.1,12.93,13.69C2346,967.19,2348.45,960.81,2347.71,951Zm60.34-127.49c.94,5-1.26,13.11,7.25,12.14,7.58-.85,5.53-8.62,5.49-13.8s1.46-13.14-7-12.19C2406.24,810.46,2408.91,818.28,2408.05,823.47Z" style="fill: #e04f27"/>
        <path d="M2240.36,861.38c-7.7,2.28-9.64,10-14.22,15.17-10.83,12.28-24,20.61-40.47,21.37-32.27,1.48-61.66-6.4-86.62-28.3-6.71-5.88-7.66-11.28-3.76-18.5,11.09-2.78,15.26-14.37,24.64-19.31,9,5.25,22.39,8.41,26.07,16.17,8.71,18.38,23.24,16.75,38.27,17.14l4.05-1c24-14.75,27.52-39.72,32.93-64.19,2.83-12.77,33.55-20.68,20.6-25.33,11-1.79-3,10.93,0,13-.08,30-4.32-4.33,18.27,2.81.23,15.9,5.09,32-2.48,47.54a81.72,81.72,0,0,0-.28-8.58c-.91-6.76,2.69-14.82-4.6-19.79-4-2.69-8.44-1.53-11.57,2.07-5.61,6.46-8.87,18-4.49,21.64C2248,842.69,2238,852.38,2240.36,861.38Zm-112,5.4c5.87.05,8-3.2,7.71-8.12-.36-6.93-5.26-10-11.25-10.44-5.22-.36-7.28,4.57-7.56,8.64C2116.78,864.5,2123.54,865,2128.41,866.78Zm35.57,5.81c2.86,1.53,7.32,7.08,10.31,0Z" style="fill: #e04f27"/>
        <path d="M2334.72,1340.78c10.11,8.2,21.92,3.8,33,4.26,7.17.3,9.85-4.66,10.05-11.18.13-4.28.28-8.58.11-12.85-2.59-67.07,5.08-134,3.56-200.93-.76-33.34-1.72-66.51.63-99.76,6.36-8.22,7.2-15.34-4-20.05l.33-7.18,20.86-.34q-3.39,165.88-6.69,331.77c-.05,2.64,1.48,5.3,2.28,8,0,3.87-.06,7.73-.1,11.6,1,7.27-1.06,13.29-7.2,17.66-5-6.22-11.57-2.69-17.56-2.76-9.53,3.92-19.42,4.24-29.47,2.94C2334.84,1355.9,2315,1353.76,2334.72,1340.78Z" style="fill: #649bba"/>
        <path d="M2395.68,1470.35c47.81.46,95.66-.1,143.39,2,14.92.65,30,1.52,45,2.29,8.45.44,17.37-.76,24.89,8.81a172.7,172.7,0,0,1-43.13,8.3c-111.79,7.62-223.74,3.19-335.61,4.56-8.37.11-17.37-2.37-24.86,3.91-4.66-.41-10.72,1.46-12.34-5-1.89-7.62.66-13.84,8.32-17.23,14.63,1.88,29,3,38.73-11.59q2.2,2,4.43,3.94c8.58,13.52,23,10.37,35.56,12.37,9.7,1.53,9.37-6.33,11.39-12l47.08-.57c.29,3,.59,5.9.88,8.85,17.85,10.13,38,5,56.87,8.65,55.37,3.88,110.35-.73,165.35-5.57-55.08-.91-109.69-10.41-164.7-7.29Z" style="fill: #020202"/>
        <path d="M2179.94,1379.57c-16.07-1.27-32.72,4.16-48.2-4.12-3.33-12.64,8.81-28.2-7.28-38.42-.78-.23-1.56-.48-2.33-.75a24,24,0,0,1,1.72-3.67c9.42,2,13.52-8.4,21.71-9.23,9.18,2.63,15-3.4,21.25-8.25,28.29,6.38,56.79-6.9,85.07.87-2.81,2-7,3.42-8.15,6.12-2.38,5.59,11.57,13.45-.42,17.3-8.95,2.87-8.73-9.36-13.61-13.75-5.48-4.93-13-14.11-15.44,2.58-2.22.72-6.1-.81-5.38,3.88a2.1,2.1,0,0,0,1.39,1.39c4.65.72,3.26-3.08,3.91-5.35a29.41,29.41,0,0,1,13,13c-5.21.46-8.42,3-8.79,8.45l-16.5-13.53-2.49-1.11c.34.85.69,1.71,1,2.57.46,14-4.5,28.21.84,42.17Zm-13.5-42.28,2.46.51-1.49-1.47-2.34-5.07c-.48.42-1.44,1.08-1.36,1.22C2164.52,1334.14,2165.5,1335.71,2166.44,1337.29Z" style="fill: #c2a57e"/>
        <path d="M2356.49,617.87c.09-1.56.18-3.11.26-4.66,4.31.27,9.48.77,11-4.16,5.71-18.91,23.58-16.42,36.85-20,25-6.83,16.25,17.51,23,27.61,3.9,5.82,7.09,12.12,10.6,18.21q2.28,9.09,4.57,18.18c-4.88,16.66-37.72,34.71-60.79,30.15,2.83-6.09,5.42-16.38,3.12-23.15-1.41-5.81-.56-8.36-2.69-12.88q-.84-3.58-1.69-7.18C2375.78,629.14,2366.88,622.69,2356.49,617.87Z" style="fill: #dadadb"/>
        <path d="M2175.23,1277.62l13.92-1.47c17.12,1.31,24.44-5.82,18.27-21.63-7.05-18-8.73-37-13.82-55.23l16.77-7.69c8.77,3.08,13.86,9.39,15.31,18.39,5,30.56,9.72,61.15,14.56,91.73l-56,.84-8.69-.15C2177.87,1294.12,2179.3,1285.84,2175.23,1277.62Z" style="fill: #7a5229"/>
        <path d="M2210.37,1191.6l-16.77,7.69c-6.51,1.06-15.76,6.11-11.83-8.08,46.2-13.45,46.55-13.84,25.36-54.69a253.7,253.7,0,0,1-20.75-53.69c-4.42-17.15,9.22-32.91,22.54-24.06,36.17,24.06,79.37,35.16,112.95,63.34-41.15-10.1-78.21-32.16-122.33-44.12,6.39,33.46,19.28,60.24,35.22,85.67,3.86,6.16,9.49,11.13,2.58,18.39C2227.81,1183.67,2218.58,1186.21,2210.37,1191.6Z" style="fill: #649bba"/>
        <path d="M2250.71,761.11c-12.73-4.68-19.72,7.22-30,9.75-14,10.55-23.71,31.39-47.41,18.44-8.88,5.55-21-5.56-29.12,5.89-8.5,11.89-17.48,12.55-24.87-1.54l.09-9.58c39.38-12.38,79-24,118-37.47,17.86-6.16,34.44-15.83,51.6-23.91q2.33,20.94,4.64,41.9l-14.64-.66C2270.12,758.36,2260.26,761.21,2250.71,761.11Z" style="fill: #ab835d"/>
        <path d="M2302.22,806.67c34.45,13.58,72.24,3.8,84.63-39.62q3.53-.31,7.05-.67c-2.33,17.86-1.57,36.18-7.62,53.53-14.58,4.77-41.67-12.87-39.43,22-10.91-1.06-22.78.08-27.27-14-.83-2.62-6.1-3-7.25-.8-9,16.78-24.52,8.79-37.48,10.37-.09-2.76-.17-5.53-.26-8.3C2278.92,815.66,2283.83,802.9,2302.22,806.67Z" style="fill: #e04f27"/>
        <path d="M2386.28,819.91c6-17.35,5.29-35.67,7.62-53.53,4.19-5.34,7.25-2.73,10.08,1.45-4.64,63.92-9.17,127.84-14,191.73-1.09,14.32-1.72,14.39-11.5,7.75l-.29-.23,2.6-4.27.75-26q.48-10.77,1-21.53,2-32.34,4.09-64.68-.07-6.39-.14-12.78Z" style="fill: #7a5229"/>
        <path d="M2438.19,634.82c-3.51-6.09-6.7-12.39-10.6-18.21-6.77-10.1,2-34.44-23-27.61-13.27,3.63-31.14,1.14-36.85,20-1.49,4.93-6.66,4.43-11,4.16-.8-28.5,13.13-43.46,44.36-47.63,29.27-3.91,28.47-3.78,33.26,27C2436.57,606.68,2438.73,620.56,2438.19,634.82Z" style="fill: #dadadb"/>
        <path d="M2240.36,861.38c-2.36-9,7.62-18.69-3.66-28.16-4.38-3.67-1.12-15.18,4.49-21.64,3.13-3.6,7.62-4.76,11.57-2.07,7.29,5,3.69,13,4.6,19.79a81.72,81.72,0,0,1,.28,8.58q2.07,43,4.16,85.94l-20.93-.06Z" style="fill: #e04f27"/>
        <path d="M2097.5,806.28c.74-16.06,13.32-10.13,21.85-11.72,6.55,12.87,14.52,12.27,22.05,1.4,7.25-10.45,17.95-.3,25.82-5.38-1.37,16.36-16.16,17.49-26.75,22.89-8.65,4.42-19,6.27-20.54,18.34-9.38,4.94-13.55,16.53-24.64,19.31-9.75-1.73-16.63-8-23.3-14.66l5.39-7.27C2087.05,824.15,2104.26,825.72,2097.5,806.28Z" style="fill: #c2a57e"/>
        <path d="M2179.94,1379.57l21.36.15,9.31-.14,4,4.54c-2.66,9.11-6.32,18.06-4.54,27.9l0,.84c-4.41,4.13-4.95,9.31-4,14.89q2.08,5.82,4.16,11.64c-7.45,11.81-17,23.12-8.95,38.53-7.66,3.39-10.21,9.61-8.32,17.23,1.62,6.5,7.68,4.63,12.34,5,4.57,8.15-2.35,7.92-6.59,8-10.38.26-20.78-.34-31.17-.59l3-6.22c13-8.09,14-22.4,17.3-35.07,4.5-17,6.43-34.79,11.39-51.67C2205,1395.46,2201.39,1383,2179.94,1379.57Z" style="fill: #c2a57e"/>
        <path d="M2386,1405.71c-.39,16,3.25,32.12-1.48,48-10.59-3-21.16-6-32.38-4.86l-5.34-10.84c3.71-13.66,14.74-27.1,1.18-41.25,3.22-5.92-2.17-6.5-5.29-8.49a4.2,4.2,0,0,0,.28-3.91l26.53.08c-2.73,12.09,12.45,19.79,9.16,33.16Z" style="fill: #7a5229"/>
        <path d="M2033.13,815.65c10,1.47,7.94,7.05,4.51,13.12,0,1.57,0,3.14,0,4.71L2020.55,842c-8.84.7-18.38-3.1-26.22,4l-4.06,1,1.29,2.11,3-2.77c8.41,7.62-8.25,15.68.42,23.29-10.11,7.31-18.58,6.15-22.34-6.27-3.37-11.16-7.92-23.94,8.52-29.8C1998.45,827.45,2015.81,821.62,2033.13,815.65Z" style="fill: #ab835d"/>
        <path d="M2371.78,691.81c-.08-3.21-.17-6.42-.25-9.63,26.3,5.11,63.08-10.52,68.65-29.18,7.22,2.71,19.5-5.27,21,9.57-19.21,1.24-22.21,13.52-20.53,29-16.18,13-35.3,19-55.51,22.47C2385.51,703.83,2377,698.75,2371.78,691.81Z" style="fill: #ab835d"/>
        <path d="M2425.18,1040.4a51.83,51.83,0,0,1,27.41,2.46c-5.34,6.92-8.9,13.31-4,22.91a44.57,44.57,0,0,1,2.57,34.82c-4.5,4.44-8.76,5-12.66-.75,4.37-3.61,2.94-6.23-1.43-8.35-2.1-5.18-2.76-13.13-6.53-15.08C2411.15,1066.4,2418.89,1053.53,2425.18,1040.4Z" style="fill: #ddc99a"/>
        <path d="M2352.13,1448.84c11.22-1.18,21.79,1.87,32.38,4.86l11.17,16.65,1.23,4.35c-.36,3-.73,6.1-1.09,9.15l-11.8-5.12c-7.78-7.21-17.36-2.46-26-3.91-5.19-.87-12.93,1.7-13.94-5.69S2339.86,1451.71,2352.13,1448.84Z" style="fill: #613b18"/>
        <path d="M2399.26,992.75l-20.86.34-124.79.38q-.26-2.78-.49-5.55a931.18,931.18,0,0,1,146.36.28C2399.41,989.72,2399.33,991.23,2399.26,992.75Z" style="fill: #e04f27"/>
        <path d="M2386,1405.71l-7.34,11.88c3.29-13.37-11.89-21.07-9.17-33.16v-.3c4.29-1.81,2.58-3.62,0-5.42L2370,1359c6,.07,12.54-3.46,17.55,2.76Z" style="fill: #613b18"/>
        <path d="M2124.46,1337a74.82,74.82,0,0,1-.79,8.49c-1.43,7.1,5.81,20.59-8.13,18.69-7.35-1-23.19-7.47-12.83-23.17l4-8.59-.2.21,15.66,3.62C2122.9,1336.55,2123.68,1336.8,2124.46,1337Z" style="fill: #ab835d"/>
        <path d="M1995,869.66c-8.67-7.61,8-15.67-.42-23.29l-.27-.31c7.84-7.14,17.38-3.34,26.21-4q4.45,5,8.92,10.09C2019.69,861.3,2008.8,868.31,1995,869.66Z" style="fill: #ab835d"/>
        <path d="M2240.87,923.76l20.93.06.27,12.57c-7.57,6.62-2,26-20.91,21.58Z" style="fill: #e04f27"/>
        <path d="M2451.16,1100.59a44.57,44.57,0,0,0-2.57-34.82c-4.9-9.6-1.34-16,4-22.91a3.2,3.2,0,0,1,2.63,1c4.15,12,8.36,24,8.29,36.83C2463.46,1089.57,2461.08,1097.58,2451.16,1100.59Z" style="fill: #c2a57e"/>
        <path d="M2170.62,1501.41l-3,6.22c-25.32-2.85-50.65-5.58-75.93-8.78-1.81-.23-3.18-4-4.74-6.07Z" style="fill: #c2a57e"/>
        <path d="M2443.14,687.44c-1.48-13.82,1.16-24.79,18-25.9C2468.28,679.29,2462.61,688.15,2443.14,687.44Z" style="fill: #9d7146"/>
        <path d="M2241.16,958c19,4.41,13.34-15,20.91-21.58,5.2,9.69,3.24,20.06,2.87,30.27l-24,.17C2241.05,963.88,2241.1,960.92,2241.16,958Z" style="fill: #e04f27"/>
        <path d="M2029.46,852.11q-4.45-5.05-8.92-10.09l17.09-8.54c5.42,2.47,8.79,6.34,8.55,12.63Z" style="fill: #ab835d"/>
        <path d="M2077.38,829.19l-5.39,7.27a40.14,40.14,0,0,1-21.17,8.46q-.12-6.3-.25-12.58c7.68,2.73,13.92-2.14,20.74-3.92Z" style="fill: #ab835d"/>
        <path d="M2421.29,996.84l2.83-7.59,3.06,7.43,7.08-12c-1.41,12.92,4.49,23.51-11.07,25.32Q2422.25,1003.41,2421.29,996.84Z" style="fill: #e04f27"/>
        <path d="M2050.57,832.34q.12,6.28.25,12.58l-4.64,1.19c.24-6.29-3.13-10.16-8.55-12.63,0-1.57,0-3.14,0-4.71C2042.37,828.45,2047.41,827,2050.57,832.34Z" style="fill: #ab835d"/>
        <path d="M2414.44,971.36c3.27,5.14,2.16,10.77,1.83,16.31l-5.26-.47Q2412.72,979.28,2414.44,971.36Z" style="fill: #e04f27"/>
        <path d="M2437.07,1091.49c4.37,2.12,5.8,4.74,1.43,8.35Q2437.8,1095.66,2437.07,1091.49Z" style="fill: #c2a57e"/>
        <path d="M2106.67,1332.45l-4,8.59c-1-2.76-2-5.51-3-8.27Z" style="fill: #7a5229"/>
        <path d="M2089.85,1335.22q2.27-.9,4.53-1.77Z" style="fill: #ab835d"/>
        <path d="M2304.58,1002c11.59-7.63,23.27-7.09,35-.43q.19,9.08.4,18.14c-12,8.55-23.88,8.71-35.63-.51Q2304.48,1010.57,2304.58,1002Z" style="fill: #c2a57e"/>
        <path d="M2340.14,1019.67q-.27-9.07-.53-18.14l50.74-1.25c14.82,4.7,13.71,11.82,5.32,20Z" style="fill: #ab835d"/>
        <path d="M2304.58,1002q-.14,8.61-.26,17.2c-10.3.25-20.6.45-30.9.76-9.75.3-22.81,4.21-22.93-8.35-.11-12.33,13.85-8.67,23.16-9.21C2283.92,1001.77,2294.27,1002.06,2304.58,1002Z" style="fill: #ab835d"/>
        <path d="M2254.19,1302.25c3.12,3.86,3.29,8.41,3.08,13l-5.39.7c-28.28-7.77-56.78,5.51-85.07-.87,0-1.38,0-2.75,0-4.12l8.67-8.6,8.69.15c20,7.64,40,5.72,60,0Z" style="fill: #c2a57e"/>
        <path d="M2175.5,1302.41l-8.67,8.6c-6-13.34-11.06-26.45,8.4-33.4C2179.3,1285.84,2177.87,1294.12,2175.5,1302.41Z" style="fill: #613b18"/>
        <path d="M2264.94,966.66c.37-10.21,2.33-20.58-2.87-30.27l-.27-12.57q-2.09-43-4.16-85.94c7.57-15.49,2.71-31.64,2.48-47.54q.45-11.48.88-22.93l13,.6c.12,1.75.25,3.5.38,5.25-1.93,2-5.85,5-5.47,5.69,8.65,16,3.36,33.55,5.71,50.19.09,2.77.17,5.54.26,8.3l.33,77.54c.12,2.83.24,5.65.37,8.48,0,4.47.09,8.95.12,13.42q0,8.58,0,17.15c-2.93,5.89,3.14,14.57-5.61,18.34C2269.32,972.69,2266.7,968.67,2264.94,966.66Z" style="fill: #7a5229"/>
        <path d="M2386.6,850.57q-2,32.34-4.09,64.68c-8.93.07-18.36.15-17.29-12.66s-3.31-18.27-16.82-16.9c-4.28.44-9-3.72-13.58-5.61-6-2.46-12.57-4.48-12.16-12.74.4-8.07,7-10,13.14-11.91C2352.38,850.15,2369.46,850,2386.6,850.57Z" style="fill: #e04f27"/>
        <path d="M2386.28,819.91l.18,17.88c-12.21,11-25.39,12.52-39.61,4.1C2344.61,807,2371.7,824.68,2386.28,819.91Z" style="fill: #e04f27"/>
        <path d="M2275.55,923.46c-.13-2.83-.25-5.65-.37-8.48,6.77-5.29-.42-18.23,11.07-20.66,6.16-1.3,12.87-1.9,18.09,2.74,6.06,5.39,5.36,12.84,3.73,19.65-2,8.38-9.57,6.72-15.65,6.93C2286.8,923.85,2281.17,923.54,2275.55,923.46Z"/>
        <path d="M2321.92,908.67c.18-10-1.44-17.5,10.76-15.75,11,1.57,20,3,19.18,17.09-.6,10-6.39,13.23-15.55,13.71C2322.71,924.44,2320.94,916.35,2321.92,908.67Z" style="fill: #e04f27"/>
        <path d="M2275.68,954q0-8.58,0-17.15c10.17,2.43,25.64-8,28.82,11,.92,5.53,6.81,13.29-.73,17.2-6.75,3.49-15.27,3.33-21.73-2.69C2279.5,960.06,2277.77,956.85,2275.68,954Z" style="fill: #0c0b0b"/>
        <path d="M2294.25,854.94c9.32-.77,14.69,2.51,14.69,13,0,10.93-6.28,12.73-15.23,12.77-9.24,0-14.93-2.47-14.82-13.16C2279,856.74,2285.1,854.36,2294.25,854.94Z"/>
        <path d="M2293.29,825.61c9.32-.78,14.7,2.5,14.7,13,0,10.93-6.29,12.72-15.23,12.77-9.24.05-14.93-2.47-14.82-13.17S2284.15,825,2293.29,825.61Z"/>
        <path d="M2347.71,951c.74,9.85-1.71,16.23-12.6,15.49-8.62-.59-12.66-5.32-12.93-13.69-.29-9,3-15.11,12.94-15.82C2346,936.17,2348.45,942.62,2347.71,951Z" style="fill: #0c0b0b"/>
        <path d="M2381.54,936.78q-.37,13-.74,26l-2.61,4.28.29.23c-14.67-1.3-12.2-13.73-12.63-22.17C2365.33,935,2374.89,937.16,2381.54,936.78Z" style="fill: #0c0b0b"/>
        <path d="M2408.05,823.47c.86-5.19-1.81-13,5.75-13.85,8.45-1,6.95,7.07,7,12.19s2.09,13-5.49,13.8C2406.79,836.58,2409,828.51,2408.05,823.47Z" style="fill: #e04f27"/>
        <path d="M2420.73,915l4.71-4.25c16.91,9.71,4.63,15.37-3,21.68Q2421.58,923.7,2420.73,915Z" style="fill: #e04f27"/>
        <path d="M2274.59,829.14c-2.35-16.64,2.94-34.15-5.71-50.19-.38-.71,3.54-3.74,5.47-5.69,6.79,13.21,17.31,23.32,27.85,33.41C2283.83,802.9,2278.92,815.66,2274.59,829.14Z" style="fill: #e04f27"/>
        <path d="M2261.79,776.6c-2.54,11-.11,12.88-2.65,23.89-18.27,3.33-34.38,15.43-34.58-4.32,0-4.94,15.06-22.82,20-23.13C2250.46,772.67,2256.32,772.7,2261.79,776.6Z" style="fill: #e04f27"/>
        <path d="M2128.41,866.78c-4.87-1.76-11.63-2.28-11.1-9.92.28-4.07,2.34-9,7.56-8.64,6,.42,10.89,3.51,11.25,10.44C2136.38,863.58,2134.28,866.83,2128.41,866.78Z" style="fill: #e04f27"/>
        <path d="M2164,872.59h10.31C2171.3,879.67,2166.84,874.12,2164,872.59Z" style="fill: #e04f27"/>
        <path d="M2184.27,865.12a4.76,4.76,0,0,1,4.05-1Z" style="fill: #ed5c2f"/>
        <path d="M2343,1384.35c-6.83-6.81-3.52-14.73-2.45-22.42,10.06,1.29,19.95,1,29.48-3q-.25,9.87-.53,19.74c0,1.81,0,3.61,0,5.41v.3Z" style="fill: #7a5229"/>
        <path d="M2214.65,1384.12l-4-4.54c8-4.09,9.81-26.59,25.21-8.38l-.11.12c-16,12.22-.09,19.66,4.77,28.11,4.76,8.3,19.39,12.93,17.16,22.32-3.22,13.59.65,26.31-.78,39.3.31,9-5.65,9.64-12.38,9.22q-2.22-2-4.43-3.94c2.4-20-11.55-32.62-29.78-26.94q-2.07-5.82-4.16-11.64c4.19-4.2,4.48-9.44,4-14.89l0-.84C2218.5,1403.83,2229,1396,2214.65,1384.12Z" style="fill: #c2a57e"/>
        <path d="M2395.82,1483.85c.36-3,.73-6.1,1.09-9.15,55-3.13,109.62,6.37,164.7,7.28-55,4.84-110,9.45-165.35,5.57A5.12,5.12,0,0,0,2395.82,1483.85Z"/>
        <path d="M2210.27,1439.39c18.23-5.68,32.18,6.93,29.78,26.94-9.71,14.55-24.1,13.47-38.73,11.59C2193.24,1462.51,2202.82,1451.2,2210.27,1439.39Z" style="fill: #c2a57e"/>
        <path d="M2244.48,1470.27c6.73.42,12.69-.2,12.38-9.21,14.69,4.41,7.14-7.41,9-12.34l0,0,17.3,0c7.77,5.44,1.92,15.95,8.2,21.95-2,5.69-1.69,13.55-11.39,12C2267.44,1480.64,2253.06,1483.79,2244.48,1470.27Z" style="fill: #c2a57e"/>
        <path d="M2338.51,1470.05l3.06-38.62,5.22,6.57,5.34,10.84c-12.27,2.87-9.08,12.84-8.06,20.29s8.75,4.82,13.94,5.69c8.65,1.45,18.23-3.3,26,3.91l-44.65.17C2339.1,1476,2338.8,1473,2338.51,1470.05Z" style="fill: #7a5229"/>
        <path d="M2339.39,1478.9l44.65-.17,11.78,5.12a5.12,5.12,0,0,1,.44,3.7C2377.43,1483.87,2357.24,1489,2339.39,1478.9Z" style="fill: #7a5229"/>
        <path d="M2502.86,1332.51c-.28.46-.55.93-.82,1.39l.84-1.38Z" style="fill: #789654"/>
        <path d="M2283.23,1448.67l-17.3,0-1.44-.8,1.41.83c-1.9,4.93,5.65,16.75-9,12.34,1.43-13-2.44-25.72.78-39.31,2.23-9.39-12.4-14-17.16-22.32-4.86-8.45-20.76-15.89-4.77-28.11.52.26,1,.52,1.55.79l-1.44-.91c-15.4-18.21-17.24,4.29-25.21,8.38l-9.31.14c-5.34-14-.38-28.12-.84-42.17l1.47-1.47,16.49,13.54.25.2c4.78,9.33,14.07,8.12,22.26,9.47,7.3,16.1,18.94,28.34,33.66,37.86,7.8,8.48,8.16,18.17,4.65,28.49-.4,3.79,0,7.34,3.29,9.9C2280.89,1440,2278.28,1444.54,2283.23,1448.67Z" style="fill: #c2a57e"/>
        <path d="M2251.88,1316l5.39-.7c16.94,1.44,13.77,15.41,12.38,24.33-1.8,11.59-.1,21.71,3.46,32.18-14,5.12-14.2-19.34-28.61-13.31-1.63-10-11.08-12.18-17.41-17.47l.12.14a29.41,29.41,0,0,0-13-13l.08.08c2.42-16.69,10-7.51,15.44-2.58,4.88,4.39,4.66,16.62,13.61,13.75,12-3.85-2-11.71.42-17.3C2244.89,1319.42,2249.07,1318,2251.88,1316Z" style="fill: #c2a57e"/>
        <path d="M2218.42,1349.62c.37-5.47,3.58-8,8.79-8.45l-.12-.14c-.4,5.23-2.75,8.59-8.42,8.79Z" style="fill: #ab835d"/>
        <path d="M2214.18,1328.17c-.65,2.27.74,6.07-3.91,5.35a2.1,2.1,0,0,1-1.39-1.39c-.72-4.69,3.16-3.16,5.38-3.88Z" style="fill: #ab835d"/>
        <path d="M2166.43,1337.3c-.93-1.59-1.91-3.16-2.72-4.82-.08-.14.88-.8,1.36-1.22l2.34,5.07Z" style="fill: #ab835d"/>
        <path d="M2200.46,1337.55c-.34-.86-.69-1.72-1-2.57l2.49,1.11Z" style="fill: #ab835d"/>
        <path d="M2167.41,1336.33l1.49,1.47-2.47-.5Z" style="fill: #ab835d"/>
        <path d="M2254.19,1302.25l-10,.35a31.44,31.44,0,0,1-4-.88c-4.84-30.58-9.61-61.17-14.56-91.73-1.45-9-6.54-15.31-15.31-18.39,8.21-5.39,17.44-7.93,27-9.55,11.93,14.6,6.33,32.5,8.79,48.81C2249.7,1254.53,2251.59,1278.44,2254.19,1302.25Z" style="fill: #613b18"/>
        <path d="M2076.21,836.22l-11.41-3c14.47-23.18,33.58-37.82,55.24-47.78C2128.35,833.05,2095.85,826,2076.21,836.22Z" style="fill: #ab835d"/>
        <path d="M2240.24,1301.72a31.44,31.44,0,0,0,4,.88c-20,5.68-40,7.6-60,0Z" style="fill: #c2a57e"/>
        <path d="M2378.19,967.08l2.61-4.28C2379.92,964.23,2379.06,965.66,2378.19,967.08Z" style="fill: #e04f27"/>
        <path d="M2210.14,1412.86c.45,5.45.16,10.69-4,14.89C2205.19,1422.17,2205.73,1417,2210.14,1412.86Z" style="fill: #9d7146"/>
        <path d="M2346.79,1438l-5.22-6.57c0-2.81,0-5.62,0-8.43.33-.51,1-1.14.93-1.52a18.5,18.5,0,0,0-1.5-3.11q-.44-10.47-.86-20.94l7.82-.68C2361.53,1410.9,2350.5,1424.34,2346.79,1438Z" style="fill: #7a5229"/>
        <path d="M2348,1396.75l-7.82.68c-1.38-3.67-1.81-7.08,2.53-9.17C2345.8,1390.25,2351.19,1390.83,2348,1396.75Z" style="fill: #7a5229"/>
        <path d="M1994.6,846.37l-3,2.77-1.29-2.11,4.06-1Z" style="fill: #ab835d"/>
        <path d="M2369.47,1384.13c0-1.8,0-3.6,0-5.41C2372.05,1380.51,2373.76,1382.32,2369.47,1384.13Z" style="fill: #7a5229"/>
        <path d="M2244.5,1358.5c14.41-6,14.61,18.43,28.61,13.31.42,8.45,10.29,16.35,1.48,25.34-14.72-9.52-26.36-21.76-33.66-37.86C2242.12,1359,2243.31,1358.77,2244.5,1358.5Z" style="fill: #c2a57e"/>
        <path d="M2282.53,1435.54c-3.32-2.56-3.69-6.11-3.29-9.9C2283.93,1427.74,2283.54,1431.54,2282.53,1435.54Z" style="fill: #c2a57e"/>
        <path d="M2341,1418.37a18.5,18.5,0,0,1,1.5,3.11c.11.38-.6,1-.93,1.52Z" style="fill: #7a5229"/>
        <path d="M2244.5,1358.5c-1.19.27-2.38.54-3.57.79-8.19-1.35-17.48-.14-22.26-9.47,5.67-.2,8-3.56,8.42-8.79C2233.42,1346.32,2242.87,1348.52,2244.5,1358.5Z" style="fill: #c2a57e"/>
        <path d="M2265.9,1448.72l-1.41-.83,1.44.8Z" style="fill: #9d7146"/>
        <path d="M2235.82,1371.2l1.44.91c-.51-.27-1-.53-1.55-.79Z" style="fill: #c2a57e"/>
        <path d="M2119.43,785.81q0,4.37-.08,8.75c-8.53,1.59-21.11-4.34-21.85,11.73-10.72,5-19.88,11.9-26.19,22.13-6.82,1.78-13.06,6.65-20.74,3.92-3.16-5.37-8.2-3.89-12.93-3.57,3.43-6.07,5.45-11.65-4.51-13.12,7.34-23.57,25-35.84,47.21-43.28a14.2,14.2,0,0,0,5.39-3.26c17.83-17.76,19.68-17.42,30.57,6.51C2117.76,778.82,2118.41,782.4,2119.43,785.81Z" style="fill: #ddc99a"/>
        <path d="M2332.2,825.61c9.32-.78,14.69,2.5,14.69,13,0,10.93-6.28,12.72-15.23,12.77-9.24.05-14.93-2.47-14.82-13.17S2323.05,825,2332.2,825.61Z"/>
        <path d="M2332.2,855.87c9.32-.78,14.69,2.5,14.69,13,0,10.92-6.28,12.72-15.23,12.77-9.24.05-14.93-2.47-14.82-13.17S2323.05,855.28,2332.2,855.87Z"/>
        <path d="M2332.2,894.77c9.32-.78,14.69,2.5,14.69,13,0,10.93-6.28,12.73-15.23,12.77-9.24,0-14.93-2.47-14.82-13.17S2323.05,894.18,2332.2,894.77Z"/>
        <path d="M2366.78,825.61c9.32-.78,14.69,2.5,14.69,13,0,10.93-6.28,12.72-15.23,12.77-9.23.05-14.93-2.47-14.82-13.17S2357.63,825,2366.78,825.61Z"/>
        <path d="M2366.78,855.87c9.32-.78,14.69,2.5,14.69,13,0,10.92-6.28,12.72-15.23,12.77-9.23.05-14.93-2.47-14.82-13.17S2357.63,855.28,2366.78,855.87Z"/>
        <path d="M2366.78,890.45c9.32-.78,14.69,2.5,14.69,13,0,10.93-6.28,12.72-15.23,12.77-9.23,0-14.93-2.47-14.82-13.17S2357.63,889.86,2366.78,890.45Z"/>
        <g>
          <path d="M2388.82,727c0,43-22.77,77.81-56.2,77.81S2276.43,770,2276.43,727s22.77-73.49,56.19-73.49S2388.82,684,2388.82,727Z" style="fill: #ddc99a"/>
          <g>
            <path d="M2320.59,832.63c-3.08-1.7-5-4.62-7.49-7.65l.16,3.25c-2.81-4.15-5.36-8.45-8.32-12.76-1.33,2.1-.49,3.94-.1,5.85-6.86-6.5-10.53-15-14.58-23.51a9,9,0,0,0-.35,5.53c.3,1.76.75,3.49,1.2,5.57-4.4-1.89-6.91-5.14-8.93-9.28l-.44,2.64c-3.43-8.89-3.12-17.52-3.19-26.74l-6.8,7.48-.87-.56c5.44-13.36,6-27.58,7.43-41.67,2.18,10.94,2.93,22.14,9.77,31.57.1-3.26-.1-6.52,2-9.35.18.16.34.23.37.34.52,1.73.51,4.34,1.86,4.9s3.06-1.51,4.6-2.43a113.25,113.25,0,0,1,19.37-9.34c4.38-1.19,8.75-2.32,13.36-1.93,1.3.11,2.52.77,3.89.43,3.78-1,7.52-.42,11.25.38,6.46,1.39,12.11,4.79,18.16,7.2,3,1.84,6.08,3.64,9.07,5.53.89.57,1.29.44,1.58-.52.45-1.5.95-3,1.43-4.47,1.83,2,2.12,3.4,2.2,9.28,7.36-10.31,7.88-22.63,9.86-34.56,1.16,15.05,1.52,30.19,7.28,44.44l-.43.43-6.49-7-.68.42c-.1,8.61.22,17.27-3.16,26.15-.23-1.19-.34-1.72-.5-2.53-2,4.07-4.49,7.37-8.89,9.21.68-3.74,2.11-7.15.92-11.26-4.15,8.71-7.78,17.17-14.67,23.67.53-1.86,1-3.64,0-5.95-3.14,4.47-5.71,8.92-8.48,13.28-.11-1,.39-2-.18-3-2.31,2.47-4.06,5.44-7.13,7l-.16-.16c.46-2.6,1.42-5.2.11-8.25-1.13,2.4-2,4.47-3.07,6.47a39.27,39.27,0,0,1-7.49,10.37c-1.06,1-1.74,1.06-2.82,0a44.74,44.74,0,0,1-9.59-14.83c-.24-.56-.21-1.32-1-1.66-1.31,2.69-.24,5.29.2,7.89Zm-10.52-47.88c12.57,14.07,33.93,14,45,0-8.46.16-15.13-3.71-21.16-9-1.1-.95-1.63-.75-2.6.08C2325.27,781.06,2318.65,784.88,2310.07,784.75Z" style="fill: #442a15"/>
            <path d="M2384,693.71a98.88,98.88,0,0,0-51.54-13.83c-18.37,0-35.38,2.83-51.71,12.55,4.32-13,8.27-20.39,16.77-28.61,9.17-10.3,21.06-14.36,34.51-14.61C2354.24,644.88,2382.22,671.3,2384,693.71Z" style="fill: #e04f27"/>
            <path d="M2276.84,712a76.18,76.18,0,0,1,.74-17.36c.22-1.29,1.15-1.73,2-2.3a91.33,91.33,0,0,1,39.56-14.16c21.24-2.55,41.53.59,60.53,10.8a17.59,17.59,0,0,0,2.15,1.21c4.55,1.72,6.18,5.12,6.18,9.81,0,4,.36,8.07-.05,12C2351,690.06,2314.11,690,2276.84,712Z" style="fill: #d84e2e"/>
          </g>
        </g>
      </g>
      <path d="M2157.21,1506c-20.66-3.89-42.06,12.71-61.95-12.6-4.28-38.66,19.6-75.83-1.07-107.11,5.73,7-.71-11-1.7-11.77a78.6,78.6,0,0,1,1.7-8.41c12.11,6.26.85-26.92,5.11-39.53,11.79,8,4.26-21.87,24.7-21.87,37.47,3.4,92-10.23,130.3,0-3.61,6.12-13.63,17.31-15.12,25.58-3.06,17.08,14.88,41.15-.54,52.92-11.5,8.79-11.22-28.63-17.48-42-7-15.09-16.74-43.18-19.85,7.88-2.86,2.19-7.85-2.49-6.92,11.86.11,1.65,1.1,4,1.79,4.26,6,2.21,4.19-9.41,5-16.36,7.29,9.18,13,22.06,16.74,39.75-6.69,1.4-10.82,9.13-11.29,25.86q-10.59-20.7-21.2-41.39c-1.08-1.13-2.14-2.27-3.21-3.41q.66,3.93,1.33,7.86c.59,43-5.78,86.29,1.08,129Zm-4.74-162.41,2.8.57-1.69-1.65q-1.34-2.85-2.66-5.7c-.55.47-1.64,1.21-1.56,1.38C2150.29,1340.08,2151.4,1341.85,2152.47,1343.63Z" style="fill: #c2a57e"/>
      <path d="M2257.7,1409.07c80.91,111.14-32,98.36-71.53,98.36s-71.54-44-71.54-98.36,32-98.37,71.54-98.37S2225.73,1365.15,2257.7,1409.07Z" style="fill: #c2a57e"/>
    </g>
    <path d="M1141,1318.5a48.85,48.85,0,0,0-8.4-5.32c-11-5.58-22.18-10.64-32.88-16.64-4.75-2.66-9.84-6.36-12.34-10.93-2.64-4.81-5.84-6.42-10.5-7.31-60.61-11.47-121.17-23.22-181.83-34.44-72.58-13.41-145-27.6-213-57.46-24.53-10.78-47.7-24.64-71.47-37.15a73.45,73.45,0,0,1-6.55-4.49c21,7.1,41.46,13.46,61.52,20.9,29.8,11,61,15.21,92.12,19.72,78.05,11.29,156.2,22.19,231.71,46.11,21.45,6.79,42.54,14.79,63.61,22.7,12.71,4.77,25.67,6.6,40,6.27-1-7.85-6.17-11.55-12.2-13.56-9.2-3.06-18.87-4.77-28-8a196.8,196.8,0,0,1-24.38-10.68c-2.37-1.2-3.71-4.43-5.52-6.73,2.79-1.44,5.49-3.91,8.37-4.12,9.43-.71,19-.13,28.39-1,5-.44,9.74-2.83,14.61-4.33-3.62-3.26-6.84-7.19-11-9.63-8.34-5-17.25-9-25.76-13.71a42.86,42.86,0,0,1-9.81-7.22c-6.53-6.65-6.58-12.24-.85-19.7,5.49-7.15,4.81-12.53-2.87-17.15a47.91,47.91,0,0,0-12.73-5.12c-26-6.64-52.15-12.95-78.17-19.61a19.54,19.54,0,0,1-8.41-4.75c-13.86-13.59-27.4-27.5-41.26-41.09-1.66-1.62-4.52-2.17-6.93-2.83C828,1058.16,783.43,1037,744,1005.54a20.29,20.29,0,0,1-5.69-6.14c9.78,4.74,19.22,10.39,29.38,14,35.15,12.61,70.58,24.46,105.86,36.71,25.7,8.94,49.73,21.15,73.57,34.38,14.55,8.08,32.47,10.1,48.92,14.69,1.2.33,2.76-.65,5.77-1.44-2.83-3.51-4.69-6.38-7.09-8.7-5.69-5.53-11.75-10.68-17.4-16.26-1.24-1.23-2.31-4-1.73-5.31s3.48-2.34,5.14-2.08c9.58,1.54,19.14,3.27,28.62,5.35,22.49,4.94,44.93,10.16,67.42,15.14,2.55.57,5.26.37,7.89.53l.77-2c-3.18-2.23-6.19-4.74-9.55-6.65-21.82-12.41-43.82-24.49-65.46-37.19-4.23-2.47-7.15-7.16-10.68-10.83,4.67-2,9.19-4.6,14-6s10.22-1.15,15-2.68c5.75-1.83,6.22-5.46,1.92-9.72a18,18,0,0,0-3.65-2.79c-21.42-12-42.42-24.9-64.4-35.8-50.45-25-101.08-49.73-152.24-73.26-24.58-11.3-50.53-19.64-75.87-29.3-2.46-.94-5-1.7-7.5-2.54.2-1.07.4-2.13.59-3.2,15.81,1.73,31.79,2.51,47.39,5.36,35.39,6.47,67.43,22.2,99.37,38,13.77,6.8,27.48,13.74,41.25,20.56,5.38,2.66,17.92,1,21.19-3.79,1.46-2.12,1.32-6.9-.15-9.11-2-3-5.84-4.84-9.09-6.85-26.34-16.33-52.75-32.55-79.07-48.91-3.48-2.16-6.56-5-9.82-7.46l1-2.61c4.89.42,9.83.53,14.66,1.33,9.34,1.56,18.56,3.94,27.94,5.06,3.28.39,6.89-1.93,10.35-3-1.16-3.2-1.62-7-3.62-9.5-6.78-8.67-13.88-17.13-21.35-25.21-2.64-2.85-6.49-4.88-10.15-6.44-38.72-16.52-73.69-38.39-100-71.9-9.52-12.12-17.07-25.8-25.52-38.76l2.22-2.36c6.4,2.84,13.4,4.8,19.1,8.68q32,21.76,63.31,44.67c7.66,5.58,14.91,10.8,24.6,13.11,13.89,3.31,27.25,8.8,40.95,13,4.15,1.28,8.66,1.42,13,2.08l1.54-2.36c-2.39-3.3-4.43-6.93-7.22-9.84C870.25,748,850.75,728,831.3,707.92a69.44,69.44,0,0,1-5.22-5.64c-5.88-7.64-3.3-13.83,6.25-15,5.25-.63,12.74.32,13.12-6.19.25-4.4-4.11-10.18-8-13.52-17.66-15.21-35.84-29.83-54-44.51-2.28-1.85-5.17-3.61-8-4-29.82-4.23-56-17.27-81.44-32.57Q654,562.35,613.54,538.72c-5-2.92-10.55-4.85-17.95-8.19,19.31-2.48,36-.25,51.56,6.21,17.44,7.23,34.25,16,51,24.76,15.88,8.24,31.38,17.24,46,25.34l12.06-8L717,555.27l.33-1.46h31.2l-26.8-32.18c2,0,2.92.23,3.7,0,4-1.39,8-2.91,12-4.38-2.14-3.33-3.52-7.9-6.57-9.77-11.54-7.11-23.83-13-35.4-20.06-4.63-2.83-8.12-7.52-12.13-11.37l2.16-3.78,34.38,11,1.27-1.89c-5.27-11.49-16.81-18.16-24.28-29.07l12-.55c-16.72-8.16-32-16.78-42.19-31.72.36-.78.72-1.56,1.09-2.34l18.43,4.56,1.27-1.49c-1.41-2.06-2.57-4.36-4.28-6.14-8.7-9-17.77-17.76-26.22-27-4.28-4.7-9.87-8-11-16.07-.68-4.94-8.31-8.91-12.19-14.25l13.56,5.25c-25.75-33.58-62.49-53-93-77.68-3.77,4.45-6.28,8.68-9.9,11.47-20.89,16.12-42,31.89-63.1,47.8-2.16,1.63-4.22,3.39-4.91,3.94,3.27,1.59,8.05,2.35,9.68,5,3.65,6,4,13.42-1.5,18.52q-18.48,17.24-38.18,33.15c-5.87,4.75-13,8-19.95,12.15h13.14l-75.34,81.95L366,501h39.6c-11.64,13.86-22.95,27.34-34.27,40.81-6.77,8-13.4,16.19-20.41,24-3.29,3.68-7.34,6.69-10.16,9.21-2.36,4.51-4.39,8.37-7.47,14.24h47.87l.33,2.83-70.86,26.17.78,3.2,49.91-3.91,1.32,2.16c-7.58,5.07-14.53,11.86-22.85,14.88-19.94,7.21-40.54,12.62-60.85,18.84-3.23,1-6.33,2.44-9.5,3.67.16.88.31,1.76.46,2.65l44.23-2-5.26,6.24,233.52-72c-17.77,15.55-36.45,27.51-56.09,38-41.53,22.31-86.58,35.48-131,50.28C340,685.54,324.81,691,309.59,696.26c-8.2,14.6-24.43,20.07-35.56,31.32a11.47,11.47,0,0,0-3.45,6.59L283,733c-10,10.31-19,19.58-28.05,28.87-4.82,5-9.83,9.77-14.32,15-1.62,1.88-2,4.84-2.91,7.3,2.64.35,5.56,1.61,7.88.9,14.44-4.39,28.73-9.29,43.12-13.86a48.22,48.22,0,0,1,11.19-2.42c5-.33,6.61,2.37,4.1,6.79a46.83,46.83,0,0,1-5,6.75q-25.54,30.26-51.12,60.47a72.36,72.36,0,0,0-6.2,7.82c-3.55,5.58-1.69,9.77,5,9.76a80.61,80.61,0,0,0,18.93-2.65c47.22-11.55,94.54-22.78,141.52-35.25,19.71-5.23,38.69-13.21,58-20,1.37-.48,2.72-1,4.09-1.53.33.58.65,1.16,1,1.73-9.86,6.54-19.43,13.56-29.62,19.54-37.45,22-78.61,34.45-120,46.31-26.32,7.54-53,14.15-78.62,23.66-15.33,5.7-29.18,15.71-43.08,24.74-6.85,4.45-5.25,10.62,2.62,13.6,3.81,1.44,7.94,2.11,11.66,3.74,6.42,2.81,7.16,7.81,1.93,12.54a46.27,46.27,0,0,1-7.61,5.16c-31.75,18.77-63.6,37.36-95.18,56.39-3.95,2.37-6.53,7-9.74,10.61,4.41,2,8.67,4.48,13.27,5.86,3.6,1.08,7.8.19,11.37,1.32,3.34,1.06,6.2,3.63,9.27,5.53-2,2.73-3.81,5.72-6.19,8.1-1.76,1.75-4.3,2.74-6.53,4q-31.11,17.55-62.23,35.11c-3.41,1.94-6.56,4.34-9.83,6.54.27.82.54,1.64.8,2.46,4.34-.6,8.75-.89,13-1.85,26.22-5.93,52.35-12.23,78.63-17.87,5.11-1.09,10.72.19,16.1.38-2.94,4.13-5.49,8.63-8.92,12.32-5.29,5.68-11.17,10.81-16.8,16.17l1.26,3c3.72-.18,7.63.35,11.12-.65,27.06-7.73,53.74-17.06,81.13-23.33,25.32-5.8,46.58-19.24,68.83-31,25.92-13.72,52.28-26,81.82-29.65,4.67-.58,9.41-.67,16.41-1.13-2.7,2.06-3.38,2.71-4.18,3.17-48.56,27.56-97.24,54.86-150.68,72.34-5,1.63-9.67,5.83-13.2,9.94-12.5,14.57-27.83,22.5-46.91,25.82-19.6,3.4-38.72,9.63-58,15a39.5,39.5,0,0,0-12.34,5.82c-5.16,3.72-5.6,8.77-1.81,14.11,7.45,10.49,6.15,18.54-5.16,25.31-10.31,6.17-21.34,11.11-31.88,16.89-3.57,2-6.62,4.85-9.91,7.31l.6,2.55c3.27.83,6.52,2.22,9.82,2.38,10.74.52,21.52.29,32.25,1,3.14.21,6.13,2.66,9.19,4.08-2.1,2.4-3.86,5.23-6.34,7.12-11.41,8.7-25.6,9.75-38.72,13.82-6.52,2-13.26,4.28-18.84,8-2.78,1.86-4.5,7.35-4.3,11.08.25,4.8,4.63,6.35,9.57,6.82,44.37,4.22,88.69,8.92,133.06,13,46.53,4.31,93,6.42,139.26-3.55,43.81-9.45,80.82-30.08,109.14-65.33a5.14,5.14,0,0,1,3.64-2.21c-1.78,2.86-3.46,5.78-5.34,8.57-23.55,35-56.61,57.2-95.75,71.15-42.92,15.3-87.63,20.79-132.76,22.85-57.33,2.61-114.71,4.14-172.06,6.38-11.14.43-22.25,2-33.37,3,0,1,0,1.89,0,2.84,7.29,0,14.6-.15,21.89,0,7.91.21,15.84.52,23.72,1.27,2,.19,5.3,2.31,5.26,3.42a9.13,9.13,0,0,1-3.54,6c-3.67,2.73-7.94,4.65-11.82,7.13-2.47,1.59-4.67,3.59-7,5.4l.51,2.74c4.74,0,9.54.5,14.21-.09,16-2,32-4.45,47.92-6.71a9.48,9.48,0,0,1,4.68.33l-49.1,16.72.72,3.67c4.43,0,8.87.28,13.27,0,22.48-1.68,44.94-3.65,67.43-5.23,7.11-.49,14.28-.07,21.42-.07l.9,3.51c-3.51,2.58-6.77,5.59-10.55,7.67-14.36,7.89-28.9,15.47-43.34,23.2a17.2,17.2,0,0,0-6.08,5l21.85-5.27-3.75,4.72a10.14,10.14,0,0,0,2.22,0c23.08-5.81,46.14-11.72,69.27-17.34,2.63-.64,5.66.37,8.51.61-.36,3.11.12,6.67-1.26,9.23-3,5.6-7.29,10.53-10.46,16.08-1.22,2.12-1.83,5.65-.86,7.63.74,1.5,4.43,2.25,6.76,2.17,15.79-.51,31-3,45.94-9.15,22.48-9.22,45.56-17,68.47-25.12,2.56-.91,7.16-1.45,8.21-.12a14.11,14.11,0,0,1,2.37,9.66c-.86,6.56-3,13-4.32,19.47-1.66,8,1.69,11.78,9.65,11.43,14.6-.66,28.47-3.23,41.63-10.52,14.3-7.93,29.45-14.34,44.33-21.2,2.55-1.17,5.59-1.26,8.4-1.85.33,3.19,1.54,6.59.84,9.54-2.85,11.94-6.29,23.75-9.5,35.61-.47,1.73-1,3.45-1.33,5.2-1.67,8.43,1.55,10,10,10,17.29-.14,30.13-9.81,43.91-17.77,13.47-7.78,26.87-15.69,41.52-24.26v36.17c3.61.11,7.23.32,10.84.62,2.21,0,5.52,2.21,7.73,3.32,8.83,1.1,18.76-2.21,24.28,1.1,27,18,55.72,23,84.61,24.08v-52.66c2.54,1.09,4.34,1.39,5.47,2.42,8.64,8,19,7.71,29.59,6.44,6-.72,8.81-4.75,9.67-10.35.82-5.31,1.37-10.67,2.16-16,2.25-15.11,9-19.43,23.43-14.65,22.6,7.47,45,15.69,67.73,22.59,8.33,2.52,17.53,3,26.32,3,9.89-.1,12.92-4.72,11.47-14.56-.45-3-1.17-6-1.56-9.08-1.22-9.54,3.93-14.48,13.17-11.91,10.84,3,21.34,7.33,32.24,10a98.7,98.7,0,0,0,23.36,2.76c8.48,0,11.33-4.74,8.82-12.81-1.14-3.67-3.17-7.14-3.76-10.86-.63-4-1.64-10.11.4-11.79,2.79-2.29,8.67-2.54,12.6-1.43,14.52,4.08,28.78,9.1,43.16,13.73,15.83,5.1,31.63,10.32,47.56,15.11,4.85,1.45,10.07,1.65,15.13,2.42l1.48-3.18c-2.11-2.73-4-5.7-6.39-8.15-7.69-7.89-15.77-15.41-23.26-23.48-2-2.13-4-6.4-3.09-8.48s5.4-4.33,8.12-4.1c14.26,1.21,28.48,3,42.68,4.91,29.95,4,59.87,8.27,89.82,12.28,3.64.48,7.41.06,11.12.06l1-2.84c-4-2.68-8.15-5.12-11.89-8.11-4-3.2-7.55-6.91-11.3-10.4,4.86-1.66,9.64-4.36,14.6-4.76,10.45-.84,21-.39,31.49-.68a25.85,25.85,0,0,0,8.22-1.54C1144,1323.91,1144.28,1321.11,1141,1318.5Z" style="fill: #c0444d"/>
    <path d="M1452.24,1354.4a44.31,44.31,0,0,0-7.61-4.83c-9.92-5-20.09-9.64-29.79-15.07-4.3-2.41-8.91-5.77-11.18-9.9-2.39-4.36-5.29-5.82-9.52-6.62-54.91-10.4-109.77-21-164.72-31.2-65.76-12.16-131.37-25-193-52.07-22.22-9.76-43.22-22.31-64.75-33.65a66,66,0,0,1-5.94-4.07c19,6.43,37.57,12.2,55.74,18.93,27,10,55.23,13.79,83.46,17.87,70.71,10.23,141.51,20.11,209.92,41.78,19.44,6.15,38.53,13.4,57.63,20.57,11.51,4.32,23.25,6,36.28,5.67-1-7.11-5.59-10.46-11-12.28-8.34-2.78-17.1-4.33-25.4-7.2a179.65,179.65,0,0,1-22.09-9.68c-2.14-1.09-3.35-4-5-6.1,2.52-1.3,5-3.54,7.58-3.74,8.54-.63,17.19-.11,25.71-.88,4.5-.4,8.84-2.56,13.24-3.93-3.28-3-6.19-6.51-9.91-8.72-7.57-4.5-15.64-8.14-23.34-12.42a38.73,38.73,0,0,1-8.89-6.54c-5.92-6-6-11.09-.77-17.85,5-6.47,4.36-11.34-2.6-15.53a43.68,43.68,0,0,0-11.54-4.64c-23.58-6-47.24-11.73-70.82-17.77a17.67,17.67,0,0,1-7.61-4.3c-12.56-12.31-24.83-24.91-37.39-37.22-1.49-1.47-4.09-2-6.27-2.57-44-11.9-84.36-31-120.1-59.57a18.44,18.44,0,0,1-5.15-5.57c8.86,4.29,17.41,9.42,26.62,12.72,31.85,11.42,63.94,22.16,95.9,33.26,23.29,8.09,45.06,19.16,66.66,31.15,13.18,7.31,29.41,9.15,44.32,13.3,1.08.3,2.5-.58,5.22-1.3-2.56-3.18-4.25-5.78-6.42-7.88-5.16-5-10.65-9.68-15.76-14.73-1.13-1.11-2.1-3.64-1.57-4.82s3.15-2.11,4.65-1.87c8.68,1.39,17.34,3,25.93,4.84,20.38,4.48,40.71,9.2,61.08,13.72,2.31.51,4.77.33,7.15.48.23-.62.47-1.24.7-1.85-2.88-2-5.61-4.3-8.66-6-19.76-11.24-39.69-22.19-59.3-33.69-3.83-2.24-6.48-6.49-9.67-9.81,4.22-1.86,8.32-4.17,12.71-5.46s9.27-1,13.62-2.43c5.21-1.66,5.64-5,1.74-8.8a15.62,15.62,0,0,0-3.31-2.53c-19.4-10.89-38.43-22.57-58.34-32.44-45.7-22.68-91.57-45.05-137.92-66.37C1130.46,964.52,1107,957,1084,948.21c-2.24-.85-4.53-1.53-6.8-2.3l.54-2.89c14.32,1.56,28.79,2.27,42.92,4.85,32.07,5.86,61.09,20.11,90,34.4,12.48,6.16,24.9,12.44,37.37,18.62,4.87,2.41,16.24.86,19.2-3.44,1.32-1.92,1.19-6.25-.14-8.25-1.8-2.7-5.29-4.38-8.23-6.21-23.86-14.79-47.79-29.48-71.64-44.31-3.14-1.95-5.94-4.49-8.89-6.75l1-2.37c4.43.38,8.91.48,13.28,1.21,8.46,1.41,16.81,3.57,25.31,4.58,3,.35,6.25-1.75,9.38-2.73-1-2.9-1.47-6.3-3.28-8.61-6.15-7.85-12.57-15.52-19.34-22.84-2.39-2.59-5.88-4.42-9.2-5.84-35.07-15-66.76-34.78-90.59-65.13-8.62-11-15.46-23.37-23.11-35.12.66-.72,1.33-1.43,2-2.14,5.8,2.57,12.14,4.35,17.31,7.86q29,19.73,57.35,40.47c6.94,5.06,13.51,9.79,22.29,11.88,12.59,3,24.69,8,37.1,11.79,3.77,1.16,7.85,1.29,11.78,1.88.47-.71.93-1.42,1.39-2.13-2.16-3-4-6.29-6.53-8.92-17.53-18.26-35.2-36.37-52.81-54.54a61.55,61.55,0,0,1-4.73-5.11c-5.33-6.91-3-12.53,5.66-13.56,4.76-.57,11.54.29,11.88-5.6.23-4-3.72-9.23-7.23-12.25-16-13.79-32.46-27-48.87-40.33a16,16,0,0,0-7.23-3.63c-27-3.84-50.77-15.65-73.78-29.51q-36.34-21.88-73-43.29c-4.51-2.65-9.56-4.4-16.26-7.42,17.5-2.25,32.61-.23,46.71,5.62,15.8,6.55,31,14.54,46.24,22.43,14.39,7.47,28.43,15.62,41.7,23l10.93-7.21L1068,662.94l.3-1.33h28.27l-24.29-29.15c1.8,0,2.65.21,3.36,0,3.63-1.26,7.23-2.63,10.84-4-1.94-3-3.19-7.15-6-8.85-10.46-6.43-21.59-11.77-32.08-18.17-4.19-2.56-7.35-6.81-11-10.3l2-3.42,31.14,10,1.15-1.71c-4.77-10.41-15.23-16.45-22-26.33l10.9-.51c-15.15-7.39-29-15.2-38.22-28.73l1-2.12,16.69,4.13,1.16-1.35a42.39,42.39,0,0,0-3.88-5.56c-7.88-8.21-16.1-16.09-23.75-24.5-3.88-4.26-8.95-7.21-10-14.56-.62-4.47-7.53-8.07-11-12.91l12.28,4.76c-23.33-30.43-56.62-48-84.22-70.38-3.41,4-5.68,7.87-9,10.4-18.93,14.6-38.1,28.89-57.18,43.3-2,1.47-3.82,3.07-4.44,3.57,3,1.44,7.29,2.13,8.77,4.55,3.31,5.44,3.59,12.17-1.36,16.78q-16.75,15.62-34.59,30c-5.32,4.31-11.76,7.23-18.08,11h11.91l-68.26,74.25,1.55,2H786l-31.05,37c-6.13,7.28-12.13,14.67-18.48,21.76-3,3.33-6.66,6.06-9.21,8.34-2.14,4.09-4,7.59-6.77,12.9h43.37l.3,2.57-64.2,23.71c.24,1,.47,1.93.71,2.9l45.21-3.55,1.2,2c-6.86,4.6-13.16,10.75-20.7,13.48-18.07,6.54-36.73,11.44-55.13,17.07-2.93.9-5.74,2.21-8.6,3.33l.41,2.39,40.07-1.78-4.77,5.65,211.56-65.18c-16.09,14.08-33,24.91-50.81,34.47-37.63,20.21-78.44,32.14-118.68,45.55-13.85,4.61-27.6,9.54-41.39,14.32-7.43,13.22-22.13,18.18-32.22,28.37a10.46,10.46,0,0,0-3.12,6l11.23-1.09-25.43,26.15c-4.36,4.5-8.9,8.85-13,13.6-1.46,1.71-1.79,4.39-2.63,6.62,2.39.31,5,1.45,7.14.81,13.08-4,26-8.42,39.06-12.56a43.94,43.94,0,0,1,10.14-2.19c4.51-.3,6,2.15,3.71,6.15a41.46,41.46,0,0,1-4.57,6.12Q666.2,896,643,923.41a66.62,66.62,0,0,0-5.62,7.08c-3.21,5.06-1.53,8.86,4.51,8.85a74,74,0,0,0,17.15-2.4c42.78-10.46,85.65-20.64,128.21-31.94,17.86-4.74,35.05-12,52.54-18.08,1.25-.43,2.48-.92,3.71-1.39l.89,1.57c-8.93,5.93-17.6,12.28-26.83,17.7-33.93,19.92-71.22,31.21-108.73,42-23.84,6.83-48,12.81-71.22,21.43-13.89,5.16-26.44,14.24-39,22.41-6.21,4-4.76,9.63,2.37,12.33,3.45,1.31,7.19,1.91,10.56,3.38,5.82,2.55,6.49,7.08,1.75,11.37a41.92,41.92,0,0,1-6.89,4.67c-28.76,17-57.62,33.84-86.23,51.08-3.58,2.16-5.91,6.36-8.82,9.62,4,1.81,7.85,4.06,12,5.31,3.26,1,7.07.17,10.31,1.2,3,1,5.62,3.28,8.4,5-1.85,2.47-3.45,5.18-5.61,7.33-1.6,1.59-3.9,2.48-5.92,3.62-18.79,10.6-37.61,21.15-56.37,31.8-3.1,1.76-5.95,3.94-8.91,5.93.24.74.48,1.48.73,2.22,3.93-.54,7.92-.79,11.77-1.67,23.75-5.37,47.43-11.08,71.24-16.19,4.62-1,9.71.18,14.58.34-2.66,3.75-5,7.83-8.08,11.17-4.79,5.15-10.12,9.79-15.22,14.65l1.14,2.73c3.37-.16,6.92.32,10.07-.58,24.52-7,48.7-15.46,73.51-21.14,22.93-5.25,42.19-17.43,62.35-28.1,23.49-12.43,47.37-23.59,74.13-26.87,4.24-.52,8.52-.6,14.87-1-2.45,1.86-3.07,2.46-3.79,2.87-44,25-88.09,49.71-136.51,65.54-4.52,1.48-8.76,5.28-12,9-11.32,13.2-25.21,20.38-42.5,23.38-17.75,3.09-35.08,8.74-52.5,13.56a35.82,35.82,0,0,0-11.19,5.28c-4.67,3.36-5.07,7.94-1.64,12.78,6.75,9.5,5.58,16.79-4.67,22.93-9.34,5.58-19.33,10.06-28.89,15.3-3.23,1.77-6,4.39-9,6.62l.54,2.31c3,.75,5.91,2,8.9,2.15,9.73.48,19.5.27,29.21.93,2.85.19,5.56,2.41,8.33,3.7-1.9,2.17-3.5,4.73-5.75,6.45-10.33,7.88-23.19,8.83-35.07,12.51-5.91,1.83-12,3.88-17.07,7.27-2.51,1.68-4.07,6.66-3.9,10,.23,4.35,4.2,5.75,8.68,6.18,40.19,3.82,80.34,8.08,120.54,11.8,42.16,3.9,84.3,5.81,126.17-3.22,39.68-8.56,73.22-27.25,98.87-59.19a4.72,4.72,0,0,1,3.3-2c-1.61,2.6-3.13,5.24-4.84,7.77-21.33,31.69-51.28,51.82-86.74,64.46-38.88,13.86-79.39,18.83-120.28,20.7-51.94,2.36-103.92,3.75-155.87,5.77-10.1.4-20.16,1.79-30.24,2.72l0,2.57c6.61,0,13.22-.14,19.83,0,7.17.19,14.35.48,21.49,1.16,1.77.17,4.81,2.08,4.76,3.1a8.21,8.21,0,0,1-3.2,5.45c-3.33,2.48-7.2,4.22-10.71,6.47-2.24,1.43-4.23,3.25-6.34,4.89.15.83.31,1.65.46,2.48,4.29,0,8.65.45,12.87-.08,14.5-1.84,28.95-4,43.42-6.08a8.53,8.53,0,0,1,4.24.3l-44.49,15.15.66,3.32c4,0,8,.26,12,0,20.37-1.52,40.72-3.31,61.09-4.74,6.44-.45,12.93-.07,19.4-.07l.82,3.19c-3.18,2.34-6.14,5.06-9.56,7-13,7.15-26.18,14-39.27,21a15.71,15.71,0,0,0-5.5,4.49l19.8-4.78-3.41,4.28a9.57,9.57,0,0,0,2,0c20.91-5.26,41.8-10.62,62.75-15.71,2.39-.58,5.14.33,7.72.56-.33,2.81.1,6-1.15,8.35-2.75,5.08-6.61,9.55-9.48,14.57-1.1,1.93-1.65,5.12-.77,6.91.66,1.36,4,2,6.12,2,14.31-.46,28.11-2.74,41.62-8.28,20.36-8.36,41.27-15.39,62-22.77,2.32-.82,6.49-1.31,7.44-.1a12.78,12.78,0,0,1,2.15,8.74c-.78,5.95-2.68,11.74-3.91,17.65-1.51,7.21,1.52,10.67,8.73,10.35,13.23-.6,25.8-2.92,37.72-9.53,13-7.19,26.69-13,40.17-19.21,2.3-1.06,5.06-1.14,7.61-1.67.29,2.89,1.39,6,.75,8.64-2.58,10.82-5.69,21.52-8.6,32.26-.43,1.57-.89,3.13-1.21,4.71-1.51,7.64,1.4,9.11,9.08,9,15.67-.12,27.3-8.89,39.78-16.09,12.21-7,24.35-14.22,37.62-22V1466c29.17-1,57.55-2.54,86.82,2.18a217.69,217.69,0,0,0,28.65,1.85v-24.74c2.3,1,3.93,1.25,4.95,2.19,7.83,7.2,17.24,7,26.81,5.84,5.43-.65,8-4.31,8.76-9.38.74-4.82,1.25-9.67,2-14.48,2-13.69,8.12-17.61,21.22-13.28,20.48,6.77,40.74,14.21,61.37,20.46,7.55,2.29,15.88,2.76,23.84,2.68,9-.08,11.71-4.27,10.39-13.18-.4-2.75-1.06-5.47-1.41-8.23-1.11-8.64,3.56-13.11,11.93-10.79,9.82,2.73,19.33,6.64,29.21,9.11a89.11,89.11,0,0,0,21.16,2.49c7.69,0,10.27-4.29,8-11.6-1-3.32-2.87-6.46-3.41-9.84-.57-3.61-1.48-9.16.37-10.68,2.53-2.08,7.85-2.3,11.41-1.3,13.16,3.7,26.08,8.25,39.1,12.44,14.35,4.62,28.66,9.35,43.09,13.69,4.39,1.32,9.13,1.5,13.71,2.2.44-1,.89-1.92,1.34-2.88a78.86,78.86,0,0,0-5.79-7.39c-7-7.15-14.29-14-21.08-21.27-1.79-1.93-3.59-5.8-2.79-7.68s4.89-3.93,7.35-3.72c12.93,1.1,25.81,2.73,38.67,4.45,27.14,3.64,54.24,7.49,81.37,11.12,3.31.44,6.72.06,10.08.06.31-.86.63-1.71.94-2.57-3.6-2.43-7.39-4.64-10.77-7.35-3.61-2.9-6.84-6.26-10.24-9.42,4.41-1.5,8.73-4,13.23-4.31,9.46-.77,19-.35,28.53-.62a23.23,23.23,0,0,0,7.44-1.39C1454.9,1359.29,1455.18,1356.76,1452.24,1354.4ZM835.53,541c-.27-.82-.53-1.64-.8-2.46,4-1.39,7.91-3.72,12-4,9-.57,17.44-1.5,22.43-10.46.55-1,1.92-1.5,3.4-2.59C869.54,535.44,858,541.28,835.53,541Z"/>
  </g>
</svg>
