<svg id="Layer_1" data-name="Layer 1" xmlns="http://www.w3.org/2000/svg" viewBox="0 0 839.54 256.37">
  <title>Fugle_1</title>
  <g>
    <path d="M603.26,167.91a83.59,83.59,0,0,1-3-46.29,28,28,0,0,0-3-20.47c-4.7-8.51-11-15.79-17.4-23.08C570.15,66.91,559,57,550.54,44.72c-3.36-4.83-3.33-4.85-7.77-.67-.36.34-.75.81-1.19.89-5.24,1-6,5.28-5.55,9.21.82,7.57-3.67,14.43-2.38,22,.1.56-.39,1.25-.66,1.84-2.06,4.48-1,8.46,2,12s6.41,7.23,9.44,11c2,2.48,4.2,5.51,3,8.62-2.12,5.47-.9,10.41.79,15.5a16,16,0,0,1,.62,7.42c-.93,6.06.54,11.5,3.46,16.77,2.28,4.1,3.21,8.67.92,12.92-3,5.65-5.92,10.35,1.35,15.59,2,1.47,2.95,1.92,4.87,1.31,5.66-1.79,11.37-3.17,17.41-2.32-16.19,3.41-29.62,14.29-46.12,16.88-2.62.41-5.57,1.91-6,4.66-.64,3.76,1.6,7.71,2.69,10.91,1.7,5,7.56,4.14,12.48.63,7-5,14.18-10.2,24.17-5.32-3.91,3.18-2.37,5.13.9,6.86,2.15,1.14,3.36,2.61,1,4.93-2,2,0,3.81,1.31,4a11.64,11.64,0,0,0,6.89-1.08c5.94-3.16,2.25-7.18.56-11.73l3,.54a86.46,86.46,0,0,0,52.81-6.47c-3.44-6.76-7.5-12.85-8.51-20.11C612.84,182.47,606.14,175.74,603.26,167.91Zm-31.3,43c-2.7,1.42-4.53-.1-6.47-2.26,2.56-.83,4.82-2.05,7,.13A1.4,1.4,0,0,1,572,210.88Z"/>
    <path d="M645.16,179.84c-.47-1.61-3-1.82-4.86-2.11a19.49,19.49,0,0,0-11.68,1.8,20.38,20.38,0,0,1-6.61,1.94c1,7.26,5.07,13.35,8.51,20.11a100.91,100.91,0,0,0,9.59-5c4.81-2.86,7.77-9.49,15.36-7C651.85,186,646.7,185.07,645.16,179.84Zm-6.81,6.69a1.72,1.72,0,0,1-1.87-1.79,1.83,1.83,0,0,1,2.12-2.06c1.11.12,1.46,1.11,1.76,1.85C640.07,185.81,639.46,186.53,638.35,186.53Z"/>
    <path d="M816.68,201.36c.62,4.48-3.16,5.94-5.81,7.76-16,11-33.6,16.56-53.12,15.63-2.6-.13-5.23-.78-8.1.11a16.11,16.11,0,0,0,.69,1.85c1.27,2.39,2.72,5,.93,7.47-2.06,2.83-5.6,3.13-8.77,3.19a2.41,2.41,0,0,1-2-3.93c2.35-2.63,1.53-3.87-1-5.24-2-1-4-2.19-2.43-5,1.14-2-.65-1.69-1.53-2.07-9.65-4.17-17.47.25-24.83,5.66-4.35,3.19-9.38,3.44-12.72-.32-.4-.45-.86-1.47-.66-1.73,2.16-2.8,1.33-4.38-1.62-6-1.54-.85-.06-2.39.85-3.26a17.48,17.48,0,0,1,6.05-3.41,171,171,0,0,0,27-12.79c8.24-5,17.44-7.25,27-8.53-6.22-2.5-12.09-1.1-17.92,1.47-1.65.73-3.57,3.1-5.16,1.08-1-1.3.92-3.25,1.92-4.72s2.16-3,3.21-4.46c2.24-3.19,4.31-6.3-1.13-8.59-1.57-.66-1.93-2.19-1.08-3.81,2.36-4.51,1-8.68-1-12.88-1.75-3.77-3.15-7.7-4.91-11.46-1.28-2.73-.59-5.28.4-7.73,1.46-3.62.52-6.15-2.89-7.82-4.08-2-4.77-4.85-2.17-8.46,1.38-1.91.72-3.35-.6-4.86-2.19-2.47-3.5-4.62-2.8-8.69.67-3.88-1.79-8.3-2.86-12.48-.82-3.18-1.33-5.84,3.65-4,2.55.95,4.4-1,5.89-2.88,2.43-3,4.58-2.5,7,.1,3.13,3.37,6.46,6.56,10.52,10.64.07-3.78.56-6.59,3.69-7.47,2.35-.65,3.69.95,4.87,2.66,5.48-5.24,8-4.68,9.89,2.82,1.68,6.8,2.6,13.79,4.06,21.75a162.26,162.26,0,0,0-14.58-14.83l-1.47,1.49c2.34,2.16,4.77,4.25,7,6.51,6.49,6.49,12.72,13.19,17,21.44A25.29,25.29,0,0,1,779,155.3c-3.21,11.37-2.65,22.62,4.71,32.9,5.8,8.08,6.47,8.58,15.79,4.29,4.15-1.91,8.36-3.4,13-2.56,3,.54,5.42,1.77,5.18,5.45l.09-.06c-.7.55-1.83.89-1,2.15l.08-.14c-2,1.36-1.24,2.75,0,4.14Zm-76.54,24.07c2.09,2.35,4,3.6,6.41,2.47a1.57,1.57,0,0,0,.47-2.5C745,223.61,742.84,224.7,740.14,225.43Z"/>
    <path d="M120.28,222.13c-9.46-8.73-14.54-20.55-23.13-29.44,5.7-3,11-5.83,16.33-8.7a34.69,34.69,0,0,0,3.85-2.27,107.73,107.73,0,0,1-12.16-15.4c-11.13,4.83-23,5-34.89,5.3-12.43.34-24.6,2.47-35.7,8.25A187.17,187.17,0,0,1,7.49,191.23,15.46,15.46,0,0,0,1.09,195c-1.52,1.56-1.55,3.31.52,3.9,3.12.89,2.45,2.16,1.08,4a2,2,0,0,0,.37,2.72c3.42,3.67,8.85,3.7,12.69.09,5.27-4.95,11.89-7.16,18.61-9.15a3.06,3.06,0,0,1,2.86.38c1.29,1,0,1.73-.45,2.45-1.82,3.29-.8,6.11,1.35,8.73a22.78,22.78,0,0,0,9.31,6.5c1.91.78,3.17,1.62,3.7,4,1.3,6,3.22,6.9,9.26,5.47,1-.24,1.49-.86,2.24.58,3.73,7.14,5.06,7.72,14.32,6.78-.4,4.38.47,8.51,4.59,9.27,5.19,1,7.85,4.12,10.45,8a14.84,14.84,0,0,0,5.59,4.88c2.42,1.23,5,1.66,6.91-.48s3-1.52,4.87-.28c3.89,2.55,7.87,3,11-1.27,1.47-2,2.77-.85,4.3-.41,4.62,1.35,6.2.32,5.85-4.19C129.76,237.63,127.23,228.54,120.28,222.13ZM93.72,189.78c0-.1,0-.18-.06-.27-5.4-5.31-12-1.77-18.09-2.22a34.48,34.48,0,0,1,11.57-3c3.66-.25,5.92,1.71,6.52,5.25l.12.11.21,0,.69-.36.14.43-.83-.07Z"/>
    <path d="M93.66,184.51c0,.09,0,.17.06.27l.27-.14-.21,0Z"/>
    <path d="M462.12,174.21c-.4.14-.8.28-1.2.44a30.42,30.42,0,0,1-15.18,2.06c-1.3-.16-2.43-.19-3-1.91-1.54-4.45-4.62-8.06-7.11-12-5.14-8.1-6.93-16-2.12-25.29,5.15-10,1.15-16.81-10-17.83-23.36-2.15-42.43,6.06-56.56,25a29.85,29.85,0,0,0-3.25,6.15c-1.55,3.64,0,4.57,3.46,3.67a20.64,20.64,0,0,0,9.61-5c3.59-3.51,8.59-5.05,12-9.08,0,3-2.07,4.74-2.14,7.24-.06,2.17-.13,4.24,3.11,3.38,1.5-.39,3.24-1.72,4.43.35s-.38,3.48-1.44,4.9c-1.87,2.51-3.8,5.29-1.35,8.07s2.24,5.11,1.1,8.36c-1.7,4.81.42,6.68,5.33,5.35,7.14-1.93,7.14-1.93,11.38-1.09-6.73,1.55-14,2.07-19.6,4.31-9.11,3.63-18.31,6.8-27.63,9.76-2.28.72-4.59,1.71-5.61,3.87-1.52,3.22,2.87,2.7,3.26,4.41s-3.5,3.71-.32,5.79c1,.65,3.13.22,3.58,1,2.58,4.37,5.18,2.33,7.55.13,5.31-4.89,11.9-6.58,18.68-7.59,4.62-.69,7.18,2.34,5.93,6.39-.75,2.41,1.06,3.3,2.65,4.15,2.22,1.19,3.59,2.49,1.7,5-1.49,2-.79,4.22,1.51,4.28,3.13.08,6.37-.24,8.56-2.83s.91-5.22-.6-7.38c-1.67-2.41.15-2.66,1.51-3.41,1.62-.89,3.26-.21,4.88,0,12.26,1.29,24.37.47,36-3.62,7-2.45,14.13-4.85,20.24-9C466.39,187.23,463.79,180.88,462.12,174.21ZM389.49,140c5.87-3.15,12.67-3.76,18.78-6.33C403.45,139.84,396,138.48,389.49,140Zm15.36,69.14c-2.47,1-4.39-.15-6.42-2.6,2.75-.55,5-1.77,7,.09A1.56,1.56,0,0,1,404.85,209.1Z"/>
    <path d="M204.82,171.29c-.49-2.86.07-5.15,2.86-6.72,15.5-8.71,30.91-17.61,47.85-23.37A35.72,35.72,0,0,1,265.74,139c4.24-.16,6.24,2,5.81,6.12A73.79,73.79,0,0,1,270,154c-2,8.76-.78,17.15,2.51,25.37a45.24,45.24,0,0,1,3.25,11c.65,5.07-.58,6.14-6.49,5.06,2.66,5.17,5.16,9.89,7.52,14.67,1.57,3.18,2.17,6-3.07,5.46-.81-.08-1.58-.23-2,.84-2.14,5.46-5.6,3.5-8.69,1.24-1.64-1.22-2.71-1.32-4.28-.16-1.08.8-2.85,1.46-3.76.67-5.11-4.5-13.45-4.78-15.43-13.57-2.27-10.14-4.26-20.13-2.76-30.83-5.06.7-10,2.35-14.16-1.73-1.64-1.61-2.17.56-3.09,1.19-1.35.93-3.75,2.68-4.21,1.4-2-5.51-6.56-1.95-9.61-3.31a2.92,2.92,0,0,0-1-.06Z"/>
    <path d="M204.75,171.2c-.46.77-.05,1.28.62,1.48,3.31,1,7.26-.15,9.53,4.19.84,1.6,3.5-.57,5.17-1.6.91-.56,1.51-2.61,3.1-.74,3.24,3.82,7.36,3.05,11.89,1.81-.64,6.52-1.05,12.82.34,19,.62,2.72-1.2,2.23-2.56,2.12-4.61-.36-9.22-.85-14-1.3a3.69,3.69,0,0,0,0,1.34c1.16,2.53,3.18,5.08,1.13,7.86-2.23,3-5.9,2.81-9.2,3.25-1.73.23-1.35-1-1.65-2-.2-.7-1.91-1.12-.36-2.07,3.88-2.37,1.72-3.82-.74-5.21s-4.09-2.78-1.7-5.79c1.17-1.49-.44-3-3.3-2.57-6.8.95-13.37,2.59-18.68,7.42-2.75,2.51-10.5,1.34-12.26-1.79-.22-.41-.46-1.15-.27-1.4,2.21-2.8,1.32-4.49-1.68-5.9-.92-.43-.51-1.89.21-2.65a8.3,8.3,0,0,1,2.72-2.14c10.71-4.09,21.38-8.28,31.73-13.22ZM209,196.85c1.82,2.1,3.73,3.28,6.19,2.29a1.55,1.55,0,0,0,.5-2.51C213.55,194.92,211.33,195.68,209,196.85Z"/>
    <path d="M127.86,164.82c-.47-1.61-3.06-1.81-4.86-2.11a19.49,19.49,0,0,0-11.68,1.8,20.46,20.46,0,0,1-6.61,1.94c1,7.26,2.63,10.88,6.07,17.64,3.23-1.48,8.86-.66,12-2.54,4.82-2.86,7.78-9.49,15.37-7C134.55,171,129.4,170.05,127.86,164.82ZM121,171.51a1.73,1.73,0,0,1-1.87-1.79c0-1.27.73-2.21,2.12-2.06,1.12.12,1.47,1.11,1.77,1.85C122.77,170.8,122.16,171.51,121,171.51Z"/>
    <path d="M482.55,173.14c-.47-1.61-3.06-1.81-4.86-2.11-4.07-.67-7.84.57-11.68,1.8-2.43.78-4.32,1.57-6.23,2.26,1,7.26,3.56,12.24,7,19,3.23-1.48,7.55-2.34,10.71-4.22,4.82-2.86,7.78-9.49,15.37-7C489.24,179.33,484.08,178.38,482.55,173.14Zm-6.82,6.7a1.73,1.73,0,0,1-1.87-1.8,1.84,1.84,0,0,1,2.12-2c1.12.12,1.47,1.11,1.77,1.84C477.46,179.12,476.85,179.84,475.73,179.84Z"/>
    <path d="M829.23,186.44c-.47-1.61-3.06-1.81-4.86-2.11a19.57,19.57,0,0,0-11.68,1.8c-2.32,1.1-4.83,4.74-6.91,5,1,7.26,3.56,9.24,7,16,3.23-1.48,8.24-2,11.39-3.92,4.82-2.86,7.78-9.49,15.37-7C835.92,192.63,830.77,191.67,829.23,186.44Zm-6.81,6.69a1.72,1.72,0,0,1-1.87-1.79,1.82,1.82,0,0,1,2.11-2.05c1.12.11,1.47,1.1,1.77,1.84C824.14,192.42,823.53,193.13,822.42,193.13Z"/>
    <path d="M292.9,169.63c-.47-1.61-3-1.81-4.85-2.11a19.54,19.54,0,0,0-11.68,1.8,20.74,20.74,0,0,1-6.61,2c1,7.25-2.42,13.06,1,19.82,3.23-1.48,13.91-2.85,17.07-4.73,4.81-2.86,7.78-9.49,15.37-7C299.59,175.82,294.44,174.87,292.9,169.63Zm-6.81,6.7a1.73,1.73,0,0,1-1.87-1.8,1.83,1.83,0,0,1,2.12-2.05c1.11.12,1.47,1.11,1.76,1.84C287.81,175.61,287.21,176.33,286.09,176.33Z"/>
  </g>
  <ellipse cx="85.28" cy="187.59" rx="10.5" ry="5.5"/>
  <path d="M253.78,180.09c0,8.29-7,22-22,15-13.27-6.19-29.21-6.91-31-15-2-9,11.86-15,26.5-15S253.78,171.81,253.78,180.09Z"/>
  <ellipse cx="407.78" cy="180.59" rx="15" ry="9.5"/>
  <ellipse cx="404.78" cy="140.09" rx="15" ry="9"/>
  <ellipse cx="575.78" cy="179.09" rx="19" ry="13"/>
  <ellipse cx="755.28" cy="197.09" rx="20.5" ry="12"/>
  <path d="M741.78,118.09c0-7.73,5.59-14,12.5-14s8.86,7.82,13.5,14c6,8-6.6,14-13.5,14S741.78,125.82,741.78,118.09Z"/>
</svg>
